<svg width="619" height="80" viewBox="0 0 619 80" fill="none" xmlns="http://www.w3.org/2000/svg">
<g clip-path="url(#clip0_422_489)">
<path d="M0.575195 79.5416V0.658914H34.5233C36.5868 0.637285 38.6481 0.800274 40.6826 1.14593C42.6762 1.53847 44.6049 2.20868 46.4123 3.13698C48.4163 4.10545 50.182 5.50428 51.5833 7.23367C53.1709 9.35427 54.3335 11.762 55.0067 14.3241C55.9968 17.7983 56.4792 21.3975 56.4391 25.0099C56.4361 27.6674 56.2253 30.3207 55.8089 32.9454C55.4953 35.0595 54.9723 37.1372 54.2475 39.1477C53.6441 40.7486 52.8455 42.2689 51.8697 43.6741C51.0554 44.8813 50.0376 45.9379 48.8617 46.7968C47.7694 47.557 46.6146 48.2231 45.4096 48.7878C44.2499 49.3441 43.0141 49.7254 41.7426 49.9194C40.5251 50.1056 39.3075 50.2489 38.0756 50.3492C36.8933 50.4417 35.7056 50.4417 34.5233 50.3492C32.432 50.2059 28.7936 49.8478 23.7372 49.2749C18.6808 48.7019 15.9449 48.3438 15.6585 48.2006V79.5416H0.575195ZM15.6585 37.0851H33.3344C34.4568 37.1655 35.582 36.9715 36.6127 36.5197C37.6434 36.068 38.5486 35.3722 39.2502 34.4924C40.5776 32.7735 41.2413 29.6509 41.2413 25.1244C41.1649 17.7237 38.5436 14.0233 33.3773 14.0233H15.6585V37.0851Z" fill="#1C2026"/>
<path d="M65.0337 40.6374C65.0337 36.9705 65.1626 33.6043 65.4204 30.5103C65.6248 27.7225 66.0172 24.9516 66.595 22.2167C67.0782 19.9726 67.6903 17.7582 68.4285 15.5846C69.0256 13.7603 69.8586 12.0219 70.9066 10.4136C71.8311 9.04188 72.8607 7.74403 73.9862 6.53178C75.05 5.37177 76.3048 4.40279 77.6962 3.66697C79.0343 2.95951 80.4228 2.35148 81.8502 1.84781C83.3366 1.35799 84.8668 1.01261 86.4195 0.816474C88.1528 0.572964 89.7857 0.386751 91.3327 0.286482C92.8797 0.186214 94.6559 0.114594 96.6613 0.114594C99.2539 0.114594 101.503 0.186214 103.394 0.329455C105.427 0.496424 107.447 0.802724 109.438 1.2462C111.344 1.6359 113.179 2.31203 114.882 3.25157C116.511 4.19606 118.046 5.29448 119.465 6.53178C121.064 7.95131 122.364 9.67509 123.29 11.6025C124.384 13.9113 125.285 16.3069 125.983 18.7645C126.852 21.9061 127.446 25.1172 127.759 28.3617C128.168 32.4598 128.364 36.5763 128.346 40.6947C128.376 45.0719 128.108 49.4461 127.544 53.7869C127.106 57.1463 126.402 60.4656 125.438 63.7135C124.687 66.2813 123.505 68.703 121.943 70.8756C120.639 72.6765 119.075 74.2742 117.302 75.6168C115.524 76.9016 113.537 77.8707 111.429 78.4816C109.197 79.1529 106.903 79.6039 104.582 79.8281C102.319 80.043 99.6836 80.1432 96.6613 80.1432C94.0113 80.1432 91.6908 80.1432 89.7141 79.9284C87.6496 79.7728 85.597 79.4857 83.5691 79.0689C81.672 78.7155 79.8377 78.0831 78.1259 77.1925C76.5044 76.227 74.9958 75.0836 73.6281 73.7833C72.0693 72.3853 70.7908 70.7033 69.8609 68.8272C68.7591 66.6157 67.8717 64.3038 67.211 61.923C66.3874 58.8883 65.8314 55.7872 65.5494 52.6553C65.2056 49.0648 65.0337 45.0588 65.0337 40.6374ZM80.1313 40.6374C80.1313 45.0874 80.2745 48.7353 80.561 51.581C80.7646 54.0525 81.2451 56.4934 81.9934 58.8577C82.5295 60.6512 83.6109 62.2333 85.0874 63.3841C86.4856 64.4035 88.0808 65.1206 89.7714 65.4897C92.0604 65.9264 94.3887 66.1233 96.7186 66.077C101.178 66.077 104.52 65.4276 106.745 64.1289C108.966 62.8397 110.627 60.376 111.702 56.752C112.962 51.4774 113.506 46.0572 113.32 40.6374C113.32 36.5407 113.191 33.0409 112.933 30.1379C112.768 27.6507 112.321 25.1903 111.601 22.8039C111.077 21.159 110.351 19.5856 109.438 18.12C108.66 16.9482 107.554 16.0315 106.258 15.4843C104.942 14.8803 103.541 14.4794 102.104 14.2954C100.298 14.0896 98.4796 13.9987 96.6613 14.0233C94.7991 14.0233 93.2665 14.0233 92.0776 14.1808C90.8046 14.3107 89.5446 14.5455 88.3103 14.8827C87.1394 15.1551 86.0618 15.7334 85.1877 16.5586C83.1124 18.7232 81.7394 21.4643 81.2486 24.4226C80.8441 26.6885 80.5572 28.9739 80.3891 31.2695C80.1742 33.9194 80.074 37.0564 80.074 40.6374H80.1313Z" fill="#1C2026"/>
<path d="M138.215 64.2435V0.658905H153.313V60.0465C153.272 61.1606 153.437 62.2727 153.8 63.3268C153.938 63.7195 154.165 64.075 154.463 64.3657C154.762 64.6563 155.123 64.8743 155.519 65.0027C156.165 65.2394 156.831 65.4168 157.51 65.5327C158.333 65.6234 159.16 65.6617 159.988 65.6473H187.046V79.5416H154.602C143.687 79.5416 138.225 74.4423 138.215 64.2435Z" fill="#1C2026"/>
<path d="M331.619 79.5416L358.248 0.658905H375.437L401.077 79.5416H384.962L379.361 62.0949H353.506L347.777 79.5416H331.619ZM357.488 48.7019H375.866L366.971 20.4834L357.488 48.7019Z" fill="#1C2026"/>
<path d="M392.783 14.5533V0.658905H451.096V14.5533H429.223V79.5416H414.126V14.5533H392.783Z" fill="#1C2026"/>
<path d="M462.126 79.5416V0.658905H477.224V79.5416H462.126Z" fill="#1C2026"/>
<path d="M488.797 39.8926C488.759 35.2704 488.993 30.6501 489.499 26.0555C489.918 22.3092 490.764 18.6231 492.02 15.0689C493.037 11.9988 494.676 9.17087 496.833 6.76097C498.971 4.52685 501.6 2.82035 504.511 1.77619C508.034 0.519339 511.757 -0.0826233 515.497 3.97488e-06C524.734 -0.132836 533.943 1.05862 542.842 3.53805V15.3268C542.197 15.3268 541.581 15.1835 541.008 15.1119L538.974 14.897L536.296 14.6822L533.187 14.4817L529.807 14.3241L526.269 14.0519C525.094 13.9755 523.862 13.9182 522.573 13.88H519.035C517.37 13.8614 515.705 13.9475 514.05 14.1379C512.701 14.3271 511.393 14.7436 510.183 15.3697C508.99 15.9942 507.997 16.9425 507.318 18.1056C506.481 19.5755 505.832 21.1443 505.384 22.7753C504.739 25.1146 504.341 27.515 504.195 29.9373C503.976 32.8022 503.871 36.2161 503.88 40.1791C503.88 49.4611 504.935 56.1456 507.046 60.2328C509.156 64.3199 513.177 66.2966 519.107 66.1629C522.459 66.1629 526.121 66.0913 530.093 65.9481C534.066 65.8048 537.193 65.6616 539.476 65.5184L542.913 65.3035V76.9919C535.895 79.1215 526.78 80.1194 515.569 79.9857C511.22 80.0248 506.922 79.0436 503.021 77.1209C499.527 75.3029 496.64 72.5052 494.713 69.0707C492.555 65.1993 491.05 60.9985 490.258 56.6374C489.24 51.1149 488.751 45.5079 488.797 39.8926Z" fill="#1C2026"/>
<path d="M549.316 79.5416L575.945 0.658905H593.134L618.788 79.5416H602.674L597.073 62.0949H571.204L565.474 79.5416H549.316ZM575.186 48.7019H593.506L584.668 20.4834L575.186 48.7019Z" fill="#1C2026"/>
<path d="M304.246 7.60608L287.959 55.6491H272.733L288.933 7.60608H304.246ZM320.804 0.658905L294.219 79.5416H309.445L336.045 0.658905H320.804ZM261.789 0.658905L235.161 79.5416H250.401L277.03 0.658905H261.789Z" fill="#1C2026"/>
<path d="M223.301 0.658916L210.566 38.3599L193.779 0.587296H177.965L203.748 58.5712L196.672 79.5416H211.913L213.832 73.855L219.233 57.8407L238.527 0.658916H223.301Z" fill="#1C2026"/>
</g>
<defs>
<clipPath id="clip0_422_489">
<rect width="618.156" height="80" fill="white" transform="translate(0.575195)"/>
</clipPath>
</defs>
</svg>
