<?xml version="1.0" encoding="UTF-8"?>
<svg id="_1" data-name="1" xmlns="http://www.w3.org/2000/svg" viewBox="0 0 815.47 1518.07">
  <defs>
    <style>
      .cls-1 {
        fill: #214b93;
        fill-rule: evenodd;
        stroke-width: 0px;
      }
    </style>
  </defs>
  <path class="cls-1" d="M0,.01c14.96,2.01,29.63,6.16,43.32,12.52,13.44,6.12,26.19,13.79,40.13,18.79,15.04,5.5,31.08,7.87,47.05,8.25,21.07.03,42.25.93,63,4.86,16.64,3.18,33.21,8.12,47.73,17.05,15.5,9.83,27.99,25.02,33.02,42.81,6.87,24.51,1.67,50.37-5.4,74.23-3.65,11.04-11.17,20.26-15.17,31.15-4.86,12.69-4.92,26.6-3.28,39.91,11.39.03,22.78-.05,34.17.04,5.25-4.5,9.45-10.02,14.03-15.15,14.52-16.72,29.65-33.29,48-45.92,10.07-6.73,21.5-12.47,33.86-12.72,14.33-.02,28.67,0,43.01-.01,7.63.1,15.48-.62,22.85,1.87,13.29,4.2,24.63,12.74,35.14,21.64,13.75,11.91,26.02,25.39,38.12,38.96,3.19,3.46,6.22,7.09,9.77,10.21.81.82,1.81,1.18,3,1.07,10.84.04,21.68-.02,32.53.02,1.25-16.02-.24-32.68-7.36-47.29-4.31-9.19-9.76-17.97-12.01-27.96-5.58-20.11-9.76-41.3-6.11-62.14,2.4-14.14,9.19-27.45,19.22-37.71,10.45-11.77,24.76-19.36,39.53-24.28,19.5-6.47,40.07-8.99,60.51-10.06,15.88-.89,31.87.21,47.61-2.38,15.14-2.16,29.7-7.45,43.18-14.57,13.97-7.21,28.01-14.63,43.3-18.65,7.45-2.09,15.06-3.48,22.72-4.54-6.79,16.88-13.62,34.52-26.71,47.66-8.86,8.92-19.69,15.62-30.91,21.1-6.57,3.41-13.38,6.37-20.54,8.27-32.35,9.62-66.36,9.78-99.63,13.57-13.07,1.77-26.71,3.75-38.06,10.95-7.59,4.7-12.81,12.83-14.01,21.67-2.26,15.67,1.64,31.43,6.44,46.25,5.53,15.67,12.42,31.25,23.16,44.1,6.15,7.68,16.55,11.57,26.25,9.94,11.29-1.78,21.52-7.17,32.18-10.99,9.77-3.76,20.19-6.2,30.71-5.43-1.44,12.09-7.75,23.24-16.55,31.53-11.51,11.08-26.31,18.19-41.56,22.51-13.3,3.62-27.28,5.26-40.99,3.36,1.51,6.17,3.33,13.09.53,19.17-2.4,4.28-7.59,5.33-11.73,7.18-3.6,1.35-6.59,3.85-8.96,6.82,13.31,18.12,28.28,34.95,44.01,50.98,4.54,4.7,8.92,9.55,13.35,14.36-38.31.93-76.64,1.21-114.95,1.98-30.85.35-61.69,1.09-92.54,1.34,0,90.69,0,181.37.01,272.06,30.81-2.24,61.01-11.59,87.95-26.68,20.04-11.36,38.51-26.01,52.56-44.39,11.28-14.64,19.56-31.75,22.95-49.97,4.12-21.52,1.03-43.96-6.87-64.26-4.29-12.59-11.79-24.58-23.11-31.94-5.86-3.73-13.27-6.1-20.12-3.85-7.32,2.35-13.01,8.63-14.82,16.1-3.43,10.98-4.3,22.62-8.33,33.43-1.69,4.25-4.19,8.93-8.86,10.39-10.14,3.22-21.36,5.36-31.71,1.84-7.2-2.41-12.84-8.33-15.58-15.33-4.06-10.23-3.88-21.68-1.62-32.31,1.72-7.35,4.26-14.95,9.86-20.31,11.82-12.55,28.39-19.68,45.15-22.67,31.19-5.61,64.85,3.18,88.75,24.16,21.43,18.39,34.15,45.22,39.32,72.63,4.34,27.7,2.61,56.63-7.03,83.09-10.61,29.65-30.88,55.07-55.16,74.79-26.23,21.43-56.71,37-88.07,49.44-.04,3.64-.03,7.28-.02,10.93,22.45.53,42.27,14.09,56.77,30.33,24.85,28.07,37.47,65.43,39.51,102.51,2.63,37.83-10.63,75.71-32.99,105.94-22.64,30.82-55.74,53.01-91.77,65.2-.04,4.58,0,9.16-.04,13.74,15.36,2.09,28.97,10.59,40.71,20.3,15.65,13.29,28.48,29.99,37.01,48.7,8.15,17.78,11.99,37.7,9.74,57.22-1.89,17.65-7.04,35.44-17.81,49.81-9.79,13.25-23.87,22.79-39.03,28.91-20.67,8.44-42.84,12.05-64.61,16.45-.94.16-1.83.43-2.69.8-.14,10.38,0,20.78-.06,31.17-18.08,0-36.16,0-54.24-.01v-31.35c-22.83-4.81-46.2-8.21-67.9-17.16-14.47-5.96-28.11-14.83-37.68-27.39-12.77-16.27-17.92-37.15-19.26-57.44-1.69-17.26,1.77-34.79,8.81-50.56,8.18-18.49,20.96-34.76,36.26-47.9,12.29-10.25,26.54-19.28,42.68-21.55-.77-4.55-1.66-9.08-2.43-13.62-31.7-10.89-61.27-29.27-82.83-55.18-15.57-18.49-26.96-40.42-33.5-63.67-8.7-31.01-8.37-64.42.41-95.38,8.1-27.96,23.56-54.47,46.61-72.67,12.36-9.72,27.37-16.86,43.32-17.19,0-3.67,0-7.33,0-10.98-32.37-12.75-63.76-28.99-90.56-51.39-23.24-19.37-42.57-44.04-53.24-72.53-9.93-26.06-12.42-54.55-9.43-82.16,5.41-30.93,21.23-61.01,47.25-79.37,19.64-14.08,44.08-21.04,68.18-20.21,17.39.65,34.96,5.13,49.58,14.78,6.25,4.28,12.41,9.24,16.29,15.87,5.59,10.6,7.27,22.95,6.19,34.79-1.04,9.44-5.16,19.33-13.6,24.41-8.75,5.32-19.71,4.77-29.33,2.55-4.43-1.23-9.42-1.85-12.86-5.18-4.18-4.25-5.94-10.15-7.27-15.8-2.33-9.55-2.83-19.54-6.13-28.84-1.94-5.85-7.21-10.02-12.83-12.1-8.62-2.81-17.7,1.22-24.49,6.47-11.35,8.99-19.65,21.73-23.66,35.62-6.89,21.47-7.94,45.01-1.45,66.71,8.24,28.59,27.91,52.68,51.36,70.42,32.12,24.22,71.41,38.8,111.51,41.78,0-90.68,0-181.36,0-272.03-69.11-.93-138.22-2.05-207.32-3.27,9.04-12.72,20.69-23.21,31.23-34.62,9.1-9.67,17.47-20,25.44-30.6-2.84-4.58-7.95-6.74-12.85-8.36-3.87-1.3-8.24-3.3-9.42-7.59-1.47-5.88.6-11.87,2.4-17.42-16.26,2.3-32.89-.37-48.32-5.64-15.48-5.54-30.46-14.15-40.61-27.36-5.45-7.07-9.1-15.53-10.28-24.39,16.02-1.29,30.99,5.38,45.48,11.25,9.94,3.83,21.21,7.95,31.72,3.76,7.46-2.46,12.73-8.67,17.05-14.93,8.83-12.88,15.07-27.41,19.67-42.29,4.1-13.76,6.91-28.36,4.46-42.68-1.38-8.27-6.41-15.78-13.5-20.25-11.41-7.25-25.09-9.43-38.25-11.16-35.53-4.14-72-3.89-106.35-15.04-6.11-1.71-11.59-4.97-17.08-8.03-11.4-6.48-22.13-14.49-30.3-24.85C13.68,29.93,7.02,14.76,0,.01h0ZM322.16,767.04c-13.59,10.15-23.57,24.7-29.06,40.69-9.09,26.67-7.77,56.7,3.39,82.56,8.27,19.48,20.95,37.23,37.29,50.74,13.11,10.78,29.55,18.99,46.91,18.05.02-69.93.01-139.86.01-209.79-20.64.04-41.86,5.14-58.54,17.75h0ZM434.95,749.28c-.06,69.9.11,139.79-.08,209.69,11.92.98,23.5-3.54,33.6-9.52,15.07-9.19,27.54-22.22,37.47-36.73,10.31-15.18,17.88-32.39,20.87-50.55,3.17-20.99.96-43.01-7.66-62.5-7.29-16.5-19.91-30.72-35.9-39.18-14.75-7.96-31.66-11.1-48.3-11.21h0ZM325.75,1080.56c-13.04,7.34-23.78,19.02-29.13,33.08-6.82,17.25-5.83,36.86.39,54.13,6.57,18.39,19.06,34.72,35.44,45.43,14.13,9.38,31.28,13.68,48.17,12.92.19-52.95.03-105.9.08-158.84-18.93.54-38.32,3.77-54.95,13.28h0ZM434.95,1067.27c-.04,52.91.07,105.82-.05,158.72,13.14.78,26.51-1.81,38.27-7.76,18.7-9.17,33.3-25.63,41.72-44.54,7.77-17.53,10.47-37.87,4.72-56.4-4.66-15.68-15.97-28.96-30.16-36.91-16.49-9.43-35.74-12.55-54.5-13.11h0ZM40.04,79.19c5.97,13.32,13.77,26.01,24.21,36.32,9.23,9.12,20.54,16.08,32.74,20.48,21.84,7.98,45.4,9.26,68.44,9.07,4.52-.28,9.52.43,13.42-2.41,10.2-6.32,10.92-22.22,2.82-30.53-4.54-5.1-11.72-6.89-18.32-6.41-5.01.2-9.7,2.28-14.71,2.48-13.11,1.31-26.42.45-39.27-2.51-24.22-5.66-46.23-17.64-69.33-26.48h0ZM709.34,104.92c-17.56,4.41-36.28,5.46-53.96,1.16-8.6-1.63-18.74.85-23.62,8.62-6.93,9.92-3.02,26.64,9.43,29.87,12.6,1,25.3.5,37.88-.43,21.99-1.83,44.53-7.22,62.53-20.57,15.36-11.21,26.16-27.43,34.17-44.43-22.19,8.48-43.37,19.75-66.44,25.77h0ZM73.99,147.14c7.61,14.73,18.5,28.23,33.03,36.6,17.25,10.21,37.86,12.58,57.55,12.28,4.36-1.13,8.27-4.08,10.94-7.7,2.86-3.9,2.86-9.39.42-13.5-2.95-4.96-8.09-8.46-13.54-10.14-7-.21-14.02-.25-21.02-.69-23.29-1.15-46.34-6.78-67.38-16.84h0ZM709.32,158.79c-17.57,4.49-35.79,5.66-53.86,5.76-3.93-.33-7.41,1.98-10.52,4.07-4.79,3.47-8.71,9.51-7.07,15.62,1.63,5.83,7.1,10.04,12.67,11.77,19.45.34,39.73-1.94,56.94-11.66,14.92-8.41,26.35-22,34.16-37.08-10.44,4.7-21.18,8.81-32.31,11.53h0ZM671.7,1365.08c9.4-.03,18.8.02,28.2-.03.11,6.58.01,13.18.04,19.77,12.17-.46,24.85,1.19,35.46,7.51,13.83,8,21.87,23.37,23.89,38.87,2.57,18.95-1.77,40.33-16.31,53.7-11.42,10.74-27.86,13.84-43.05,13.17-.01,6.65-.01,13.32.01,19.98-9.42.03-18.83,0-28.26.02-.01-6.68,0-13.34,0-20-12.19.45-24.93-1.08-35.57-7.45-12.62-7.23-20.38-20.82-23.04-34.83-3.19-16.5-1.13-34.58,7.98-48.95,5.69-9.07,14.77-15.79,24.95-19.01,8.25-2.77,17.04-3.25,25.68-3.01,0-6.59-.01-13.17,0-19.74h0ZM651.08,1417c-7.33,5.22-10.26,14.66-10.16,23.33-.32,8.41,1.46,17.7,7.97,23.59,6.74,6.25,16.48,7.48,25.31,7.15v-59.51c-7.96-.22-16.52.56-23.12,5.44h0ZM697.21,1411.56c-.02,19.83-.02,39.67,0,59.52,8.74.32,18.35-.82,25.13-6.88,6.32-5.71,8.31-14.68,8.14-22.88.13-8.45-2.1-17.64-8.78-23.31-6.72-5.75-16-6.72-24.49-6.45h0ZM53.46,1372.57c33.16,0,66.32,0,99.48-.01.02,9.17.02,18.34,0,27.52-11.92-.02-23.83-.02-35.74,0,0,37.42,0,74.83,0,112.24-9.43-.03-18.86.09-28.29-.06.09-37.39.02-74.79.04-112.18-11.84-.01-23.67,0-35.49,0-.01-9.17-.02-18.34,0-27.5h0ZM171.86,1372.68c33.53-.26,67.06-.03,100.58-.11.02,46.58.01,93.16.01,139.75h-28.25v-112.25c-14.75-.01-29.5,0-44.25,0,.02,37.4-.05,74.79.04,112.19-9.35.13-18.69.02-28.04.06-.06-46.55.12-93.1-.09-139.64h0ZM302.21,1372.57c33.46-.04,66.93.08,100.4-.06.21,46.6.03,93.2.09,139.81-9.34,0-18.67,0-28,0v-112.24c-14.75-.01-29.5,0-44.25,0,0,37.42,0,74.83,0,112.25h-28.25c0-46.59,0-93.17,0-139.75h0ZM498.21,1372.57h50.27c9.01-.17,18.27.41,26.67,3.95,7.38,3.01,13.67,8.65,17.29,15.77,5.07,9.78,5.9,21.16,5.18,31.98-.69,10.44-3.81,21.31-11.36,28.89-7.74,7.85-19.07,10.86-29.8,11.15-10.17.03-20.34,0-30.51.01,0,15.99-.03,31.97.03,47.96-9.26.09-18.52.02-27.78.04.01-46.59,0-93.17.01-139.75h0ZM525.96,1400.07c-.02,12.41,0,24.83,0,37.25,7.17-.02,14.34.02,21.52,0,5.11-.06,10.63-.81,14.64-4.29,3.92-3.32,5.34-8.67,5.37-13.62.19-5.18-.53-10.89-4.29-14.77-3.46-3.76-8.88-4.49-13.71-4.56-7.84-.02-15.69,0-23.52,0Z"/>
</svg>