<svg width="1017" height="488" viewBox="0 0 1017 488" fill="none" xmlns="http://www.w3.org/2000/svg">
<path d="M2.72989 349.211C1.23286 412.095 51.8012 463.879 114.702 463.877L656.867 463.856C819.221 463.85 926.065 294.536 856.193 147.986V147.986C831.689 96.5897 780.365 63.3404 723.443 61.9852L264.4 51.057C123.883 47.7118 7.26028 158.911 3.91506 299.428L2.72989 349.211Z" fill="#0099C0"/>
<g clip-path="url(#clip0_626_600)">
<path d="M281.682 176.364C281.917 176.37 282.149 176.317 282.348 176.211C282.547 176.106 282.704 175.953 282.799 175.771C282.894 175.59 282.922 175.389 282.881 175.195C282.84 175 282.73 174.82 282.566 174.677C282.403 174.535 282.193 174.437 281.963 174.396C281.733 174.356 281.493 174.373 281.276 174.448C281.058 174.522 280.871 174.649 280.74 174.814C280.608 174.978 280.538 175.171 280.538 175.369C280.536 175.498 280.563 175.625 280.619 175.745C280.676 175.865 280.759 175.974 280.866 176.066C280.972 176.158 281.099 176.232 281.239 176.283C281.379 176.334 281.53 176.362 281.682 176.364Z" fill="white"/>
<path d="M556.332 351.281C556.567 351.287 556.799 351.234 556.998 351.128C557.196 351.023 557.353 350.87 557.448 350.688C557.543 350.507 557.572 350.306 557.531 350.112C557.489 349.917 557.38 349.737 557.216 349.594C557.053 349.452 556.842 349.354 556.612 349.313C556.382 349.273 556.143 349.29 555.925 349.365C555.707 349.439 555.521 349.566 555.389 349.73C555.258 349.895 555.188 350.088 555.188 350.286C555.185 350.415 555.213 350.542 555.269 350.662C555.325 350.782 555.409 350.891 555.515 350.983C555.622 351.075 555.748 351.149 555.888 351.2C556.029 351.251 556.179 351.279 556.332 351.281V351.281Z" fill="white"/>
<path d="M595.476 241.555C595.711 241.561 595.942 241.508 596.141 241.403C596.34 241.297 596.497 241.144 596.592 240.963C596.687 240.782 596.716 240.581 596.674 240.386C596.633 240.191 596.523 240.011 596.36 239.869C596.196 239.727 595.986 239.629 595.756 239.588C595.526 239.547 595.287 239.565 595.069 239.639C594.851 239.713 594.665 239.841 594.533 240.005C594.402 240.169 594.332 240.363 594.331 240.561C594.329 240.689 594.357 240.817 594.413 240.936C594.469 241.056 594.553 241.165 594.659 241.257C594.765 241.35 594.892 241.424 595.032 241.475C595.172 241.526 595.323 241.553 595.476 241.555V241.555Z" fill="white"/>
<path d="M461.125 374.922C461.438 374.922 461.738 374.817 461.96 374.63C462.181 374.444 462.306 374.191 462.306 373.927C462.306 373.663 462.181 373.41 461.96 373.224C461.738 373.037 461.438 372.933 461.125 372.933C460.812 372.933 460.512 373.037 460.29 373.224C460.069 373.41 459.944 373.663 459.944 373.927C459.944 374.191 460.069 374.444 460.29 374.63C460.512 374.817 460.812 374.922 461.125 374.922Z" fill="white"/>
<path d="M547.296 311.513C547.53 311.517 547.761 311.463 547.959 311.356C548.157 311.25 548.312 311.096 548.406 310.915C548.499 310.734 548.527 310.533 548.484 310.339C548.442 310.144 548.331 309.965 548.167 309.823C548.003 309.682 547.793 309.585 547.563 309.545C547.334 309.505 547.095 309.523 546.878 309.597C546.66 309.672 546.474 309.799 546.343 309.963C546.212 310.127 546.142 310.321 546.142 310.518C546.14 310.647 546.168 310.776 546.225 310.896C546.281 311.016 546.366 311.125 546.473 311.218C546.58 311.31 546.708 311.384 546.849 311.435C546.991 311.485 547.142 311.512 547.296 311.513V311.513Z" fill="white"/>
<path d="M321.48 274.553C321.715 274.559 321.946 274.506 322.145 274.4C322.344 274.295 322.501 274.141 322.596 273.96C322.691 273.779 322.72 273.578 322.678 273.383C322.637 273.189 322.527 273.009 322.364 272.866C322.2 272.724 321.99 272.626 321.76 272.585C321.53 272.545 321.291 272.562 321.073 272.637C320.855 272.711 320.668 272.838 320.537 273.002C320.406 273.167 320.335 273.36 320.335 273.558C320.333 273.817 320.451 274.067 320.666 274.253C320.88 274.439 321.172 274.547 321.48 274.553V274.553Z" fill="white"/>
<path d="M500.023 258.845C500.258 258.85 500.489 258.795 500.686 258.689C500.884 258.583 501.04 258.429 501.133 258.248C501.227 258.066 501.254 257.866 501.212 257.671C501.169 257.477 501.059 257.297 500.895 257.156C500.731 257.015 500.521 256.918 500.291 256.877C500.061 256.837 499.822 256.855 499.605 256.93C499.388 257.004 499.202 257.132 499.071 257.296C498.94 257.46 498.87 257.653 498.87 257.851C498.867 257.98 498.895 258.108 498.952 258.228C499.009 258.349 499.093 258.458 499.201 258.55C499.308 258.643 499.436 258.717 499.577 258.767C499.718 258.818 499.87 258.844 500.023 258.845Z" fill="white"/>
<path d="M662.883 347.693C663.196 347.693 663.496 347.588 663.717 347.401C663.939 347.215 664.063 346.962 664.063 346.698C664.063 346.434 663.939 346.181 663.717 345.995C663.496 345.808 663.196 345.704 662.883 345.704C662.569 345.704 662.269 345.808 662.048 345.995C661.826 346.181 661.702 346.434 661.702 346.698C661.702 346.962 661.826 347.215 662.048 347.401C662.269 347.588 662.569 347.693 662.883 347.693V347.693Z" fill="white"/>
<path d="M392.338 289.853C392.573 289.86 392.804 289.806 393.003 289.701C393.202 289.595 393.359 289.442 393.454 289.261C393.549 289.08 393.578 288.879 393.536 288.684C393.495 288.489 393.385 288.309 393.222 288.167C393.058 288.025 392.848 287.927 392.618 287.886C392.388 287.845 392.149 287.863 391.931 287.937C391.713 288.012 391.526 288.139 391.395 288.303C391.264 288.467 391.193 288.661 391.193 288.859C391.191 288.987 391.219 289.115 391.275 289.235C391.331 289.354 391.415 289.463 391.521 289.556C391.627 289.648 391.754 289.722 391.894 289.773C392.034 289.824 392.185 289.851 392.338 289.853V289.853Z" fill="white"/>
<path d="M719.246 276.335C719.481 276.341 719.712 276.288 719.911 276.182C720.11 276.077 720.267 275.924 720.362 275.743C720.457 275.561 720.486 275.361 720.444 275.166C720.403 274.971 720.294 274.791 720.13 274.649C719.966 274.506 719.756 274.409 719.526 274.368C719.296 274.327 719.057 274.345 718.839 274.419C718.621 274.493 718.435 274.621 718.303 274.785C718.172 274.949 718.102 275.142 718.101 275.34C718.099 275.469 718.127 275.597 718.183 275.716C718.239 275.836 718.323 275.945 718.429 276.037C718.535 276.13 718.662 276.203 718.802 276.255C718.942 276.306 719.093 276.333 719.246 276.335Z" fill="white"/>
<path d="M356.527 337.571C356.763 337.577 356.995 337.524 357.194 337.418C357.393 337.312 357.55 337.159 357.644 336.977C357.739 336.796 357.767 336.594 357.725 336.399C357.683 336.204 357.573 336.024 357.408 335.882C357.244 335.74 357.033 335.643 356.802 335.603C356.571 335.563 356.332 335.582 356.114 335.657C355.896 335.733 355.71 335.861 355.58 336.027C355.45 336.192 355.381 336.386 355.383 336.584C355.38 336.843 355.499 337.091 355.714 337.276C355.928 337.461 356.22 337.567 356.527 337.571V337.571Z" fill="white"/>
<path d="M270.874 305.951C271.109 305.955 271.34 305.901 271.537 305.794C271.735 305.688 271.891 305.534 271.984 305.353C272.078 305.172 272.105 304.971 272.063 304.777C272.02 304.582 271.91 304.403 271.746 304.261C271.582 304.12 271.372 304.023 271.142 303.983C270.912 303.943 270.674 303.961 270.456 304.035C270.239 304.11 270.053 304.237 269.922 304.401C269.791 304.565 269.721 304.759 269.721 304.956C269.718 305.085 269.746 305.214 269.803 305.334C269.86 305.454 269.944 305.563 270.052 305.656C270.159 305.748 270.287 305.822 270.428 305.873C270.569 305.923 270.721 305.95 270.874 305.951Z" fill="white"/>
<path d="M430.827 326.73C431.062 326.735 431.293 326.68 431.491 326.574C431.688 326.467 431.844 326.314 431.937 326.132C432.031 325.951 432.058 325.75 432.016 325.556C431.973 325.362 431.863 325.182 431.699 325.041C431.535 324.899 431.325 324.802 431.095 324.762C430.865 324.722 430.627 324.74 430.409 324.815C430.192 324.889 430.006 325.017 429.875 325.181C429.744 325.345 429.674 325.538 429.674 325.736C429.672 325.865 429.7 325.993 429.756 326.113C429.813 326.233 429.898 326.343 430.005 326.435C430.112 326.528 430.24 326.601 430.381 326.652C430.522 326.703 430.674 326.729 430.827 326.73V326.73Z" fill="white"/>
<path d="M166.149 266.175C166.384 266.181 166.616 266.128 166.815 266.023C167.014 265.917 167.171 265.764 167.266 265.583C167.361 265.402 167.389 265.201 167.348 265.006C167.307 264.811 167.197 264.631 167.033 264.489C166.87 264.347 166.66 264.249 166.43 264.208C166.2 264.167 165.961 264.185 165.743 264.259C165.525 264.333 165.338 264.461 165.207 264.625C165.075 264.789 165.005 264.983 165.005 265.181C165.003 265.309 165.03 265.437 165.087 265.557C165.143 265.676 165.226 265.785 165.333 265.878C165.439 265.97 165.566 266.044 165.706 266.095C165.846 266.146 165.997 266.173 166.149 266.175Z" fill="white"/>
<path d="M353.412 159.525C353.647 159.529 353.878 159.475 354.075 159.368C354.273 159.262 354.429 159.108 354.522 158.927C354.616 158.745 354.643 158.545 354.601 158.35C354.558 158.156 354.448 157.977 354.284 157.835C354.12 157.694 353.91 157.597 353.68 157.557C353.45 157.516 353.211 157.535 352.994 157.609C352.777 157.684 352.591 157.811 352.46 157.975C352.329 158.139 352.259 158.332 352.259 158.53C352.256 158.659 352.284 158.788 352.341 158.908C352.398 159.028 352.482 159.137 352.59 159.23C352.697 159.322 352.825 159.396 352.966 159.446C353.107 159.497 353.259 159.524 353.412 159.525V159.525Z" fill="white"/>
<path d="M642.148 159.525C642.383 159.529 642.614 159.475 642.812 159.368C643.009 159.262 643.165 159.108 643.258 158.927C643.352 158.745 643.379 158.545 643.337 158.35C643.294 158.156 643.184 157.977 643.02 157.835C642.856 157.694 642.646 157.597 642.416 157.557C642.187 157.516 641.948 157.535 641.73 157.609C641.513 157.684 641.327 157.811 641.196 157.975C641.065 158.139 640.995 158.332 640.995 158.53C640.993 158.659 641.021 158.788 641.077 158.908C641.134 159.028 641.219 159.137 641.326 159.23C641.433 159.322 641.561 159.396 641.702 159.446C641.843 159.497 641.995 159.524 642.148 159.525V159.525Z" fill="white"/>
<path d="M742.577 248.096C742.812 248.101 743.043 248.046 743.241 247.94C743.438 247.833 743.594 247.68 743.687 247.499C743.781 247.317 743.808 247.117 743.766 246.922C743.723 246.728 743.613 246.548 743.449 246.407C743.285 246.266 743.075 246.169 742.845 246.128C742.615 246.088 742.377 246.106 742.159 246.181C741.942 246.255 741.756 246.383 741.625 246.547C741.494 246.711 741.424 246.904 741.424 247.102C741.422 247.231 741.45 247.359 741.506 247.479C741.563 247.6 741.648 247.709 741.755 247.801C741.862 247.894 741.99 247.968 742.131 248.018C742.272 248.069 742.424 248.095 742.577 248.096V248.096Z" fill="white"/>
<path d="M477.9 182.125C478.134 182.129 478.365 182.075 478.563 181.968C478.761 181.862 478.916 181.708 479.01 181.527C479.103 181.346 479.131 181.145 479.088 180.95C479.046 180.756 478.936 180.577 478.772 180.435C478.608 180.294 478.397 180.197 478.168 180.157C477.938 180.116 477.699 180.135 477.482 180.209C477.264 180.284 477.078 180.411 476.947 180.575C476.816 180.739 476.746 180.932 476.746 181.13C476.744 181.391 476.864 181.641 477.08 181.828C477.296 182.014 477.591 182.121 477.9 182.125V182.125Z" fill="white"/>
<path d="M579.382 88.1286C579.617 88.1331 579.848 88.0787 580.046 87.9722C580.243 87.8657 580.399 87.712 580.493 87.5308C580.586 87.3495 580.613 87.1488 580.571 86.9544C580.529 86.76 580.418 86.5806 580.254 86.4392C580.09 86.2978 579.88 86.2008 579.65 86.1605C579.421 86.1202 579.182 86.1385 578.964 86.2131C578.747 86.2877 578.561 86.4151 578.43 86.5791C578.299 86.7431 578.229 86.9363 578.229 87.134C578.227 87.3944 578.347 87.6451 578.563 87.8314C578.779 88.0177 579.073 88.1245 579.382 88.1286V88.1286Z" fill="white"/>
<path d="M534.39 165.851C534.625 165.858 534.856 165.804 535.055 165.699C535.254 165.593 535.411 165.44 535.506 165.259C535.601 165.078 535.63 164.877 535.588 164.682C535.547 164.487 535.438 164.307 535.274 164.165C535.11 164.023 534.9 163.925 534.67 163.884C534.44 163.843 534.201 163.861 533.983 163.935C533.765 164.01 533.579 164.137 533.447 164.301C533.316 164.465 533.246 164.659 533.246 164.857C533.243 164.986 533.271 165.113 533.327 165.233C533.383 165.352 533.467 165.462 533.573 165.554C533.679 165.646 533.806 165.72 533.946 165.771C534.086 165.822 534.237 165.849 534.39 165.851V165.851Z" fill="white"/>
<path d="M685.034 132.411C685.269 132.417 685.5 132.364 685.699 132.258C685.898 132.153 686.055 131.999 686.15 131.818C686.245 131.637 686.274 131.436 686.232 131.241C686.191 131.046 686.081 130.866 685.918 130.724C685.754 130.582 685.544 130.484 685.314 130.443C685.084 130.402 684.845 130.42 684.627 130.495C684.409 130.569 684.222 130.696 684.091 130.86C683.96 131.025 683.889 131.218 683.889 131.416C683.887 131.545 683.915 131.672 683.971 131.792C684.027 131.912 684.111 132.021 684.217 132.113C684.323 132.205 684.45 132.279 684.59 132.33C684.73 132.381 684.881 132.409 685.034 132.411V132.411Z" fill="white"/>
<path d="M792.792 155.914C793.027 155.918 793.258 155.864 793.455 155.757C793.653 155.651 793.809 155.497 793.902 155.316C793.996 155.135 794.023 154.934 793.981 154.74C793.938 154.545 793.828 154.366 793.664 154.224C793.5 154.083 793.29 153.986 793.06 153.946C792.83 153.905 792.592 153.924 792.374 153.998C792.157 154.073 791.971 154.2 791.84 154.364C791.709 154.528 791.639 154.721 791.639 154.919C791.636 155.048 791.664 155.177 791.721 155.297C791.778 155.417 791.862 155.526 791.97 155.619C792.077 155.711 792.205 155.785 792.346 155.836C792.487 155.886 792.639 155.913 792.792 155.914V155.914Z" fill="white"/>
<path d="M183.968 368.304C184.203 368.31 184.435 368.257 184.634 368.152C184.833 368.046 184.99 367.893 185.085 367.712C185.18 367.531 185.208 367.33 185.167 367.135C185.126 366.94 185.016 366.76 184.853 366.618C184.689 366.476 184.479 366.378 184.249 366.337C184.019 366.296 183.78 366.314 183.562 366.388C183.344 366.462 183.157 366.59 183.026 366.754C182.894 366.918 182.824 367.112 182.824 367.31C182.822 367.438 182.849 367.566 182.906 367.685C182.962 367.805 183.045 367.914 183.152 368.007C183.258 368.099 183.385 368.173 183.525 368.224C183.665 368.275 183.816 368.302 183.968 368.304Z" fill="white"/>
<path d="M177.656 146.87C177.891 146.876 178.123 146.823 178.322 146.718C178.521 146.612 178.678 146.459 178.773 146.278C178.868 146.097 178.896 145.896 178.855 145.701C178.814 145.506 178.704 145.326 178.541 145.184C178.377 145.042 178.167 144.944 177.937 144.903C177.707 144.862 177.468 144.88 177.25 144.954C177.032 145.028 176.845 145.156 176.714 145.32C176.582 145.484 176.512 145.677 176.512 145.875C176.51 146.004 176.537 146.132 176.594 146.251C176.65 146.371 176.733 146.48 176.84 146.572C176.946 146.665 177.073 146.739 177.213 146.79C177.353 146.841 177.504 146.868 177.656 146.87Z" fill="white"/>
<path d="M691.446 367.286C691.58 367.289 691.711 367.259 691.824 367.198C691.937 367.138 692.026 367.051 692.08 366.948C692.133 366.845 692.149 366.73 692.125 366.619C692.102 366.509 692.039 366.406 691.946 366.326C691.853 366.245 691.733 366.189 691.602 366.166C691.471 366.143 691.335 366.154 691.211 366.196C691.087 366.238 690.981 366.311 690.907 366.404C690.832 366.498 690.792 366.608 690.792 366.72C690.791 366.794 690.807 366.866 690.839 366.935C690.871 367.003 690.919 367.065 690.98 367.117C691.041 367.17 691.113 367.212 691.193 367.241C691.273 367.27 691.359 367.285 691.446 367.286V367.286Z" fill="white"/>
<path d="M491.495 233.025C491.674 233.025 491.844 232.965 491.971 232.859C492.097 232.753 492.167 232.609 492.167 232.459C492.167 232.309 492.097 232.165 491.971 232.058C491.844 231.952 491.674 231.893 491.495 231.893C491.317 231.893 491.146 231.952 491.02 232.058C490.894 232.165 490.823 232.309 490.823 232.459C490.823 232.609 490.894 232.753 491.02 232.859C491.146 232.965 491.317 233.025 491.495 233.025V233.025Z" fill="white"/>
<path d="M125.353 131.982C125.486 131.985 125.618 131.955 125.731 131.894C125.844 131.834 125.933 131.747 125.986 131.644C126.04 131.54 126.056 131.426 126.032 131.315C126.008 131.204 125.946 131.102 125.853 131.021C125.759 130.941 125.64 130.885 125.509 130.862C125.378 130.839 125.242 130.849 125.118 130.892C124.994 130.934 124.888 131.007 124.813 131.1C124.739 131.193 124.699 131.303 124.699 131.416C124.698 131.489 124.714 131.562 124.746 131.63C124.778 131.699 124.826 131.761 124.887 131.813C124.947 131.866 125.02 131.908 125.1 131.937C125.18 131.966 125.266 131.981 125.353 131.982Z" fill="white"/>
<path d="M361.777 220.554C361.91 220.557 362.042 220.526 362.155 220.466C362.268 220.406 362.357 220.318 362.41 220.215C362.464 220.112 362.48 219.998 362.456 219.887C362.432 219.776 362.37 219.674 362.277 219.593C362.183 219.512 362.064 219.457 361.933 219.434C361.802 219.411 361.666 219.421 361.542 219.463C361.418 219.506 361.312 219.578 361.237 219.672C361.163 219.765 361.123 219.875 361.123 219.988C361.123 220.135 361.191 220.277 361.313 220.383C361.435 220.489 361.602 220.55 361.777 220.554V220.554Z" fill="white"/>
<path d="M172.425 192.537C172.559 192.54 172.691 192.51 172.803 192.449C172.916 192.389 173.005 192.302 173.059 192.199C173.113 192.096 173.129 191.981 173.105 191.87C173.081 191.76 173.018 191.657 172.925 191.577C172.832 191.496 172.712 191.44 172.581 191.417C172.45 191.394 172.314 191.404 172.191 191.447C172.067 191.489 171.961 191.562 171.886 191.655C171.811 191.749 171.771 191.859 171.771 191.971C171.77 192.045 171.786 192.117 171.818 192.186C171.85 192.254 171.898 192.316 171.959 192.368C172.02 192.421 172.092 192.463 172.172 192.492C172.252 192.521 172.338 192.536 172.425 192.537V192.537Z" fill="white"/>
<path d="M238.333 239.535C238.467 239.538 238.599 239.508 238.712 239.448C238.824 239.387 238.913 239.3 238.967 239.197C239.021 239.094 239.037 238.979 239.013 238.868C238.989 238.758 238.926 238.655 238.833 238.575C238.74 238.494 238.62 238.438 238.49 238.415C238.359 238.392 238.223 238.403 238.099 238.445C237.975 238.487 237.869 238.56 237.794 238.653C237.719 238.747 237.68 238.857 237.68 238.969C237.678 239.043 237.694 239.115 237.726 239.184C237.759 239.252 237.807 239.314 237.867 239.366C237.928 239.419 238 239.461 238.08 239.49C238.16 239.519 238.246 239.534 238.333 239.535V239.535Z" fill="white"/>
<path d="M300.055 376.008C300.188 376.011 300.32 375.981 300.433 375.92C300.546 375.86 300.635 375.773 300.689 375.669C300.742 375.566 300.758 375.452 300.734 375.341C300.71 375.23 300.648 375.128 300.555 375.047C300.461 374.967 300.342 374.911 300.211 374.888C300.08 374.865 299.944 374.875 299.82 374.918C299.696 374.96 299.59 375.032 299.516 375.126C299.441 375.219 299.401 375.329 299.401 375.442C299.4 375.515 299.416 375.588 299.448 375.656C299.48 375.724 299.528 375.787 299.589 375.839C299.649 375.892 299.722 375.934 299.802 375.963C299.882 375.992 299.968 376.007 300.055 376.008V376.008Z" fill="white"/>
<path d="M469.535 395.892C469.669 395.895 469.8 395.865 469.913 395.804C470.026 395.744 470.115 395.657 470.169 395.554C470.222 395.451 470.238 395.336 470.215 395.225C470.191 395.115 470.128 395.012 470.035 394.932C469.942 394.851 469.822 394.795 469.691 394.772C469.56 394.749 469.424 394.759 469.3 394.802C469.177 394.844 469.07 394.917 468.996 395.01C468.921 395.104 468.881 395.214 468.881 395.326C468.88 395.4 468.896 395.472 468.928 395.54C468.96 395.609 469.008 395.671 469.069 395.723C469.13 395.776 469.202 395.818 469.282 395.847C469.362 395.876 469.448 395.891 469.535 395.892V395.892Z" fill="white"/>
<path d="M467.437 102.198C467.615 102.198 467.786 102.139 467.912 102.032C468.038 101.926 468.109 101.782 468.109 101.632C468.109 101.482 468.038 101.338 467.912 101.232C467.786 101.126 467.615 101.066 467.437 101.066C467.259 101.066 467.088 101.126 466.962 101.232C466.836 101.338 466.765 101.482 466.765 101.632C466.765 101.782 466.836 101.926 466.962 102.032C467.088 102.139 467.259 102.198 467.437 102.198V102.198Z" fill="white"/>
<path d="M333.531 99.4514C333.665 99.4545 333.797 99.4239 333.91 99.3635C334.023 99.3032 334.111 99.2159 334.165 99.1127C334.219 99.0096 334.235 98.8953 334.211 98.7845C334.187 98.6737 334.125 98.5714 334.031 98.4907C333.938 98.41 333.818 98.3545 333.688 98.3314C333.557 98.3083 333.421 98.3186 333.297 98.3609C333.173 98.4033 333.067 98.4758 332.992 98.5692C332.917 98.6626 332.878 98.7727 332.878 98.8853C332.876 98.9586 332.892 99.0315 332.924 99.0996C332.957 99.1677 333.005 99.2299 333.065 99.2824C333.126 99.335 333.198 99.377 333.278 99.406C333.358 99.435 333.444 99.4504 333.531 99.4514Z" fill="white"/>
<path d="M190.208 101.257C190.341 101.26 190.473 101.23 190.586 101.169C190.699 101.109 190.788 101.022 190.841 100.918C190.895 100.815 190.911 100.701 190.887 100.59C190.863 100.479 190.801 100.377 190.707 100.296C190.614 100.216 190.495 100.16 190.364 100.137C190.233 100.114 190.097 100.124 189.973 100.167C189.849 100.209 189.743 100.281 189.668 100.375C189.594 100.468 189.554 100.578 189.554 100.691C189.554 100.838 189.622 100.98 189.744 101.086C189.866 101.192 190.033 101.253 190.208 101.257V101.257Z" fill="white"/>
<path d="M703.87 194.343C704.003 194.346 704.135 194.315 704.248 194.255C704.361 194.195 704.45 194.107 704.504 194.004C704.557 193.901 704.573 193.787 704.549 193.676C704.525 193.565 704.463 193.463 704.37 193.382C704.276 193.302 704.157 193.246 704.026 193.223C703.895 193.2 703.759 193.21 703.635 193.253C703.511 193.295 703.405 193.367 703.331 193.461C703.256 193.554 703.216 193.664 703.216 193.777C703.215 193.85 703.231 193.923 703.263 193.991C703.295 194.059 703.343 194.121 703.404 194.174C703.464 194.227 703.537 194.269 703.617 194.298C703.697 194.327 703.783 194.342 703.87 194.343V194.343Z" fill="white"/>
<path d="M760.36 103.966C760.494 103.969 760.625 103.938 760.738 103.878C760.851 103.817 760.94 103.73 760.994 103.627C761.047 103.524 761.063 103.409 761.039 103.299C761.016 103.188 760.953 103.086 760.86 103.005C760.767 102.924 760.647 102.869 760.516 102.846C760.385 102.822 760.249 102.833 760.125 102.875C760.001 102.917 759.895 102.99 759.821 103.083C759.746 103.177 759.706 103.287 759.706 103.399C759.705 103.473 759.721 103.546 759.753 103.614C759.785 103.682 759.833 103.744 759.894 103.797C759.955 103.849 760.027 103.891 760.107 103.92C760.187 103.949 760.273 103.965 760.36 103.966V103.966Z" fill="white"/>
<path d="M600.298 339.407C600.476 339.407 600.647 339.348 600.773 339.241C600.899 339.135 600.97 338.991 600.97 338.841C600.97 338.691 600.899 338.547 600.773 338.441C600.647 338.335 600.476 338.275 600.298 338.275C600.12 338.275 599.949 338.335 599.823 338.441C599.697 338.547 599.626 338.691 599.626 338.841C599.626 338.991 599.697 339.135 599.823 339.241C599.949 339.348 600.12 339.407 600.298 339.407V339.407Z" fill="white"/>
<path d="M597.51 296.625C597.644 296.628 597.776 296.597 597.889 296.537C598.001 296.477 598.09 296.389 598.144 296.286C598.198 296.183 598.214 296.069 598.19 295.958C598.166 295.847 598.104 295.745 598.01 295.664C597.917 295.583 597.797 295.528 597.667 295.505C597.536 295.482 597.4 295.492 597.276 295.534C597.152 295.577 597.046 295.649 596.971 295.743C596.896 295.836 596.857 295.946 596.857 296.059C596.855 296.132 596.871 296.205 596.904 296.273C596.936 296.341 596.984 296.403 597.044 296.456C597.105 296.508 597.177 296.55 597.257 296.579C597.337 296.608 597.423 296.624 597.51 296.625V296.625Z" fill="white"/>
<path d="M679.112 243.605C679.246 243.608 679.378 243.578 679.49 243.517C679.603 243.457 679.692 243.37 679.746 243.267C679.8 243.163 679.816 243.049 679.792 242.938C679.768 242.828 679.705 242.725 679.612 242.644C679.519 242.564 679.399 242.508 679.268 242.485C679.138 242.462 679.001 242.472 678.878 242.515C678.754 242.557 678.648 242.63 678.573 242.723C678.498 242.816 678.458 242.926 678.458 243.039C678.457 243.112 678.473 243.185 678.505 243.253C678.538 243.322 678.585 243.384 678.646 243.436C678.707 243.489 678.779 243.531 678.859 243.56C678.939 243.589 679.025 243.604 679.112 243.605V243.605Z" fill="white"/>
<path d="M607.273 218.901C607.407 218.904 607.538 218.874 607.651 218.813C607.764 218.753 607.853 218.666 607.907 218.562C607.961 218.459 607.976 218.345 607.953 218.234C607.929 218.123 607.866 218.021 607.773 217.94C607.68 217.86 607.56 217.804 607.429 217.781C607.298 217.758 607.162 217.768 607.038 217.811C606.915 217.853 606.809 217.926 606.734 218.019C606.659 218.112 606.619 218.222 606.619 218.335C606.618 218.408 606.634 218.481 606.666 218.549C606.698 218.617 606.746 218.68 606.807 218.732C606.868 218.785 606.94 218.827 607.02 218.856C607.1 218.885 607.186 218.9 607.273 218.901Z" fill="white"/>
<path d="M589.836 179.738C589.969 179.741 590.101 179.71 590.214 179.65C590.327 179.589 590.416 179.502 590.469 179.399C590.523 179.296 590.539 179.181 590.515 179.071C590.491 178.96 590.429 178.858 590.335 178.777C590.242 178.696 590.123 178.641 589.992 178.618C589.861 178.594 589.725 178.605 589.601 178.647C589.477 178.689 589.371 178.762 589.296 178.855C589.222 178.949 589.182 179.059 589.182 179.171C589.181 179.245 589.196 179.318 589.229 179.386C589.261 179.454 589.309 179.516 589.369 179.569C589.43 179.621 589.503 179.663 589.583 179.692C589.663 179.721 589.749 179.737 589.836 179.738V179.738Z" fill="white"/>
<path d="M445.477 393.206C445.539 393.206 445.599 393.185 445.644 393.148C445.688 393.111 445.713 393.06 445.713 393.008C445.713 392.955 445.688 392.904 445.644 392.867C445.599 392.83 445.539 392.809 445.477 392.809C445.446 392.809 445.416 392.814 445.388 392.824C445.36 392.834 445.334 392.849 445.313 392.867C445.292 392.886 445.275 392.908 445.264 392.932C445.253 392.956 445.248 392.982 445.25 393.008C445.25 393.059 445.273 393.108 445.316 393.146C445.358 393.183 445.416 393.204 445.477 393.206V393.206Z" fill="white"/>
<path d="M482.432 219.139C482.494 219.139 482.554 219.118 482.599 219.08C482.643 219.043 482.668 218.992 482.668 218.94C482.668 218.887 482.643 218.836 482.599 218.799C482.554 218.762 482.494 218.741 482.432 218.741C482.401 218.741 482.371 218.746 482.343 218.756C482.314 218.766 482.289 218.781 482.268 218.799C482.247 218.818 482.23 218.84 482.219 218.864C482.208 218.888 482.203 218.914 482.205 218.94C482.204 218.991 482.228 219.041 482.27 219.078C482.313 219.115 482.371 219.137 482.432 219.139V219.139Z" fill="white"/>
<path d="M418.966 185.996C419.029 185.996 419.089 185.975 419.133 185.938C419.178 185.9 419.203 185.85 419.203 185.797C419.203 185.744 419.178 185.694 419.133 185.656C419.089 185.619 419.029 185.598 418.966 185.598C418.904 185.598 418.844 185.619 418.799 185.656C418.755 185.694 418.73 185.744 418.73 185.797C418.73 185.85 418.755 185.9 418.799 185.938C418.844 185.975 418.904 185.996 418.966 185.996V185.996Z" fill="white"/>
<path d="M561.945 162.493C562.006 162.491 562.064 162.469 562.106 162.432C562.148 162.395 562.172 162.346 562.172 162.294C562.179 162.266 562.178 162.236 562.169 162.207C562.161 162.179 562.145 162.152 562.123 162.129C562.101 162.107 562.073 162.088 562.041 162.076C562.01 162.063 561.975 162.057 561.94 162.057C561.905 162.057 561.871 162.063 561.839 162.076C561.808 162.088 561.78 162.107 561.758 162.129C561.736 162.152 561.72 162.179 561.711 162.207C561.703 162.236 561.702 162.266 561.709 162.294C561.709 162.347 561.734 162.398 561.778 162.435C561.822 162.472 561.882 162.493 561.945 162.493V162.493Z" fill="white"/>
<path d="M650.513 91.9999C650.576 91.9999 650.636 91.9789 650.68 91.9416C650.724 91.9043 650.749 91.8537 650.749 91.801C650.749 91.7482 650.724 91.6976 650.68 91.6603C650.636 91.623 650.576 91.6021 650.513 91.6021C650.452 91.604 650.394 91.6259 650.352 91.663C650.309 91.7 650.286 91.7495 650.286 91.801C650.285 91.8267 650.29 91.8524 650.3 91.8765C650.311 91.9006 650.328 91.9226 650.349 91.9412C650.37 91.9598 650.396 91.9745 650.424 91.9846C650.452 91.9947 650.482 91.9999 650.513 91.9999V91.9999Z" fill="white"/>
<path d="M757.954 174.55C758.016 174.55 758.076 174.529 758.121 174.492C758.165 174.455 758.19 174.404 758.19 174.351C758.19 174.299 758.165 174.248 758.121 174.211C758.076 174.173 758.016 174.152 757.954 174.152C757.923 174.152 757.893 174.158 757.865 174.168C757.837 174.178 757.811 174.192 757.79 174.211C757.769 174.23 757.752 174.252 757.741 174.276C757.73 174.3 757.726 174.326 757.727 174.351C757.727 174.403 757.75 174.452 757.793 174.489C757.835 174.526 757.893 174.548 757.954 174.55V174.55Z" fill="white"/>
<path d="M370.849 147.436C370.91 147.434 370.968 147.413 371.011 147.376C371.053 147.338 371.076 147.289 371.076 147.237C371.078 147.212 371.073 147.186 371.062 147.162C371.051 147.138 371.034 147.116 371.013 147.097C370.992 147.079 370.967 147.064 370.938 147.054C370.91 147.044 370.88 147.039 370.849 147.039C370.787 147.039 370.727 147.06 370.682 147.097C370.638 147.134 370.613 147.185 370.613 147.237C370.613 147.29 370.638 147.341 370.682 147.378C370.727 147.415 370.787 147.436 370.849 147.436V147.436Z" fill="white"/>
<path d="M224.383 110.683C224.446 110.683 224.506 110.662 224.55 110.625C224.595 110.587 224.62 110.537 224.62 110.484C224.62 110.431 224.595 110.381 224.55 110.343C224.506 110.306 224.446 110.285 224.383 110.285C224.353 110.285 224.323 110.29 224.294 110.3C224.266 110.31 224.241 110.325 224.22 110.344C224.198 110.362 224.182 110.384 224.171 110.409C224.16 110.433 224.155 110.458 224.156 110.484C224.156 110.536 224.18 110.585 224.222 110.622C224.265 110.659 224.322 110.681 224.383 110.683V110.683Z" fill="white"/>
<path d="M209.044 371.578C209.105 371.576 209.163 371.554 209.205 371.517C209.247 371.48 209.271 371.431 209.271 371.379C209.271 371.329 209.247 371.28 209.204 371.244C209.162 371.208 209.104 371.188 209.044 371.188C208.984 371.188 208.926 371.208 208.883 371.244C208.841 371.28 208.817 371.329 208.817 371.379C208.817 371.431 208.84 371.48 208.883 371.517C208.925 371.554 208.983 371.576 209.044 371.578V371.578Z" fill="white"/>
<path d="M242.52 249.856C242.567 249.858 242.614 249.847 242.654 249.826C242.694 249.806 242.725 249.775 242.745 249.739C242.764 249.703 242.77 249.662 242.762 249.623C242.754 249.584 242.732 249.548 242.699 249.52C242.667 249.491 242.625 249.471 242.579 249.463C242.533 249.455 242.485 249.458 242.441 249.473C242.397 249.488 242.36 249.513 242.333 249.546C242.307 249.579 242.293 249.618 242.293 249.657C242.293 249.709 242.317 249.758 242.359 249.795C242.401 249.832 242.459 249.854 242.52 249.856V249.856Z" fill="white"/>
<path d="M382.702 217.326C382.733 217.326 382.763 217.32 382.792 217.31C382.821 217.3 382.847 217.286 382.869 217.267C382.891 217.249 382.908 217.227 382.92 217.203C382.932 217.179 382.938 217.153 382.938 217.127C382.938 217.101 382.932 217.075 382.92 217.051C382.908 217.026 382.891 217.004 382.869 216.986C382.847 216.968 382.821 216.953 382.792 216.943C382.763 216.933 382.733 216.928 382.702 216.928C382.639 216.928 382.579 216.949 382.535 216.986C382.49 217.023 382.466 217.074 382.466 217.127C382.466 217.179 382.49 217.23 382.535 217.267C382.579 217.305 382.639 217.326 382.702 217.326V217.326Z" fill="white"/>
<path d="M483.83 284.812C483.891 284.81 483.949 284.788 483.991 284.751C484.033 284.714 484.057 284.664 484.057 284.613C484.058 284.587 484.053 284.562 484.042 284.537C484.032 284.513 484.015 284.491 483.994 284.473C483.973 284.454 483.947 284.439 483.919 284.429C483.891 284.419 483.86 284.414 483.83 284.414C483.767 284.414 483.707 284.435 483.663 284.472C483.619 284.51 483.594 284.56 483.594 284.613C483.594 284.666 483.619 284.716 483.663 284.754C483.707 284.791 483.767 284.812 483.83 284.812V284.812Z" fill="white"/>
<path d="M386.889 256.489C386.919 256.489 386.95 256.484 386.978 256.474C387.006 256.464 387.031 256.449 387.053 256.43C387.074 256.412 387.09 256.39 387.101 256.366C387.112 256.342 387.117 256.316 387.116 256.29C387.116 256.239 387.092 256.189 387.05 256.152C387.008 256.115 386.95 256.093 386.889 256.091C386.826 256.091 386.766 256.112 386.722 256.15C386.677 256.187 386.653 256.237 386.653 256.29C386.653 256.343 386.677 256.394 386.722 256.431C386.766 256.468 386.826 256.489 386.889 256.489V256.489Z" fill="white"/>
<path d="M451.743 204.075C451.806 204.075 451.866 204.054 451.91 204.016C451.955 203.979 451.979 203.928 451.979 203.876C451.979 203.823 451.955 203.772 451.91 203.735C451.866 203.698 451.806 203.677 451.743 203.677C451.713 203.677 451.682 203.682 451.654 203.692C451.626 203.702 451.601 203.717 451.579 203.735C451.558 203.754 451.542 203.776 451.531 203.8C451.52 203.824 451.515 203.85 451.516 203.876C451.516 203.927 451.54 203.977 451.582 204.014C451.625 204.051 451.682 204.073 451.743 204.075V204.075Z" fill="white"/>
<path d="M443.379 116.1C443.409 116.1 443.44 116.094 443.468 116.084C443.496 116.074 443.521 116.06 443.543 116.041C443.564 116.022 443.58 116 443.591 115.976C443.602 115.952 443.607 115.926 443.606 115.901C443.606 115.85 443.582 115.801 443.539 115.765C443.497 115.73 443.439 115.709 443.379 115.709C443.319 115.709 443.261 115.73 443.218 115.765C443.176 115.801 443.152 115.85 443.152 115.901C443.151 115.926 443.156 115.952 443.166 115.976C443.177 116 443.194 116.022 443.215 116.041C443.236 116.06 443.262 116.074 443.29 116.084C443.318 116.094 443.348 116.1 443.379 116.1V116.1Z" fill="white"/>
<path d="M594.023 108.273C594.084 108.271 594.141 108.249 594.184 108.212C594.226 108.175 594.25 108.125 594.25 108.074C594.251 108.048 594.246 108.022 594.235 107.998C594.224 107.974 594.208 107.952 594.186 107.934C594.165 107.915 594.14 107.9 594.112 107.89C594.083 107.88 594.053 107.875 594.023 107.875C593.96 107.875 593.9 107.896 593.856 107.933C593.811 107.971 593.786 108.021 593.786 108.074C593.786 108.127 593.811 108.177 593.856 108.215C593.9 108.252 593.96 108.273 594.023 108.273V108.273Z" fill="white"/>
<path d="M709.818 161.873C709.879 161.871 709.937 161.85 709.98 161.813C710.022 161.775 710.046 161.726 710.045 161.675C710.047 161.649 710.042 161.623 710.031 161.599C710.02 161.575 710.003 161.553 709.982 161.534C709.961 161.516 709.936 161.501 709.907 161.491C709.879 161.481 709.849 161.476 709.818 161.476C709.756 161.476 709.696 161.497 709.651 161.534C709.607 161.571 709.582 161.622 709.582 161.675C709.582 161.727 709.607 161.778 709.651 161.815C709.696 161.852 709.756 161.873 709.818 161.873V161.873Z" fill="white"/>
<path d="M181.443 400.519C181.443 400.519 158.048 421.673 185.418 441.48H715.637C715.637 441.48 739.923 424.459 718.284 400.519C718.284 400.519 739.041 360.969 692.679 337.512C692.679 337.512 694.889 318.651 670.611 316.357C670.611 316.357 669.556 291.344 636.61 288.24C636.61 288.24 609.459 285.309 596.715 312.908C596.715 312.908 561.559 299.336 549.643 346.25C549.643 346.25 537.945 344.867 532.642 353.605C532.642 353.605 517.334 342.309 506.737 355.935C506.737 355.935 500.033 346.104 493.156 347.57C493.156 347.57 492.829 339.988 485.215 339.378C485.215 339.378 486.071 325.323 453.379 330.612C453.379 330.612 419.387 324.404 415.858 341.189C415.858 341.189 407.299 343.701 409.118 349.172C409.118 349.172 404.706 351.539 404.042 353.723C404.042 353.723 391.908 336.711 374.689 351.903C374.689 351.903 360.781 344.621 351.176 347.415C351.176 347.415 340.579 333.962 326.016 341.553C326.016 341.553 318.739 318.442 295.554 318.096C295.554 318.096 292.897 294.985 276.679 292.227C276.679 292.227 253.83 281.877 239.595 310.514C239.595 310.514 210.487 316.722 206.849 343.965C206.831 343.947 169.637 354.988 181.443 400.519Z" fill="#CEEBF3"/>
<path d="M614.425 342.272L639.139 348.999L637.392 354.752L613.524 347.133L614.425 342.272Z" fill="#E8A092"/>
<path d="M628.242 380.876L626.405 387.039L610.85 352.367L613.179 347.033L628.242 380.876Z" fill="#E8A092"/>
<path d="M588.447 372.693L627.159 386.492L625.586 391.189L585.472 378.555L588.447 372.693Z" fill="#E8A092"/>
<path d="M624.249 395.112L590.384 395.64L593.968 388.131L626.068 389.678L624.249 395.112Z" fill="#E8A092"/>
<path d="M610.732 328.801L641.777 342.391L639.375 349.573L607.721 334.717L610.732 328.801Z" fill="#E8A092"/>
<path d="M645.752 330.539L611.196 318.287L614.17 312.826L648.026 323.203L645.752 330.539Z" fill="#E8A092"/>
<path d="M656.522 309.576L621.256 296.787L624.094 291.28L658.805 302.24L656.522 309.576Z" fill="#E8A092"/>
<path d="M641.931 341.617L622.102 322.557L630.607 322.875L643.823 335.51L641.931 341.617Z" fill="#E8A092"/>
<path d="M634.682 294.621L586.928 387.357L590.384 395.641L638.784 295.923L634.682 294.621Z" fill="#FBA284"/>
<path d="M650.454 299.609L604.683 429.911L607.876 437.548L653.674 300.619L650.454 299.609Z" fill="#FBA284"/>
<path d="M658.805 302.24L612.033 443.656L609.249 436.975L655.53 301.211L658.805 302.24Z" fill="#FBA284"/>
<path d="M624.094 291.28L582.352 372.511L585.145 379.201L628.997 292.828L624.094 291.28Z" fill="#FBA284"/>
<path d="M300.311 342.272L275.597 348.999L277.343 354.752L301.211 347.133L300.311 342.272Z" fill="#E8A092"/>
<path d="M286.494 380.876L288.331 387.039L303.885 352.367L301.548 347.033L286.494 380.876Z" fill="#E8A092"/>
<path d="M326.289 372.693L287.576 386.492L289.141 391.189L329.263 378.555L326.289 372.693Z" fill="#E8A092"/>
<path d="M290.487 395.112L324.352 395.64L320.759 388.131L288.668 389.678L290.487 395.112Z" fill="#E8A092"/>
<path d="M304.004 328.801L272.95 342.391L275.351 349.573L307.005 334.717L304.004 328.801Z" fill="#E8A092"/>
<path d="M268.984 330.539L303.531 318.287L300.556 312.826L266.701 323.203L268.984 330.539Z" fill="#E8A092"/>
<path d="M258.205 309.576L293.47 296.787L290.641 291.28L255.931 302.24L258.205 309.576Z" fill="#E8A092"/>
<path d="M272.804 341.617L292.634 322.557L284.129 322.875L270.912 335.51L272.804 341.617Z" fill="#E8A092"/>
<path d="M280.054 294.621L327.799 387.357L324.352 395.641L275.951 295.923L280.054 294.621Z" fill="#FBA284"/>
<path d="M264.281 299.609L310.052 429.911L306.86 437.548L261.061 300.619L264.281 299.609Z" fill="#FBA284"/>
<path d="M255.931 302.24L302.694 443.656L305.486 436.975L259.196 301.211L255.931 302.24Z" fill="#FBA284"/>
<path d="M290.642 291.28L332.374 372.511L329.591 379.201L285.739 292.828L290.642 291.28Z" fill="#FBA284"/>
<path d="M265.236 392.491C265.236 392.491 262.826 379.52 282.128 377.763C282.128 377.763 289.022 355.68 314.873 355.68C314.873 355.68 333.83 355.325 340.724 375.706C340.724 375.706 370.741 364.837 376.572 400.282C376.572 400.282 386.578 398.18 391.053 408.693C391.053 408.693 401.732 397.124 412.074 408.693C412.074 408.693 416.213 399.236 422.416 401.684C422.416 401.684 422.762 395.021 429.311 395.021C429.311 395.021 431.267 387.43 442.291 390.115C442.291 390.115 449.65 378.427 457.227 389.769C457.227 389.769 464.931 379.246 471.135 391.171C471.135 391.171 483.314 387.43 481.932 397.242C481.932 397.242 489.636 395.84 489.4 404.961C489.4 404.961 493.193 403.787 494.684 406.945C494.684 406.945 504.69 391.753 519.162 406.709C519.162 406.709 524.447 397.124 535.708 401.566C535.708 401.566 541.911 391.052 553.399 396.423C553.399 396.423 560.749 378.218 579.369 378.664C579.369 378.664 583.007 354.824 602.345 357.865C602.345 357.865 614.298 353.659 623.721 373.758C623.721 373.758 643.942 376.561 648.535 398.526C648.535 398.526 672.185 401.802 669.674 441.535H243.215C243.215 441.535 232.145 408.966 265.236 392.491Z" fill="white"/>
<path d="M177.941 437.785L105 464H449.695V437.785H177.941Z" fill="#5B294C"/>
<path d="M721.449 437.785H449.695V464H794.381L721.449 437.785Z" fill="#5B294C"/>
<path d="M395.801 312.644C395.736 312.675 395.669 312.702 395.601 312.725C395.669 312.702 395.736 312.675 395.801 312.644Z" fill="#C62C24"/>
<path d="M395.119 312.898L394.846 312.971L395.119 312.898Z" fill="#C62C24"/>
<path d="M404.797 221.737C404.797 221.737 369.186 247.998 389.807 311.77C390.474 312.315 391.251 312.71 392.084 312.929C392.918 313.147 393.788 313.183 394.637 313.035C394.337 311.169 394.185 309.282 394.182 307.391C394.182 290.879 405.37 277.426 419.378 276.789L419.569 276.488C413.311 256.654 406.225 225.314 405.488 222.028L404.797 221.737Z" fill="#C62C24"/>
<path d="M394.209 307.391C394.212 309.282 394.364 311.169 394.664 313.035V313.035L394.91 312.962L395.183 312.889C395.328 312.889 395.474 312.78 395.628 312.716C395.696 312.693 395.763 312.666 395.828 312.634C396.047 312.531 396.26 312.416 396.465 312.289V312.289C396.715 312.134 396.955 311.964 397.184 311.779L419.369 276.798C405.37 277.426 394.209 290.916 394.209 307.391Z" fill="#9E1E1D"/>
<path d="M504.508 311.724L504.235 311.651L504.508 311.724Z" fill="#C62C24"/>
<path d="M503.789 311.478L503.589 311.396L503.789 311.478Z" fill="#C62C24"/>
<path d="M494.593 220.49C492.419 230.402 486.28 257.737 480.795 275.587C494.439 276.67 505.227 289.924 505.227 306.135C505.224 308.022 505.072 309.906 504.772 311.77C505.621 311.918 506.491 311.882 507.325 311.663C508.158 311.445 508.935 311.05 509.602 310.504C530.204 246.75 494.593 220.49 494.593 220.49Z" fill="#C62C24"/>
<path d="M480.777 275.596L480.531 276.361L502.198 310.513C502.426 310.701 502.666 310.874 502.916 311.032V311.032C503.126 311.16 503.344 311.278 503.553 311.378L503.753 311.46L504.199 311.633L504.472 311.706C504.552 311.731 504.634 311.753 504.717 311.77V311.77C505.017 309.906 505.169 308.022 505.172 306.135C505.181 289.933 494.43 276.679 480.777 275.596Z" fill="#9E1E1D"/>
<path d="M449.45 338.594C433.932 317.804 437.288 303.304 439.953 297.324C437.613 297.07 435.3 296.61 433.04 295.949C428.538 303.322 413.757 334.544 449.668 382.669C449.668 382.669 492.119 334.617 465.932 295.439C463.605 296.071 461.241 296.561 458.855 296.905C469.297 316.139 449.45 338.594 449.45 338.594Z" fill="#FF0000"/>
<path d="M449.45 338.595C449.45 338.595 469.297 316.139 458.855 296.905C452.598 297.844 446.246 297.985 439.953 297.324C437.288 303.304 433.932 317.805 449.45 338.595Z" fill="#FFFF00"/>
<path d="M447.776 74.2123L448.286 73.8755L447.776 74.2123Z" fill="white"/>
<path d="M458.255 79.8105L459.492 80.9302L458.255 79.8105Z" fill="white"/>
<path d="M470.234 92.1807L471.471 93.7099L470.234 92.1807Z" fill="white"/>
<path d="M463.385 84.626C463.812 85.0538 464.231 85.4816 464.649 85.9185C464.249 85.4816 463.812 85.0538 463.385 84.626Z" fill="white"/>
<path d="M465.777 87.1016C466.205 87.5567 466.623 88.0118 467.032 88.476C466.623 88.0118 466.205 87.5567 465.777 87.1016Z" fill="white"/>
<path d="M455.517 77.4893L456.699 78.4814L455.517 77.4893Z" fill="white"/>
<path d="M468.06 89.623C468.488 90.1055 468.897 90.5879 469.306 91.0703C468.897 90.5879 468.488 90.1055 468.06 89.623Z" fill="white"/>
<path d="M460.884 82.1953L462.13 83.3968L460.884 82.1953Z" fill="white"/>
<path d="M448.786 73.53L449.095 73.3389L448.786 73.53Z" fill="white"/>
<path d="M448.358 73.821L448.758 73.5752L448.358 73.821Z" fill="white"/>
<path d="M452.652 75.1865L453.661 75.9784L452.652 75.1865Z" fill="white"/>
<path d="M449.195 73.3024L449.422 73.1567L449.195 73.3024Z" fill="white"/>
<path d="M449.45 73.1386L449.604 73.0566L449.45 73.1386Z" fill="white"/>
<path d="M479.494 105.316C479.912 106.017 480.331 106.718 480.731 107.419C480.331 106.718 479.912 106.017 479.494 105.316Z" fill="white"/>
<path d="M481.013 107.956C481.45 108.729 481.923 109.503 482.296 110.286C481.877 109.467 481.45 108.693 481.013 107.956Z" fill="white"/>
<path d="M447.73 74.2764C442.427 77.8354 427.228 89.5049 415.658 112.907C427.219 89.4866 442.418 77.8081 447.73 74.2764Z" fill="white"/>
<path d="M477.893 102.676C478.302 103.322 478.712 103.968 479.112 104.615C478.675 103.968 478.266 103.322 477.893 102.676Z" fill="white"/>
<path d="M476.074 100.027C476.483 100.628 476.893 101.238 477.284 101.848C476.929 101.238 476.52 100.674 476.074 100.027Z" fill="white"/>
<path d="M474.255 97.3877C474.664 97.9612 475.073 98.5255 475.474 99.099C475.073 98.5255 474.673 97.9429 474.255 97.3877Z" fill="white"/>
<path d="M472.299 94.7749C472.717 95.3028 473.118 95.849 473.527 96.386C473.118 95.849 472.717 95.3028 472.299 94.7749Z" fill="white"/>
<path d="M480.777 275.596C486.234 257.746 492.401 230.412 494.575 220.499L495.394 216.74C495.394 216.74 508.128 158.647 482.387 110.422C482.85 111.333 483.296 112.161 483.742 113.044C472.946 117.542 461.366 119.85 449.673 119.834C437.979 119.818 426.405 117.479 415.621 112.953C404.088 136.337 396.201 171.391 405.425 221.737C405.425 221.737 405.425 221.846 405.488 222.028C406.225 225.314 413.311 256.618 419.569 276.488C421.752 283.415 423.844 288.95 425.527 291.371C426.946 293.419 429.629 294.921 433.04 295.922C435.3 296.583 437.613 297.043 439.953 297.297C446.246 297.957 452.598 297.817 458.855 296.878C461.241 296.534 463.605 296.044 465.932 295.413C469.743 294.348 472.763 292.964 474.291 291.344C476.001 289.523 478.202 283.834 480.531 276.334L480.777 275.596ZM449.786 127.981C455.41 127.981 460.907 129.65 465.583 132.777C470.259 135.903 473.904 140.347 476.056 145.546C478.208 150.746 478.771 156.467 477.674 161.987C476.577 167.506 473.869 172.576 469.892 176.556C465.916 180.535 460.849 183.245 455.333 184.343C449.818 185.441 444.101 184.878 438.905 182.724C433.709 180.57 429.268 176.923 426.144 172.244C423.02 167.565 421.352 162.063 421.352 156.436C421.352 148.889 424.348 141.651 429.68 136.315C435.013 130.979 442.245 127.981 449.786 127.981Z" fill="white"/>
<path d="M449.786 184.853C455.411 184.853 460.908 183.184 465.585 180.057C470.261 176.93 473.905 172.486 476.057 167.286C478.209 162.086 478.771 156.364 477.674 150.844C476.576 145.324 473.867 140.254 469.889 136.275C465.912 132.296 460.844 129.587 455.328 128.49C449.812 127.393 444.094 127.958 438.899 130.113C433.703 132.268 429.263 135.916 426.14 140.597C423.016 145.277 421.35 150.78 421.352 156.408C421.352 160.144 422.088 163.844 423.517 167.296C424.946 170.747 427.04 173.883 429.681 176.525C432.321 179.166 435.456 181.262 438.906 182.691C442.355 184.119 446.053 184.854 449.786 184.853V184.853ZM426.955 155.78C426.954 152.783 427.543 149.815 428.689 147.046C429.834 144.276 431.514 141.76 433.632 139.641C435.749 137.522 438.264 135.841 441.031 134.694C443.798 133.548 446.764 132.959 449.759 132.96C450.232 132.96 450.669 132.96 451.16 132.96H451.396C451.815 132.96 452.224 133.033 452.642 133.087H452.688C456.863 133.628 460.807 135.315 464.083 137.961C467.359 140.607 469.839 144.109 471.249 148.079C472.658 152.049 472.941 156.332 472.068 160.454C471.194 164.575 469.198 168.374 466.299 171.429C463.401 174.485 459.714 176.678 455.646 177.765C451.579 178.853 447.29 178.792 443.255 177.59C439.22 176.388 435.596 174.092 432.785 170.956C429.974 167.819 428.085 163.966 427.328 159.821V159.821C427.328 159.821 427.328 159.821 427.328 159.776C427.219 159.139 427.128 158.492 427.064 157.837C427.06 157.792 427.06 157.746 427.064 157.7C427.01 157.109 426.955 156.453 426.955 155.78Z" fill="#3C3E3E"/>
<path d="M427.346 159.84C427.228 159.203 427.146 158.556 427.083 157.901C427.146 158.565 427.237 159.212 427.346 159.84Z" fill="#B6E2EF"/>
<path d="M427.355 159.885C428.112 164.03 430.001 167.884 432.812 171.02C435.623 174.156 439.247 176.452 443.282 177.654C447.317 178.856 451.606 178.917 455.673 177.829C459.741 176.742 463.428 174.549 466.326 171.493C469.225 168.438 471.222 164.639 472.095 160.518C472.969 156.396 472.685 152.113 471.276 148.143C469.867 144.174 467.387 140.672 464.111 138.025C460.835 135.379 456.89 133.692 452.715 133.151C446.029 133.931 439.828 137.034 435.194 141.919C430.559 146.805 427.785 153.163 427.355 159.885V159.885ZM450.914 138.604C451.927 138.604 452.917 138.904 453.759 139.467C454.602 140.031 455.258 140.831 455.646 141.767C456.033 142.704 456.135 143.734 455.937 144.728C455.739 145.722 455.252 146.635 454.535 147.352C453.819 148.069 452.907 148.557 451.913 148.755C450.92 148.952 449.89 148.851 448.955 148.463C448.019 148.075 447.219 147.418 446.656 146.576C446.094 145.733 445.793 144.742 445.793 143.728C445.792 143.055 445.924 142.388 446.181 141.766C446.437 141.144 446.815 140.578 447.29 140.102C447.766 139.626 448.331 139.249 448.953 138.991C449.575 138.734 450.241 138.603 450.914 138.604V138.604ZM439.999 153.168C441.718 153.778 442.373 156.363 441.454 158.948C440.536 161.533 438.407 163.126 436.688 162.507C434.969 161.888 434.314 159.312 435.233 156.736C436.151 154.16 438.234 152.558 439.954 153.204L439.999 153.168Z" fill="#B6E2EF"/>
<path d="M427.074 157.773C427.01 157.118 426.983 156.453 426.983 155.78C426.955 156.453 427.01 157.109 427.074 157.773Z" fill="#B6E2EF"/>
<path d="M451.424 133.024C451.842 133.024 452.251 133.097 452.67 133.151C452.251 133.097 451.842 133.051 451.424 133.024Z" fill="#B6E2EF"/>
<path d="M449.786 132.96C450.259 132.96 450.696 132.96 451.187 132.96C450.723 132.978 450.259 132.96 449.786 132.96Z" fill="#B6E2EF"/>
<path d="M454.536 147.351C456.535 145.349 456.535 142.105 454.536 140.103C452.536 138.102 449.293 138.102 447.293 140.103C445.293 142.105 445.293 145.349 447.293 147.351C449.293 149.352 452.536 149.352 454.536 147.351Z" fill="#F9F9F9"/>
<path d="M436.642 162.57C438.362 163.189 440.499 161.587 441.409 159.011C442.318 156.435 441.673 153.841 439.953 153.231C438.234 152.621 436.097 154.214 435.187 156.799C434.277 159.384 434.923 161.933 436.642 162.57Z" fill="#F9F9F9"/>
<path d="M483.742 113.044C483.305 112.134 482.832 111.296 482.387 110.422C482.36 110.363 482.33 110.305 482.296 110.249C481.877 109.466 481.45 108.693 481.013 107.919C480.922 107.755 480.831 107.582 480.731 107.418C480.331 106.718 479.913 106.017 479.494 105.316L479.076 104.615C478.675 103.969 478.266 103.322 477.857 102.676L477.32 101.848C476.929 101.238 476.52 100.628 476.11 100.027L475.474 99.1169C475.073 98.5435 474.664 97.9791 474.255 97.4057C474.018 97.0689 473.773 96.7412 473.527 96.4044C473.118 95.8673 472.718 95.3212 472.299 94.7932L471.471 93.7282L470.234 92.199L469.325 91.0885C468.915 90.6061 468.506 90.1237 468.079 89.6412L467.051 88.4943C466.641 88.0301 466.223 87.5841 465.795 87.1198C465.368 86.6556 465.04 86.3279 464.668 85.9365C464.295 85.5451 463.831 85.0718 463.403 84.644L462.13 83.3787L460.884 82.1772C460.429 81.7494 459.974 81.3306 459.492 80.9119L458.255 79.7923C457.745 79.3463 457.218 78.8821 456.699 78.4634L455.517 77.4712C454.907 76.9705 454.289 76.4881 453.698 75.9966L452.688 75.2047C451.778 74.4765 450.769 73.7574 449.777 73.0474H449.705H449.65L449.495 73.1293L449.268 73.2749H449.204L448.895 73.4661H448.831L448.431 73.7119L448.358 73.7665L447.849 74.1033H447.803C442.491 77.6714 427.292 89.3499 415.731 112.734V112.816C426.514 117.343 438.088 119.682 449.782 119.697C461.475 119.713 473.056 117.405 483.851 112.907L483.742 113.044Z" fill="#FF0000"/>
<path d="M427.346 159.84C427.346 159.84 427.346 159.84 427.346 159.885C427.776 153.163 430.55 146.805 435.184 141.919C439.819 137.034 446.02 133.931 452.706 133.151H452.661C452.242 133.097 451.833 133.051 451.414 133.024H451.178C450.714 133.024 450.268 133.024 449.777 133.024C443.736 133.017 437.94 135.409 433.66 139.676C429.381 143.943 426.97 149.735 426.955 155.78C426.955 156.454 426.955 157.118 427.046 157.774C427.042 157.819 427.042 157.865 427.046 157.91C427.146 158.566 427.228 159.212 427.346 159.84Z" fill="#85AAB2"/>
</g>
<defs>
<clipPath id="clip0_626_600">
<rect width="690" height="464" fill="white" transform="translate(105)"/>
</clipPath>
</defs>
</svg>
