<svg width="973" height="581" viewBox="0 0 973 581" fill="none" xmlns="http://www.w3.org/2000/svg">
<path d="M696.726 282.737C690.116 291.172 681.558 297.876 671.786 302.275L345.605 449.099C201.397 514.012 35.7472 419.706 17.9561 262.565C8.03917 174.974 71.0064 95.9284 158.597 86.0115L561.364 40.4111C693.993 25.3951 779.057 177.677 696.726 282.737Z" fill="#0099C0"/>
<g clip-path="url(#clip0_584_1031)">
<path d="M590 86H212.536V307.818H590V86Z" fill="#332F2D"/>
<path d="M579.178 95.085H222.471V301.121H579.178V95.085Z" fill="#3A6B67"/>
<path d="M412.239 155.939C412.239 155.939 380.811 142.295 346.134 180.854C346.134 180.854 345.413 184.427 349.004 185.796L381.653 187.091L415.221 179.355L412.239 155.939Z" fill="#3A6B67" stroke="#B3B3B3" stroke-miterlimit="10"/>
<path d="M350.766 182.082C349.5 182.817 348.294 183.652 347.16 184.577C347.669 185.124 348.301 185.542 349.004 185.796L381.053 187.067C375.177 177.939 361.82 175.671 350.766 182.082Z" fill="#3A6B67" stroke="#B3B3B3" stroke-miterlimit="10"/>
<path d="M447.995 215.55C447.995 215.55 444.258 249.579 393.549 260.541C393.549 260.541 390.088 259.395 390.679 255.594L405.744 226.632L429.106 201.345L447.995 215.55Z" fill="#3A6B67" stroke="#B3B3B3" stroke-miterlimit="10"/>
<path d="M394.778 255.913C393.504 256.652 392.174 257.289 390.8 257.818C390.578 257.104 390.53 256.346 390.659 255.609L405.449 227.179C410.487 236.791 405.832 249.502 394.778 255.913Z" fill="#3A6B67" stroke="#B3B3B3" stroke-miterlimit="10"/>
<path d="M375.105 203.748C375.105 203.748 342.955 199.271 321.951 248.448C321.951 248.448 371.61 258.413 387.151 224.481L375.105 203.748Z" fill="#3A6B67" stroke="#B3B3B3" stroke-miterlimit="10"/>
<path d="M378.023 208.772C378.023 208.772 361.902 206.528 351.366 231.192C351.366 231.192 376.271 236.186 384.063 219.172L378.023 208.772Z" fill="#3A6B67" stroke="#B3B3B3" stroke-miterlimit="10"/>
<path d="M529.258 128.239C529.258 128.239 479.806 98.8661 412.481 156.355C412.481 156.355 377.588 188.523 373.677 196.844C369.767 205.165 385.263 227.744 392.644 229.485C400.024 231.226 450.812 214.632 450.812 214.632C450.812 214.632 523.353 191.38 529.258 128.239Z" fill="#3A6B67" stroke="#B3B3B3" stroke-miterlimit="10"/>
<path d="M473.471 182.682C485.632 182.682 495.491 172.832 495.491 160.682C495.491 148.532 485.632 138.683 473.471 138.683C461.309 138.683 451.45 148.532 451.45 160.682C451.45 172.832 461.309 182.682 473.471 182.682Z" fill="#3A6B67" stroke="#B3B3B3" stroke-miterlimit="10"/>
<path d="M473.887 178.088C483.643 178.088 491.552 170.187 491.552 160.44C491.552 150.694 483.643 142.792 473.887 142.792C464.131 142.792 456.222 150.694 456.222 160.44C456.222 170.187 464.131 178.088 473.887 178.088Z" fill="#3A6B67" stroke="#B3B3B3" stroke-miterlimit="10"/>
<path d="M482.395 160.479C484.584 160.479 486.359 158.706 486.359 156.519C486.359 154.332 484.584 152.559 482.395 152.559C480.206 152.559 478.431 154.332 478.431 156.519C478.431 158.706 480.206 160.479 482.395 160.479Z" fill="#3A6B67" stroke="#B3B3B3" stroke-miterlimit="10"/>
<path d="M468.485 156.043C470.569 155.654 472.047 154.213 471.787 152.824C471.527 151.436 469.628 150.626 467.544 151.015C465.461 151.404 463.982 152.845 464.242 154.234C464.502 155.622 466.402 156.432 468.485 156.043Z" fill="#3A6B67" stroke="#B3B3B3" stroke-miterlimit="10"/>
<path d="M497.959 146.482C502.447 154.317 508.487 161.155 515.711 166.576C523.329 155.11 527.985 141.937 529.262 128.234C529.262 128.234 514.158 119.27 489.282 120.948C490.395 129.963 493.348 138.653 497.959 146.482Z" fill="#3A6B67" stroke="#B3B3B3" stroke-miterlimit="10"/>
<path d="M490.182 153.623C489.886 152.921 489.547 152.238 489.166 151.578C487.867 149.341 486.092 147.417 483.966 145.942C481.84 144.467 479.416 143.477 476.864 143.042C474.313 142.607 471.697 142.739 469.202 143.427C466.707 144.115 464.394 145.343 462.427 147.023C467.094 144.702 472.429 144.091 477.502 145.297C482.574 146.503 487.061 149.45 490.182 153.623Z" fill="#3A6B67" stroke="#B3B3B3" stroke-miterlimit="10"/>
<path d="M232.373 494.698C232.373 494.698 251.63 505.335 263.734 488.465L264.131 479.303C264.131 479.303 250.44 480.463 243.882 476.131C243.882 476.131 224.673 489.017 232.373 494.698Z" fill="#1F1D1D"/>
<path d="M305.907 494.698C305.907 494.698 286.65 505.335 274.546 488.465L274.164 479.303C274.164 479.303 287.855 480.463 294.413 476.131C294.398 476.131 313.607 489.017 305.907 494.698Z" fill="#1F1D1D"/>
<path d="M239.159 398.441L243.882 476.131C243.882 476.131 254.137 481.261 264.131 479.303L267.359 362.295L273.82 479.748C280.909 480.299 288.018 478.964 294.423 475.88L297.273 354.588C297.341 351.731 296.299 348.958 294.365 346.852C292.432 344.747 289.757 343.471 286.902 343.293L279.996 342.858H253.097C239.962 346.967 233.995 363.223 239.159 398.441Z" fill="#CCCCCD"/>
<path d="M264.131 336.939H270.732V337.109H272.233V335.905H263.1V337.109H264.131V336.939Z" fill="#D0D7DA"/>
<path d="M270.732 341.949H264.131V341.779H263.183V342.862H272.233V341.779H270.732V341.949Z" fill="#D0D7DA"/>
<path d="M271.943 337.109H270.733V341.779H271.943H272.233V337.109H271.943Z" fill="#C7D2DC"/>
<path d="M264.131 337.109H263.473H263.183V341.779H263.473H264.131V337.109Z" fill="#C7D2DC"/>
<path d="M263.183 335.905H253.097V342.862H263.183V341.779V337.109V335.905Z" fill="#282D2A"/>
<path d="M264.088 336.939V337.109V341.721V341.886H271.008V336.939H264.088Z" fill="#3D443F"/>
<path d="M272.233 335.905V337.109V341.779V342.862H282.319V335.905H272.233Z" fill="#282D2A"/>
<path d="M212.536 280.36L230.878 243.981C242.435 238.217 254.829 232.164 258.89 229.021L280.03 232.966L298.904 244.711C298.904 244.711 302.263 247.568 303.366 249.759L315.785 280.36L332.472 238.386L342.016 240.896L333.764 270.631C333.764 270.631 326.364 301.387 319.173 304.187C319.173 304.187 311.226 301.808 297.394 284.571L315.732 398.441C303.812 401.173 291.916 400.762 280.034 398.441V336.171H253.62V398.441C241.52 400.806 230.002 401.139 219.384 398.441C219.384 398.441 232.649 324.252 235.185 289.469L223.052 304.061L212.536 280.36Z" fill="white"/>
<path d="M279.507 232.251H253.097L253.615 336.171H280.025L279.507 232.251Z" fill="#90A5B7"/>
<path d="M259.993 246.379L264.102 250.276L258.416 306.894L266.12 319.596L273.82 307.504L268.99 250.092L272.547 246.258L266.324 240.2L259.262 245.683" fill="#B10B15"/>
<path d="M248.194 252.476L242.875 260.26L253.445 301.716L253.121 232.497L234.817 242.018L237.837 252.476H248.194Z" fill="#D2D2D2"/>
<path d="M284.642 252.476L289.869 260.26L279.85 301.121L279.507 232.251L297.593 243.889L294.82 252.476H284.642Z" fill="#D3D3D3"/>
<path d="M335.4 212.369C335.4 212.369 332.094 211.818 333.658 225.907C329.718 224.244 326.926 229.674 332.08 232.077L332.235 238.338L341.188 239.953C341.188 239.953 348.559 229.601 346.875 226.304C346.875 226.304 345.713 224.075 344.034 225.82C344.034 225.82 343.729 221.333 340.646 224.752C340.646 224.752 340.249 219.834 336.978 223.47C336.973 223.49 338.594 211.069 335.4 212.369Z" fill="#F5B87B"/>
<path d="M332.094 232.067C332.094 232.067 332.201 236.714 341.58 235.834C341.58 235.834 345.452 235.282 345.074 230.737C345.074 230.737 343.477 232.275 342.427 230.365C342.162 230.484 341.876 230.549 341.586 230.556C341.296 230.563 341.007 230.513 340.736 230.407C340.466 230.301 340.219 230.142 340.011 229.94C339.803 229.738 339.637 229.496 339.523 229.229C339.523 229.229 337.786 229.751 337.05 228.978C337.05 228.978 338.788 233.875 332.094 232.067Z" fill="#D19B68"/>
<path d="M152.204 288.188C151.27 289.483 152.442 291.33 153.487 291.853C153.937 291.916 153.845 292.293 153.564 292.786C152.809 294.144 153.874 296.117 154.798 296.054C155.224 296.185 155.282 296.446 155.045 296.813C154.237 297.722 154.561 299.947 156.134 300.285C156.488 300.391 156.763 300.546 156.589 300.996C156.332 301.664 156.336 302.404 156.599 303.069C156.863 303.735 157.367 304.277 158.012 304.588C162.029 303.592 164.904 302.799 168.291 301.363C169.119 299.69 168.451 298.578 167.527 297.65C167.44 297.379 167.648 297.166 168.011 297.017C169.54 295.716 169.463 294.261 167.706 293.274C167.59 293.151 167.519 292.993 167.503 292.825C167.487 292.657 167.528 292.488 167.619 292.346C169.555 291.156 168.379 288.961 167.135 288.521C166.694 288.313 166.714 287.951 166.883 287.554C167.565 286.36 167.851 284.856 165.61 284.107C165.634 284.088 156.817 285.432 152.204 288.188Z" fill="#D19B68"/>
<path d="M198.43 243.821L146.006 267.161L176.51 335.544L228.933 312.204L198.43 243.821Z" fill="#855C46"/>
<path d="M195.717 250.256L151.998 269.72L179.153 330.596L222.872 311.131L195.717 250.256Z" fill="#FEFFFF"/>
<path d="M173.983 253.119C170.973 251.025 167.938 253.119 167.725 255.904L160.853 258.964L164.241 266.575L183.958 257.756L180.57 250.145L173.983 253.119ZM182.864 257.548L164.647 265.651L164.071 264.351L182.269 256.252L182.864 257.548Z" fill="#FDBC02"/>
<path d="M171.034 266.921L157.582 272.91L158.191 274.275L171.643 268.286L171.034 266.921Z" fill="#5D9BCF"/>
<path d="M172.176 269.479L158.724 275.468L159.333 276.833L172.785 270.844L172.176 269.479Z" fill="#5D9BCF"/>
<path d="M199.149 266.169L161.958 282.727L162.567 284.091L199.757 267.533L199.149 266.169Z" fill="#5D9BCF"/>
<path d="M200.234 268.602L163.044 285.16L163.653 286.525L200.843 269.967L200.234 268.602Z" fill="#5D9BCF"/>
<path d="M201.434 271.29L164.244 287.848L164.852 289.212L202.043 272.654L201.434 271.29Z" fill="#5D9BCF"/>
<path d="M203.721 276.411L166.531 292.969L167.14 294.333L204.33 277.775L203.721 276.411Z" fill="#5D9BCF"/>
<path d="M204.942 279.145L167.751 295.703L168.36 297.067L205.55 280.509L204.942 279.145Z" fill="#5D9BCF"/>
<path d="M206.043 281.62L168.853 298.177L169.462 299.542L206.652 282.984L206.043 281.62Z" fill="#5D9BCF"/>
<path d="M207.145 284.094L169.955 300.652L170.564 302.017L207.754 285.459L207.145 284.094Z" fill="#5D9BCF"/>
<path d="M209.354 289.049L172.164 305.607L172.772 306.971L209.962 290.413L209.354 289.049Z" fill="#5D9BCF"/>
<path d="M183.852 297.434L171.059 303.129L171.668 304.494L184.461 298.798L183.852 297.434Z" fill="#5D9BCF"/>
<path d="M210.574 291.778L173.384 308.336L173.993 309.701L211.183 293.143L210.574 291.778Z" fill="#5D9BCF"/>
<path d="M211.794 294.507L174.604 311.065L175.213 312.43L212.403 295.872L211.794 294.507Z" fill="#5D9BCF"/>
<path d="M213.015 297.242L175.825 313.8L176.433 315.164L213.624 298.607L213.015 297.242Z" fill="#5D9BCF"/>
<path d="M214.096 299.67L176.906 316.228L177.514 317.593L214.705 301.035L214.096 299.67Z" fill="#5D9BCF"/>
<path d="M215.316 302.404L178.126 318.962L178.735 320.327L215.925 303.769L215.316 302.404Z" fill="#5D9BCF"/>
<path d="M204.553 310.466L179.342 321.69L179.951 323.055L205.161 311.831L204.553 310.466Z" fill="#5D9BCF"/>
<path d="M186.979 266.827L172.302 306.553C171.661 308.286 172.548 310.21 174.284 310.85L183.509 314.252C185.245 314.892 187.171 314.005 187.811 312.272L202.488 272.546C203.129 270.813 202.241 268.889 200.506 268.249L191.28 264.847C189.545 264.207 187.619 265.093 186.979 266.827Z" stroke="#DA2621" stroke-width="0.89" stroke-miterlimit="10"/>
<path d="M177.172 306.803L176.79 306.662L176.19 308.282L178.082 308.978L178.682 307.354L178.106 307.141L178.421 306.285L179.95 306.851L178.716 310.182L174.922 308.785L176.151 305.449L177.492 305.932L177.172 306.803Z" fill="#DA0026"/>
<path d="M180.182 306.227L176.383 304.825L177.767 301.078L181.567 302.48L180.182 306.227ZM178.406 302.301L177.651 304.337L179.544 305.038L180.294 302.997L178.406 302.301Z" fill="#DA0026"/>
<path d="M178 300.459L179.006 297.727C179.052 297.606 179.129 297.5 179.229 297.418C179.345 297.329 179.485 297.275 179.631 297.263C179.833 297.254 180.034 297.289 180.221 297.365L180.526 297.481C180.612 297.508 180.692 297.55 180.763 297.606C180.821 297.653 180.874 297.705 180.923 297.761C180.97 297.815 181.01 297.875 181.039 297.94C181.111 297.91 181.185 297.887 181.262 297.872C181.44 297.84 181.624 297.856 181.794 297.921L182.123 298.041C182.306 298.102 182.472 298.205 182.607 298.341C182.714 298.45 182.789 298.585 182.825 298.733C182.866 298.857 182.866 298.991 182.825 299.115L181.813 301.856L178 300.459ZM180.371 298.438L179.887 298.259L179.253 299.98L179.737 300.159L180.371 298.438ZM181.784 298.96L181.223 298.752L180.584 300.474L181.146 300.677L181.784 298.96Z" fill="#DA0026"/>
<path d="M182.598 295.048L182.075 296.465L182.636 296.673L183.527 294.256L184.495 294.609L183.29 297.872L179.49 296.475L180.686 293.235L181.654 293.588L180.758 295.953L181.242 296.127L181.765 294.715L182.598 295.048Z" fill="#DA0026"/>
<path d="M183.106 290.513C183.024 290.483 182.934 290.487 182.855 290.523C182.776 290.559 182.715 290.625 182.685 290.707L181.867 292.916L180.899 292.563L181.867 289.909C181.909 289.798 181.98 289.699 182.071 289.623C182.163 289.547 182.272 289.495 182.389 289.474C182.668 289.407 182.96 289.427 183.227 289.532L183.58 289.662C183.801 289.729 183.998 289.857 184.151 290.03C184.26 290.159 184.332 290.317 184.359 290.484C184.388 290.605 184.388 290.731 184.359 290.852L183.725 292.568L185.037 293.052L184.703 293.965L182.472 293.143L183.289 290.934C183.305 290.894 183.313 290.852 183.312 290.809C183.311 290.766 183.302 290.724 183.285 290.685C183.268 290.646 183.243 290.611 183.212 290.581C183.182 290.552 183.145 290.529 183.106 290.513Z" fill="#DA0026"/>
<path d="M182.336 288.71L182.694 287.796L185.54 288.845L185.976 287.656L183.135 286.611L183.449 285.76L186.29 286.809L186.731 285.62L183.885 284.571L184.224 283.662L188.018 285.059L186.155 290.112L182.336 288.71Z" fill="#DA0026"/>
<path d="M187.534 281.607L187.05 283.024L187.611 283.232L188.502 280.814L189.47 281.167L188.265 284.431L184.466 283.033L185.666 279.794L186.634 280.147L185.753 282.531L186.237 282.705L186.76 281.293L187.534 281.607Z" fill="#DA0026"/>
<path d="M185.869 279.146L186.208 278.237L187.66 278.764L188.371 276.83L186.919 276.303L187.253 275.389L191.052 276.791L190.714 277.7L189.204 277.159L188.502 279.093L190.012 279.649L189.678 280.563L185.869 279.146Z" fill="#DA0026"/>
<path d="M187.486 274.775L187.824 273.866L189.276 274.393L189.988 272.459L188.536 271.932L188.875 271.018L192.674 272.42L192.335 273.329L190.815 272.807L190.104 274.741L191.619 275.297L191.285 276.211L187.486 274.775Z" fill="#DA0026"/>
<path d="M192.896 271.806L189.102 270.39L190.486 266.638L194.28 268.04L192.896 271.806ZM191.12 267.866L190.37 269.906L192.258 270.607L193.012 268.567L191.12 267.866Z" fill="#DA0026"/>
<path d="M184.727 304.158L184.34 304.013L183.745 305.632L185.632 306.329L186.232 304.704L185.656 304.491L185.971 303.64L187.5 304.201L186.271 307.537L182.472 306.135L183.706 302.804L185.042 303.287L184.727 304.158Z" fill="#DA2621"/>
<path d="M187.05 300.754L186.522 302.166L187.084 302.374L187.974 299.956L188.942 300.309L187.737 303.577L183.938 302.175L185.138 298.936L186.106 299.289L185.225 301.672L185.709 301.851L186.232 300.435L187.05 300.754Z" fill="#DA2621"/>
<path d="M189.509 298.781L189.17 299.69L185.371 298.293L185.709 297.379L187.161 297.906L187.316 297.495L186.348 295.716L186.784 294.531L187.984 296.799L190.67 295.687L190.186 296.978L188.158 297.809L188.008 298.22L189.509 298.781Z" fill="#DA2621"/>
<path d="M189.223 291.751C189.182 291.736 189.138 291.729 189.095 291.73C189.051 291.732 189.008 291.742 188.968 291.761C188.929 291.779 188.893 291.805 188.864 291.838C188.834 291.87 188.812 291.908 188.797 291.949L187.984 294.159L187.016 293.806L187.984 291.151C188.028 291.04 188.099 290.941 188.191 290.865C188.283 290.789 188.394 290.738 188.512 290.716C188.788 290.649 189.079 290.669 189.344 290.774L189.697 290.9C189.919 290.971 190.118 291.099 190.273 291.272C190.381 291.403 190.453 291.56 190.481 291.727C190.512 291.847 190.512 291.974 190.481 292.094L189.847 293.811L191.164 294.294L190.825 295.208L188.599 294.386L189.417 292.176C189.447 292.094 189.443 292.004 189.407 291.924C189.371 291.845 189.305 291.782 189.223 291.751Z" fill="#DA2621"/>
<path d="M191.575 288.521L191.052 289.938L191.614 290.146L192.504 287.728L193.472 288.081L192.267 291.345L188.468 289.948L189.663 286.708L190.631 287.061L189.751 289.445L190.234 289.619L190.757 288.207L191.575 288.521Z" fill="#DA2621"/>
<path d="M191.735 284L194.581 285.05L194.242 285.959L191.406 284.895L191.12 285.664C191.053 285.846 190.934 286.005 190.779 286.122C190.624 286.24 190.438 286.31 190.244 286.326L189.76 286.36L191.304 282.177C191.43 282.223 191.545 282.292 191.643 282.383C191.742 282.473 191.821 282.581 191.878 282.702C191.934 282.823 191.966 282.954 191.971 283.087C191.976 283.22 191.955 283.353 191.909 283.478L191.735 284Z" fill="#DA2621"/>
<path d="M191.469 281.796L191.802 280.882L193.254 281.409L193.966 279.475L192.514 278.948L192.853 278.034L196.647 279.436L196.313 280.35L194.793 279.799L194.082 281.733L195.597 282.294L195.258 283.203L191.469 281.796Z" fill="#DA2621"/>
<path d="M196.879 278.822L193.08 277.425L194.464 273.677L198.264 275.075L196.879 278.822ZM195.103 274.881L194.353 276.922L196.245 277.642L197 275.602L195.103 274.881Z" fill="#DA2621"/>
<path d="M164.603 284.534L153.57 287.791C152.635 288.067 152.1 289.049 152.377 289.983L152.467 290.289C152.744 291.224 153.726 291.758 154.662 291.482L165.694 288.225C166.63 287.949 167.164 286.967 166.888 286.033L166.797 285.727C166.521 284.792 165.538 284.258 164.603 284.534Z" fill="#F5B87B"/>
<path d="M165.877 288.837L154.845 292.094C153.909 292.37 153.375 293.352 153.651 294.286L153.742 294.592C154.018 295.527 155.001 296.061 155.937 295.785L166.969 292.528C167.905 292.252 168.439 291.271 168.162 290.336L168.072 290.03C167.796 289.095 166.813 288.561 165.877 288.837Z" fill="#F5B87B"/>
<path d="M166.358 293.36L156.128 296.38C155.223 296.647 154.706 297.596 154.974 298.5L155.097 298.918C155.365 299.822 156.315 300.338 157.22 300.071L167.449 297.051C168.354 296.784 168.871 295.835 168.603 294.931L168.48 294.514C168.213 293.61 167.262 293.093 166.358 293.36Z" fill="#F5B87B"/>
<path d="M166.118 297.935L157.851 300.375C157.023 300.619 156.551 301.488 156.795 302.315L157.001 303.011C157.246 303.838 158.115 304.31 158.943 304.066L167.209 301.626C168.037 301.381 168.51 300.513 168.265 299.686L168.06 298.99C167.815 298.163 166.946 297.691 166.118 297.935Z" fill="#F5B87B"/>
<path d="M258.372 223.18V228.291L266.324 240.2L274.106 228.518V223.18H258.372Z" fill="#F4B77A"/>
<path d="M258.624 248.047L252.806 232.497L258.353 228.252L266.396 240.224L258.624 248.047Z" fill="#7698A5"/>
<path d="M274.159 248.047L279.787 232.43L274.193 228.252L266.294 240.316L274.159 248.047Z" fill="#7698A5"/>
<path d="M237.978 204.468C241.573 204.468 244.487 200.654 244.487 195.949C244.487 191.244 241.573 187.43 237.978 187.43C234.383 187.43 231.468 191.244 231.468 195.949C231.468 200.654 234.383 204.468 237.978 204.468Z" fill="#F5BA7D"/>
<path d="M294.451 204.468C298.046 204.468 300.961 200.654 300.961 195.949C300.961 191.244 298.046 187.43 294.451 187.43C290.856 187.43 287.942 191.244 287.942 195.949C287.942 200.654 290.856 204.468 294.451 204.468Z" fill="#F5B97C"/>
<path d="M295.526 193.72C295.526 193.72 292.956 186.149 293.203 180.666C293.203 180.666 273.152 175.289 270.094 170.512C272.085 173.588 274.659 176.244 277.673 178.33C277.673 178.33 261.29 179.065 242.953 172.238L236.836 193.735C236.836 193.735 235.95 190.592 235.2 186.163C236.313 207.993 249.82 225.24 266.324 225.24C281.81 225.24 294.636 210.082 297.094 190.2C296.697 191.82 296.184 193.082 295.526 193.72Z" fill="#F4B77A"/>
<path d="M242.953 172.238C261.29 179.08 277.672 178.345 277.672 178.345C274.659 176.258 272.084 173.602 270.093 170.526C273.152 175.289 293.203 180.68 293.203 180.68C292.956 186.177 295.526 193.735 295.526 193.735C296.184 193.096 296.697 191.834 297.094 190.2C298.822 183.083 298.338 168.926 298.338 168.926C295.802 150.35 283.272 144.461 274.309 142.647C271.239 142.007 268.1 141.767 264.968 141.932C262.739 142.063 260.518 142.306 258.314 142.662C236.313 146.259 239.923 159.396 239.923 159.396C230.728 163.936 234.333 193.648 236.864 193.725L242.953 172.238Z" fill="#1A1819"/>
<path d="M274.125 210.798C273.53 212.591 270.95 214.216 267.03 214.216C263.11 214.216 260.066 212.683 259.935 210.798C259.727 207.839 263.076 208.274 266.996 208.274C270.916 208.274 275.02 208.114 274.125 210.798Z" fill="#FEFFFF"/>
<path d="M270.703 205.934H263.004C261.037 205.934 259.15 206.713 257.757 208.101C256.365 209.488 255.58 211.371 255.575 213.336V215.903C255.575 218.891 256.763 221.757 258.877 223.87C260.992 225.982 263.86 227.169 266.851 227.169C268.332 227.17 269.799 226.879 271.168 226.313C272.537 225.747 273.78 224.917 274.828 223.871C275.875 222.825 276.707 221.583 277.274 220.216C277.841 218.849 278.132 217.383 278.132 215.903V213.336C278.127 211.371 277.342 209.488 275.95 208.101C274.557 206.713 272.67 205.934 270.703 205.934ZM268.25 218.577V215.217L265.728 215.246V218.601C257.414 218.35 257.419 211.736 257.419 211.736C258.353 207.171 274.962 207.984 276.25 211.431C277.552 216.87 268.25 218.577 268.25 218.577Z" fill="#332F2D"/>
<path d="M269.59 201.998H264.668C263.765 201.998 263.032 202.729 263.032 203.632C263.032 204.535 263.765 205.266 264.668 205.266H269.59C270.494 205.266 271.226 204.535 271.226 203.632C271.226 202.729 270.494 201.998 269.59 201.998Z" fill="#DE9D5D"/>
<path d="M266.851 197.356H267.819C268.168 197.356 268.503 197.495 268.75 197.741C268.997 197.988 269.135 198.323 269.135 198.671V201.998H265.54V198.657C265.543 198.311 265.683 197.981 265.928 197.738C266.174 197.495 266.505 197.357 266.851 197.356Z" fill="#DE9D5D"/>
<path d="M298.062 188.774C295.481 186.919 292.289 186.12 289.138 186.54C288.112 188.847 288.562 191.134 289.689 193.411C290.938 194.054 292.385 193.595 293.871 192.927C293.885 191.095 295.85 189.881 298.062 188.774Z" fill="#152625"/>
<path d="M234.425 188.774C237.004 186.919 240.195 186.12 243.345 186.54C244.371 188.847 243.921 191.134 242.798 193.411C241.549 194.054 240.097 193.595 238.612 192.927C238.597 191.095 236.632 189.881 234.425 188.774Z" fill="#152625"/>
<path d="M239.42 174.361C257.089 169.526 274.962 168.22 294.035 174.844C296.175 183.02 298.507 186.521 295.057 200.557C279.086 204.348 260.724 204.459 239.517 201.732C235.146 194.963 236.516 184.809 239.42 174.361Z" fill="#CBCAB8"/>
<path d="M242.246 176.106C256.015 172.755 272.997 173.93 291.103 176.957C294.369 183.446 294.345 190.979 292.003 199.237C279.42 201.306 261.707 201.655 242.304 199.933C239.168 192.134 239.067 183.48 242.246 176.106Z" fill="#294648"/>
<path d="M246.428 175.26L267.63 201.026C271.168 201.002 274.561 200.9 277.794 200.721L260.226 174.1C255.603 174.117 250.988 174.505 246.428 175.26Z" fill="#2C5759"/>
<path d="M271.933 174.53C269.387 174.33 266.883 174.198 264.421 174.134L280.591 200.538C282.401 200.407 284.153 200.248 285.837 200.054L271.933 174.53Z" fill="#2C5759"/>
</g>
<defs>
<clipPath id="clip0_584_1031">
<rect width="444" height="412" fill="white" transform="translate(146 86)"/>
</clipPath>
</defs>
</svg>
