<svg width="900" height="514" viewBox="0 0 900 514" fill="none" xmlns="http://www.w3.org/2000/svg">
<path d="M12.5999 305.625C5.64118 367.089 49.8258 422.555 111.289 429.514L605.514 485.469C742.057 500.929 865.279 402.771 880.738 266.228V266.228C891.312 172.833 824.172 88.5486 730.777 77.9746L300.021 29.2053C160.357 13.3928 34.3187 113.794 18.5061 253.459L12.5999 305.625Z" fill="#0099C0"/>
<g clip-path="url(#clip0_584_1030)">
<path d="M401.508 337.158L518.784 359.495C521.249 359.965 523.427 361.395 524.839 363.471C526.25 365.547 526.78 368.099 526.31 370.566L510.252 454.936L374.383 429.058L390.441 344.687C390.674 343.466 391.144 342.303 391.826 341.263C392.508 340.224 393.388 339.329 394.416 338.63C395.443 337.931 396.598 337.441 397.815 337.189C399.032 336.936 400.287 336.926 401.508 337.158Z" fill="#845A42"/>
<path d="M508.91 453.257L376.021 427.946C371.586 427.101 367.306 430.013 366.461 434.45L363.883 447.997C363.038 452.433 365.949 456.715 370.385 457.56L503.274 482.87C507.709 483.715 511.989 480.803 512.834 476.366L515.412 462.82C516.256 458.383 513.346 454.101 508.91 453.257Z" fill="#684130"/>
<path d="M701.823 353.184H574.031V424.232H701.823V353.184Z" fill="#835940"/>
<path d="M706.422 424.232H569.98V432.021H706.422V424.232Z" fill="#694132"/>
<path d="M656.891 432.021H620.288V435.45H656.891V432.021Z" fill="#81563C"/>
<path d="M694.819 353.184H581.978V424.232H694.819V353.184Z" fill="#A77761"/>
<path d="M642.563 386L668.42 395.041L660.011 420.278L634 411.866L642.563 386Z" fill="#FCF5AD"/>
<path d="M594.791 359.048L618.937 346.114L631.841 369.376L608.054 382.848L594.791 359.048Z" fill="#FCF5AD"/>
<path d="M649.553 349.238L676.616 345.008L681.111 371.226L654.209 376.084L649.553 349.238Z" fill="#FCF5AD"/>
<path d="M326.93 351.938H199.138V382.171H326.93V351.938Z" fill="#835940"/>
<path d="M331.529 382.171H195.087V389.96H331.529V382.171Z" fill="#694132"/>
<path d="M281.998 389.96H245.395V393.389H281.998V389.96Z" fill="#81563C"/>
<path d="M319.92 351.938H207.079V382.171H319.92V351.938Z" fill="#A77761"/>
<path d="M234.162 341.822L261.543 342.618L261.162 369.216L233.825 369.067L234.162 341.822Z" fill="#FCF5AD"/>
<path d="M728 90H171V353.184H728V90Z" fill="#CEB798"/>
<path d="M567.769 200.428L571.299 211.238L599.429 202.046L595.899 191.236L567.769 200.428Z" fill="#815A3F"/>
<path d="M568.951 204.057L569.979 207.205L598.11 198.013L597.082 194.865L568.951 204.057Z" fill="#F0F0F3"/>
<path d="M562.805 203.282L565.68 212.087L571.007 210.347L568.132 201.541L562.805 203.282Z" fill="#E8E6EA"/>
<path d="M564.987 204.595L565.567 206.371L567.342 205.791L566.762 204.015L564.987 204.595Z" fill="#F0F0F3"/>
<path d="M566.01 207.74L566.59 209.516L568.365 208.936L567.785 207.16L566.01 207.74Z" fill="#F0F0F3"/>
<path d="M293.102 111.74H581.546L542.977 180.172H526.805V185.069H349.71V180.579H333.539L293.102 111.74Z" fill="#727972"/>
<path d="M581.546 107.071H293.102V111.74H581.546V107.071Z" fill="#DCDEDE"/>
<path d="M332.602 182.682H543.186V297.031C543.181 298.72 542.507 300.338 541.31 301.53C540.114 302.722 538.494 303.391 536.805 303.389H338.983C337.292 303.389 335.671 302.717 334.475 301.521C333.28 300.326 332.608 298.704 332.608 297.012V182.682H332.602Z" fill="white"/>
<path d="M527.946 191.397H347.848V266.077H527.946V191.397Z" fill="#E5E3E4"/>
<path d="M466.356 270.117H410.678V298.431H466.356V270.117Z" fill="#E6E4E5"/>
<path d="M316.116 121.176L344.735 177.187H531.781L561.226 121.176H316.116Z" fill="white"/>
<path d="M364.02 196.497H352.873V207.648H364.02V196.497Z" fill="#757C74"/>
<path d="M377.824 196.497H366.677V207.648H377.824V196.497Z" fill="#757C74"/>
<path d="M385.148 210.201H374.001V221.352H385.148V210.201Z" fill="#757C74"/>
<path d="M372.25 210.201H352.873V221.352H372.25V210.201Z" fill="#757C74"/>
<path d="M376.868 223.529H352.873V234.679H376.868V223.529Z" fill="#757C74"/>
<path d="M382.651 236.862H352.818V248.013H382.651V236.862Z" fill="#757C74"/>
<path d="M391.517 223.899H380.37V235.049H391.517V223.899Z" fill="#757C74"/>
<path d="M404.58 224.164H393.434V235.314H404.58V224.164Z" fill="#757C74"/>
<path d="M417.429 224.164H406.282V235.314H417.429V224.164Z" fill="#757C74"/>
<path d="M430.647 223.529H419.5V234.679H430.647V223.529Z" fill="#757C74"/>
<path d="M396.405 236.862H385.259V248.013H396.405V236.862Z" fill="#757C74"/>
<path d="M444.29 223.899H433.144V235.049H444.29V223.899Z" fill="#757C74"/>
<path d="M456.972 223.529H445.826V234.679H456.972V223.529Z" fill="#757C74"/>
<path d="M469.549 223.529H458.403V234.679H469.549V223.529Z" fill="#757C74"/>
<path d="M483.47 223.529H472.324V234.679H483.47V223.529Z" fill="#757C74"/>
<path d="M496.633 223.529H485.486V234.679H496.633V223.529Z" fill="#757C74"/>
<path d="M489.044 236.862H477.897V248.013H489.044V236.862Z" fill="#757C74"/>
<path d="M475.881 236.862H464.734V248.013H475.881V236.862Z" fill="#757C74"/>
<path d="M462.546 236.862H451.399V248.013H462.546V236.862Z" fill="#757C74"/>
<path d="M449.864 236.862H438.717V248.013H449.864V236.862Z" fill="#757C74"/>
<path d="M436.22 236.862H425.074V248.013H436.22V236.862Z" fill="#757C74"/>
<path d="M422.367 236.862H411.22V248.013H422.367V236.862Z" fill="#757C74"/>
<path d="M409.383 236.862H398.237V248.013H409.383V236.862Z" fill="#757C74"/>
<path d="M364.02 249.82H352.873V260.97H364.02V249.82Z" fill="#757C74"/>
<path d="M377.824 249.82H366.677V260.97H377.824V249.82Z" fill="#757C74"/>
<path d="M390.721 249.82H379.574V260.97H390.721V249.82Z" fill="#757C74"/>
<path d="M404.58 249.555H393.434V260.705H404.58V249.555Z" fill="#757C74"/>
<path d="M482.299 249.555H471.152V260.705H482.299V249.555Z" fill="#757C74"/>
<path d="M468.822 250.825H408.458V260.705H468.822V250.825Z" fill="#757C74"/>
<path d="M495.363 249.555H484.216V260.705H495.363V249.555Z" fill="#757C74"/>
<path d="M508.902 249.555H497.755V260.705H508.902V249.555Z" fill="#757C74"/>
<path d="M522.971 249.555H511.824V260.705H522.971V249.555Z" fill="#757C74"/>
<path d="M397.836 210.201H386.689V221.352H397.836V210.201Z" fill="#757C74"/>
<path d="M411.855 210.201H400.709V221.352H411.855V210.201Z" fill="#757C74"/>
<path d="M424.167 210.201H413.021V221.352H424.167V210.201Z" fill="#757C74"/>
<path d="M437.965 210.201H426.818V221.352H437.965V210.201Z" fill="#757C74"/>
<path d="M451.393 210.201H440.246V221.352H451.393V210.201Z" fill="#757C74"/>
<path d="M464.728 210.201H453.582V221.352H464.728V210.201Z" fill="#757C74"/>
<path d="M477.897 210.201H466.75V221.352H477.897V210.201Z" fill="#757C74"/>
<path d="M491.06 210.201H479.913V221.352H491.06V210.201Z" fill="#757C74"/>
<path d="M504.438 210.201H493.292V221.352H504.438V210.201Z" fill="#757C74"/>
<path d="M391.517 196.497H380.37V207.648H391.517V196.497Z" fill="#757C74"/>
<path d="M404.895 196.497H393.748V207.648H404.895V196.497Z" fill="#757C74"/>
<path d="M417.429 196.497H406.282V207.648H417.429V196.497Z" fill="#757C74"/>
<path d="M431.017 196.497H419.87V207.648H431.017V196.497Z" fill="#757C74"/>
<path d="M444.29 196.497H433.144V207.648H444.29V196.497Z" fill="#757C74"/>
<path d="M457.348 196.497H446.202V207.648H457.348V196.497Z" fill="#757C74"/>
<path d="M470.301 196.497H459.155V207.648H470.301V196.497Z" fill="#757C74"/>
<path d="M483.47 196.497H472.324V207.648H483.47V196.497Z" fill="#757C74"/>
<path d="M496.633 196.497H485.486V207.648H496.633V196.497Z" fill="#757C74"/>
<path d="M510.011 196.497H498.865V207.648H510.011V196.497Z" fill="#757C74"/>
<path d="M522.971 196.497H511.824V207.648H522.971V196.497Z" fill="#757C74"/>
<path d="M522.971 210.201H507.36V221.352H522.971V210.201Z" fill="#757C74"/>
<path d="M522.964 223.023H498.865V234.173H522.964V223.023Z" fill="#757C74"/>
<path d="M522.971 236.289H492.391V247.439H522.971V236.289Z" fill="#757C74"/>
<path d="M579.08 283.728C586.898 283.728 593.235 274.077 593.235 262.173C593.235 250.269 586.898 240.618 579.08 240.618C571.262 240.618 564.925 250.269 564.925 262.173C564.925 274.077 571.262 283.728 579.08 283.728Z" fill="#F5F2F5"/>
<path d="M579.117 253.964C580.053 253.964 580.812 252.178 580.812 249.974C580.812 247.77 580.053 245.984 579.117 245.984C578.18 245.984 577.421 247.77 577.421 249.974C577.421 252.178 578.18 253.964 579.117 253.964Z" fill="#727972"/>
<path d="M267.449 198.524L193.933 236.076L242.948 332.099L316.464 294.547L267.449 198.524Z" fill="#855C46"/>
<path d="M264.041 207.986L202.731 239.303L246.363 324.78L307.673 293.463L264.041 207.986Z" fill="#FEFFFF"/>
<path d="M233.022 213.76C228.54 210.972 224.335 214.216 224.249 218.237L214.606 223.171L220.056 233.853L247.707 219.668L242.251 208.998L233.022 213.76ZM246.11 219.446L220.586 232.484L219.655 230.664L245.179 217.633L246.11 219.446Z" fill="#FDBC02"/>
<path d="M229.85 233.822L210.989 243.456L211.968 245.373L230.829 235.738L229.85 233.822Z" fill="#5D9BCF"/>
<path d="M231.691 237.421L212.83 247.056L213.808 248.972L232.669 239.338L231.691 237.421Z" fill="#5D9BCF"/>
<path d="M270.188 230.603L218.031 257.245L219.009 259.162L271.166 232.52L270.188 230.603Z" fill="#5D9BCF"/>
<path d="M271.932 234.018L219.775 260.66L220.754 262.577L272.911 235.935L271.932 234.018Z" fill="#5D9BCF"/>
<path d="M273.857 237.794L221.7 264.435L222.678 266.352L274.835 239.711L273.857 237.794Z" fill="#5D9BCF"/>
<path d="M277.532 244.981L225.375 271.623L226.354 273.54L278.51 246.898L277.532 244.981Z" fill="#5D9BCF"/>
<path d="M279.487 248.822L227.33 275.464L228.309 277.381L280.466 250.739L279.487 248.822Z" fill="#5D9BCF"/>
<path d="M281.263 252.296L229.106 278.938L230.084 280.855L282.241 254.213L281.263 252.296Z" fill="#5D9BCF"/>
<path d="M283.038 255.777L230.881 282.418L231.86 284.335L284.017 257.694L283.038 255.777Z" fill="#5D9BCF"/>
<path d="M286.581 262.729L234.424 289.37L235.403 291.287L287.559 264.645L286.581 262.729Z" fill="#5D9BCF"/>
<path d="M250.593 276.724L232.649 285.89L233.628 287.806L251.572 278.641L250.593 276.724Z" fill="#5D9BCF"/>
<path d="M288.542 266.561L236.385 293.203L237.364 295.119L289.52 268.478L288.542 266.561Z" fill="#5D9BCF"/>
<path d="M290.497 270.402L238.341 297.043L239.319 298.96L291.476 272.319L290.497 270.402Z" fill="#5D9BCF"/>
<path d="M292.458 274.234L240.302 300.875L241.28 302.792L293.437 276.151L292.458 274.234Z" fill="#5D9BCF"/>
<path d="M294.203 277.648L242.046 304.29L243.025 306.207L295.182 279.565L294.203 277.648Z" fill="#5D9BCF"/>
<path d="M296.159 281.489L244.002 308.131L244.98 310.048L297.137 283.406L296.159 281.489Z" fill="#5D9BCF"/>
<path d="M281.317 293.904L245.961 311.964L246.94 313.88L282.295 295.821L281.317 293.904Z" fill="#5D9BCF"/>
<path d="M252.759 232.474L234.7 290.726C233.912 293.267 235.333 295.965 237.873 296.753L251.387 300.946C253.927 301.734 256.624 300.313 257.412 297.772L275.471 239.52C276.259 236.979 274.838 234.281 272.299 233.493L258.784 229.3C256.245 228.512 253.547 229.933 252.759 232.474Z" stroke="#DA2621" stroke-miterlimit="10"/>
<path d="M241.709 290.715L241.141 290.543L240.408 292.917L243.176 293.774L243.916 291.394L243.071 291.129L243.459 289.895L245.697 290.592L244.181 295.477L238.632 293.756L240.143 288.865L242.103 289.482L241.709 290.715Z" fill="#DA0026"/>
<path d="M245.981 289.661L240.432 287.934L242.14 282.439L247.689 284.166L245.981 289.661ZM243.133 284.11L242.208 287.101L244.976 287.959L245.901 284.974L243.133 284.11Z" fill="#DA0026"/>
<path d="M242.411 281.526L243.644 277.523C243.703 277.347 243.804 277.188 243.94 277.061C244.1 276.923 244.298 276.835 244.508 276.808C244.797 276.778 245.09 276.814 245.365 276.913L245.808 277.049C245.931 277.086 246.048 277.143 246.154 277.215C246.242 277.277 246.324 277.348 246.4 277.425C246.469 277.5 246.529 277.583 246.579 277.671C246.68 277.625 246.786 277.588 246.893 277.56C247.005 277.535 247.118 277.521 247.233 277.517C247.377 277.52 247.521 277.545 247.658 277.591L248.139 277.739C248.407 277.812 248.654 277.947 248.86 278.134C249.021 278.281 249.14 278.468 249.205 278.677C249.261 278.858 249.261 279.051 249.205 279.232L247.972 283.253L242.411 281.526ZM245.667 278.442L244.964 278.227L244.181 280.749L244.884 280.965L245.667 278.442ZM247.732 279.059L246.912 278.8L246.129 281.329L246.949 281.582L247.732 279.059Z" fill="#DA0026"/>
<path d="M248.601 273.367L247.985 275.439L248.805 275.698L249.902 272.158L251.295 272.596L249.816 277.382L244.267 275.655L245.734 270.912L247.134 271.344L246.049 274.835L246.752 275.057L247.399 272.978L248.601 273.367Z" fill="#DA0026"/>
<path d="M248.989 266.836C248.929 266.813 248.864 266.802 248.8 266.806C248.735 266.809 248.672 266.825 248.614 266.854C248.556 266.883 248.504 266.924 248.463 266.974C248.422 267.024 248.391 267.082 248.373 267.144L247.368 270.388L245.969 269.956L247.202 266.065C247.256 265.901 247.351 265.754 247.477 265.637C247.603 265.519 247.756 265.435 247.923 265.392C248.314 265.269 248.734 265.269 249.125 265.392L249.643 265.553C249.966 265.637 250.26 265.808 250.494 266.046C250.659 266.219 250.775 266.431 250.833 266.663C250.874 266.837 250.874 267.019 250.833 267.193L250.05 269.709L251.973 270.326L251.56 271.658L248.293 270.672L249.298 267.434C249.318 267.374 249.326 267.311 249.321 267.249C249.316 267.186 249.299 267.125 249.27 267.069C249.241 267.014 249.202 266.964 249.154 266.924C249.105 266.884 249.05 266.854 248.989 266.836V266.836Z" fill="#DA0026"/>
<path d="M247.75 264.301L248.163 262.969L252.325 264.258L252.867 262.512L248.706 261.223L249.088 259.99L253.256 261.279L253.792 259.54L249.631 258.244L250.044 256.912L255.592 258.633L253.293 266.034L247.75 264.301Z" fill="#DA0026"/>
<path d="M254.705 253.693L254.057 255.771L254.877 256.024L255.975 252.49L257.374 252.922L255.889 257.72L250.34 256L251.813 251.251L253.207 251.682L252.122 255.179L252.824 255.395L253.441 253.323L254.705 253.693Z" fill="#DA0026"/>
<path d="M252.097 250.282L252.51 248.944L254.606 249.598L255.482 246.773L253.385 246.126L253.799 244.787L259.347 246.514L258.946 247.853L256.727 247.168L255.852 249.986L258.071 250.677L257.652 252.015L252.097 250.282Z" fill="#DA0026"/>
<path d="M254.082 243.875L254.495 242.536L256.597 243.19L257.473 240.365L255.371 239.718L255.784 238.38L261.332 240.106L260.919 241.439L258.7 240.754L257.824 243.572L260.044 244.263L259.631 245.601L254.082 243.875Z" fill="#DA0026"/>
<path d="M261.628 239.218L256.08 237.491L257.781 231.996L263.33 233.723L261.628 239.218ZM258.78 233.668L257.849 236.659L260.623 237.516L261.548 234.531L258.78 233.668Z" fill="#DA0026"/>
<path d="M252.35 286.337L251.789 286.158L251.055 288.557L253.823 289.42L254.563 287.034L253.718 286.775L254.107 285.541L256.345 286.232L254.828 291.122L249.279 289.396L250.796 284.511L252.756 285.128L252.35 286.337Z" fill="#DA2621"/>
<path d="M255.444 281.261L254.828 283.339L255.654 283.592L256.745 280.052L258.145 280.49L256.659 285.276L251.11 283.555L252.584 278.806L253.977 279.238L252.898 282.735L253.601 282.951L254.218 280.878L255.444 281.261Z" fill="#DA2621"/>
<path d="M258.811 278.239L258.398 279.577L252.849 277.85L253.262 276.512L255.364 277.166L255.549 276.549L254.02 274.082L254.557 272.343L256.456 275.519L260.229 273.712L259.643 275.605L256.788 276.944L256.597 277.56L258.811 278.239Z" fill="#DA2621"/>
<path d="M257.867 268.155C257.806 268.132 257.741 268.122 257.676 268.126C257.611 268.13 257.548 268.147 257.49 268.177C257.432 268.206 257.381 268.247 257.339 268.298C257.298 268.348 257.268 268.407 257.251 268.47L256.246 271.708L254.846 271.276L256.079 267.384C256.133 267.221 256.228 267.074 256.354 266.958C256.48 266.841 256.634 266.759 256.801 266.718C257.192 266.592 257.612 266.592 258.003 266.718L258.521 266.879C258.844 266.963 259.138 267.134 259.372 267.372C259.537 267.545 259.653 267.757 259.711 267.989C259.752 268.163 259.752 268.345 259.711 268.519L258.928 271.035L260.851 271.652L260.438 272.99L257.177 271.979L258.182 268.735C258.215 268.616 258.2 268.49 258.142 268.382C258.083 268.274 257.985 268.192 257.867 268.155Z" fill="#DA2621"/>
<path d="M260.999 263.333L260.383 265.405L261.203 265.664L262.3 262.124L263.693 262.562L262.208 267.347L256.659 265.621L258.126 260.878L259.526 261.31L258.441 264.8L259.144 265.022L259.76 262.944L260.999 263.333Z" fill="#DA2621"/>
<path d="M260.888 256.82L265.05 258.109L264.637 259.435L260.488 258.146L260.136 259.274C260.052 259.546 259.891 259.787 259.672 259.968C259.453 260.149 259.186 260.261 258.903 260.292L258.237 260.378L260.142 254.242C260.328 254.299 260.5 254.392 260.649 254.516C260.799 254.64 260.922 254.793 261.011 254.965C261.101 255.137 261.155 255.326 261.171 255.519C261.187 255.713 261.164 255.907 261.104 256.092L260.888 256.82Z" fill="#DA2621"/>
<path d="M260.333 253.662L260.747 252.324L262.849 252.977L263.724 250.153L261.622 249.505L262.035 248.167L267.584 249.894L267.171 251.226L264.951 250.541L264.082 253.36L266.295 254.051L265.882 255.389L260.333 253.662Z" fill="#DA2621"/>
<path d="M267.886 248.981L262.337 247.254L264.045 241.759L269.594 243.486L267.886 248.981ZM265.038 243.43L264.113 246.422L266.881 247.279L267.806 244.294L265.038 243.43Z" fill="#DA2621"/>
<path d="M688.783 164.625L658.919 138.432C658.011 137.637 656.925 137.074 655.753 136.79C654.58 136.507 653.357 136.511 652.187 136.804L691.28 171.088C691.417 169.889 691.262 168.674 690.827 167.549C690.392 166.423 689.691 165.42 688.783 164.625V164.625Z" fill="#F5EEDC"/>
<path d="M638.666 150.199C638.018 150.937 637.521 151.795 637.205 152.725C636.889 153.655 636.759 154.638 636.823 155.619C636.887 156.599 637.144 157.557 637.579 158.438C638.014 159.318 638.618 160.105 639.357 160.751L669.239 186.944C670.732 188.251 672.682 188.911 674.661 188.78C676.64 188.65 678.486 187.739 679.794 186.247L687.377 177.613L646.268 141.565L638.666 150.199Z" fill="#F5EEDC"/>
<path d="M691.28 171.088L652.187 136.804C650.703 137.166 649.368 137.978 648.364 139.129L646.25 141.547L687.359 177.594L689.474 175.177C690.481 174.031 691.111 172.604 691.28 171.088Z" fill="#062345"/>
<path d="M667.883 124.475H628.173C624.043 124.475 620.695 127.825 620.695 131.956V146.678C620.695 150.809 624.043 154.159 628.173 154.159H667.883C672.013 154.159 675.362 150.809 675.362 146.678V131.956C675.362 127.825 672.013 124.475 667.883 124.475Z" fill="#062366"/>
<path d="M270.745 112.165L242.23 102.393C239.241 101.369 235.987 102.962 234.963 105.953L210.506 177.372C209.482 180.362 211.075 183.617 214.064 184.641L242.579 194.413C245.568 195.438 248.821 193.844 249.845 190.854L274.303 119.434C275.327 116.444 273.734 113.189 270.745 112.165Z" fill="#374256"/>
<path d="M270.382 121.76L236.344 110.095L214.134 174.951L248.172 186.616L270.382 121.76Z" fill="#5D9BCF"/>
<path d="M258.307 110.62L252.113 108.497C251.321 108.225 250.458 108.648 250.187 109.441L250.185 109.446C249.913 110.239 250.336 111.102 251.128 111.373L257.322 113.496C258.115 113.768 258.977 113.345 259.249 112.552L259.251 112.547C259.522 111.754 259.1 110.891 258.307 110.62Z" fill="#414C68"/>
<path d="M229.625 187.838C231.174 187.838 232.43 186.582 232.43 185.032C232.43 183.482 231.174 182.226 229.625 182.226C228.075 182.226 226.82 183.482 226.82 185.032C226.82 186.582 228.075 187.838 229.625 187.838Z" fill="#414C68"/>
<path d="M677.312 236.375L640.899 227.475C638.458 226.879 635.996 228.374 635.399 230.816L623.674 278.823C623.078 281.265 624.573 283.728 627.014 284.325L663.427 293.224C665.868 293.821 668.331 292.325 668.927 289.883L680.652 241.877C681.249 239.435 679.753 236.972 677.312 236.375Z" fill="#374256"/>
<path d="M676.095 239.987L639.472 231.036L637.286 239.986L673.909 248.937L676.095 239.987Z" fill="#8BCDCC"/>
<path d="M651.968 247.247L638.391 243.929C637.316 243.666 636.232 244.325 635.969 245.4L634.941 249.612C634.678 250.687 635.336 251.772 636.411 252.035L649.989 255.353C651.064 255.616 652.148 254.957 652.411 253.882L653.439 249.67C653.702 248.595 653.043 247.51 651.968 247.247Z" fill="#E06B5C"/>
<path d="M662.119 249.732L656.933 248.464C656.215 248.289 655.491 248.729 655.316 249.447L653.971 254.953C653.795 255.671 654.235 256.395 654.953 256.57L660.139 257.838C660.857 258.014 661.581 257.574 661.756 256.856L663.101 251.35C663.277 250.632 662.837 249.908 662.119 249.732Z" fill="#FFF9E9"/>
<path d="M672.009 252.147L666.822 250.879C666.105 250.704 665.381 251.143 665.205 251.861L663.86 257.367C663.685 258.085 664.125 258.81 664.842 258.985L670.029 260.253C670.747 260.428 671.471 259.988 671.646 259.27L672.991 253.764C673.166 253.046 672.727 252.322 672.009 252.147Z" fill="#FFF9E9"/>
<path d="M640.542 254.794L635.355 253.527C634.638 253.351 633.913 253.791 633.738 254.509L632.393 260.015C632.218 260.733 632.658 261.457 633.375 261.633L638.562 262.9C639.28 263.076 640.004 262.636 640.179 261.918L641.524 256.412C641.699 255.694 641.26 254.97 640.542 254.794Z" fill="#FFF9E9"/>
<path d="M650.227 257.162L645.041 255.894C644.323 255.719 643.599 256.159 643.423 256.877L642.079 262.383C641.903 263.101 642.343 263.825 643.061 264L648.247 265.268C648.965 265.443 649.689 265.004 649.864 264.286L651.209 258.78C651.385 258.062 650.945 257.338 650.227 257.162Z" fill="#FFF9E9"/>
<path d="M659.737 259.488L654.55 258.221C653.832 258.045 653.108 258.485 652.933 259.203L651.588 264.709C651.413 265.427 651.853 266.151 652.57 266.327L657.757 267.594C658.475 267.77 659.199 267.33 659.374 266.612L660.719 261.106C660.894 260.388 660.454 259.664 659.737 259.488Z" fill="#FFF9E9"/>
<path d="M669.632 261.904L664.446 260.637C663.728 260.461 663.004 260.901 662.829 261.619L661.484 267.125C661.309 267.843 661.748 268.567 662.466 268.743L667.652 270.01C668.37 270.186 669.094 269.746 669.27 269.028L670.614 263.522C670.79 262.804 670.35 262.08 669.632 261.904Z" fill="#FFF9E9"/>
<path d="M638.53 264.326L633.343 263.058C632.625 262.883 631.901 263.323 631.726 264.041L630.381 269.546C630.206 270.264 630.645 270.989 631.363 271.164L636.55 272.432C637.267 272.607 637.992 272.167 638.167 271.449L639.512 265.944C639.687 265.226 639.247 264.501 638.53 264.326Z" fill="#FFF9E9"/>
<path d="M648.221 266.694L643.035 265.426C642.317 265.25 641.593 265.69 641.417 266.408L640.073 271.914C639.897 272.632 640.337 273.356 641.055 273.532L646.241 274.8C646.959 274.975 647.683 274.535 647.858 273.817L649.203 268.311C649.378 267.593 648.939 266.869 648.221 266.694Z" fill="#FFF9E9"/>
<path d="M657.724 269.014L652.538 267.746C651.82 267.571 651.096 268.011 650.921 268.729L649.576 274.234C649.401 274.952 649.84 275.677 650.558 275.852L655.745 277.12C656.462 277.295 657.186 276.855 657.362 276.137L658.706 270.631C658.882 269.913 658.442 269.189 657.724 269.014Z" fill="#FFF9E9"/>
<path d="M667.614 271.434L662.428 270.167C661.71 269.991 660.986 270.431 660.811 271.149L659.466 276.655C659.291 277.373 659.73 278.097 660.448 278.273L665.634 279.54C666.352 279.716 667.076 279.276 667.252 278.558L668.596 273.052C668.772 272.334 668.332 271.61 667.614 271.434Z" fill="#FFF9E9"/>
<path d="M636.223 273.782L631.036 272.514C630.319 272.339 629.595 272.778 629.419 273.496L628.075 279.002C627.899 279.72 628.339 280.444 629.057 280.62L634.243 281.888C634.961 282.063 635.685 281.623 635.86 280.905L637.205 275.399C637.38 274.681 636.941 273.957 636.223 273.782Z" fill="#FFF9E9"/>
<path d="M645.908 276.149L640.722 274.881C640.004 274.706 639.28 275.146 639.105 275.864L637.76 281.37C637.584 282.088 638.024 282.812 638.742 282.987L643.928 284.255C644.646 284.43 645.37 283.991 645.546 283.273L646.89 277.767C647.066 277.049 646.626 276.325 645.908 276.149Z" fill="#FFF9E9"/>
<path d="M655.412 278.469L650.225 277.202C649.507 277.026 648.783 277.466 648.608 278.184L647.263 283.69C647.088 284.408 647.528 285.132 648.245 285.308L653.432 286.575C654.15 286.751 654.874 286.311 655.049 285.593L656.394 280.087C656.569 279.369 656.129 278.645 655.412 278.469Z" fill="#FFF9E9"/>
<path d="M665.301 280.884L660.115 279.616C659.397 279.441 658.673 279.881 658.498 280.599L657.153 286.105C656.978 286.823 657.417 287.547 658.135 287.722L663.321 288.99C664.039 289.165 664.763 288.726 664.939 288.008L666.283 282.502C666.459 281.784 666.019 281.059 665.301 280.884Z" fill="#FFF9E9"/>
</g>
<defs>
<clipPath id="clip0_584_1030">
<rect width="557" height="393" fill="white" transform="translate(171 90)"/>
</clipPath>
</defs>
</svg>
