<svg width="984" height="659" viewBox="0 0 984 659" fill="none" xmlns="http://www.w3.org/2000/svg">
<path d="M918.415 394.34C949.017 469.411 892.198 551.119 811.169 548.563L665.02 543.952C456.625 537.377 371.268 273.241 535.793 145.167C541.914 140.402 548.422 136.134 555.231 132.419C667.073 71.4145 807.108 121.294 855.199 239.266L918.415 394.34Z" fill="#0099C0"/>
<g clip-path="url(#clip0_584_1033)">
<path d="M769.99 477.6L787.28 455.38L792.38 459.58L774.54 480.57L769.99 477.6Z" fill="#E8A092"/>
<path d="M814.98 479.92L820.45 484.4L778.72 485.5L774.29 480.88L814.98 479.92Z" fill="#E8A092"/>
<path d="M789.83 516.83L820.22 483.4L824.32 486.98L794.51 522.33L789.83 516.83Z" fill="#E8A092"/>
<path d="M827.73 490.01L813.91 524.58L807.82 517.76L822.98 485.86L827.73 490.01Z" fill="#E8A092"/>
<path d="M754.77 475.65L781.71 449.9L787.97 455.38L759.5 481.2L754.77 475.65Z" fill="#E8A092"/>
<path d="M771.37 440.85L757.73 455.38L753.45 450.04L764.9 435.44L771.37 440.85Z" fill="#E8A092"/>
<path d="M780.98 449.42L754.77 461.24L758.7 452.75L775.59 444.92L780.98 449.42Z" fill="#E8A092"/>
<path d="M750.5 464.95L804.05 524.58H813.91L750.5 453.6V464.95Z" fill="#FBA284"/>
<path d="M746.33 429.8L854.71 524.58H863.81L746.33 422.42V429.8Z" fill="#FBA284"/>
<path d="M746.33 414.35L871.76 522.94H863.81L746.33 419V414.35Z" fill="#FBA284"/>
<path d="M750.5 477.19L787.07 522.94H795.03L750.5 470.63V477.19Z" fill="#FBA284"/>
<path d="M578.53 477.6L561.24 455.38L556.14 459.58L573.98 480.57L578.53 477.6Z" fill="#E8A092"/>
<path d="M533.54 479.92L528.07 484.4L569.8 485.5L574.22 480.88L533.54 479.92Z" fill="#E8A092"/>
<path d="M558.69 516.83L528.3 483.4L524.2 486.98L554.01 522.33L558.69 516.83Z" fill="#E8A092"/>
<path d="M520.79 490.01L534.61 524.58L540.7 517.76L525.54 485.86L520.79 490.01Z" fill="#E8A092"/>
<path d="M593.75 475.65L566.81 449.9L560.55 455.38L589.02 481.2L593.75 475.65Z" fill="#E8A092"/>
<path d="M577.15 440.85L590.79 455.38L595.07 450.04L583.62 435.44L577.15 440.85Z" fill="#E8A092"/>
<path d="M567.54 449.42L593.75 461.24L589.82 452.75L572.93 444.92L567.54 449.42Z" fill="#E8A092"/>
<path d="M598.02 464.95L544.47 524.58H534.61L598.02 453.6V464.95Z" fill="#FBA284"/>
<path d="M602.19 429.8L493.81 524.58H484.71L602.19 422.42V429.8Z" fill="#FBA284"/>
<path d="M602.19 414.35L476.76 522.94H484.71L602.19 419V414.35Z" fill="#FBA284"/>
<path d="M598.02 477.19L561.45 522.94H553.49L598.02 470.63V477.19Z" fill="#FBA284"/>
<path d="M674.6 551.74H400L458.1 522.94H674.6V551.74Z" fill="#5B294C"/>
<path d="M674.6 551.74H949.19L891.09 522.94H674.6V551.74Z" fill="#5B294C"/>
<path d="M615.98 375.94C615.98 375.94 569.75 410.04 596.51 492.73C597.848 493.868 599.548 494.494 601.305 494.494C603.062 494.494 604.762 493.868 606.1 492.73L635.45 446.5L652.45 391.35L615.98 375.94Z" fill="#C62C24"/>
<path d="M602.23 487.04C602.233 489.495 602.43 491.946 602.82 494.37C604.047 494.093 605.19 493.523 606.15 492.71L634.95 447.33C616.72 448.18 602.23 465.64 602.23 487.04Z" fill="#9E1E1D"/>
<path d="M732.55 374.32C732.55 374.32 778.78 408.38 752.01 491.11C750.674 492.25 748.976 492.876 747.22 492.876C745.464 492.876 743.766 492.25 742.43 491.11L713.08 444.88L696.08 389.73L732.55 374.32Z" fill="#C62C24"/>
<path d="M746.33 485.43C746.328 487.888 746.13 490.343 745.74 492.77C744.519 492.485 743.381 491.916 742.42 491.11L713.62 445.73C731.81 446.56 746.33 464.04 746.33 485.43Z" fill="#9E1E1D"/>
<path d="M674.23 183.04C674.23 183.04 590.03 230.04 616.79 375.98C616.79 375.98 634.11 453.65 642.88 466.32C651.65 478.99 697.46 475.55 706.19 466.32C714.92 457.09 733.58 369.49 733.58 369.49C733.58 369.49 760.88 244.73 674.23 183.04Z" fill="white"/>
<path d="M663.522 294.544C664.71 291.198 663.864 287.842 661.631 287.05C659.398 286.257 656.625 288.327 655.437 291.673C654.248 295.02 655.095 298.375 657.328 299.168C659.56 299.961 662.334 297.891 663.522 294.544Z" fill="#F9F9F9"/>
<path d="M674.38 243.74C689.522 243.823 704.523 240.826 718.47 234.93C708.231 214.248 693.032 196.422 674.23 183.04C674.23 183.04 648.52 197.39 630.03 234.85C644.05 240.816 659.144 243.842 674.38 243.74Z" fill="#FF0000"/>
</g>
<defs>
<clipPath id="clip0_584_1033">
<rect width="549.19" height="368.74" fill="white" transform="translate(400 183)"/>
</clipPath>
</defs>
</svg>
