<svg width="956" height="536" viewBox="0 0 956 536" fill="none" xmlns="http://www.w3.org/2000/svg">
<path d="M66.6901 438.926C75.1784 493.854 122.665 534.248 178.244 533.818L705.595 529.734C843.663 528.665 954.721 415.873 953.652 277.806L953.102 206.791C952.394 115.385 879.924 40.6981 788.58 37.2381L308.259 19.0446C148.417 12.9901 22.6826 154.15 47.1113 312.23L66.6901 438.926Z" fill="#0099C0"/>
<g clip-path="url(#clip0_584_1035)">
<path d="M229.172 296.702C229.172 296.702 241.044 396.734 370.422 348.343C370.422 348.343 543.201 263.097 561.536 237.286C561.536 237.286 524.129 253.958 519.932 254.553L630.814 193.171C630.814 193.171 670.528 170.424 676.997 147.624C676.997 147.624 644.819 176.853 631.35 178.646C631.35 178.646 652.133 163.673 654.714 157.572C654.714 157.572 687.965 124.85 721.927 131.935C721.927 131.935 676.106 120.274 633.328 155.873C633.328 155.873 610.87 170.217 599.996 166.805C599.996 166.805 617.158 159.9 624.345 152.28C624.345 152.28 655.853 124.757 685.806 123.773C685.806 123.773 644.202 123.412 624.526 133.541C624.526 133.541 593.614 152.641 577.083 150.219C577.083 150.219 609.436 130.49 619.766 129.145C619.766 129.145 578.973 130.309 557.32 142.593C557.32 142.593 540.694 151.109 534.319 149.497C539.921 141.594 547.732 135.514 556.777 132.015C556.777 132.015 518.685 135.869 483.818 154.334C483.818 154.334 379.841 167.902 309.183 198.55C309.203 198.543 225.042 229.184 229.172 296.702Z" fill="#FF6D00"/>
<path d="M309.203 198.543C309.203 198.543 225.062 229.184 229.192 296.702C229.192 296.702 241.064 396.734 370.442 348.343C370.442 348.343 437.83 315.093 492.902 283.836L516.708 260.421C514.556 262.334 450.815 291.503 450.815 291.503C476.203 258.139 552.553 230.161 552.553 230.161C548.296 226.147 525.959 231.238 525.959 231.238C555.188 218.921 566.33 198.182 566.33 198.182C561.422 202.905 531.952 210.311 531.952 210.311C558.768 183.055 605.507 176.485 605.507 176.485C583.706 167.996 557.239 176.599 557.239 176.599C584.792 167.634 597.134 153.183 597.134 153.183C582.875 149.952 532.435 166.925 532.435 166.925C535.787 159.633 561.429 149.116 561.429 149.116C548.732 145.771 505.117 163.165 505.117 163.165C519.335 157.111 522.547 146.741 522.547 146.741C518.953 153.317 457.734 168.497 457.734 168.497C460.609 163.955 483.912 154.361 483.912 154.361C483.912 154.361 379.841 167.895 309.203 198.543Z" fill="#FFB001"/>
<path d="M342.836 356.927C358.53 351.916 431.273 295.189 431.273 295.189L414.701 299.618C435.142 293.49 488.551 248.485 488.551 248.485L460.75 254.339C459.162 246.451 504.439 234.268 504.439 234.268C493.881 227.986 470.364 232.402 470.364 232.402C502.911 222.647 519.215 200.744 519.215 200.744C513.376 200.744 463.11 213.642 463.11 213.642C530.638 188.661 547.25 168.49 547.25 168.49C537.637 180.058 439.318 202.51 439.318 202.51C455.481 186.587 504.118 180.145 504.118 180.145C470.431 167.152 415.312 189.738 415.312 189.738C425.24 183.811 429.276 171.273 429.276 171.273C424.114 179.904 380.847 192.16 380.847 192.16C383.093 189.484 394.684 179.449 394.684 179.449C305.676 198.503 268.725 221.343 253.855 234.723C239.107 250.144 227.583 270.683 229.172 296.701C229.172 296.701 239.308 382.055 342.836 356.927Z" fill="#FFCE34"/>
<path d="M294.454 353.354C294.454 353.354 245.321 336.903 242.834 306.061C242.834 306.061 225.277 255.624 291.149 216.821C291.149 216.821 338.713 193.699 352.355 198.416C352.355 198.416 337.848 207.019 339.464 212.606C339.464 212.606 376.972 201.661 378.058 200.858C378.058 200.858 363.155 212.231 359.649 214.084C359.649 214.084 419.133 195.124 429.912 198.697C429.912 198.697 404.485 212.238 401.609 217.523C401.609 217.523 452.437 205.755 468.071 205.039C468.071 205.039 429.611 225.598 424.999 229.425C424.999 229.425 455.836 229.425 481.244 219.082C481.244 219.082 413.649 250.359 411.175 258.688C411.175 258.688 441.711 246.284 453.41 251.362C453.41 251.362 397.573 277.896 395.421 283.85C395.421 283.85 433.338 276.169 439.633 280.056C439.633 280.056 387.182 300.723 387.343 304.884L385.211 309.975L409.345 304.897C414.742 308.51 332.043 370.361 294.454 353.354Z" fill="#FFEB76"/>
<path d="M278.056 235.466C278.056 235.466 300.937 211.013 324.776 224.407C324.776 224.407 359.321 218.239 379.184 251.516C379.184 251.516 403.003 272.115 384.795 310.851C384.795 310.851 373.171 342.416 349.453 337.151C349.453 337.151 333.994 360.225 305.482 351.374C305.482 351.374 279.484 345.279 267.27 321.268C267.27 321.268 241.869 306.797 253.373 270.69C253.373 270.67 256.242 243.421 278.056 235.466Z" fill="#5A3C34"/>
<path d="M387.276 262.99C383.683 255.41 379.184 251.517 379.184 251.517C359.321 218.239 324.776 224.408 324.776 224.408C300.937 211.027 278.056 235.467 278.056 235.467C256.242 243.421 253.373 270.671 253.373 270.671C241.869 306.798 267.27 321.249 267.27 321.249C267.94 322.587 268.684 323.878 269.449 325.115C269.683 325.41 290.901 352.084 316.503 350.304C316.503 350.304 337.801 350.244 343.01 336.255C343.01 336.255 343.312 331.94 349.929 330.816C349.929 330.816 397.861 329.056 387.276 262.99Z" fill="#7D5B42"/>
<path d="M378.025 260.1C378.025 260.1 370.878 234.356 348.085 226.455C340.551 224.096 332.593 223.398 324.762 224.408C300.923 211.027 278.043 235.467 278.043 235.467C256.242 243.421 253.373 270.671 253.373 270.671C250.832 278.645 250.095 285.563 250.483 291.504L253.312 299.184C253.312 299.184 251.75 308.551 274.336 319.395C274.336 319.395 286.792 344.738 313.151 337.566C313.151 337.566 327.786 335.265 333.973 312.143C333.973 312.143 347.951 318.613 351.967 311.802C351.967 311.802 358.979 298.114 364.248 296.555C364.248 296.562 388.268 280.003 378.025 260.1Z" fill="#BB8A69"/>
<path d="M382.818 260.401L380.807 253.129C380.304 252.564 379.771 252.025 379.211 251.517C359.348 218.239 324.802 224.408 324.802 224.408C300.964 211.027 278.083 235.467 278.083 235.467C256.242 243.421 253.373 270.671 253.373 270.671C247.467 289.202 251.288 302.028 256.396 310.143C259.165 313.127 263.77 316.659 271.279 320.426C271.279 320.426 301.949 365.317 330.642 331.364C330.642 331.364 332.653 328.548 337.412 327.644C337.412 327.631 384.702 323.436 382.818 260.401Z" fill="#977359"/>
<path d="M326.391 310.697C331.6 297.611 354.789 285.863 354.789 285.863C377.522 266.495 362.069 243.541 362.069 243.541C351.832 225.424 323.616 227.933 323.616 227.933C322.778 229.157 309.813 223.658 309.813 223.658C306.038 222.072 298.939 222.213 298.939 222.213C286.724 226.227 278.063 235.466 278.063 235.466C269.154 238.711 263.402 245.18 259.721 251.703C248.908 275.353 253.976 293.851 253.976 293.851C261.35 314.591 279.136 316.719 279.136 316.719C288.836 316.177 299.442 322.813 299.442 322.813C317.763 331.945 326.391 310.697 326.391 310.697Z" fill="#DCB483"/>
<path d="M279.129 268.061C279.129 268.061 274.704 283.381 290.365 283.91C300.602 277.22 309.504 257.979 296.713 249.335C295.359 249.516 282.327 251.697 279.129 268.061Z" fill="#CC9B7A"/>
<path d="M275.113 279.976C270.079 274.263 275.268 244.612 296.834 249.322L296.519 249.201C293.066 247.841 289.339 247.323 285.645 247.689C264.783 250.252 263.301 287.69 282.689 286.178C285.338 285.911 287.915 285.158 290.291 283.957L290.392 283.91C290.392 283.91 281.288 286.994 275.113 279.976Z" fill="#7E5841"/>
<path d="M279.129 268.061C282.327 251.697 295.359 249.516 296.713 249.328H296.834C275.268 244.645 270.079 274.27 275.113 279.983C281.288 287.001 290.392 283.917 290.392 283.917C274.705 283.382 279.129 268.061 279.129 268.061Z" fill="#B6876B"/>
<path d="M324.548 250.606C324.548 250.606 326.023 259.839 334.469 256.233C338.237 250.151 338.163 237.708 329.214 236.296C328.537 236.731 322.161 241.126 324.548 250.606Z" fill="#CC9B7A"/>
<path d="M325.386 257.932C321.29 256.146 316.671 239.113 329.274 236.256H329.073C326.902 236.389 324.794 237.038 322.925 238.149C312.487 244.699 321.035 264.943 330.97 259.324C332.308 258.524 333.487 257.485 334.449 256.26L334.496 256.206C334.496 256.206 330.414 260.147 325.386 257.932Z" fill="#7E5841"/>
<path d="M324.548 250.606C322.161 241.126 328.536 236.731 329.24 236.296L329.301 236.256C316.671 239.113 321.316 256.146 325.412 257.932C330.44 260.127 334.51 256.226 334.51 256.226C326.022 259.839 324.548 250.606 324.548 250.606Z" fill="#B6876B"/>
<path d="M295.594 304.516C295.594 304.516 293.978 311.166 302.646 312.651C307.936 310.417 311.81 302.328 304.282 297.357C303.545 297.331 296.465 297.297 295.594 304.516Z" fill="#CC9B7A"/>
<path d="M294.018 309.654C290.935 306.637 292.195 293.504 304.349 297.364L304.168 297.291C302.252 296.408 300.192 295.88 298.088 295.732C286.691 295.25 287.918 312.236 298.537 313.086C299.907 313.181 301.283 313.043 302.606 312.678H302.66C301.087 312.818 299.502 312.62 298.011 312.098C296.521 311.577 295.16 310.744 294.018 309.654Z" fill="#7E5841"/>
<path d="M295.594 304.516C296.472 297.297 303.544 297.331 304.309 297.357H304.376C292.222 293.497 290.968 306.63 294.045 309.647C295.187 310.734 296.549 311.565 298.04 312.085C299.53 312.604 301.114 312.799 302.686 312.658C293.978 311.166 295.594 304.516 295.594 304.516Z" fill="#B6876B"/>
<path d="M320.854 287.576C320.854 287.576 316.926 298.555 326.559 298.24C333.397 293.102 340.396 279.153 333.162 273.627C332.318 273.794 324.099 275.895 320.854 287.576Z" fill="#CC9B7A"/>
<path d="M317.442 296.12C314.76 292.319 320.291 271.219 333.243 273.587L333.055 273.52C330.956 272.707 328.669 272.502 326.458 272.931C313.372 275.647 309.551 302.067 321.638 300.154C323.363 299.823 325.012 299.182 326.505 298.26L326.572 298.22C326.572 298.22 320.707 300.789 317.442 296.12Z" fill="#7E5841"/>
<path d="M320.854 287.576C324.099 275.915 332.317 273.815 333.162 273.627H333.243C320.291 271.259 314.78 292.36 317.442 296.16C320.706 300.843 326.572 298.261 326.572 298.261C316.925 298.535 320.854 287.576 320.854 287.576Z" fill="#B6876B"/>
<path d="M401.012 249.214V251.462H434.029V259.136H437.448V251.462H441.256V256.888H444.286V251.382H447.933V254.252H451.667V251.543H457.955V249.214H401.012Z" fill="#F22025"/>
<path d="M401.012 249.215V246.967H434.029V239.293H437.448V246.967H441.256V241.541H444.286V247.04H447.933V244.177H451.667V246.886H457.955V249.215H401.012Z" fill="#F22025"/>
<path d="M469.298 180.138H467.045V213.087H459.356V216.499H467.045V220.293H461.608V223.323H467.126V226.963H464.25V230.683H466.972V236.965H469.298V180.138Z" fill="#F22025"/>
<path d="M469.298 180.138H471.55V213.087H479.246V216.499H471.55V220.293H476.987V223.323H471.477V226.963H474.346V230.683H471.631V236.965H469.298V180.138Z" fill="#F22025"/>
<path d="M537.858 249.215V246.967H504.842V239.293H501.423V246.967H497.615V241.541H494.585V247.04H490.938V244.177H487.204V246.886H480.916V249.215H537.858Z" fill="#F22025"/>
<path d="M537.858 249.214V251.462H504.842V259.136H501.423V251.462H497.615V256.888H494.585V251.382H490.938V254.252H487.204V251.543H480.916V249.214H537.858Z" fill="#F22025"/>
<path d="M469.298 317.495H471.55V284.546H479.246V281.134H471.55V277.334H476.987V274.316H471.477V270.67H474.346V266.951H471.631V260.668H469.298V317.495Z" fill="#F22025"/>
<path d="M469.298 317.495H467.045V284.546H459.356V281.134H467.045V277.334H461.608V274.316H467.126V270.67H464.25V266.951H466.972V260.668H469.298V317.495Z" fill="#F22025"/>
<path d="M469.425 204.016C460.459 204.016 451.694 206.669 444.24 211.64C436.785 216.612 430.974 223.677 427.544 231.944C424.113 240.211 423.215 249.307 424.965 258.083C426.715 266.859 431.033 274.92 437.373 281.246C443.714 287.573 451.792 291.881 460.585 293.626C469.379 295.37 478.494 294.474 486.777 291.048C495.061 287.623 502.14 281.824 507.12 274.384C512.1 266.943 514.758 258.196 514.757 249.248C514.755 237.251 509.978 225.746 501.477 217.264C492.976 208.781 481.447 204.016 469.425 204.016ZM469.68 290.921C461.415 290.921 453.336 288.476 446.465 283.893C439.593 279.311 434.237 272.798 431.075 265.178C427.912 257.558 427.085 249.173 428.698 241.084C430.311 232.994 434.291 225.564 440.136 219.733C445.98 213.901 453.426 209.93 461.532 208.322C469.638 206.713 478.04 207.54 485.675 210.697C493.31 213.855 499.836 219.2 504.426 226.059C509.017 232.917 511.466 240.98 511.465 249.228C511.463 260.286 507.06 270.891 499.224 278.71C491.388 286.529 480.761 290.921 469.68 290.921Z" fill="#E22024"/>
<path d="M469.305 236.517C466.872 236.515 464.494 237.234 462.471 238.582C460.448 239.93 458.871 241.847 457.939 244.089C457.008 246.332 456.765 248.8 457.239 251.181C457.714 253.562 458.886 255.749 460.606 257.465C462.327 259.181 464.519 260.349 466.905 260.822C469.291 261.294 471.764 261.05 474.011 260.119C476.257 259.189 478.177 257.614 479.527 255.594C480.876 253.575 481.595 251.201 481.593 248.773C481.589 245.522 480.293 242.406 477.989 240.108C475.685 237.81 472.562 236.518 469.305 236.517ZM469.305 258.099C467.542 258.101 465.818 257.58 464.352 256.604C462.886 255.627 461.743 254.239 461.068 252.614C460.393 250.989 460.216 249.2 460.559 247.475C460.903 245.75 461.751 244.165 462.998 242.921C464.244 241.677 465.832 240.83 467.561 240.487C469.29 240.144 471.082 240.321 472.71 240.995C474.339 241.669 475.73 242.809 476.709 244.272C477.687 245.736 478.209 247.456 478.207 249.215C478.205 251.57 477.267 253.829 475.598 255.495C473.929 257.161 471.665 258.097 469.305 258.099Z" fill="#F22025"/>
<path d="M419.253 241.14C421.174 229.238 427.28 218.409 436.476 210.592C445.671 202.775 457.356 198.482 469.435 198.482C481.515 198.482 493.199 202.775 502.395 210.592C511.59 218.409 517.696 229.238 519.617 241.14H524.826C522.92 227.903 516.296 215.795 506.169 207.037C496.042 198.279 483.09 193.458 469.69 193.458C456.29 193.458 443.338 198.279 433.211 207.037C423.084 215.795 416.46 227.903 414.554 241.14H419.253Z" fill="#EB1C25"/>
<path d="M519.704 256.734C517.916 268.767 511.856 279.757 502.626 287.703C493.397 295.648 481.614 300.019 469.425 300.019C457.236 300.019 445.453 295.648 436.224 287.703C426.995 279.757 420.934 268.767 419.146 256.734H414.521C416.375 270.02 422.982 282.189 433.121 290.995C443.26 299.801 456.248 304.652 469.69 304.652C483.132 304.652 496.12 299.801 506.259 290.995C516.398 282.189 523.005 270.02 524.86 256.734H519.704Z" fill="#EB1C25"/>
<path d="M460.831 299.177C449.017 297.151 438.302 291.024 430.577 281.877C422.852 272.73 418.615 261.153 418.615 249.191C418.615 237.229 422.852 225.652 430.577 216.505C438.302 207.359 449.017 201.231 460.831 199.205V194.174C447.759 196.273 435.864 202.95 427.278 213.007C418.692 223.064 413.977 235.845 413.977 249.057C413.977 262.27 418.692 275.05 427.278 285.108C435.864 295.165 447.759 301.842 460.831 303.941V299.177Z" fill="#EB1C25"/>
<path d="M476.994 193.947V199.031C489.051 200.815 500.064 206.864 508.026 216.075C515.987 225.285 520.367 237.044 520.367 249.208C520.367 261.372 515.987 273.131 508.026 282.341C500.064 291.552 489.051 297.6 476.994 299.384V304.201C490.388 302.436 502.683 295.874 511.589 285.735C520.494 275.597 525.405 262.574 525.405 249.091C525.405 235.608 520.494 222.585 511.589 212.446C502.683 202.308 490.388 195.745 476.994 193.98V193.947Z" fill="#EB1C25"/>
<path d="M524.156 453.005H414.246V463.897H524.156V453.005Z" fill="#B6BAB4"/>
<path d="M399.752 512.903L414.245 503.102V463.897H524.155V503.57L537.717 512.903H399.752Z" fill="white"/>
<path d="M562.039 512.903H376.831V527.374H562.039V512.903Z" fill="#B6BAB4"/>
<path d="M179 403.846H758V433.403C758 438.602 755.931 443.588 752.247 447.264C748.563 450.94 743.567 453.005 738.358 453.005H198.642C193.433 453.005 188.437 450.94 184.753 447.264C181.069 443.588 179 438.602 179 433.403V403.846Z" fill="#F6F6F6"/>
<path d="M737.58 78.3735H199.427C194.01 78.3735 188.816 80.5203 184.985 84.3418C181.155 88.1633 179.002 93.3466 179 98.7519V403.825H758V98.7519C758 93.3472 755.849 88.1639 752.019 84.3422C748.19 80.5205 742.996 78.3735 737.58 78.3735ZM735.569 383.307H201.143V95.7948H735.569V383.307Z" fill="#194F78"/>
<path d="M469.432 439.317C475.46 439.317 480.346 434.441 480.346 428.425C480.346 422.41 475.46 417.534 469.432 417.534C463.404 417.534 458.518 422.41 458.518 428.425C458.518 434.441 463.404 439.317 469.432 439.317Z" fill="#194F78"/>
</g>
<defs>
<clipPath id="clip0_584_1035">
<rect width="579" height="449" fill="white" transform="translate(179 78.3735)"/>
</clipPath>
</defs>
</svg>
