<svg width="1010" height="701" viewBox="0 0 1010 701" fill="none" xmlns="http://www.w3.org/2000/svg">
<path d="M994.378 471.853C1002.69 538.396 951.022 596.878 883.914 596.878L478.094 596.878C288.52 596.878 167.646 392.318 256.791 225.873C279.46 183.548 319.238 152.45 365.965 140.932L655.873 69.4758C804.354 32.8781 952.249 134.702 971.229 286.593L994.378 471.853Z" fill="#0099C0"/>
<g clip-path="url(#clip0_584_1032)">
<path d="M915.277 488.588H368.084V600.238H915.277V488.588Z" fill="#72442C"/>
<path d="M368.084 488.588V531.631H512.028V488.588H368.084ZM461.872 517.761H418.734V509.513H461.872V517.761Z" fill="#CE855A"/>
<path d="M512.034 531.631H368.084V535.455H512.034V531.631Z" fill="#BF7C52"/>
<path d="M461.878 509.513H418.741V517.761H461.878V509.513Z" fill="white"/>
<path d="M368.084 535.455V578.498H512.028V535.455H368.084ZM461.872 564.635H418.734V556.381H461.872V564.635Z" fill="#CE855A"/>
<path d="M512.034 578.499H368.084V582.323H512.034V578.499Z" fill="#BF7C52"/>
<path d="M461.878 556.381H418.741V564.628H461.878V556.381Z" fill="white"/>
<path d="M915.284 397.239H345.163V467.543H915.284V397.239Z" fill="#CE855A"/>
<path d="M915.284 467.543H350.834V488.588H915.284V467.543Z" fill="#945230"/>
<path d="M915.284 467.543H350.834V471.847H915.284V467.543Z" fill="#71432B"/>
<path d="M512.034 582.329H368.084V600.238H512.034V582.329Z" fill="#CE855A"/>
<path d="M443.777 377.942H432.927C432.927 377.942 428.244 377.942 427.262 383.842V408.553C427.262 408.553 427.509 413.602 432.68 414.233H442.872L442.924 409.91L434.163 409.847C434.163 409.847 433.753 410.642 432.68 407.537L433.09 385.451C433.09 385.451 432.927 384.189 435.516 382.977H443.777V377.942Z" fill="#FED034"/>
<path d="M442.625 428.166H488.963V371.095H442.625V428.166Z" fill="#FBD032"/>
<path d="M442.625 428.166H457.579V371.095H442.625V428.166Z" fill="#D0AA2F"/>
<path d="M457.573 428.166H474.172V371.095H457.573V428.166Z" fill="#FED034"/>
<path d="M474.178 428.166H483.954V371.095H474.178V428.166Z" fill="#FDDF70"/>
<path d="M494.713 447.773H395.624V444.946H398.629L398.584 429.801L395.624 429.838V426.961H494.713C497.328 426.961 499.836 427.969 501.685 429.763C503.535 431.557 504.573 433.99 504.573 436.528V437.323C504.573 442.573 500.157 447.773 494.713 447.773Z" fill="#125278"/>
<path d="M494.101 429.769H398.59V445.028H494.101V429.769Z" fill="white"/>
<path d="M915.609 557.832H738.467C726.397 557.832 716.612 567.325 716.612 579.035C716.612 590.745 726.397 600.238 738.467 600.238H915.609C927.679 600.238 937.464 590.745 937.464 579.035C937.464 567.325 927.679 557.832 915.609 557.832Z" fill="#38A4B0"/>
<path d="M944.014 569.096H832.833C826.994 569.096 821.374 566.933 817.124 563.049C812.873 559.164 810.312 553.851 809.964 548.196L801.209 405.537C801.022 402.508 801.477 399.474 802.545 396.622C803.614 393.77 805.273 391.161 807.421 388.955C809.568 386.749 812.159 384.993 815.033 383.796C817.907 382.599 821.003 381.985 824.13 381.993L954.219 382.277C957.356 382.284 960.459 382.917 963.333 384.135C966.208 385.353 968.795 387.131 970.933 389.358C973.071 391.585 974.715 394.215 975.762 397.084C976.81 399.952 977.239 402.999 977.024 406.036L966.877 548.404C966.475 554.021 963.892 559.28 959.648 563.121C955.405 566.961 949.817 569.097 944.014 569.096Z" fill="#5CB5B2"/>
<path d="M947.026 569.096H845.972C834.954 569.096 825.809 559.933 825.158 548.196L817.223 405.537C816.507 392.746 826.049 381.961 838.037 381.993L956.281 382.277C968.328 382.308 977.837 393.207 977.011 406.036L967.801 548.404C967.046 560.053 957.966 569.096 947.026 569.096Z" fill="#85D3D3"/>
<path d="M910.353 403.619C917.544 403.619 924.439 406.39 929.523 411.322C934.608 416.255 937.464 422.945 937.464 429.92V522.538C937.464 527.696 935.352 532.643 931.592 536.29C927.833 539.937 922.734 541.986 917.417 541.986H903.283C897.966 541.986 892.867 539.937 889.108 536.29C885.348 532.643 883.236 527.696 883.236 522.538V429.92C883.236 422.945 886.093 416.255 891.177 411.322C896.261 406.39 903.157 403.619 910.347 403.619H910.353Z" fill="#58595B"/>
<path d="M898.762 542.012C898.762 542.012 899.413 578.946 889.123 600.257L911.336 600.042C911.336 600.042 923.902 564.571 920.702 541.987L898.762 542.012Z" fill="#58595B"/>
<path d="M546.826 447.577L777.136 447.312C777.136 447.312 770.222 437.935 754.201 421.515L564.323 420.076C564.323 420.076 551.841 436.338 546.826 447.577Z" fill="#4B72B7"/>
<path d="M548.387 452.24L777.09 452.12C777.09 452.12 777.923 450.385 777.09 447.425L546.781 447.697C546.719 448.52 546.83 449.347 547.106 450.128C547.382 450.908 547.818 451.627 548.387 452.24Z" fill="#27447B"/>
<path d="M666.17 422.506H656.803V426.809H666.17V422.506Z" fill="#2D4778"/>
<path d="M657.46 428.74V434.969H645.792V439.272H668.466L667.152 428.74H657.46Z" fill="#2D4778"/>
<path d="M669.78 441.197H658.937V445.501H669.78V441.197Z" fill="#2D4778"/>
<path d="M656.804 441.197H646.448V445.501H656.804V441.197Z" fill="#2D4778"/>
<path d="M654.169 422.506H645.792V426.809H654.169V422.506Z" fill="#2D4778"/>
<path d="M655.203 428.74H645.792V433.044H655.203V428.74Z" fill="#2D4778"/>
<path d="M642.669 422.506H633.466V426.809H642.669V422.506Z" fill="#2D4778"/>
<path d="M642.669 428.74H633.466V433.044H642.669V428.74Z" fill="#2D4778"/>
<path d="M642.669 434.969H633.466V438.692H642.669V434.969Z" fill="#2D4778"/>
<path d="M621.309 434.969L620.977 438.692H630.623V434.969H621.309Z" fill="#2D4778"/>
<path d="M582.158 441.197L579.979 445.21H639.879L640.451 441.487L582.158 441.197Z" fill="#2D4778"/>
<path d="M621.966 429.031L620.977 432.754H630.506L630.623 429.031H621.966Z" fill="#2D4778"/>
<path d="M622.46 422.802L621.881 426.519H630.623V422.802H622.46Z" fill="#2D4778"/>
<path d="M608.82 434.969L607.506 438.692H617.035L618.024 434.969H608.82Z" fill="#2D4778"/>
<path d="M610.219 428.74L608.82 432.754H618.024L619.501 428.74H610.219Z" fill="#2D4778"/>
<path d="M611.773 422.506L610.219 426.519H618.675L619.501 422.802L611.773 422.506Z" fill="#2D4778"/>
<path d="M600.274 422.506L598.628 426.519H607.506L608.82 422.506H600.274Z" fill="#2D4778"/>
<path d="M598.628 428.74L596.657 432.754H605.041L606.68 428.74H598.628Z" fill="#2D4778"/>
<path d="M596.657 434.969L594.523 438.692H603.727L605.698 434.969H596.657Z" fill="#2D4778"/>
<path d="M586.803 428.74L584.5 432.754H593.704L595.675 428.74H586.803Z" fill="#2D4778"/>
<path d="M574.321 428.74L572.018 432.754H581.222L583.193 428.74H574.321Z" fill="#2D4778"/>
<path d="M577.352 422.506L575.049 426.519H584.253L586.224 422.506H577.352Z" fill="#2D4778"/>
<path d="M565.969 422.506L563.673 426.519H572.87L574.847 422.506H565.969Z" fill="#2D4778"/>
<path d="M562.483 428.74L560.18 432.754H569.384L571.355 428.74H562.483Z" fill="#2D4778"/>
<path d="M556.115 440.572L553.812 444.586H563.016L564.987 440.572H556.115Z" fill="#2D4778"/>
<path d="M584.168 434.823L581.872 438.837H591.07L593.047 434.823H584.168Z" fill="#2D4778"/>
<path d="M558.99 434.489L556.648 439.171H578.334L580.637 434.489H558.99Z" fill="#2D4778"/>
<path d="M720.391 422.506L723.103 426.816H732.223L729.51 422.506H720.391Z" fill="#2D4778"/>
<path d="M698.705 422.506L701.418 426.816H710.537L707.825 422.506H698.705Z" fill="#2D4778"/>
<path d="M701.658 428.74L704.371 433.044H713.49L710.784 428.74H701.658Z" fill="#2D4778"/>
<path d="M708.566 441.197L711.272 445.501H720.391L717.685 441.197H708.566Z" fill="#2D4778"/>
<path d="M689.827 428.74L692.539 433.044H701.658L698.952 428.74H689.827Z" fill="#2D4778"/>
<path d="M686.874 422.506L689.586 426.816H698.705L695.993 422.506H686.874Z" fill="#2D4778"/>
<path d="M675.699 422.506L678.411 426.816H687.531L684.818 422.506H675.699Z" fill="#2D4778"/>
<path d="M678.658 428.885L681.364 433.189H690.484L687.778 428.885H678.658Z" fill="#2D4778"/>
<path d="M693.443 434.969L696.155 439.272H705.275L702.562 434.969H693.443Z" fill="#2D4778"/>
<path d="M695.746 441.197L698.458 445.501H707.577L704.865 441.197H695.746Z" fill="#2D4778"/>
<path d="M682.808 441.197L685.514 445.501H694.633L691.928 441.197H682.808Z" fill="#2D4778"/>
<path d="M724.749 428.885L727.461 433.189H736.581L733.868 428.885H724.749Z" fill="#2D4778"/>
<path d="M729.185 434.969L731.897 439.272H741.017L738.304 434.969H729.185Z" fill="#2D4778"/>
<path d="M733.296 441.197L736.002 445.501H745.121L742.415 441.197H733.296Z" fill="#2D4778"/>
<path d="M746.851 441.197L749.563 445.501H758.683L755.97 441.197H746.851Z" fill="#2D4778"/>
<path d="M759.912 441.197L762.624 445.501H771.744L769.031 441.197H759.912Z" fill="#2D4778"/>
<path d="M754 434.969L756.712 439.272H765.831L763.119 434.969H754Z" fill="#2D4778"/>
<path d="M741.589 434.969L744.301 439.272H753.421L750.715 434.969H741.589Z" fill="#2D4778"/>
<path d="M737.153 428.74L739.865 433.044H748.985L746.272 428.74H737.153Z" fill="#2D4778"/>
<path d="M749.811 428.74L752.516 433.044H761.636L758.93 428.74H749.811Z" fill="#2D4778"/>
<path d="M743.892 422.84L746.604 427.144H755.723L753.011 422.84H743.892Z" fill="#2D4778"/>
<path d="M732.47 422.84L735.182 427.144H744.301L741.589 422.84H732.47Z" fill="#2D4778"/>
<path d="M589.756 422.506L587.453 426.519H596.657L598.628 422.506H589.756Z" fill="#2D4778"/>
<path d="M568.733 440.572L566.431 444.586H575.635L577.606 440.572H568.733Z" fill="#2D4778"/>
<path d="M686.132 365.517H628.21V371.095H686.132V365.517Z" fill="#B6BAB4"/>
<path d="M620.567 396.204L628.21 391.181V371.095H686.132V391.421L693.281 396.204H620.567Z" fill="white"/>
<path d="M706.094 396.204H608.489V403.619H706.094V396.204Z" fill="#B6BAB4"/>
<path d="M514.987 173.574H798.581C801.436 173.574 804.174 174.674 806.193 176.633C808.212 178.591 809.346 181.248 809.346 184.017V340.326H504.229V184.017C504.229 181.249 505.362 178.593 507.38 176.635C509.397 174.676 512.133 173.575 514.987 173.574V173.574Z" fill="#194F78"/>
<path d="M504.229 340.326H809.372V355.471C809.372 358.135 808.281 360.69 806.339 362.574C804.397 364.458 801.763 365.517 799.017 365.517H514.577C511.831 365.517 509.197 364.458 507.255 362.574C505.313 360.69 504.222 358.135 504.222 355.471V340.326H504.229Z" fill="#F6F6F6"/>
<path d="M797.54 182.503H515.891V329.806H797.54V182.503Z" fill="#64C4A8"/>
<path d="M657.291 358.5C660.467 358.5 663.041 356.002 663.041 352.921C663.041 349.84 660.467 347.343 657.291 347.343C654.116 347.343 651.542 349.84 651.542 352.921C651.542 356.002 654.116 358.5 657.291 358.5Z" fill="#194F78"/>
<path d="M628.204 231.579V288.013H550.684V231.579H628.204ZM550.846 235.763H628.041V231.73H550.846V235.763Z" fill="#EDECEB" stroke="#194F78" stroke-width="0.5" stroke-miterlimit="10"/>
<path d="M628.047 231.73H550.846V235.769H628.047V231.73Z" fill="#E16D3E"/>
<path d="M777.012 199.718V312.592H621.972V199.718H777.012ZM622.291 208.092H776.687V199.989H622.291V208.092Z" fill="#EDECEB" stroke="#194F78" stroke-miterlimit="10"/>
<path d="M776.687 200.014H622.291V208.085H776.687V200.014Z" fill="#E16D3E"/>
<path d="M592.579 269.46C592.579 269.46 591.2 278.484 577.176 280.888C576.909 280.785 576.688 280.594 576.554 280.347C576.419 280.101 576.379 279.816 576.441 279.544L580.877 271.972L587.551 265.472L592.579 269.46Z" fill="#EDECEB" stroke="#194F78" stroke-width="0.5" stroke-miterlimit="10"/>
<path d="M577.566 279.67C577.212 279.854 576.842 280.008 576.461 280.131C576.411 279.938 576.411 279.737 576.461 279.544L580.819 272.123C582.074 274.736 580.663 278.074 577.566 279.67Z" fill="#EDECEB" stroke="#194F78" stroke-width="0.5" stroke-miterlimit="10"/>
<path d="M583.869 252.996C583.869 252.996 575.414 249.046 565.481 258.96C565.418 259.233 565.457 259.519 565.591 259.767C565.726 260.014 565.948 260.207 566.216 260.31L575.153 260.985L584.442 259.269L583.869 252.996Z" fill="#EDECEB" stroke="#194F78" stroke-width="0.5" stroke-miterlimit="10"/>
<path d="M566.737 259.307C566.381 259.49 566.042 259.701 565.722 259.938C565.856 260.09 566.025 260.209 566.216 260.285L574.991 260.947C573.475 258.461 569.833 257.723 566.737 259.307Z" fill="#EDECEB" stroke="#194F78" stroke-width="0.5" stroke-miterlimit="10"/>
<path d="M576.044 271.114C576.044 271.114 572.421 279.014 557.904 276.831C557.904 276.831 562.788 264.21 572.955 265.472L576.044 271.114Z" fill="#EDECEB" stroke="#194F78" stroke-width="0.5" stroke-miterlimit="10"/>
<path d="M575.296 269.75C575.296 269.75 573.482 273.707 566.19 272.615C566.19 272.615 568.642 266.305 573.742 266.936L575.296 269.75Z" fill="#EDECEB" stroke="#194F78" stroke-width="0.5" stroke-miterlimit="10"/>
<path d="M616.027 246.92C616.027 246.92 615.696 262.235 592.52 269.347C592.52 269.347 579.954 272.697 577.449 272.413C574.945 272.129 571.921 265.472 572.591 263.522C573.261 261.572 584.494 252.473 584.494 252.473C584.494 252.473 600.443 239.353 616.027 246.92Z" fill="#EDECEB" stroke="#194F78" stroke-width="0.5" stroke-miterlimit="10"/>
<path d="M600.364 260.815C603.702 260.815 606.407 258.19 606.407 254.953C606.407 251.715 603.702 249.09 600.364 249.09C597.027 249.09 594.322 251.715 594.322 254.953C594.322 258.19 597.027 260.815 600.364 260.815Z" fill="#EDECEB" stroke="#194F78" stroke-width="0.5" stroke-miterlimit="10"/>
<path d="M600.482 259.597C603.158 259.597 605.327 257.492 605.327 254.896C605.327 252.299 603.158 250.195 600.482 250.195C597.805 250.195 595.636 252.299 595.636 254.896C595.636 257.492 597.805 259.597 600.482 259.597Z" fill="#EDECEB" stroke="#194F78" stroke-width="0.5" stroke-miterlimit="10"/>
<path d="M602.635 254.574C603.234 254.574 603.721 254.102 603.721 253.52C603.721 252.938 603.234 252.466 602.635 252.466C602.035 252.466 601.548 252.938 601.548 253.52C601.548 254.102 602.035 254.574 602.635 254.574Z" fill="#EDECEB" stroke="#194F78" stroke-width="0.5" stroke-miterlimit="10"/>
<path d="M601.755 257.656C602.148 257.24 602.235 256.697 601.949 256.442C601.663 256.188 601.113 256.319 600.72 256.735C600.326 257.152 600.239 257.695 600.525 257.95C600.811 258.204 601.362 258.073 601.755 257.656Z" fill="#EDECEB" stroke="#194F78" stroke-width="0.5" stroke-miterlimit="10"/>
<path d="M607.227 251.419C606.05 249.302 605.333 246.974 605.119 244.578C608.899 244.47 612.647 245.274 616.027 246.919C616.027 246.919 615.923 251.595 611.923 256.984C609.982 255.46 608.384 253.566 607.227 251.419Z" fill="#EDECEB" stroke="#194F78" stroke-width="0.5" stroke-miterlimit="10"/>
<path d="M604.43 252.17C604.552 252.335 604.663 252.507 604.761 252.687C605.06 253.233 605.246 253.83 605.306 254.445C605.367 255.06 605.302 255.681 605.116 256.272C604.929 256.863 604.624 257.412 604.219 257.888C603.813 258.365 603.314 258.759 602.752 259.048C602.494 259.182 602.224 259.292 601.945 259.376C603.164 258.648 604.081 257.527 604.535 256.21C604.989 254.893 604.952 253.463 604.43 252.17Z" fill="#EDECEB" stroke="#194F78" stroke-width="0.5" stroke-miterlimit="10"/>
<path d="M708.54 240.78C708.54 240.78 728.372 233.258 749.017 257.288C749.108 257.913 748.968 258.55 748.62 259.084C748.272 259.618 747.739 260.015 747.118 260.203L726.811 260.253L706.146 254.845L708.54 240.78Z" fill="#C62C24"/>
<path d="M746.11 257.925C746.881 258.396 747.612 258.928 748.295 259.515C747.966 259.834 747.562 260.072 747.118 260.209L727.188 260.253C731.045 254.889 739.397 253.81 746.11 257.925Z" fill="#9E1E1D"/>
<path d="M684.961 275.928C684.961 275.928 686.483 296.538 717.705 304.281C718.326 304.092 718.858 303.695 719.204 303.161C719.551 302.627 719.691 301.99 719.598 301.365L710.94 283.557L697.014 267.781L684.961 275.928Z" fill="#C62C24"/>
<path d="M717.054 301.466C717.824 301.936 718.631 302.345 719.468 302.691C719.62 302.266 719.669 301.812 719.611 301.365L711.096 283.917C707.76 289.597 710.355 297.352 717.054 301.466Z" fill="#9E1E1D"/>
<path d="M730.499 270.445C730.499 270.445 750.565 268.469 762.475 298.595C762.475 298.595 731.403 303.486 722.538 282.68L730.499 270.445Z" fill="#FF0000"/>
<path d="M728.567 273.411C728.567 273.411 738.63 272.42 744.601 287.527C744.601 287.527 728.99 289.982 724.573 279.551L728.567 273.411Z" fill="#FFFF00"/>
<path d="M636.51 221.444C636.51 221.444 667.9 204.842 708.377 241.007C708.377 241.007 729.309 261.2 731.54 266.292C733.771 271.385 723.63 284.687 719.006 285.577C714.381 286.467 683.231 275.31 683.231 275.31C683.231 275.31 638.715 259.666 636.51 221.444Z" fill="white"/>
<path d="M670.404 255.546C677.963 255.546 684.09 249.601 684.09 242.269C684.09 234.936 677.963 228.992 670.404 228.992C662.846 228.992 656.719 234.936 656.719 242.269C656.719 249.601 662.846 255.546 670.404 255.546Z" fill="#3C3E3E"/>
<path d="M670.151 252.763C676.214 252.763 681.13 247.994 681.13 242.111C681.13 236.228 676.214 231.459 670.151 231.459C664.087 231.459 659.171 236.228 659.171 242.111C659.171 247.994 664.087 252.763 670.151 252.763Z" fill="#B6E2EF"/>
<path d="M664.96 241.947C666.322 241.947 667.425 240.876 667.425 239.555C667.425 238.234 666.322 237.164 664.96 237.164C663.599 237.164 662.495 238.234 662.495 239.555C662.495 240.876 663.599 241.947 664.96 241.947Z" fill="#F9F9F9"/>
<path d="M676.314 238.623C676.508 237.79 675.623 236.887 674.337 236.605C673.051 236.323 671.851 236.77 671.657 237.603C671.463 238.436 672.349 239.34 673.635 239.621C674.921 239.903 676.121 239.456 676.314 238.623Z" fill="#F9F9F9"/>
<path d="M655.529 233.156C652.557 237.78 648.646 241.769 644.035 244.881C639.569 237.792 636.983 229.74 636.51 221.444C636.51 221.444 646.097 216.396 661.506 217.948C660.608 223.361 658.573 228.537 655.529 233.156Z" fill="#FF0000"/>
<path d="M660.192 237.637C660.38 237.221 660.597 236.818 660.843 236.432C662.397 234.043 664.865 232.35 667.704 231.727C670.544 231.103 673.523 231.599 675.985 233.106C676.545 233.451 677.071 233.844 677.559 234.28C674.717 232.781 671.423 232.296 668.25 232.91C665.077 233.523 662.226 235.196 660.192 237.637Z" fill="#85AAB2"/>
</g>
<defs>
<clipPath id="clip0_584_1032">
<rect width="631.913" height="426.664" fill="white" transform="translate(345.163 173.574)"/>
</clipPath>
</defs>
</svg>
