<svg width="797" height="643" viewBox="0 0 797 643" fill="none" xmlns="http://www.w3.org/2000/svg">
<path d="M700.185 389.674C743.049 464.862 688.073 558.182 601.531 557.135L299.346 553.48C171.375 551.932 76.3273 434.437 101.545 308.967C109.462 269.577 133.952 235.501 168.762 215.44L272.461 155.676C394.645 85.2594 550.793 127.622 620.636 250.135L700.185 389.674Z" fill="#0099C0"/>
<g clip-path="url(#clip0_584_1034)">
<path d="M457.823 514.204L467.115 502.271L469.855 504.531L460.269 515.799L457.823 514.204Z" fill="#E8A092"/>
<path d="M482 515.45L484.94 517.855L462.515 518.445L460.134 515.96L482 515.45Z" fill="#E8A092"/>
<path d="M468.485 535.264L484.816 517.318L487.019 519.24L471 538.212L468.485 535.264Z" fill="#E8A092"/>
<path d="M488.851 520.861L481.425 539.42L478.152 535.764L486.299 518.639L488.851 520.861Z" fill="#E8A092"/>
<path d="M449.645 513.158L464.121 499.334L467.485 502.271L452.186 516.132L449.645 513.158Z" fill="#E8A092"/>
<path d="M458.565 494.476L451.235 502.271L448.935 499.409L455.088 491.566L458.565 494.476Z" fill="#E8A092"/>
<path d="M463.729 499.076L449.645 505.416L451.756 500.858L460.833 496.655L463.729 499.076Z" fill="#E8A092"/>
<path d="M447.35 507.413L476.127 539.419H481.425L447.35 501.32V507.413Z" fill="#FBA284"/>
<path d="M445.109 488.543L503.35 539.42H508.24L445.109 484.582V488.543Z" fill="#FBA284"/>
<path d="M445.109 480.249L512.512 538.539H508.24L445.109 482.745V480.249Z" fill="#FBA284"/>
<path d="M447.35 513.984L467.002 538.539H471.279L447.35 510.457V513.984Z" fill="#FBA284"/>
<path d="M354.938 514.204L345.646 502.271L342.906 504.531L352.493 515.799L354.938 514.204Z" fill="#E8A092"/>
<path d="M330.761 515.45L327.822 517.855L350.246 518.445L352.622 515.96L330.761 515.45Z" fill="#E8A092"/>
<path d="M344.276 535.264L327.945 517.318L325.742 519.24L341.761 538.212L344.276 535.264Z" fill="#E8A092"/>
<path d="M323.91 520.861L331.336 539.42L334.609 535.764L326.462 518.639L323.91 520.861Z" fill="#E8A092"/>
<path d="M363.116 513.158L348.64 499.334L345.276 502.271L360.575 516.132L363.116 513.158Z" fill="#E8A092"/>
<path d="M354.196 494.476L361.526 502.271L363.826 499.409L357.673 491.566L354.196 494.476Z" fill="#E8A092"/>
<path d="M349.032 499.076L363.116 505.416L361.004 500.858L351.928 496.655L349.032 499.076Z" fill="#E8A092"/>
<path d="M365.411 507.413L336.635 539.419H331.336L365.411 501.32V507.413Z" fill="#FBA284"/>
<path d="M367.652 488.543L309.411 539.42H304.521L367.652 484.582V488.543Z" fill="#FBA284"/>
<path d="M367.652 480.249L300.249 538.539H304.521L367.652 482.745V480.249Z" fill="#FBA284"/>
<path d="M365.411 513.984L345.759 538.539H341.482L365.411 510.457V513.984Z" fill="#FBA284"/>
<path d="M406.563 554H259L290.222 538.539H406.563V554Z" fill="#5B294C"/>
<path d="M406.563 554H554.121L522.9 538.539H406.563V554Z" fill="#5B294C"/>
<path d="M375.062 459.629C375.062 459.629 350.22 477.914 364.584 522.326C365.303 522.938 366.216 523.273 367.16 523.273C368.104 523.273 369.018 522.938 369.737 522.326L385.541 497.508L394.677 467.902L375.062 459.629Z" fill="#C62C24"/>
<path d="M367.652 519.277C367.653 520.595 367.759 521.911 367.969 523.212C368.627 523.064 369.241 522.76 369.758 522.327L385.235 497.965C375.455 498.41 367.652 507.778 367.652 519.277Z" fill="#9E1E1D"/>
<path d="M437.699 458.754C437.699 458.754 462.542 477.044 448.161 521.457C447.442 522.067 446.529 522.402 445.585 522.402C444.641 522.402 443.728 522.067 443.008 521.457L427.241 496.639L418.106 467.027L437.699 458.754Z" fill="#C62C24"/>
<path d="M445.109 518.408C445.108 519.726 445.002 521.042 444.792 522.343C444.133 522.195 443.52 521.891 443.003 521.457L427.526 497.095C437.301 497.541 445.109 506.903 445.109 518.408Z" fill="#9E1E1D"/>
<path d="M406.364 356.051C406.364 356.051 361.112 381.251 375.497 459.629C375.497 459.629 384.799 501.32 389.518 508.122C394.236 514.924 418.848 513.077 423.539 508.122C428.23 503.167 438.258 456.145 438.258 456.145C438.258 456.145 452.923 389.19 406.364 356.051Z" fill="white"/>
<path d="M400.611 415.94C401.25 414.144 400.795 412.342 399.595 411.917C398.395 411.491 396.905 412.602 396.266 414.399C395.628 416.195 396.083 417.997 397.282 418.423C398.482 418.848 399.972 417.737 400.611 415.94Z" fill="#F9F9F9"/>
<path d="M406.44 388.654C414.58 388.703 422.646 387.094 430.143 383.924C424.643 372.814 416.473 363.238 406.364 356.051C406.364 356.051 392.527 363.755 382.607 383.865C390.14 387.073 398.251 388.703 406.44 388.654Z" fill="#FF0000"/>
<path d="M474.982 213.917H452.869V223.785H474.982V213.917Z" fill="#B94449"/>
<path d="M537.925 252.521L509.981 243.798H474.729V247.486C474.73 247.723 474.684 247.957 474.594 248.176C474.504 248.395 474.371 248.594 474.204 248.761C474.037 248.929 473.838 249.062 473.619 249.152C473.4 249.243 473.166 249.29 472.929 249.29H455.303C455.066 249.29 454.832 249.243 454.613 249.152C454.394 249.062 454.195 248.929 454.028 248.761C453.861 248.594 453.729 248.395 453.638 248.176C453.548 247.957 453.502 247.723 453.503 247.486V243.798H417.547C425.248 252.173 434.136 259.93 441.992 261.943C441.992 261.943 460.193 263.833 479.807 263.854C493.242 263.854 507.321 263.011 516.677 260.064C516.677 260.064 533.169 257.713 534.802 256.805C534.802 256.805 537.543 255.335 537.989 252.543L537.925 252.521Z" fill="#B94449"/>
<path d="M537.274 249.022C537.274 249.365 508.471 211.443 496.498 209C496.498 209 487.438 202.843 467.48 203.02H307.659L298.056 187.269C298.056 187.269 294.795 182.92 281.108 183.919C281.108 183.919 276.035 185.363 277.034 190.527L291.076 219.318L316.177 219.141H398.271L417.547 243.798H453.503V216.054C453.502 215.818 453.548 215.583 453.638 215.364C453.729 215.146 453.861 214.947 454.028 214.779C454.196 214.611 454.394 214.479 454.613 214.388C454.832 214.297 455.066 214.25 455.303 214.25H472.913C473.15 214.25 473.384 214.297 473.603 214.388C473.822 214.479 474.021 214.611 474.188 214.779C474.355 214.947 474.487 215.146 474.578 215.364C474.668 215.583 474.714 215.818 474.713 216.054V243.798H509.965L537.908 252.522C538.076 251.317 537.854 250.091 537.274 249.022Z" fill="#F5252C"/>
<path d="M289.587 216.285L291.076 219.318L315.811 219.136H398.255L396.59 216.371L289.587 216.285Z" fill="#CD343F"/>
<path d="M499.309 210.031C498.44 209.566 497.513 209.218 496.552 208.995C496.552 208.995 487.492 202.837 467.534 203.014H307.665L298.062 187.269C298.062 187.269 294.795 182.92 281.113 183.919C281.113 183.919 276.035 185.363 277.034 190.527L286.551 210.031H499.309Z" fill="#F9EC63"/>
<path d="M489.453 205.919C484.698 204.41 477.47 202.934 467.55 203.02H307.665L298.062 187.269C298.062 187.269 296.041 184.585 288.539 183.919L288.271 184.005L305.128 205.919H489.453Z" fill="#FFEFA4"/>
<path d="M522.034 264.579L508.122 269.196H495.945L496.842 271.418L496.391 271.461L495.536 269.239L446.098 269.196L445.254 271.145L443.47 271L444.292 269.051L426.613 269.121C426.264 269.105 425.915 269.16 425.588 269.282C425.261 269.405 424.962 269.592 424.709 269.833C424.457 270.074 424.256 270.364 424.118 270.685C423.981 271.006 423.91 271.351 423.91 271.7C423.91 272.049 423.981 272.395 424.118 272.716C424.256 273.036 424.457 273.326 424.709 273.567C424.962 273.808 425.261 273.996 425.588 274.118C425.915 274.241 426.264 274.296 426.613 274.28L508.111 274.36C513.315 273.093 518.395 271.364 523.292 269.196C524.523 266.227 523.786 264.96 522.034 264.579Z" fill="#B7AD73"/>
<path d="M437.903 187.29C437.102 187.289 436.309 187.447 435.568 187.753C434.828 188.06 434.156 188.509 433.59 189.076C433.025 189.642 432.577 190.315 432.272 191.055C431.967 191.795 431.812 192.588 431.814 193.389V197.146H439.972V187.29H437.903Z" fill="#BCB7AB"/>
<path d="M442.046 187.29H439.972V197.146H448.129V193.389C448.132 192.589 447.977 191.796 447.672 191.056C447.368 190.317 446.92 189.644 446.355 189.078C445.79 188.511 445.118 188.061 444.379 187.755C443.639 187.448 442.847 187.29 442.046 187.29Z" fill="#9A9589"/>
<path d="M489.711 260.021H507.111C507.303 260.033 507.495 260.006 507.676 259.94C507.857 259.875 508.023 259.774 508.163 259.642C508.303 259.511 508.414 259.352 508.491 259.176C508.567 258.999 508.606 258.809 508.606 258.617C508.606 258.425 508.567 258.235 508.491 258.059C508.414 257.883 508.303 257.724 508.163 257.593C508.023 257.461 507.857 257.36 507.676 257.294C507.495 257.229 507.303 257.202 507.111 257.214H439.316C438.958 257.236 438.623 257.393 438.377 257.654C438.132 257.915 437.995 258.259 437.995 258.617C437.995 258.975 438.132 259.32 438.377 259.581C438.623 259.842 438.958 259.999 439.316 260.021H489.711Z" fill="#FFE45F"/>
<path d="M522.975 265.137L509.062 269.754H496.875L497.777 271.971H494.333L493.473 269.754H447.049L446.205 271.703H442.669L443.492 269.754H427.172C426.823 269.738 426.474 269.793 426.147 269.916C425.82 270.038 425.521 270.225 425.268 270.466C425.016 270.708 424.815 270.997 424.677 271.318C424.54 271.639 424.469 271.985 424.469 272.334C424.469 272.683 424.54 273.028 424.677 273.349C424.815 273.67 425.016 273.959 425.268 274.201C425.521 274.442 425.82 274.629 426.147 274.752C426.474 274.874 426.823 274.929 427.172 274.913H509.062C514.266 273.647 519.346 271.92 524.243 269.754C525.458 266.785 524.721 265.518 522.975 265.137Z" fill="#FFE45F"/>
<path d="M446.205 271.698L447.049 269.754L451.278 260.021H447.608L443.492 269.754L442.669 271.698H446.205Z" fill="#FFE45F"/>
<path d="M493.473 269.754L494.333 271.972H497.777L496.88 269.754L492.93 260.021H489.711L493.473 269.754Z" fill="#FFE45F"/>
<path d="M486.858 213.525H504.838C504.838 213.525 513.437 219.479 533.094 243.798L508.6 240.324L486.858 213.525Z" fill="#FCE061"/>
<path d="M478.039 214.25H485.563L498.143 230.683C498.143 230.683 498.68 232.788 496.848 232.992L488.115 233.265C483.499 232.632 475.616 216.967 478.039 214.25Z" fill="#3E5465"/>
<path d="M450.445 212.892H436.527C434.838 212.892 433.469 214.26 433.469 215.947V248.141C433.469 249.828 434.838 251.196 436.527 251.196H450.445C452.134 251.196 453.503 249.828 453.503 248.141V215.947C453.503 214.26 452.134 212.892 450.445 212.892Z" fill="#E31B27"/>
<path d="M523.733 232.616L514.114 238.95C514.586 239.589 527.645 241.382 531.39 241.715C528.601 238.312 526.054 235.289 523.733 232.616Z" fill="#405466"/>
<path d="M447.199 216.967H437.322C436.685 216.967 436.074 217.22 435.624 217.67C435.173 218.12 434.92 218.73 434.92 219.366V226.608C434.92 227.245 435.173 227.855 435.624 228.305C436.074 228.755 436.685 229.008 437.322 229.008H447.199C447.836 229.008 448.447 228.755 448.898 228.305C449.348 227.855 449.602 227.245 449.602 226.608V219.366C449.602 218.73 449.348 218.12 448.898 217.67C448.447 217.22 447.836 216.967 447.199 216.967ZM441.74 227.29L444.529 218.663H445.888L443.486 227.29H441.74ZM445.679 227.29H443.932L446.721 218.663H448.081L445.679 227.29Z" fill="#3E5367"/>
<path d="M444.529 218.663L441.74 227.285H443.486L445.888 218.663H444.529Z" fill="#7796AF"/>
<path d="M443.932 227.285H445.679L448.081 218.663H446.721L443.932 227.285Z" fill="#7796AF"/>
<path d="M309.298 205.918H295.885L299.303 215.968H316.795L317.73 211.443L309.298 205.918Z" fill="#CE3643"/>
<path d="M304.043 229.915H313.92L316.795 215.968H299.303L304.043 229.915Z" fill="#FFE462"/>
<path d="M516.919 225.062C510.981 218.712 507.353 215.555 505.763 214.277H490.571L505.306 232.138C506.472 231.762 507.391 231.188 507.858 230.27L508.75 225.127C511.287 223.452 514.06 223.989 516.919 225.062Z" fill="#4F637A"/>
<path d="M521.588 230.173C519.896 228.262 518.364 226.56 516.919 225.035C514.06 223.962 511.271 223.452 508.751 225.1L507.858 230.243C507.391 231.161 506.472 231.735 505.306 232.111L510.432 238.333L521.588 230.173Z" fill="#3F5365"/>
<path d="M467.007 203.019C466.47 200.303 458.409 197.114 458.409 197.114H453.519L456.238 201.055L403.382 201.248L399.953 202.998L467.007 203.019Z" fill="#D9A550"/>
<path d="M453.503 197.136H411.448L403.36 201.269L456.222 201.076L453.503 197.136Z" fill="#FFC766"/>
<path d="M447.785 191.343L537.984 178.212C537.984 178.212 524.549 165.672 495.735 155.128C495.735 155.128 503.715 150.78 542.234 177.139L545.313 176.865C545.313 176.865 524.775 160.475 500.711 151.51C500.711 151.51 512.904 150.06 548.656 175.958L551.289 175.689C551.289 175.689 516.268 151.639 506.45 150.774C506.45 150.774 533.91 153.314 560.016 179.844L448.129 193.389L447.785 191.343Z" fill="#ECE9DE"/>
<path d="M435.893 187.29L372.564 140C372.564 140 340.751 142.539 322.168 164.448C322.168 164.448 344.056 148.616 354.083 148.208C354.083 148.208 333.319 157.48 329.509 165.988C329.509 165.988 355.41 148.81 362.751 149.733C362.751 149.733 343.878 160.513 339.526 167.449C339.526 167.449 362.321 151.649 366.851 152.868L416.709 183.769C416.709 183.769 421.696 181.922 432.481 189.529L435.893 187.29Z" fill="#E9E8E0"/>
<path d="M431.815 193.389L318.702 179.163L321.696 187.14L321.319 182.931L322.545 183.001L323.743 187.698L324.049 183.044L325 183.146L326.736 188.751L326.602 183.382L327.381 183.554L329.181 189.529L329.117 183.919L370.274 189.529C373.715 189.285 377.168 189.285 380.608 189.529L431.793 194.897L431.815 193.389Z" fill="#EBE8DE"/>
<path d="M465.245 331.835C465.245 331.835 466.147 322.767 464.294 320.233L455.765 321.967V331.835H465.245Z" fill="#354453"/>
<path d="M452.842 320.684L454.363 319.417C454.363 319.417 460.478 325.892 455.765 329.558C455.765 329.558 454.76 322.451 452.842 320.684Z" fill="#9D9EA2"/>
<path d="M456.04 344.182C457.759 341.255 459.259 338.204 460.527 335.055C461.601 338.126 462.773 340.961 464.127 342.84C463.751 344.08 463.052 347.322 462.37 350.355C462.37 350.355 463.982 353.297 465.556 352.213C467.023 348.219 468.781 343.758 468.818 342.115C468.748 340.236 467.05 337.133 465.487 334.127L455.765 333.547C453.97 336.226 452.579 339.154 451.638 342.238C452.009 345.132 453.218 348.879 454.626 352.83C454.626 352.83 457.259 353.829 458.211 351.429C457.609 348.578 456.937 345.969 456.04 344.182Z" fill="#F5252A"/>
<path d="M461.849 249.29V345.664C461.849 345.664 462.687 347.698 463.461 345.664V249.29H461.849Z" fill="#4B494F"/>
<path d="M452.842 320.685C452.842 320.685 447.748 329.516 454.363 332.64L455.765 330.375C455.765 330.375 453.498 327.621 455.083 326.037C455.083 326.037 454.443 322.134 452.842 320.685Z" fill="#354453"/>
<path d="M461.161 331.325C461.161 331.325 457.082 331.641 455.787 330.375L454.384 332.64C454.384 332.64 456.399 335.174 461.338 334.583L461.161 331.325Z" fill="#FFD899"/>
<path d="M465.148 331.325C465.148 331.325 467.867 332.935 465.148 334.546L461.311 334.578L461.155 331.319L465.148 331.325Z" fill="#405466"/>
<path d="M455.196 358.623C455.196 358.623 459.893 355.321 458.216 351.429C458.216 351.429 456.604 353.646 454.632 352.83C454.632 352.83 453.175 357.946 455.196 358.623Z" fill="#354453"/>
<path d="M462.386 350.339C462.386 350.339 461.177 355.638 465.073 357.495C465.073 357.495 467.475 356.046 465.82 351.429C465.804 351.429 464.535 352.154 462.386 350.339Z" fill="#354453"/>
<path d="M463.756 306.877L465.465 304.772C465.465 304.772 462.816 300.972 460.231 302.668C460.236 302.668 458.382 304.434 463.756 306.877Z" fill="#405466"/>
<path d="M466.357 310.871C466.507 311.032 468.829 311.896 469.184 309.958C469.184 309.958 467.142 305.293 465.465 304.772L463.756 306.877L466.357 310.871Z" fill="#FFD899"/>
<path d="M462.289 321.812C462.289 321.812 471.672 316.766 469.184 309.958C469.184 309.958 469.017 311.811 466.357 310.871C465.879 313.563 464.562 316.035 462.595 317.936C462.595 317.936 462.993 320.754 462.289 321.812Z" fill="#354453"/>
<path d="M458.802 323.175C461.381 323.175 463.471 320.529 463.471 317.265C463.471 314 461.381 311.354 458.802 311.354C456.223 311.354 454.132 314 454.132 317.265C454.132 320.529 456.223 323.175 458.802 323.175Z" fill="#AFBBC3"/>
<path d="M454.019 318.725C454.672 318.725 455.201 318.071 455.201 317.265C455.201 316.458 454.672 315.805 454.019 315.805C453.366 315.805 452.837 316.458 452.837 317.265C452.837 318.071 453.366 318.725 454.019 318.725Z" fill="#AFBBC3"/>
<path d="M463.471 318.569C464.124 318.569 464.654 317.916 464.654 317.109C464.654 316.303 464.124 315.649 463.471 315.649C462.818 315.649 462.289 316.303 462.289 317.109C462.289 317.916 462.818 318.569 463.471 318.569Z" fill="#AFBBC3"/>
<path d="M462.923 320.029V318.381H454.997V319.326C454.996 319.884 455.115 320.435 455.344 320.944C455.574 321.452 455.91 321.905 456.33 322.273C457.027 322.847 457.899 323.165 458.802 323.175C460.591 323.175 462.144 321.898 462.923 320.029Z" fill="#FFD899"/>
<path d="M455.024 317.27H462.923C462.961 317.426 463.649 321.253 459.559 319.342H458.42C458.533 319.444 454.519 321.329 455.024 317.27Z" fill="#435463"/>
<path d="M462.289 383.446C475.793 383.446 486.74 372.51 486.74 359.02C486.74 345.53 475.793 334.594 462.289 334.594C448.785 334.594 437.838 345.53 437.838 359.02C437.838 372.51 448.785 383.446 462.289 383.446Z" fill="#3C3E3E"/>
<path d="M462.289 378.078C473.122 378.078 481.903 369.305 481.903 358.483C481.903 347.661 473.122 338.889 462.289 338.889C451.456 338.889 442.675 347.661 442.675 358.483C442.675 369.305 451.456 378.078 462.289 378.078Z" fill="#B6E2EF"/>
<path d="M463.267 352.535C465.698 352.535 467.668 350.567 467.668 348.138C467.668 345.71 465.698 343.742 463.267 343.742C460.836 343.742 458.866 345.71 458.866 348.138C458.866 350.567 460.836 352.535 463.267 352.535Z" fill="#F9F9F9"/>
<path d="M455.092 361.262C455.88 359.047 455.319 356.825 453.839 356.3C452.36 355.776 450.522 357.146 449.734 359.362C448.947 361.577 449.508 363.799 450.987 364.324C452.467 364.849 454.304 363.478 455.092 361.262Z" fill="#F9F9F9"/>
<path d="M464.82 339.06C461.756 338.655 458.639 338.98 455.725 340.01C452.811 341.039 450.182 342.743 448.054 344.982C445.926 347.221 444.359 349.932 443.481 352.893C442.603 355.853 442.439 358.98 443.003 362.016C443.372 356.242 445.758 350.782 449.745 346.586C453.733 342.391 459.068 339.728 464.82 339.06Z" fill="#85AAB2"/>
</g>
<defs>
<clipPath id="clip0_584_1034">
<rect width="301" height="414" fill="white" transform="translate(259 140)"/>
</clipPath>
</defs>
</svg>
