<svg width="719" height="669" viewBox="0 0 719 669" fill="none" xmlns="http://www.w3.org/2000/svg">
<path d="M638.64 207.709C682.947 247.245 684.112 312.605 641.243 353.696L486.339 502.172C390.649 593.892 232.904 596.704 134.005 508.454L122.565 498.247C54.9186 437.884 53.1393 338.092 118.591 275.356L229.486 169.062C326.899 75.6918 487.484 72.8285 588.163 162.667L638.64 207.709Z" fill="#0099C0"/>
<g clip-path="url(#clip0_584_887)">
<path d="M281.564 161.597L280.526 232.637C280.412 236.525 285.342 244.838 289.868 252.797L316.857 257.597L341.77 260.477L355.264 253.757L359.759 238.397C359.583 234.297 359.261 230.429 358.721 226.877L356.302 163.517L281.564 161.597Z" fill="#FEBDA4"/>
<path d="M253.537 231.869L331.172 446.227L389.52 233.789L359.417 232.637C358.379 241.277 355.462 246.077 342.808 251.837C342.808 251.837 342.082 254.025 313.619 252.096C282.685 251.357 279.882 231.811 280.536 231.677L253.537 231.869Z" fill="#75CAF4"/>
<path d="M308.553 251.837L305.439 288.317L312.705 293.117L302.325 375.677L325.161 446.717H335.936L350.074 372.797L338.656 294.077L343.846 288.317L342.808 251.837C332.822 253.2 320.49 252.921 308.553 251.837Z" fill="#9F9FDD"/>
<path d="M305.501 288.24C310.62 290.18 315.493 292.633 320.034 295.555L318.881 295.257C324.757 294.883 330.642 294.633 336.528 294.297L335.272 294.864C337.797 292.317 340.669 290.084 343.815 288.221L343.981 288.355L336.777 296.035V296.093H336.58C336.466 296.093 318.933 297.053 318.861 297.053C318.788 297.053 305.449 288.326 305.366 288.297L305.491 288.144L305.501 288.24Z" fill="#9291D0"/>
<path d="M455.954 221.597C455.954 221.597 452.84 247.181 408.869 233.913C404.468 233.405 404.426 233.318 394.679 233.597L388.451 233.789C364.14 315.197 342.777 390.345 330.549 446.227C312.145 372.931 286.91 301.353 253.537 231.869H253.755L252.499 231.677C252.499 231.677 179.64 214.963 169.456 322.022C169.456 322.022 114.181 460.339 132.606 479.289C132.606 479.289 136.696 513.398 286.132 504.864L568.062 506.237L455.954 221.597Z" fill="white"/>
<path d="M390.008 245.789L406.772 259.517L409.18 261.437V259.401L393.319 273.005L391.025 274.925C390.837 275.105 390.703 275.326 390.635 275.568C390.567 275.811 390.569 276.065 390.639 276.306C390.709 276.548 390.845 276.769 391.035 276.947C391.224 277.126 391.46 277.256 391.72 277.325L409.523 283.497L408.485 281.731L402.734 294.777L388.897 326.121L372.112 364.157L357.652 396.902L352.908 407.645C352.161 409.353 351.268 411.053 350.635 412.8C350.608 412.875 350.577 412.949 350.541 413.021C349.784 414.729 352.794 415.478 353.541 413.789L359.302 400.733L373.139 369.389L389.873 331.517L404.332 298.752L409.066 288.009C409.824 286.301 410.716 284.601 411.35 282.854C411.376 282.779 411.407 282.705 411.443 282.633C411.545 282.272 411.495 281.888 411.302 281.56C411.109 281.232 410.788 280.984 410.405 280.867L392.592 274.694L393.277 277.104L409.139 263.501L411.433 261.533C411.722 261.261 411.884 260.896 411.884 260.515C411.884 260.134 411.722 259.769 411.433 259.497L394.668 245.76L392.26 243.782C390.765 242.563 388.554 244.589 390.059 245.827L390.008 245.789Z" fill="#D7EAF1"/>
<path d="M250.423 245.059L231.738 259.737L229.05 261.859C228.884 262.016 228.759 262.206 228.684 262.414C228.609 262.622 228.585 262.843 228.615 263.061C228.645 263.279 228.727 263.488 228.857 263.672C228.986 263.856 229.158 264.011 229.361 264.125L249.842 276.797L252.748 278.592V276.105L235.621 283.785C235.272 283.986 235.019 284.303 234.915 284.671C234.811 285.039 234.863 285.43 235.06 285.763L242.088 298.243L258.956 328.291L279.353 364.637L297 396.048L302.782 406.339C303.705 407.981 304.557 409.68 305.553 411.283C305.597 411.35 305.635 411.421 305.667 411.494C306.591 413.136 309.28 411.686 308.366 410.035L301.339 397.555L284.471 367.507L264.073 331.161L246.427 299.75L240.645 289.459C239.816 287.767 238.891 286.116 237.873 284.515C237.827 284.449 237.789 284.378 237.759 284.304L237.199 286.281L254.326 278.601C254.556 278.471 254.746 278.288 254.877 278.07C255.009 277.853 255.078 277.608 255.078 277.358C255.078 277.109 255.009 276.864 254.877 276.646C254.746 276.428 254.556 276.246 254.326 276.115L233.877 263.481L230.97 261.677L231.282 263.942L249.883 249.264L252.572 247.142C254.098 245.942 251.887 243.907 250.371 245.107L250.423 245.059Z" fill="#D7EAF1"/>
<path d="M413.083 234.557L424.813 395.318L437.269 359.913L417.806 234.557H413.083Z" fill="#F1F8FF"/>
<path d="M252.323 343.997L224.472 433.104L332.428 445.757L245.658 422.477L252.323 343.997Z" fill="#F1F8FF"/>
<path d="M280.526 160.637C280.526 160.637 280.526 202.877 288.955 210.816C288.955 210.816 309.591 233.597 358.379 223.037C358.379 223.037 365.645 222.077 377.582 214.877C388.886 208.061 280.526 160.637 280.526 160.637Z" fill="#FFA691"/>
<path d="M287.792 161.597C287.792 161.597 277.412 224.957 339.694 221.117C339.694 221.117 398.862 227.837 390.558 180.797L394.71 105.917C394.71 105.917 325.162 115.517 311.667 99.1966C311.667 99.1966 305.439 122.237 298.173 123.197C279.488 122.237 263.918 122.237 258.727 139.517C258.727 139.517 254.575 163.517 287.792 161.597Z" fill="#FFBDA4"/>
<path d="M260.803 134.63C260.803 134.63 254.658 125.587 266.948 116.544C266.948 116.544 258.758 64.3102 297.674 59.2894H354.828C354.828 59.2894 368.582 38.1694 385.357 59.2894C385.357 59.2894 441.048 58.3294 408.277 104.496C408.277 104.496 412.429 135.629 392.914 136.637V109.517C392.914 109.517 329.417 122.573 310.982 100.473C310.982 100.473 308.906 122.553 298.691 129.609C298.671 129.609 275.118 121.574 260.803 134.63Z" fill="#390029"/>
<path d="M292.983 492.201C292.983 492.201 274.298 428.477 354.227 445.161C354.227 445.161 397.824 463.997 374.987 483.561L379.139 493.757H366.33L354.227 477.801L355.265 479.357L364.607 492.797L342.736 493.757L337.618 486.441C339.071 490.502 336.248 492.643 331.13 493.757C315.082 495.417 301.536 495.437 292.983 492.201Z" fill="#FFBDA4"/>
<path d="M364.669 466.877C368.359 470.239 371.306 474.233 373.347 478.637C374.08 480.1 374.65 481.627 375.05 483.197L374.925 483.273C372.268 479.241 367.067 471.053 364.545 466.953L364.669 466.877Z" fill="#FBB59C"/>
<path d="M354.517 478.262C353.484 477.564 352.623 476.67 351.991 475.641C351.359 474.611 350.971 473.47 350.853 472.291C351.886 472.99 352.747 473.883 353.378 474.913C354.01 475.942 354.398 477.084 354.517 478.262Z" fill="#FBB59C"/>
<path d="M332.272 480.317C333.345 480.751 334.293 481.411 335.041 482.245C335.789 483.078 336.316 484.061 336.58 485.117C335.507 484.682 334.559 484.022 333.811 483.189C333.063 482.355 332.536 481.372 332.272 480.317Z" fill="#FBB59C"/>
<path d="M273.862 493.757L281.564 509.289H587.93L635.015 368.477C634.838 362.179 631.828 357.917 625.673 355.997H434.249L388.482 492.307L273.862 493.757Z" fill="#3A464F"/>
<path d="M399.308 509.289H587.93L627.967 389.558L634.766 365.923C634.469 363.626 633.449 361.461 631.832 359.696C630.216 357.931 628.074 356.645 625.673 355.997H443.363L399.308 509.289Z" fill="#525F72"/>
<path d="M442.46 239.357C442.46 239.357 462.182 237.437 461.663 225.437C461.663 225.437 457.511 189.917 424.294 182.237C424.294 182.237 379.658 168.797 370.316 191.837C370.316 191.837 368.24 201.437 376.544 200.477C376.544 200.477 371.354 210.077 380.696 215.837C380.163 217.88 380.384 220.03 381.325 221.943C382.266 223.857 383.871 225.425 385.887 226.397C385.887 226.397 382.254 235.517 394.71 232.637C405.09 229.757 400.938 231.677 414.433 236.477C423.422 239.373 433.002 240.357 442.46 239.357Z" fill="#FEBEA5"/>
<path d="M386.406 230.717C385.492 224.486 388.762 219.36 405.609 218.717" stroke="#FBB59C" stroke-width="1.44" stroke-miterlimit="10"/>
<path d="M382.254 222.077C380.78 220.339 377.064 207.273 398.343 206.237" stroke="#FBB59C" stroke-width="1.44" stroke-miterlimit="10"/>
<path d="M376.088 206.717C376.088 206.717 373.846 193.958 397.305 192.797" stroke="#FBB59C" stroke-width="1.44" stroke-miterlimit="10"/>
<path d="M373.69 199.997C367.202 196.809 365.821 177.974 400.938 178.877" stroke="#FBB59C" stroke-width="1.44" stroke-miterlimit="10"/>
<path d="M329.314 137.597C329.314 137.597 330.352 122.237 354.227 128.957C354.227 128.957 354.227 140.477 329.314 137.597Z" fill="#2E001D"/>
<path d="M401.011 142.118C401.011 142.118 398.935 130.752 374.884 137.453C374.884 137.453 378.683 152.429 401.011 142.118Z" fill="#2E001D"/>
<path d="M336.061 174.557C340.421 181.373 347.303 184.397 358.898 180.317" stroke="#FBB59C" stroke-width="1.44" stroke-miterlimit="10"/>
<path d="M276.125 136.483C267.976 140.323 265.662 145.689 274.298 153.917" stroke="#FBB59C" stroke-width="1.44" stroke-miterlimit="10"/>
<path d="M353.708 169.757C364.347 173.059 371.292 172.349 370.316 163.037" stroke="#FBB59C" stroke-width="1.44" stroke-miterlimit="10"/>
<path d="M356.303 203.837C362.012 202.512 365.645 200.957 365.645 199.037" stroke="#FBB59C" stroke-width="0.96" stroke-miterlimit="10"/>
<path d="M365.645 192.317C366.891 185.069 373.036 180.403 383.292 177.917" stroke="#FBB59C" stroke-width="0.96" stroke-miterlimit="10"/>
<path d="M384.33 163.517C386.623 163.517 388.482 161.797 388.482 159.677C388.482 157.556 386.623 155.837 384.33 155.837C382.036 155.837 380.177 157.556 380.177 159.677C380.177 161.797 382.036 163.517 384.33 163.517Z" fill="#2D001D"/>
<path d="M344.884 158.717C347.177 158.717 349.036 156.997 349.036 154.877C349.036 152.756 347.177 151.037 344.884 151.037C342.591 151.037 340.732 152.756 340.732 154.877C340.732 156.997 342.591 158.717 344.884 158.717Z" fill="#2D001D"/>
<path d="M307.629 104.957C342.237 98.9086 376.274 105.696 409.876 122.237C411.277 138.614 410.415 153.792 405.329 166.713C374.188 171.053 337.929 167.779 299.107 158.371C293.076 144.393 298.868 124.809 307.629 104.957Z" fill="#CBCAB8"/>
<path d="M330.352 111.024C355.971 107.51 385.669 113.347 416.716 122.966C420.183 136.099 417.453 150.509 410.332 165.84C387.288 167.155 355.732 164.054 321.923 156.691C319.11 141.072 322.048 124.464 330.352 111.024Z" fill="#294648"/>
<path d="M277.412 127.526C286.173 121.718 295.92 119.75 306.477 120.806C309.809 127.757 308.346 134.64 304.692 141.504C300.633 143.424 295.92 142.051 291.093 140.093C291 134.467 284.616 130.877 277.412 127.526Z" fill="#152625"/>
<path d="M338.023 110.275L366.423 164.112C372.7 164.822 378.741 165.344 384.547 165.677L362.915 110.957C354.658 110.014 346.325 109.786 338.023 110.275Z" fill="#2C5759"/>
<path d="M383.53 114.269C379.088 113.309 374.686 112.56 370.358 111.917L389.582 165.917C392.842 166.051 396.008 166.118 399.059 166.118L383.53 114.269Z" fill="#2C5759"/>
</g>
<defs>
<clipPath id="clip0_584_887">
<rect width="506.219" height="459.37" fill="white" transform="translate(128.796 49.9198)"/>
</clipPath>
</defs>
</svg>
