<svg width="865" height="493" viewBox="0 0 865 493" fill="none" xmlns="http://www.w3.org/2000/svg">
<path d="M851.993 292.88C858.673 351.885 816.256 405.133 757.251 411.814L282.796 465.531C151.714 480.371 33.4212 386.14 18.5805 255.059C8.42937 165.399 72.8837 84.4867 162.543 74.3357L576.068 27.5171C710.146 12.3371 831.143 108.723 846.323 242.8L851.993 292.88Z" fill="#0099C0"/>
<g clip-path="url(#clip0_238_207)">
<path d="M112.409 384.585C116.894 384.585 120.53 380.949 120.53 376.464C120.53 371.978 116.894 368.342 112.409 368.342C107.923 368.342 104.287 371.978 104.287 376.464C104.287 380.949 107.923 384.585 112.409 384.585Z" fill="#1C3448"/>
<path d="M180.675 384.691C185.16 384.691 188.796 381.055 188.796 376.569C188.796 372.084 185.16 368.448 180.675 368.448C176.189 368.448 172.553 372.084 172.553 376.569C172.553 381.055 176.189 384.691 180.675 384.691Z" fill="#1C3448"/>
<path d="M147.487 384.326C151.973 384.326 155.609 380.69 155.609 376.205C155.609 371.719 151.973 368.083 147.487 368.083C143.002 368.083 139.366 371.719 139.366 376.205C139.366 380.69 143.002 384.326 147.487 384.326Z" fill="#1C3448"/>
<path d="M90.7223 299.693H141.871V344.083L107.436 355.968C104.902 361.44 104.556 365.501 110.21 365.741V368.765H114.991V366.163L142.543 356.918L142.236 365.616H144.156V368.678H150.703L150.655 365.52H152.124V358.003L178.197 365.597V368.899H183.046L182.988 365.625H190.082C193.241 363.773 194.441 362.256 193.356 357.945L153.756 345.043V299.117H192.578L192.674 290.237L101.023 289.622L97.6439 245.933L85.9895 246L90.7223 299.693Z" fill="#2D5B75"/>
<path d="M69.5161 146.477L81.8809 244.397C83.1097 251.443 99.3529 249.965 98.8057 243.302L86.4313 145.814C85.3945 137.885 70.4473 138.173 69.5161 146.477Z" fill="#EB5E5D"/>
<path d="M110.249 276.009C103.913 280.406 104.921 285.091 110.249 289.949L192.578 290.448L192.415 276.048L110.249 276.009Z" fill="#E6625D"/>
<path d="M243.065 108.825H241.567C237.602 108.23 234.847 110.899 232.601 115.133L240.117 208.723H243.727L236.21 115.113C238.015 111.696 240.185 109.286 243.065 108.825Z" fill="#D4303A"/>
<path d="M245.177 108.825H328.37C332.21 109.862 334.601 112.061 335.157 115.853L343.404 208.723H243.727L236.21 115.113C238.428 110.899 241.212 108.23 245.177 108.825Z" fill="#E6625D"/>
<path d="M254.911 259.603V269.865H349.25V260.736L254.911 259.603Z" fill="#2D5B75"/>
<path d="M253.509 246.317C245.935 250.829 247.145 255.648 253.509 260.64H351.909C361.855 251.865 351.717 246.317 351.717 246.317H253.509Z" fill="#E6625D"/>
<path d="M258.137 335.385C251.791 329.625 254.297 325.881 264.597 322.905L289.145 316.723L290.844 269.616L309.698 269.28L308.738 319.632L321.89 322.003L335.33 327.187C337.413 332.457 335.916 335.347 330.78 335.827L330.722 340.041H325.922V335.645C321.337 334.871 316.943 333.222 312.981 330.787H299.541L299.676 340.953H290.402L290.45 331.19L271.663 331.795C266.959 333.715 264.569 334.416 263.897 336.403V338.774H257.897L258.137 335.385Z" fill="#2D5B75"/>
<path d="M260.546 352.185C264.74 352.185 268.14 348.786 268.14 344.592C268.14 340.398 264.74 336.998 260.546 336.998C256.352 336.998 252.953 340.398 252.953 344.592C252.953 348.786 256.352 352.185 260.546 352.185Z" fill="#1A3644"/>
<path d="M295.106 353.097C299.3 353.097 302.7 349.698 302.7 345.504C302.7 341.31 299.3 337.91 295.106 337.91C290.912 337.91 287.513 341.31 287.513 345.504C287.513 349.698 290.912 353.097 295.106 353.097Z" fill="#1A3644"/>
<path d="M328.658 353.097C332.852 353.097 336.252 349.698 336.252 345.504C336.252 341.31 332.852 337.91 328.658 337.91C324.464 337.91 321.065 341.31 321.065 345.504C321.065 349.698 324.464 353.097 328.658 353.097Z" fill="#1A3644"/>
<path d="M493.433 102.47H494.921C498.895 101.837 501.641 104.688 503.897 109.19L496.38 209.03H492.77L500.287 109.238C498.482 105.533 496.303 102.969 493.433 102.47Z" fill="#D4303A"/>
<path d="M491.311 102.47H408.127C404.287 103.574 401.887 105.917 401.33 109.968L393.084 208.982H492.77L500.287 109.19C498.031 104.688 495.276 101.837 491.311 102.47Z" fill="#E6625D"/>
<path d="M492.713 252.691V262.944H398.374V253.824L492.713 252.691Z" fill="#2D5B75"/>
<path d="M494.105 239.443C501.679 243.965 500.469 248.784 494.105 253.776H395.705C385.769 245.001 395.897 239.443 395.897 239.443H494.105Z" fill="#E6625D"/>
<path d="M486.578 328.982C492.914 323.222 490.418 319.382 480.118 316.435L455.561 310.205L453.871 262.733L435.007 262.406L435.967 313.133L422.805 315.513L409.365 320.736C407.292 326.045 408.78 328.953 413.916 329.376L413.973 333.619H418.773V329.193C423.361 328.405 427.754 326.743 431.714 324.297H445.154L445.01 334.541H454.284L454.236 324.701L473.033 325.315C477.727 327.235 480.117 327.945 480.799 329.952V332.342H486.799L486.578 328.982Z" fill="#2D5B75"/>
<path d="M484.169 345.83C488.363 345.83 491.762 342.43 491.762 338.237C491.762 334.043 488.363 330.643 484.169 330.643C479.975 330.643 476.575 334.043 476.575 338.237C476.575 342.43 479.975 345.83 484.169 345.83Z" fill="#1A3644"/>
<path d="M449.599 346.732C453.793 346.732 457.193 343.333 457.193 339.139C457.193 334.945 453.793 331.545 449.599 331.545C445.405 331.545 442.006 334.945 442.006 339.139C442.006 343.333 445.405 346.732 449.599 346.732Z" fill="#1A3644"/>
<path d="M416.047 346.732C420.241 346.732 423.641 343.333 423.641 339.139C423.641 334.945 420.241 331.545 416.047 331.545C411.853 331.545 408.453 334.945 408.453 339.139C408.453 343.333 411.853 346.732 416.047 346.732Z" fill="#1A3644"/>
<path d="M640.745 108.662H642.185C646.025 108.067 648.723 110.736 650.873 114.941L643.596 208.061H640.111L647.388 114.941C645.631 111.523 643.529 109.123 640.745 108.662Z" fill="#D4303A"/>
<path d="M638.7 108.662H558.223C554.547 109.699 552.185 111.888 551.647 115.661L543.67 208.08H640.111L647.388 114.96C645.228 110.736 642.531 108.067 638.7 108.662Z" fill="#E6625D"/>
<path d="M627.929 259.853V270.115H533.59V260.985L627.929 259.853Z" fill="#2D5B75"/>
<path d="M629.331 246.566C636.905 251.078 635.695 255.897 629.331 260.889H530.931C520.985 252.115 531.123 246.566 531.123 246.566H629.331Z" fill="#E6625D"/>
<path d="M621.794 336.153C628.13 330.393 625.634 326.553 615.334 323.597L590.777 317.366L589.087 269.904L570.233 269.568L571.193 320.294L558.031 322.685L544.591 327.907C542.508 333.206 543.996 336.115 549.132 336.547L549.199 340.8H553.999V336.365C558.588 335.58 562.982 333.918 566.94 331.469H580.38L580.246 341.712H589.51V331.872L608.297 332.486C613.001 334.406 615.391 335.126 616.063 337.133V339.513H622.063L621.794 336.153Z" fill="#2D5B75"/>
<path d="M619.385 352.992C623.579 352.992 626.978 349.592 626.978 345.398C626.978 341.204 623.579 337.805 619.385 337.805C615.191 337.805 611.791 341.204 611.791 345.398C611.791 349.592 615.191 352.992 619.385 352.992Z" fill="#1A3644"/>
<path d="M584.825 353.904C589.019 353.904 592.419 350.504 592.419 346.31C592.419 342.116 589.019 338.717 584.825 338.717C580.631 338.717 577.231 342.116 577.231 346.31C577.231 350.504 580.631 353.904 584.825 353.904Z" fill="#1A3644"/>
<path d="M551.263 353.904C555.457 353.904 558.857 350.504 558.857 346.31C558.857 342.116 555.457 338.717 551.263 338.717C547.069 338.717 543.67 342.116 543.67 346.31C543.67 350.504 547.069 353.904 551.263 353.904Z" fill="#1A3644"/>
<path d="M775.298 381.821C779.784 381.821 783.42 378.184 783.42 373.699C783.42 369.214 779.784 365.577 775.298 365.577C770.813 365.577 767.177 369.214 767.177 373.699C767.177 378.184 770.813 381.821 775.298 381.821Z" fill="#1C3448"/>
<path d="M707.033 381.926C711.518 381.926 715.155 378.29 715.155 373.805C715.155 369.319 711.518 365.683 707.033 365.683C702.548 365.683 698.911 369.319 698.911 373.805C698.911 378.29 702.548 381.926 707.033 381.926Z" fill="#1C3448"/>
<path d="M740.23 381.561C744.715 381.561 748.351 377.925 748.351 373.44C748.351 368.954 744.715 365.318 740.23 365.318C735.744 365.318 732.108 368.954 732.108 373.44C732.108 377.925 735.744 381.561 740.23 381.561Z" fill="#1C3448"/>
<path d="M796.995 296.918H745.827V341.309L780.271 353.184C782.796 358.665 783.151 362.717 777.497 362.966L777.449 365.99H772.774V363.427L745.212 354.182L745.519 362.87H743.599V365.942H737.071V362.784H735.631V355.19L709.567 362.784V366.163H704.71L704.777 362.889H697.683C694.515 361.027 693.315 359.52 694.409 355.209L733.951 342.249V296.342H695.139L695.043 287.462L786.684 286.857L790.073 243.168L801.727 243.235L796.995 296.918Z" fill="#2D5B75"/>
<path d="M818.201 143.702L805.826 241.622C804.607 248.669 788.364 247.2 788.911 240.537L801.276 143.049C802.351 135.12 817.27 135.398 818.201 143.702Z" fill="#EB5E5D"/>
<path d="M781.279 270.95C787.903 276.038 786.847 281.51 781.279 287.097L695.139 287.673L695.311 270.95H781.279Z" fill="#E6625D"/>
<path d="M130.937 151.901C130.937 151.901 129.257 140.774 129.353 134.39L144.713 136.55C144.137 141.705 145.097 145.91 146.258 150.797L130.937 151.901Z" fill="#FFBDA4"/>
<path d="M129.391 138.643C129.151 139.334 133.03 145.939 144.751 143.443V141.523C144.751 138.221 129.391 138.643 129.391 138.643Z" fill="#FFA691"/>
<path d="M207.151 133.843C208.919 132.069 210.525 130.141 211.951 128.083C214.342 119.885 216.751 111.696 217.711 106.003C219.631 105.043 221.321 104.966 222.511 106.963L221.551 115.603C225.391 116.563 228.137 117.974 229.49 119.923C230.415 122.222 230.975 124.651 231.151 127.123V129.821C226.984 134.987 222.141 139.569 216.751 143.443L207.151 133.843Z" fill="#FFBDA4"/>
<path d="M140.911 148.243L175.759 162.643L205.635 131.923L221.196 146.323L185.676 182.803C183.238 185.299 179.369 185.232 174.732 183.763L150.031 174.259C143.715 165.014 141.257 156.451 140.911 148.243Z" fill="white"/>
<path d="M224.431 350.803H208.524C207.728 349.185 207.58 347.323 208.111 345.6L224.191 339.283C224.281 343.123 224.361 346.963 224.431 350.803Z" fill="#FFBDA4"/>
<path d="M102.511 241.363L145.529 248.083H198.886C204.003 249.485 206.739 252.067 207.151 255.811L228.271 340.291L203.311 347.011L185.071 275.971H116.671C100.659 270.374 97.8746 257.837 102.511 241.363Z" fill="#632A3D"/>
<path d="M149.474 211.939C139.519 246.873 149.388 271.757 118.831 275.923C97.0008 278.899 93.66 259.814 105.737 207.043C113.494 173.155 100.543 145.862 134.662 146.381C151.692 146.63 159.151 178.003 149.474 211.939Z" fill="white"/>
<path d="M145.788 185.395C146.751 192.896 148.324 200.306 150.492 207.552C155.58 183.897 153.497 162.355 145.692 152.323C144.003 159.177 143.916 171.523 145.788 185.395Z" fill="#75CAF4"/>
<path d="M152.681 193.833C154.534 175.824 151.951 160.368 145.682 152.323C145.558 152.803 145.452 153.283 145.356 153.84C144.83 159.858 145.027 165.917 145.942 171.888C147.362 182.179 150.079 190.742 152.681 193.833Z" fill="#9F9FDD"/>
<path d="M121.711 154.003C119.427 161.011 125.974 189.408 128.431 213.523C128.566 215.702 130.726 218.131 133.231 219.283H147.631L148.591 215.443L121.711 154.003Z" fill="#F1F8FF"/>
<path d="M186.991 190.483L191.791 189.523C193.884 187.209 198.962 186.585 205.231 186.643C208.61 187.325 211.308 188.947 211.951 193.363C212.7 197.933 210.991 202.003 204.271 204.883C199.202 206.63 193.788 206.16 188.239 204.883L186.991 190.483Z" fill="#FFBDA4"/>
<path d="M121.711 154.003C127.702 146.467 134.095 145.997 140.911 153.043C143.666 162.835 145.711 177.667 147.631 193.363C159.305 192.595 172.716 190.483 186.991 187.603C187.353 194.395 188.317 201.141 189.871 207.763C171.18 212.505 153.612 216.048 138.991 216.403C135.199 216.873 132.646 215.577 131.311 212.563C126.943 189.398 122.287 165.331 121.711 154.003Z" fill="white"/>
<path d="M164.911 97.5933C149.033 94.1757 137.167 95.0301 131.388 102.393C119.561 102.393 119.561 116.496 128.431 120.528L129.391 138.643L129.007 138.393C132.319 141.83 136.428 143.52 141.363 142.483C158.835 138.816 165.919 123.907 165.843 110.323C165.871 106.062 165.559 101.805 164.911 97.5933Z" fill="#FFBDA4"/>
<path d="M128.431 120.518C119.561 116.486 119.561 102.384 131.388 102.384C137.148 95.059 149.033 94.2046 164.911 97.5838C164.7 90.3934 162.127 85.2286 157.442 81.8878C154.751 80.0452 151.714 78.7683 148.514 78.1342C145.962 77.5876 143.366 77.2663 140.757 77.1742C120.684 77.0398 115.279 89.3182 117.314 107.894C117.458 125.654 122.306 133.901 129.036 138.365L129.42 138.614L128.431 120.518Z" fill="#582417"/>
<path d="M205.231 348.883L234.031 350.803C237.708 352.013 240.204 354.067 240.751 357.523C241.606 361.046 240.751 364.31 236.911 367.123L206.191 364.243C203.618 363.465 201.794 361.641 202.351 356.563C202.073 353.913 203.196 351.369 205.231 348.883Z" fill="#332323"/>
<path d="M129.977 100.157C140.662 95.9037 152.057 96.1341 163.903 99.7821C165.459 105.369 166.198 110.688 165.439 115.478C155.763 118.915 143.916 120.048 130.879 119.203C127.971 114.72 128.508 107.577 129.977 100.157Z" fill="#CBCAB8"/>
<path d="M137.647 100.838C145.625 98.0254 155.532 98.2078 166.131 99.6094C168.127 103.939 168.223 109.104 166.966 114.854C159.67 116.774 149.35 117.638 138.022 117.187C136.059 111.935 135.927 106.174 137.647 100.838Z" fill="#294648"/>
<path d="M124.591 104.736C126.902 102.278 130.066 100.798 133.433 100.598C134.969 102.797 134.969 105.273 134.259 107.875C133.087 108.835 131.484 108.614 129.804 108.24C129.391 106.291 127.116 105.446 124.591 104.736Z" fill="#152625"/>
<path d="M140.076 100.099L152.796 116.985C154.863 116.845 156.835 116.649 158.71 116.4L148.092 98.7933C145.386 98.9794 142.702 99.4165 140.076 100.099Z" fill="#2C5759"/>
<path d="M154.927 98.6494C153.439 98.6494 151.98 98.6494 150.54 98.6494L160.342 116.16C161.398 116.006 162.415 115.833 163.394 115.641L154.927 98.6494Z" fill="#2C5759"/>
<path d="M275.311 116.563L282.031 125.203H291.65L298.351 117.523L296.431 109.843L275.311 108.883V116.563Z" fill="#FFBDA4"/>
<path d="M378.031 112.723C379.764 112.155 381.594 111.947 383.41 112.112C385.226 112.277 386.99 112.811 388.591 113.683C390.78 114.979 391.817 116.563 391.471 118.483C391.894 120.403 391.394 122.678 390.511 125.203C388.344 128.195 385.779 130.879 382.889 133.181L370.351 124.243C369.626 122.488 369.626 120.517 370.351 118.761C371.542 115.958 374.191 114 378.031 112.723Z" fill="#FFBDA4"/>
<path d="M270.511 119.443L247.395 125.261C239.619 144.461 236.268 159.033 233.071 178.627C231.151 191.241 251.311 198.998 256.111 199.968V208.723H322.399C323.359 190.886 322.803 171.821 321.391 150.509C325.596 155.107 334.39 162.432 343.471 169.91C356.18 160.599 368.063 150.212 378.991 138.864L365.551 127.219C355.577 134.611 345.276 142.147 341.551 146.63C336.892 139.542 331.414 133.027 325.231 127.219C324.492 125.51 321.699 123.926 318.511 122.371C315.075 121.305 311.599 120.576 307.951 121.411L302.691 119.491L298.351 115.92L291.631 125.299H282.031L275.311 116.563L270.511 119.443Z" fill="#416787"/>
<path d="M290.671 190.723L296.681 192.259L292.802 205.843L286.543 204.989L290.671 190.723Z" fill="#EAFCFF"/>
<path d="M366.953 128.333L378.991 138.643L383.791 133.843L370.351 124.243L366.953 128.333Z" fill="#EAFCFF"/>
<path d="M256.111 200.083C255.218 203.587 283.826 207.571 285.382 206.573L256.111 200.083Z" fill="#477396"/>
<path d="M254.911 177.273C258.435 178.07 261.679 149.366 260.671 147.84L259.116 155.827L254.911 177.273Z" fill="#477396"/>
<path d="M254.499 175.392C252.579 178.349 274.812 183.619 276.425 182.861L270.511 180.883L254.499 175.392Z" fill="#477396"/>
<path d="M265.711 129.043L255.151 177.043L276.271 182.803L290.671 189.523C289.932 197.577 289.491 204.173 284.911 206.803C274.236 204.768 262.38 202.521 254.383 199.737C242.777 196.109 234.809 191.654 232.111 183.763C232.111 162.643 237.084 143.136 246.435 126.163C251.724 121.363 266.595 126.163 265.711 129.043Z" fill="#416787"/>
<path d="M282.991 135.763C280.111 135.369 278.978 134.409 279.199 133.027L282.079 125.203H291.679L293.945 130.483C294.415 132.806 294.194 134.717 292.486 135.763H289.711L291.631 188.563L280.639 183.437L282.991 135.763Z" fill="#84DCE6"/>
<path d="M270.511 119.443L278.191 135.763L282.031 125.203L275.311 116.563L270.511 119.443Z" fill="#2A4760"/>
<path d="M289.711 126.163L294.934 134.803L301.721 118.483L297.391 114.969L289.711 126.163Z" fill="#28485B"/>
<path d="M275.312 109.843C275.139 110.573 281.542 116.275 296.566 111.341C296.633 111.341 296.825 111.12 296.432 109.843C295.472 106.675 275.312 109.843 275.312 109.843Z" fill="#FFA691"/>
<path d="M295.817 192.029C298.887 191.6 302.001 191.6 305.071 192.029C308.167 192.781 310.892 194.616 312.751 197.203C314.047 198.864 311.513 206.889 310.082 208.541L293.158 208.301C292.591 208.089 292.399 207.273 292.591 205.843L295.817 192.029Z" fill="#FFBDA4"/>
<path d="M306.991 69.523C305.571 65.8174 292.073 60.9311 286.831 60.8063C282.185 59.2991 268.697 73.0366 263.791 75.283C259.347 77.3278 259.308 85.5166 263.791 90.2686C263.791 98.5054 266.105 105.705 275.311 109.843C281.741 112.38 288.83 112.717 295.471 110.803C305.148 110.371 314.211 85.0462 311.167 78.163C309.641 75.283 308.239 72.451 306.991 69.523Z" fill="#FFBDA4"/>
<path d="M286.831 60.8062C292.073 60.931 305.571 65.8174 306.991 69.523C308.239 72.451 309.641 75.283 311.167 78.163C311.45 75.7545 311.575 73.3302 311.542 70.9054C311.519 70.2631 311.465 69.6223 311.379 68.9854V68.7646C311.331 68.4862 311.283 68.2174 311.225 67.9678V67.8526C310.898 65.2827 309.995 62.8199 308.582 60.6487C307.169 58.4775 305.283 56.6541 303.065 55.315H303.017L302.729 55.1326C302.124 54.643 301.5 54.1726 300.867 53.7886C299.56 52.9218 298.159 52.2068 296.691 51.6574C294.779 50.9483 292.767 50.5465 290.729 50.467C285.19 49.6126 280.342 50.3614 276.329 53.0494C275.123 53.8222 273.957 54.6553 272.835 55.5454C270.819 57.0274 269.061 58.8306 267.631 60.883C264.957 65.1983 263.621 70.2091 263.791 75.283C272.681 74.1694 274.351 64.723 286.831 60.8062Z" fill="#A9957A"/>
<path d="M289.26 246.317H331.174L335.436 228.336L287.887 227.923L289.26 246.317Z" fill="#233849"/>
<path d="M270.742 329.52L259.951 227.923H287.887L295.471 327.763L270.742 329.52Z" fill="#416787"/>
<path d="M277.231 333.523H291.631V328.041L276.924 329.088L277.231 333.523Z" fill="#143544"/>
<path d="M270.07 350.803L303.535 348.672C300.204 338.352 295.145 330.989 285.382 331.641C276.271 332.995 270.185 338.16 270.07 350.803Z" fill="#4C202E"/>
<path d="M295.471 334.944C292.035 337.401 289.798 339.936 288.751 343.123L285.871 349.843C288.089 349.574 287.791 346.963 295.471 334.944Z" fill="#632A3D"/>
<path d="M319.961 329.933L330.742 228.326H302.806L295.222 328.166L319.961 329.933Z" fill="#416787"/>
<path d="M313.462 333.926H299.062V328.445L313.779 329.491L313.462 333.926Z" fill="#143544"/>
<path d="M320.633 351.206L287.158 349.075C290.489 338.765 295.548 331.392 305.311 332.045C314.422 333.398 320.508 338.563 320.633 351.206Z" fill="#4C202E"/>
<path d="M272.143 67.0557C284.422 63.6573 297.17 64.9053 310.284 69.7053C311.666 75.5709 312.204 81.0813 311.004 85.9197C299.916 88.5789 286.534 88.6653 271.903 86.6397C268.956 81.7917 270.022 74.5245 272.143 67.0557Z" fill="#CBCAB8"/>
<path d="M280.726 68.4478C289.865 66.2782 300.982 67.3438 312.799 69.7246C314.719 74.3422 314.537 79.6414 312.799 85.4206C304.486 86.707 292.831 86.6878 280.159 85.219C278.268 79.7507 278.47 73.776 280.726 68.4478Z" fill="#294648"/>
<path d="M262.361 76.2429C265.235 73.9 268.859 72.6759 272.565 72.7965C274.149 75.1869 273.986 77.7213 273.017 80.3325C271.644 81.1677 269.858 80.8317 267.996 80.3325C267.631 78.2877 265.154 77.2029 262.361 76.2429Z" fill="#152625"/>
<path d="M283.49 67.9006L296.7 86.3326C299.033 86.3326 301.26 86.3326 303.42 86.2654L292.591 67.2766C289.545 67.2303 286.501 67.439 283.49 67.9006Z" fill="#2C5759"/>
<path d="M300.271 67.747C298.601 67.5742 296.959 67.4398 295.346 67.363L305.234 86.179C306.425 86.1086 307.577 86.0222 308.69 85.9198L300.271 67.747Z" fill="#2C5759"/>
<path d="M378.838 133.142H309.362C304.941 133.142 301.356 136.727 301.356 141.149V178.79C301.356 183.212 304.941 186.797 309.362 186.797H378.838C383.259 186.797 386.844 183.212 386.844 178.79V141.149C386.844 136.727 383.259 133.142 378.838 133.142Z" fill="#E7F2F4"/>
<path d="M369.583 197.376H333.17C330.668 197.376 328.639 199.404 328.639 201.907C328.639 204.409 330.668 206.438 333.17 206.438H369.583C372.086 206.438 374.114 204.409 374.114 201.907C374.114 199.404 372.086 197.376 369.583 197.376Z" fill="#E7F2F4"/>
<path d="M344.095 178.886C354.545 178.886 363.017 170.415 363.017 159.965C363.017 149.514 354.545 141.043 344.095 141.043C333.645 141.043 325.174 149.514 325.174 159.965C325.174 170.415 333.645 178.886 344.095 178.886Z" fill="#8FB3C7"/>
<path d="M338.297 157.545L342.137 197.376H360.329L353.811 157.113C353.731 156.638 353.486 156.205 353.119 155.893C352.752 155.58 352.286 155.407 351.804 155.405H340.284C340.009 155.401 339.736 155.455 339.483 155.563C339.23 155.672 339.002 155.832 338.815 156.034C338.628 156.235 338.485 156.474 338.396 156.735C338.306 156.995 338.273 157.271 338.297 157.545Z" fill="#7C99A7"/>
<path d="M418.611 328.041L445.231 324.192L431.926 229.843H405.276L418.611 328.041Z" fill="#416787"/>
<path d="M424.553 332.006H439.231L438.396 325.181L424.553 327.177V332.006Z" fill="#143544"/>
<path d="M418.61 348.585L449.897 343.373C446.431 332.611 439.932 328.973 431.225 330.461C421.125 332.438 416.431 338.15 418.61 348.585Z" fill="#4C202E"/>
<path d="M444.866 333.043C442.418 334.55 439.97 337.027 439.106 339.101C439.106 339.101 437.186 343.305 437.801 343.363C439.25 343.478 440.124 337.881 444.838 333.043" fill="#632A3D"/>
<path d="M444.434 314.112C443.388 313.209 442.514 321.542 442.514 323.99L443.042 321.312L444.434 314.112Z" fill="#477396"/>
<path d="M433.702 242.429H454.034L455.81 229.833L431.926 229.843L433.702 242.429Z" fill="#233849"/>
<path d="M469.116 328.022L442.495 324.173L455.81 229.833H482.45L469.116 328.022Z" fill="#416787"/>
<path d="M463.173 331.997H448.505L449.33 325.161L463.173 327.168V331.997Z" fill="#143544"/>
<path d="M469.116 348.576L437.83 343.363C441.295 332.601 447.804 328.963 456.502 330.451C466.61 332.429 471.295 338.141 469.116 348.576Z" fill="#4C202E"/>
<path d="M437.551 117.523L439.068 116.39L447.929 123.888L457.817 122.928L464.614 114.912C466.178 115.872 467.897 116.39 468.271 117.513C474.089 126.576 469.462 170.505 468.53 206.736L434.93 207.321L437.551 117.523Z" fill="#EAF5F9"/>
<path d="M441.391 114.643L448.447 124.243L453.9 122.621L457.778 124.243L464.086 114.643V107.616H442.14L441.391 114.643Z" fill="#FFBDA4"/>
<path d="M441.957 109.008C441.765 109.728 447.9 114.941 464.086 109.901V107.981C463.058 104.774 441.957 109.008 441.957 109.008Z" fill="#FFA691"/>
<path d="M450.511 134.409C448.332 133.113 446.613 131.645 446.191 129.677C443.753 122.227 455.791 119.309 457.778 124.243L460.14 128.515C459.644 130.313 458.645 131.932 457.26 133.181L457.797 179.568L448.466 182.448L450.511 134.409Z" fill="#43729A"/>
<path d="M437.551 117.523L443.311 131.923L448.447 124.243L441.391 114.643L437.551 117.523Z" fill="#EAFCFF"/>
<path d="M457.778 124.243L462.022 131.923L468.271 117.523C468.07 116.697 466.025 115.661 464.086 114.643L457.778 124.243Z" fill="#EAFCFF"/>
<path d="M437.551 117.523C432.666 116.916 427.707 117.578 423.151 119.443C421.651 121.042 420.65 123.044 420.271 125.203C419.897 126.019 419.407 133.296 419.445 137.913L413.551 174.163L418.351 165.523L417.391 207.763L435.41 208.723L437.551 117.523Z" fill="#416787"/>
<path d="M468.271 208.137H482.517V193.382L468.271 197.405V208.137Z" fill="#345B78"/>
<path d="M468.271 197.347C468.377 197.75 481.634 193.872 482.565 193.401L468.271 197.347Z" fill="#477396"/>
<path d="M468.271 117.523C474.513 118.733 480.501 121.006 485.974 124.243C493.414 135.465 499.183 146.985 502.706 158.909L505.711 174.163L506.671 179.923C506.585 181.565 505.356 183.158 502.831 184.723L489.391 191.443L451.951 202.003L446.191 184.79C446.093 184.6 446.041 184.389 446.039 184.176C446.036 183.962 446.083 183.75 446.176 183.557C446.269 183.365 446.406 183.196 446.575 183.065C446.744 182.935 446.941 182.845 447.151 182.803L469.231 176.083V172.243L479.791 159.763L474.031 149.203L478.831 141.523L468.271 117.523Z" fill="#416787"/>
<path d="M412.476 175.334C417.766 172.157 420.156 135.206 419.791 125.769L417.804 139.209L412.476 175.334Z" fill="#477396"/>
<path d="M401.397 123.283L420.271 126.163L413.551 174.163C412.917 178.003 410.345 183.225 401.071 182.803C394.985 182.265 393.237 179.558 392.431 175.123C391.653 156.71 395.897 139.805 401.397 123.283Z" fill="#416787"/>
<path d="M492.934 166.483C492.886 164.563 474.233 173.817 469.116 176.285L475.577 173.625L492.934 166.483Z" fill="#477396"/>
<path d="M404.911 119.443L418.351 120.403L417.794 125.846L404.911 123.83V119.443Z" fill="#EAFCFF"/>
<path d="M442.351 187.603C443.892 187.629 445.411 187.237 446.748 186.47L450.991 199.123C448.933 200.072 446.716 200.628 444.453 200.765L442.351 187.603Z" fill="#EAFCFF"/>
<path d="M426.3 145.968L432.434 152.851L425.359 162.355L435.977 178.867L437.417 122.88L426.3 145.968Z" fill="#457496"/>
<path d="M469.116 119.424L479.676 141.504L474.329 148.521L479.676 159.744L469.116 172.224V119.424Z" fill="#457496"/>
<path d="M402.991 119.443C402.561 116.966 402.561 114.432 402.991 111.955C403.625 107.395 405.593 103.622 412.591 102.864C416.777 103.046 419.378 104.381 420.271 106.963C422.383 109.411 422.402 113.251 421.894 117.427C421.606 119.52 419.916 120.873 417.391 121.776C410.537 122.371 405.276 121.891 402.991 119.443Z" fill="#FFBDA4"/>
<path d="M431.791 187.603C428.575 188.995 426.454 190.905 425.551 193.363C424.985 194.392 424.688 195.548 424.688 196.723C424.688 197.898 424.985 199.054 425.551 200.083C425.712 201.085 426.099 202.037 426.68 202.869C427.262 203.7 428.025 204.389 428.911 204.883C431.037 205.509 433.265 205.708 435.468 205.469C438.914 205.789 442.365 204.903 445.231 202.963V200.563L442.87 187.603C439.256 186.524 435.405 186.524 431.791 187.603Z" fill="#FFBDA4"/>
<path d="M476.911 75.283L474.482 81.8398C474.452 79.2962 474.13 76.7645 473.522 74.2942C470.46 68.755 465.257 65.779 459.257 63.7342C454.793 61.5934 448.418 62.3326 441.612 63.7342C435.478 65.1646 432.271 70.2142 429.833 75.2542C424.85 75.2542 425.033 77.1742 424.073 81.0142C423.113 87.7342 425.676 89.6542 427.913 89.6542C429.343 98.6974 432.972 105.792 441.132 108.854C447.698 110.888 454.726 110.888 461.292 108.854C468.204 106.886 472.591 103.334 473.061 97.3342L474.866 89.6542C480.751 88.723 481.711 78.163 476.911 75.283Z" fill="#FFBDA4"/>
<path d="M441.65 63.763C448.457 62.3614 454.831 61.6222 459.295 63.763C465.295 65.779 470.498 68.755 473.561 74.323C474.168 76.7932 474.49 79.325 474.521 81.8686L476.911 75.283C481.826 65.2126 472.265 46.9918 462.29 49.075C461.939 49.1486 461.593 49.2448 461.254 49.363C461.178 49.0769 461.078 48.7975 460.956 48.5278C458.354 42.9406 444.742 45.4174 435.794 52.7038C430.994 56.6014 427.567 61.8718 427.855 68.0638C427.876 68.5653 427.924 69.0653 427.999 69.5614V69.619C427.999 69.8302 428.057 70.051 428.095 70.2622C428.447 72.0113 429.045 73.7018 429.871 75.283C432.31 70.243 435.516 65.1934 441.65 63.763Z" fill="#B17C50"/>
<path d="M478.246 75.8781C476.115 74.3489 473.482 73.6897 470.882 74.035C470.518 74.9525 470.37 75.9416 470.45 76.9256C470.53 77.9096 470.835 78.8619 471.343 79.7085C472.37 80.2365 473.561 79.8621 474.789 79.3245C474.799 77.7789 476.422 76.7997 478.246 75.8781Z" fill="#152625"/>
<path d="M425.878 76.0702C428.009 74.542 430.64 73.8798 433.241 74.2174C433.603 75.1353 433.75 76.1241 433.67 77.1077C433.59 78.0914 433.286 79.0435 432.78 79.891C431.753 80.419 430.562 80.0446 429.334 79.507C429.324 77.971 427.702 76.9822 425.878 76.0702Z" fill="#152625"/>
<path d="M429.391 69.2542C443.964 65.2702 458.7 64.1854 474.425 69.6382C476.182 76.3582 478.111 79.2382 475.26 90.8542C462.089 93.9838 446.959 94.0798 429.478 91.8142C425.868 86.2654 426.991 77.875 429.391 69.2542Z" fill="#CBCAB8"/>
<path d="M431.724 70.6942C443.081 67.9294 457.078 68.9086 472.044 71.4046C474.732 76.7614 474.713 82.9246 472.783 89.7886C462.415 91.4974 447.823 91.7758 431.81 90.3646C429.181 84.0772 429.15 77.0044 431.724 70.6942Z" fill="#294648"/>
<path d="M435.17 69.9934L452.652 91.2574C455.57 91.2574 458.361 91.1742 461.023 91.0078L446.546 69.043C442.735 69.0564 438.931 69.3742 435.17 69.9934Z" fill="#2C5759"/>
<path d="M456.204 69.3982C454.102 69.235 452.038 69.1198 450.012 69.0718L463.337 90.8542C464.835 90.7486 466.275 90.6142 467.667 90.4702L456.204 69.3982Z" fill="#2C5759"/>
<path d="M567.151 246.566H614.902C620.566 242.419 623.235 236.246 622.908 228.048H568.553L567.151 246.566Z" fill="#233849"/>
<path d="M560.162 330.739L568.553 228.048H540.818L535.375 330.057L560.162 330.739Z" fill="#416787"/>
<path d="M553.846 335.021L539.465 335.645L539.225 330.163L553.97 330.566L553.846 335.021Z" fill="#143544"/>
<path d="M561.756 351.965L528.233 351.293C531.113 340.838 535.846 333.264 545.618 333.494C554.786 334.483 561.084 339.341 561.756 351.965Z" fill="#4C202E"/>
<path d="M561.689 345.59C560.592 346.335 559.777 347.427 559.375 348.691L558.569 351.043C559.471 350.793 559.202 349.987 561.689 345.59Z" fill="#632A3D"/>
<path d="M593.023 334.435L613.558 228.048L585.929 228.182L568.553 330.393L593.023 334.435Z" fill="#416787"/>
<path d="M586.178 338.025L571.836 336.729L572.354 331.017L586.908 333.427L586.178 338.025Z" fill="#143544"/>
<path d="M591.708 356.649L558.569 351.437C562.85 341.001 568.582 333.782 578.239 335.337C587.186 337.555 592.764 343.469 591.708 356.649Z" fill="#4C202E"/>
<path d="M511.471 191.913C501.18 192.633 492.482 193.229 487.644 192C482.22 185.577 482.844 180.48 487.366 176.582C492.742 173.577 501.689 174.029 510.732 174.576L511.471 191.913Z" fill="#FFBDA4"/>
<path d="M584.239 112.253L584.364 120.432L591.026 129.504L607.298 117.523V110.361L584.239 112.253Z" fill="#FFBDA4"/>
<path d="M584.249 113.309C584.057 114.038 589.049 119.721 607.289 113.693V110.995C606.262 107.837 584.249 113.309 584.249 113.309Z" fill="#FFA691"/>
<path d="M615.237 80.2174C611.897 76.5214 608.652 77.7502 605.417 79.4974C598.332 76.7806 591.977 72.1342 585.9 66.7582C582.636 71.5582 577.26 73.5934 570.645 74.1214C569.907 77.5439 569.54 81.0361 569.551 84.5374C569.551 101.645 579.919 115.257 592.716 115.507C604.236 115.699 612.425 108.787 616.063 98.6494L615.237 92.8318V80.2174Z" fill="#FFBDA4"/>
<path d="M595.721 51.9262C589.74 52.3582 585.026 53.8461 581.321 56.1597C575.196 60.0573 571.989 66.3358 570.617 74.1117C577.183 73.5837 582.607 71.5869 585.871 66.7485C591.948 72.1245 602.114 84.0765 615.209 80.1885V92.8029L616.034 98.6205C624.905 79.8717 612.828 47.443 595.721 51.9262Z" fill="#5A2619"/>
<path d="M506.671 173.088H548.364L557.82 128.227C558.463 126.931 560.422 125.587 562.428 124.243L561.219 191.769L508.351 193.363L506.671 173.088Z" fill="#416787"/>
<path d="M560.873 191.779C559.913 167.069 561.42 125.309 562.428 124.243L563.801 143.376L560.873 191.779Z" fill="#477396"/>
<path d="M560.489 208.137H624.521L626.94 127.257L611.177 119.424L583.289 120.47L562.428 124.243L560.489 208.137Z" fill="#416787"/>
<path d="M586.505 126.163C591.027 125.664 596.566 130.579 589.471 136.512L591.151 195.389H581.292L583.471 136.377C580.073 134.851 580.198 126.48 586.505 126.163Z" fill="#EAF5F9"/>
<path d="M576.108 195.033C570.406 197.913 570.041 203.021 571.5 208.925L592.169 208.685C595.26 208.377 595.634 196.089 590.393 194.496C585.637 193.826 580.8 194.008 576.108 195.033Z" fill="#FFBDA4"/>
<path d="M626.911 180.48C621.823 181.632 622.025 149.827 621.151 151.046L626.911 180.48Z" fill="#477396"/>
<path d="M627.449 177.705C629.234 181.545 607.01 186.835 605.369 186.077L611.436 183.149L627.449 177.705Z" fill="#477396"/>
<path d="M629.071 197.069C630.857 200.909 608.633 206.198 606.991 205.44L613.058 202.512L629.071 197.069Z" fill="#477396"/>
<path d="M613.692 131.232C618.607 124.233 624.646 123.926 631.327 127.334C636.415 138.653 643.702 160.368 651.094 182.611C654.051 187.785 651.19 191.789 646.054 195.331L594.809 208.925C592.506 203.337 590.85 197.504 589.875 191.539C601.657 186.319 613.942 182.315 626.537 179.587C621.775 166.925 617.657 149.664 613.692 131.232Z" fill="#416787"/>
<path d="M595.145 136.32L612.031 121.401L607.298 117.062L591.026 129.043L595.145 136.32Z" fill="#28485B"/>
<path d="M575.522 121.68L579.583 131.798L585.468 125.03L584.364 120.24L575.522 121.68Z" fill="#28485B"/>
<path d="M606.761 70.483C595.087 66.2494 582.818 66.883 570.108 71.2222C568.62 77.3086 567.996 83.0686 568.975 88.2142C579.535 91.6126 592.37 92.4286 606.415 91.0942C609.391 86.131 608.594 78.4318 606.761 70.483Z" fill="#CBCAB8"/>
<path d="M598.495 71.443C589.788 68.6686 579.094 69.187 567.698 71.0494C565.692 75.7918 565.778 81.379 567.305 87.5518C575.244 89.347 586.418 89.9614 598.639 89.107C600.583 83.3709 600.532 77.1466 598.495 71.443Z" fill="#294648"/>
<path d="M615.89 80.6685C613.31 78.0958 609.846 76.6026 606.204 76.4926C604.62 78.9214 604.706 81.5998 605.561 84.3838C606.857 85.3438 608.575 85.0942 610.361 84.6238C610.745 82.5118 613.231 81.5229 615.89 80.6685Z" fill="#152625"/>
<path d="M595.855 70.7518L582.674 89.4046C580.447 89.3182 578.306 89.1742 576.271 88.9726L587.148 69.5998C590.08 69.7081 592.995 70.0938 595.855 70.7518Z" fill="#2C5759"/>
<path d="M579.766 69.6766C581.369 69.5806 582.953 69.5326 584.498 69.5422L574.505 88.7422C573.366 88.6078 572.262 88.4542 571.193 88.2814L579.766 69.6766Z" fill="#2C5759"/>
<path d="M675.026 155.75C670.466 151.142 671.34 146.352 675.026 141.475C680.354 137.99 685.164 140.285 689.762 145.017L696.377 153.657L681.641 164.429L675.026 155.75Z" fill="#FFBDA4"/>
<path d="M741.353 138.067V148.051L757.481 144.777L755.503 128.957L741.353 138.067Z" fill="#FFBDA4"/>
<path d="M741.353 138.048C741.353 138.528 746.21 140.649 756.204 134.563C756.204 134.457 756.098 133.603 756.041 133.382C754.841 131.616 741.353 138.048 741.353 138.048Z" fill="#FFA691"/>
<path d="M667.951 340.675L690.031 342.413C690.55 342.454 691.071 342.392 691.566 342.231C692.06 342.069 692.517 341.81 692.91 341.469C693.303 341.129 693.625 340.714 693.856 340.248C694.087 339.781 694.222 339.274 694.255 338.755L698.479 274.003L766.831 272.467C781.75 271.507 788.105 259.277 783.497 248.515L739.951 245.933H684.079C678.319 245.933 675.439 249.648 675.439 257.251L667.951 340.675Z" fill="#632A3D"/>
<path d="M645.017 327.369L675.266 259.603L666.991 339.437C666.957 339.733 666.854 340.018 666.69 340.267C666.527 340.517 666.307 340.725 666.049 340.876C665.791 341.026 665.501 341.113 665.203 341.132C664.905 341.15 664.607 341.099 664.332 340.982L647.398 333.523C646.836 333.277 646.328 332.923 645.903 332.48C645.479 332.037 645.147 331.514 644.925 330.942C644.704 330.37 644.598 329.76 644.614 329.147C644.63 328.533 644.767 327.929 645.017 327.369Z" fill="#632A3D"/>
<path d="M735.199 206.669C745.154 241.603 735.285 266.486 765.842 270.653C787.673 273.629 791.013 254.544 778.946 201.773C771.189 167.875 784.13 140.592 750.012 141.101C732.981 141.36 725.551 172.742 735.199 206.669Z" fill="white"/>
<path d="M772.774 154.003C775.058 161.011 768.521 189.398 766.054 213.523C765.919 215.702 763.759 218.131 761.254 219.283L737.868 217.968L737.417 215.76L772.774 154.003Z" fill="#F1F8FF"/>
<path d="M711.314 193.2C713.321 192.432 730.265 192.24 730.649 192.662L711.314 193.2Z" fill="#F1F8FF"/>
<path d="M733.289 193.67L746.364 192.902L752.354 160.934L752.806 161.126L747.199 194.457L733.289 193.67Z" fill="#F1F8FF"/>
<path d="M773.254 155.097C767.263 147.561 760.87 147.091 754.054 154.137C751.298 163.929 749.254 178.761 747.334 194.457C735.66 193.689 722.249 191.577 707.974 188.697C707.612 195.489 706.648 202.236 705.094 208.857C723.785 213.6 741.353 217.142 755.974 217.497C759.766 217.968 762.319 216.672 763.654 213.657C768.022 190.483 772.678 166.425 773.254 155.097Z" fill="white"/>
<path d="M760.015 101.904C754.687 101.808 750.233 98.3518 745.951 94.2238C732.262 96.7966 725.897 96.1437 720.031 95.2893C719.39 98.2547 718.979 101.265 718.802 104.294C717.708 121.574 726.876 137.491 743.446 138.125C748.079 138.26 752.601 136.693 756.156 133.718L755.945 116.294C761.311 112.656 762.847 107.923 760.015 101.904Z" fill="#FFBDA4"/>
<path d="M766.198 91.4782C764.132 86.7438 761.074 82.5077 757.231 79.0558C755.985 78.0005 754.638 77.0712 753.209 76.2814L752.959 76.1566L752.537 75.955C752.239 75.8206 751.942 75.6958 751.634 75.5806H751.548L751.308 75.4942C747.209 74.0734 741.996 74.2558 735.948 75.5806H735.746L735.487 75.6862C733.938 76.2997 732.425 77.0017 730.956 77.7886C722.556 82.3102 719.436 88.291 719.964 95.3278C725.878 96.163 732.242 96.835 745.884 94.2622C750.166 98.3518 754.62 101.808 759.948 101.942C762.828 107.923 761.244 112.694 755.83 116.342L756.041 133.766L761.455 127.737L766.121 122.534C768.3 119.673 768.098 94.2046 766.198 91.4782Z" fill="#B17E4F"/>
<path d="M678.598 163.785L711.89 205.517L733.894 190.435L741.353 148.051L714.982 180.518L695.878 152.419L678.598 163.785Z" fill="white"/>
<path d="M689.369 189.917C695.782 188.438 700.985 189.609 711.449 193.2L708.079 207.389C697.212 207.504 692.508 206.649 688.015 203.741C684.636 198.23 684.943 193.584 689.369 189.917Z" fill="#FFBDA4"/>
<path d="M644.22 342.259L661.865 343.728V339.878L648.751 333.484L644.22 342.259Z" fill="#FFBDA4"/>
<path d="M672.78 351.053L689.513 346.963L688.601 342.144L672.78 340.358V351.053Z" fill="#FFBDA4"/>
<path d="M633.67 341.405C626.95 344.861 627.276 350.275 630.943 356.649L663.324 357.955C664.841 352.829 665.724 348.067 665.138 344.131C654.878 341.454 644.238 340.532 633.67 341.405Z" fill="#332323"/>
<path d="M665.138 369.417L694.793 360.681C697.529 353.817 695.676 348.979 689.513 346.051L660.271 354.643C657.25 363.097 658.873 368.022 665.138 369.417Z" fill="#332323"/>
<path d="M675.266 259.037C669.026 296.851 666.252 322.032 667.932 340.637L675.266 259.037Z" fill="#4C202E"/>
<path d="M750.511 92.9278C738.204 90.3166 725.983 92.6398 713.81 98.6878C713.138 104.976 713.292 110.822 714.981 115.833C726.06 117.753 739.049 116.793 753.017 113.52C755.311 108.221 753.391 100.637 750.511 92.9278Z" fill="#CBCAB8"/>
<path d="M742.303 95.0686C733.183 93.5038 722.508 95.5006 711.324 98.9086C709.951 103.92 710.777 109.469 713.167 115.449C721.394 116.15 732.694 115.219 744.847 112.665C746.014 106.681 745.117 100.478 742.303 95.0686Z" fill="#294648"/>
<path d="M760.034 101.894C757.13 99.6176 753.467 98.5329 749.791 98.8606C748.476 101.481 748.831 104.15 750.069 106.848C751.481 107.654 753.189 107.193 754.946 106.512C755.071 104.352 757.413 103.065 760.034 101.894Z" fill="#152625"/>
<path d="M739.548 94.723L728.863 115.19C726.607 115.411 724.437 115.555 722.364 115.641L730.649 94.7806C733.607 94.4837 736.586 94.4644 739.548 94.723Z" fill="#2C5759"/>
<path d="M723.247 95.875C724.85 95.5582 726.425 95.2894 727.98 95.0782L720.569 115.689C719.398 115.689 718.274 115.689 717.18 115.689L723.247 95.875Z" fill="#2C5759"/>
<path d="M720.982 219.283H165.871V229.833H720.982V219.283Z" fill="#E9F5FB"/>
<path d="M726.444 219.283H161.782C159.055 215.251 159.334 210.941 161.782 206.438H726.444C728.316 211.152 728.93 215.568 726.444 219.283Z" fill="#2B5A73"/>
<path d="M195.852 227.923H184.208V404.707H195.852V227.923Z" fill="#E9F5FB"/>
<path d="M705.516 227.923H693.391V404.217H705.516V227.923Z" fill="#E9F5FB"/>
</g>
<defs>
<clipPath id="clip0_238_207">
<rect width="748.685" height="359.232" fill="white" transform="translate(69.5161 45.475)"/>
</clipPath>
</defs>
</svg>
