<svg width="124" height="100" viewBox="0 0 124 100" fill="none" xmlns="http://www.w3.org/2000/svg">
<g clip-path="url(#clip0_54_30)">
<path fill-rule="evenodd" clip-rule="evenodd" d="M44.4823 0.0334463C55.1246 -0.0341908 65.7693 0.0254237 76.4135 0.00468819C79.9941 -0.0297475 83.6127 0.224385 87.068 1.21673C94.4974 3.26312 100.911 8.67039 104.18 15.6524C107.447 22.4642 107.633 30.6748 104.668 37.6259C101.838 44.452 96.0477 49.968 89.1042 52.4879C85.1964 53.9605 80.9737 54.397 76.8213 54.3722C66.503 54.3683 56.1825 54.3809 45.8643 54.3662C41.3918 54.3522 36.8417 53.6979 32.745 51.8316C27.0033 49.3162 22.199 44.7146 19.4576 39.076C16.4289 33.0085 15.8711 25.7739 17.864 19.2983C19.4513 14.1516 22.5888 9.47228 26.8249 6.13807C30.2454 3.35742 34.3814 1.51406 38.6918 0.652918C40.6088 0.34707 42.5363 0.0561566 44.4823 0.0334463ZM38.7041 19.8847C36.9959 21.033 35.745 22.8089 35.1729 24.7794C34.5579 27.0821 34.8263 29.6432 36.0856 31.6875C37.5846 34.2713 40.4265 35.8851 43.3688 36.1515L80.2876 36.1332C82.3788 35.8438 84.4728 35.0259 85.9615 33.4862C87.302 32.1981 88.2108 30.4635 88.4812 28.622C89.0163 25.6961 87.8906 22.5485 85.6573 20.5922C83.7282 18.812 81.0357 18.1153 78.4602 18.1192C67.3893 18.1192 56.3181 18.1153 45.2475 18.1213C42.9668 18.0945 40.5965 18.5498 38.7041 19.8847Z" fill="black"/>
<path fill-rule="evenodd" clip-rule="evenodd" d="M71.8548 67.9286C73.4793 67.914 75.1052 67.9207 76.7317 67.9267C76.727 78.4209 76.727 88.918 76.7317 99.4124C75.1073 99.4372 73.4814 99.4204 71.8575 99.4204C71.8675 88.9241 71.8716 78.425 71.8548 67.9286Z" fill="black"/>
<path fill-rule="evenodd" clip-rule="evenodd" d="M110.042 79.2949C112.06 78.0621 114.537 77.7855 116.848 78.103C118.881 78.3414 120.793 79.1964 122.47 80.3443C121.636 81.417 120.847 82.5266 120.065 83.6394C119.245 83.2503 118.489 82.8239 117.625 82.5981C116.002 82.0061 113.218 81.846 112.011 83.3012C111.427 84.027 111.759 85.1875 112.585 85.5771C114.231 86.5165 116.202 86.5534 117.968 87.1702C119.819 87.7387 121.686 88.7411 122.688 90.466C123.557 91.895 123.617 93.7117 123.082 95.27C122.403 97.2159 120.748 98.6782 118.829 99.3526C114.441 100.852 109.405 99.652 105.878 96.7237C106.725 95.5672 107.565 94.4027 108.476 93.2932C110.329 94.5628 112.454 95.6227 114.754 95.6106C116.061 95.6763 117.56 95.4794 118.46 94.4275C119.19 93.557 118.833 92.4086 117.957 91.7938C117.194 91.2588 116.284 90.9508 115.37 90.7832C113.375 90.3138 111.277 89.9897 109.515 88.8742C108.02 87.9333 106.964 86.221 107.053 84.4245C106.995 82.3297 108.287 80.3629 110.042 79.2949Z" fill="black"/>
<path fill-rule="evenodd" clip-rule="evenodd" d="M28.3711 80.8712C32.2877 77.5806 38.4719 77.6315 42.4627 80.7774C41.5091 82.0483 40.4939 83.2724 39.5139 84.5233C37.9822 83.5637 36.1387 83.0736 34.3361 83.3748C32.5849 83.6133 30.9015 84.7081 30.1985 86.3648C29.005 88.8565 29.5891 92.2152 31.8304 93.9255C34.2113 95.6986 37.847 95.3645 39.967 93.3263C41.1339 94.4318 42.2105 95.629 43.3586 96.7528C39.5281 100.797 32.5114 101.082 28.3098 97.4605C25.9354 95.4202 24.705 92.2394 24.791 89.1411C24.7357 86.0493 25.9966 82.8914 28.3711 80.8712Z" fill="black"/>
<path fill-rule="evenodd" clip-rule="evenodd" d="M8.74333 78.6654C11.1938 78.2858 13.802 78.6367 15.9572 79.9035C18.3197 81.1891 20.0315 83.5109 20.7574 86.0822C21.5369 88.9669 21.2292 92.1804 19.7182 94.78C18.2641 97.2877 15.6967 99.1004 12.859 99.6669C10.304 100.136 7.55425 99.8371 5.28853 98.5185C3.01652 97.2797 1.30621 95.1041 0.547517 92.6392C-0.393602 89.814 -0.104663 86.6151 1.28572 83.9863C2.73955 81.1544 5.61018 79.1468 8.74333 78.6654ZM8.94464 83.5148C7.32456 83.9388 5.90961 85.1407 5.30495 86.7136C4.62599 88.2551 4.61587 90.0597 5.2678 91.614C5.95886 93.4782 7.77358 94.8314 9.74222 95.0283C10.833 95.1227 11.9751 95.0772 12.9903 94.6305C14.7208 93.9167 16.0065 92.2433 16.265 90.3917C16.5256 88.8067 16.3019 87.0865 15.3876 85.7351C14.5509 84.4394 13.1091 83.6373 11.6185 83.3525C10.7244 83.2852 9.81578 83.2871 8.94464 83.5148Z" fill="black"/>
<path fill-rule="evenodd" clip-rule="evenodd" d="M82.0894 79.0035C83.7133 78.9849 85.3377 78.9888 86.9596 78.9996C86.9489 82.2513 86.9455 85.5036 86.9764 88.756C87.0065 90.4661 87.1586 92.3278 88.2205 93.7407C90.1068 96.1707 94.3476 95.9243 96.0269 93.3797C96.7529 92.2474 96.9926 90.87 96.9866 89.5455C96.9945 86.0286 97.0013 82.5098 96.9905 78.9936C98.6143 78.991 100.241 78.991 101.865 78.995C101.871 85.7991 101.875 92.6045 101.863 99.4086C100.448 99.4455 99.0309 99.4065 97.6159 99.4314C97.5831 98.7871 97.5303 98.1451 97.4626 97.5055C94.1258 100.462 88.5934 100.712 85.1369 97.8317C83.3609 96.3612 82.4651 94.0831 82.2575 91.8318C81.9441 87.5642 82.1529 83.2785 82.0894 79.0035Z" fill="black"/>
<path fill-rule="evenodd" clip-rule="evenodd" d="M46.4345 91.241C46.2949 87.1603 46.3625 83.0775 46.3501 78.9949C47.9783 78.9949 49.6064 78.9788 51.2346 79.0077C51.2286 82.4568 51.2182 85.9074 51.2591 89.3586C51.3002 90.9806 51.5544 92.7684 52.6965 94.0112C54.686 96.1312 58.553 95.8198 60.2244 93.4575C61.042 92.2681 61.3065 90.8058 61.3065 89.3205L61.2657 79.0056C62.8697 78.9708 64.4735 79.0116 66.0785 78.9828C66.1221 85.7929 66.0785 92.6023 66.0992 99.4123C64.7011 99.4083 63.2962 99.4779 61.902 99.3855C61.7889 98.7641 61.7728 98.1306 61.7152 97.5052C58.182 100.63 52.1142 100.75 48.7901 97.2528C47.226 95.6638 46.6107 93.4066 46.4345 91.241Z" fill="black"/>
</g>
<defs>
<clipPath id="clip0_54_30">
<rect width="123.425" height="100" fill="white"/>
</clipPath>
</defs>
</svg>
