<svg width="164" height="100" viewBox="0 0 164 100" fill="none" xmlns="http://www.w3.org/2000/svg">
<path d="M114.167 31.4961C114.167 48.8905 100.145 62.9921 82.8485 62.9921C67.7359 62.9921 55.126 52.2262 52.1821 37.9041L65.7743 42.8747C65.7743 42.9005 65.7657 42.9234 65.7657 42.9492C65.7657 47.6936 69.5894 51.539 74.3071 51.539C79.0248 51.539 82.8485 47.6936 82.8485 42.9492C82.8485 42.5569 82.783 42.1818 82.7346 41.8039L93.1465 34.325C98.4906 34.1446 102.778 29.7581 102.778 24.3379C102.778 18.8032 98.3169 14.3164 92.8134 14.3164C87.4238 14.3164 83.062 18.6285 82.8826 24.0057L75.4459 34.4739C75.0701 34.4252 74.6971 34.3593 74.3071 34.3593C71.6564 34.3593 69.3189 35.5991 67.7502 37.5032L51.5329 31.5734C51.5329 31.5476 51.5301 31.5218 51.5301 31.4961C51.5301 14.1016 65.5522 0 82.8485 0C100.145 0 114.167 14.1016 114.167 31.4961ZM92.8646 20.0429C90.5015 20.0429 88.5826 21.9699 88.5826 24.3493C88.5826 26.7287 90.4987 28.6557 92.8646 28.6557C95.2306 28.6557 97.1467 26.7287 97.1467 24.3493C97.1467 21.9699 95.2278 20.0429 92.8646 20.0429ZM74.3128 40.1346C72.7355 40.1346 71.46 41.4202 71.46 43.0036C71.46 44.5898 72.7383 45.8726 74.3128 45.8726C75.8901 45.8726 77.1656 44.587 77.1656 43.0036C77.1684 41.4173 75.8901 40.1346 74.3128 40.1346Z" fill="url(#paint0_linear_54_10)"/>
<path d="M20.2117 77.3085H38.6269V81.4202H31.4636V99.4216H27.3751V81.4202H20.2117V77.3085ZM74.9961 77.2169L83.0904 99.4216H78.3358L76.7528 95.0809H68.2797L66.6967 99.4216H61.9933L70.0876 77.2169H70.2385H74.7882H74.9961ZM75.463 91.5419L72.5162 83.4588L69.5695 91.5419H75.463ZM106.648 77.1482H106.611L99.2194 93.1195L91.8283 77.1482H91.7913H87.7113H87.7028V99.4216H91.7913V85.9671L97.8272 99.0093H97.9268H100.518H100.617L106.653 85.9671V99.4216H110.742V77.1482H110.733H106.648ZM43.1994 78.1475V81.4231V86.1761V90.2878V95.3128V99.4245H47.2879H57.7083V95.3128H47.2879V90.2878H56.1624V86.1761H47.2879V81.4231H57.7083V77.3085H43.1994V78.1475ZM11.4511 86.9721C10.8162 86.7115 10.0105 86.4223 9.17913 86.1246C8.08014 85.7294 6.92705 85.3228 6.12986 84.9392C5.79959 84.7817 4.5981 83.8053 5.25864 82.2276C5.45224 81.7409 5.7455 81.4517 6.2352 81.257C7.78973 80.6271 10.9216 81.2112 14.1986 82.7316L15.9894 78.8347C13.3559 77.612 8.38763 75.7824 4.66074 77.2656C3.09198 77.8926 1.9275 79.0494 1.30968 80.5898C-0.173674 84.1374 1.65987 87.5619 4.29346 88.8218C5.196 89.2513 6.49998 89.7237 7.74417 90.1732C8.51005 90.4481 9.24746 90.7115 9.83396 90.9492C11.3771 91.5848 12.1088 92.5641 12.0092 93.8697C11.9437 94.7573 10.933 95.7022 8.29936 95.7022C5.05649 95.7022 2.1325 94.0787 2.10687 94.0644L0 97.801C0.159439 97.8898 3.90056 100 8.29936 100C13.8541 100 16.0635 96.8762 16.2685 94.2047C16.5133 91.0122 14.7111 88.3121 11.4511 86.9721ZM133.382 96.8361L125.974 77.1482H123.551L131.933 99.4216H132.411H134.359H134.837L143.219 77.1482H140.796L133.382 96.8361ZM164 99.4216H161.577L156.082 90.4424H150.3V99.4216H148.287V77.1482H149.483H150.3H156.706C160.356 77.1482 163.317 80.1231 163.317 83.7967C163.317 86.8919 161.207 89.466 158.36 90.2105L164 99.4216ZM156.162 88.4581C158.721 88.4581 160.797 86.3708 160.797 83.7967C160.797 81.2226 158.721 79.1353 156.162 79.1353H150.3V88.4553H156.162V88.4581Z" fill="url(#paint1_linear_54_10)"/>
<defs>
<linearGradient id="paint0_linear_54_10" x1="82.8485" y1="-0.303508" x2="82.8485" y2="62.6886" gradientUnits="userSpaceOnUse">
<stop stop-color="#6DC7FF"/>
<stop offset="1" stop-color="#E6ABFF"/>
</linearGradient>
<linearGradient id="paint1_linear_54_10" x1="82" y1="72.2692" x2="82" y2="104.908" gradientUnits="userSpaceOnUse">
<stop stop-color="#1A6DFF"/>
<stop offset="1" stop-color="#C822FF"/>
</linearGradient>
</defs>
</svg>
