<svg width="1920" height="1078" viewBox="0 0 1920 1078" fill="none" xmlns="http://www.w3.org/2000/svg">
<g clip-path="url(#clip0_403_432)">
<path d="M1920 0H0V1259H1920V0Z" fill="url(#paint0_linear_403_432)"/>
<path opacity="0.57" d="M1777.24 633.562C1777.24 633.562 1665.32 607.439 1637.35 621.37C1637.35 621.37 1485.72 663.163 1458.64 710.18C1458.64 710.18 1524.53 798.99 1557.92 783.32C1557.92 783.32 1628.32 780.709 1671.64 731.946C1671.64 731.946 1709.55 723.239 1745.65 799.863C1745.65 799.863 1845.84 865.168 1896.38 787.671C1896.38 787.671 1929.78 792.022 1917.14 811.183C1917.14 811.183 1873.82 903.477 1850.35 910.446C1850.35 910.446 1812.45 955.775 1887.36 954.01C1887.36 954.01 1939.71 1003.61 1899.09 1038.44C1899.09 1038.44 1873.82 1082.85 1865.7 1046.28C1865.7 1046.28 1890.97 990.555 1834.11 974.878C1834.11 974.878 1620.2 980.974 1561.53 848.625C1561.53 848.625 1279.02 904.35 1231.19 811.183C1231.19 811.183 1283.54 684.93 1193.28 692.765C1193.28 692.765 1033.6 668.291 1026.34 838.994C1026.34 838.994 1050.67 947.01 1113.85 923.498C1113.85 923.498 1234.06 885.741 1389.25 997.479C1389.25 997.479 1479.27 1083.14 1420.91 1161.35C1420.91 1161.35 1216.04 1300.93 1156.47 1219.08C1156.47 1219.08 1213.63 1097.03 1194.33 1068.86C1194.33 1068.86 1168 985.319 1126.49 997.504C1126.49 997.504 1011.86 1074.99 1090.38 1122.02C1090.38 1122.02 876.475 1304.87 456.776 1199.51C456.776 1199.51 418.87 1137.69 320.49 1122.88C320.49 1122.88 244.671 1074.12 341.249 930.46C341.249 930.46 319.585 771.122 134.56 789.404C134.56 789.404 -95.5959 605.68 46.1068 273.072C46.1068 273.072 68.6693 109.376 429.702 11.8585C429.702 11.8585 649.931 -9.04153 756.436 102.414C756.436 102.414 850.5 273.072 1004.64 259.141C1004.64 259.141 1300.88 196.967 1355 162.502C1355 162.502 1708.5 47 1798.5 26C1798.5 26 2020 -62 1865.7 85C1865.7 85 1362.09 348.725 1150.89 367.013C1150.89 367.013 830.451 552.58 577.732 162.502C577.732 162.502 473.037 56.5 285 312.5C285 312.5 104.785 469.867 268.152 661.418C268.152 661.418 389.095 600.47 405.343 655.322C405.343 655.322 495.6 644.875 473.037 852.976C473.037 852.976 453.183 1075.01 696.879 1076.75C696.879 1076.75 1067.84 1096.77 825.946 845.135C825.946 845.135 639.112 733.685 727.566 543.866C727.566 543.866 897.42 359.958 1269.2 621.267C1269.2 621.267 1403.6 645.742 1519.12 526.457C1519.12 526.457 1649.99 404.055 1887.38 571.915C1887.38 571.915 1962.29 657.934 1847.66 677.088C1847.65 677.101 1743.85 698.867 1777.24 633.562Z" fill="#47439A" fill-opacity="0.25"/>
</g>
<defs>
<linearGradient id="paint0_linear_403_432" x1="960" y1="0" x2="960" y2="1259" gradientUnits="userSpaceOnUse">
<stop stop-color="#150F1B"/>
<stop offset="0.546875" stop-color="#47439A"/>
</linearGradient>
<clipPath id="clip0_403_432">
<rect width="1920" height="1259" fill="white"/>
</clipPath>
</defs>
</svg>
