<svg width="620" height="80" viewBox="0 0 620 80" fill="none" xmlns="http://www.w3.org/2000/svg">
<g clip-path="url(#clip0_220_216)">
<path d="M0.848145 79.5416V0.658883H34.7962C36.8598 0.637254 38.9211 0.800243 40.9556 1.1459C42.9491 1.53844 44.8778 2.20865 46.6852 3.13695C48.6893 4.10542 50.4549 5.50425 51.8562 7.23364C53.4439 9.35424 54.6064 11.7619 55.2797 14.3241C56.2697 17.7983 56.7522 21.3975 56.7121 25.0098C56.709 27.6674 56.4983 30.3206 56.0818 32.9454C55.7683 35.0595 55.2453 37.1371 54.5205 39.1477C53.9171 40.7486 53.1184 42.2688 52.1427 43.6741C51.3283 44.8813 50.3105 45.9379 49.1346 46.7968C48.0424 47.557 46.8875 48.2231 45.6825 48.7878C44.5228 49.3441 43.2871 49.7254 42.0156 49.9194C40.798 50.1056 39.5805 50.2489 38.3486 50.3491C37.1663 50.4416 35.9785 50.4416 34.7962 50.3491C32.7049 50.2059 29.0666 49.8478 24.0102 49.2748C18.9538 48.7019 16.2179 48.3438 15.9314 48.2005V79.5416H0.848145ZM15.9314 37.085H33.6073C34.7298 37.1654 35.8549 36.9714 36.8856 36.5197C37.9163 36.068 38.8216 35.3722 39.5232 34.4924C40.8505 32.7735 41.5142 29.6508 41.5142 25.1244C41.4378 17.7236 38.8165 14.0233 33.6503 14.0233H15.9314V37.085Z" fill="#1C2026"/>
<path d="M65.3066 40.6374C65.3066 36.9704 65.4356 33.6043 65.6934 30.5103C65.8977 27.7224 66.2902 24.9516 66.868 22.2166C67.3511 19.9725 67.9633 17.7582 68.7014 15.5846C69.2985 13.7602 70.1316 12.0218 71.1795 10.4136C72.104 9.04185 73.1337 7.744 74.2592 6.53175C75.323 5.37174 76.5778 4.40276 77.9691 3.66694C79.3073 2.95948 80.6957 2.35145 82.1231 1.84778C83.6096 1.35796 85.1398 1.01258 86.6925 0.816443C88.4257 0.572934 90.0587 0.386721 91.6057 0.286452C93.1527 0.186183 94.9288 0.114563 96.9342 0.114563C99.5269 0.114563 101.776 0.186183 103.667 0.329424C105.7 0.496393 107.72 0.802693 109.711 1.24617C111.617 1.63587 113.452 2.312 115.154 3.25154C116.784 4.19603 118.319 5.29445 119.738 6.53175C121.337 7.95128 122.637 9.67506 123.563 11.6025C124.657 13.9113 125.558 16.3068 126.256 18.7645C127.125 21.9061 127.719 25.1172 128.032 28.3617C128.441 32.4597 128.637 36.5763 128.619 40.6947C128.649 45.0719 128.381 49.4461 127.817 53.7869C127.379 57.1463 126.675 60.4656 125.711 63.7135C124.96 66.2812 123.778 68.7029 122.216 70.8755C120.912 72.6764 119.348 74.2742 117.575 75.6168C115.796 76.9016 113.81 77.8707 111.702 78.4816C109.469 79.1529 107.176 79.6039 104.855 79.8281C102.592 80.0429 99.9566 80.1432 96.9342 80.1432C94.2843 80.1432 91.9638 80.1432 89.987 79.9283C87.9225 79.7728 85.87 79.4857 83.842 79.0689C81.945 78.7154 80.1107 78.0831 78.3989 77.1924C76.7774 76.227 75.2688 75.0835 73.9011 73.7833C72.3423 72.3853 71.0638 70.7033 70.1339 68.8272C69.032 66.6157 68.1447 64.3037 67.4839 61.923C66.6603 58.8882 66.1043 55.7871 65.8223 52.6553C65.4785 49.0647 65.3066 45.0588 65.3066 40.6374ZM80.4042 40.6374C80.4042 45.0874 80.5475 48.7353 80.8339 51.581C81.0376 54.0525 81.5181 56.4933 82.2664 58.8576C82.8024 60.6512 83.8838 62.2333 85.3604 63.384C86.7586 64.4035 88.3538 65.1206 90.0443 65.4897C92.3333 65.9264 94.6617 66.1232 96.9915 66.077C101.451 66.077 104.793 65.4276 107.018 64.1289C109.239 62.8397 110.9 60.376 111.975 56.752C113.235 51.4774 113.779 46.0572 113.593 40.6374C113.593 36.5407 113.464 33.0409 113.206 30.1378C113.041 27.6507 112.594 25.1903 111.874 22.8039C111.35 21.159 110.624 19.5856 109.711 18.1199C108.933 16.9482 107.827 16.0315 106.531 15.4843C105.215 14.8802 103.814 14.4794 102.377 14.2954C100.571 14.0896 98.7525 13.9987 96.9342 14.0232C95.0721 14.0232 93.5394 14.0232 92.3505 14.1808C91.0776 14.3107 89.8176 14.5455 88.5833 14.8827C87.4124 15.155 86.3348 15.7334 85.4606 16.5586C83.3853 18.7232 82.0123 21.4642 81.5215 24.4225C81.117 26.6885 80.8302 28.9738 80.6621 31.2694C80.4472 33.9194 80.3469 37.0564 80.3469 40.6374H80.4042Z" fill="#1C2026"/>
<path d="M138.488 64.2435V0.658875H153.586V60.0465C153.545 61.1606 153.71 62.2726 154.073 63.3267C154.211 63.7195 154.438 64.075 154.736 64.3656C155.035 64.6563 155.396 64.8743 155.792 65.0027C156.438 65.2394 157.104 65.4168 157.783 65.5326C158.606 65.6234 159.433 65.6617 160.261 65.6472H187.319V79.5416H154.875C143.96 79.5416 138.498 74.4422 138.488 64.2435Z" fill="#1C2026"/>
<path d="M331.892 79.5416L358.521 0.658875H375.709L401.35 79.5416H385.235L379.634 62.0949H353.779L348.05 79.5416H331.892ZM357.761 48.7018H376.139L367.244 20.4834L357.761 48.7018Z" fill="#1C2026"/>
<path d="M393.056 14.5532V0.658875H451.369V14.5532H429.496V79.5416H414.399V14.5532H393.056Z" fill="#1C2026"/>
<path d="M462.399 79.5416V0.658875H477.496V79.5416H462.399Z" fill="#1C2026"/>
<path d="M489.07 39.8926C489.032 35.2704 489.266 30.65 489.772 26.0555C490.191 22.3092 491.037 18.6231 492.293 15.0689C493.311 11.9988 494.949 9.17085 497.106 6.76096C499.244 4.52684 501.873 2.82034 504.784 1.77617C508.307 0.519324 512.03 -0.0826386 515.77 -1.12839e-05C525.007 -0.132852 534.216 1.05861 543.115 3.53804V15.3268C542.47 15.3268 541.854 15.1835 541.281 15.1119L539.247 14.897L536.569 14.6822L533.461 14.4816L530.08 14.3241L526.542 14.0519C525.367 13.9755 524.136 13.9182 522.846 13.88H519.308C517.643 13.8613 515.978 13.9475 514.324 14.1379C512.974 14.327 511.666 14.7436 510.456 15.3697C509.263 15.9942 508.27 16.9425 507.591 18.1056C506.755 19.5755 506.105 21.1442 505.657 22.7753C505.012 25.1146 504.614 27.515 504.469 29.9373C504.249 32.8021 504.144 36.216 504.153 40.179C504.153 49.461 505.209 56.1456 507.319 60.2328C509.429 64.3199 513.45 66.2966 519.38 66.1629C522.732 66.1629 526.394 66.0913 530.367 65.9481C534.339 65.8048 537.466 65.6616 539.749 65.5183L543.187 65.3035V76.9919C536.168 79.1214 527.053 80.1194 515.842 79.9857C511.493 80.0248 507.195 79.0436 503.294 77.1208C499.8 75.3029 496.913 72.5052 494.986 69.0707C492.828 65.1993 491.323 60.9985 490.531 56.6374C489.513 51.1149 489.024 45.5079 489.07 39.8926Z" fill="#1C2026"/>
<path d="M549.589 79.5416L576.218 0.658875H593.407L619.061 79.5416H602.947L597.346 62.0949H571.477L565.747 79.5416H549.589ZM575.459 48.7018H593.779L584.941 20.4834L575.459 48.7018Z" fill="#1C2026"/>
<path d="M304.519 7.60605L288.232 55.649H273.006L289.206 7.60605H304.519ZM321.077 0.658875L294.492 79.5416H309.718L336.318 0.658875H321.077ZM262.062 0.658875L235.434 79.5416H250.674L277.303 0.658875H262.062Z" fill="#1C2026"/>
<path d="M223.573 0.658901L210.839 38.3599L194.051 0.58728H178.238L204.021 58.5712L196.945 79.5416H212.186L214.105 73.855L219.505 57.8406L238.8 0.658901H223.573Z" fill="#1C2026"/>
</g>
<defs>
<clipPath id="clip0_220_216">
<rect width="618.156" height="80" fill="white" transform="translate(0.848145)"/>
</clipPath>
</defs>
</svg>
