<svg width="21" height="22" viewBox="0 0 21 22" fill="none" xmlns="http://www.w3.org/2000/svg">
<path d="M20.3027 10.485L10.9277 1.11003C10.5527 0.735026 10.0319 0.505859 9.45899 0.505859H2.16732C1.02148 0.505859 0.0839844 1.44336 0.0839844 2.58919V9.88086C0.0839844 10.4538 0.313151 10.9746 0.698568 11.36L10.0736 20.735C10.4486 21.11 10.9694 21.3392 11.5423 21.3392C12.1152 21.3392 12.6361 21.11 13.0111 20.7246L20.3027 13.4329C20.6882 13.0579 20.9173 12.5371 20.9173 11.9642C20.9173 11.3913 20.6777 10.86 20.3027 10.485ZM11.5423 19.2663L2.16732 9.88086V2.58919H9.45899V2.57878L18.834 11.9538L11.5423 19.2663Z" fill="#FFF8F3"/>
</svg>
