<svg width="31" height="25" viewBox="0 0 31 25" fill="none" xmlns="http://www.w3.org/2000/svg">
<rect width="31" height="25" rx="12.5" transform="matrix(-1 0 0 1 31 0)" fill="#FFF8F3"/>
<g clip-path="url(#clip0_145_1500)">
<path d="M15 4C12.213 4 9.737 5.257 7.974 6.813C7.089 7.594 6.36 8.471 5.846 9.344C5.341 10.201 5 11.13 5 12C5 12.87 5.34 13.799 5.846 14.656C6.36 15.529 7.089 16.406 7.974 17.187C9.737 18.743 12.214 20 15 20C17.787 20 20.263 18.743 22.026 17.187C22.911 16.406 23.64 15.529 24.154 14.656C24.66 13.799 25 12.87 25 12C25 11.13 24.66 10.201 24.154 9.344C23.64 8.471 22.911 7.594 22.026 6.813C20.263 5.257 17.786 4 15 4ZM15 6C17.184 6 19.208 6.993 20.702 8.312C21.446 8.968 22.034 9.685 22.431 10.359C22.837 11.049 23 11.62 23 12C23 12.38 22.837 12.951 22.431 13.641C22.034 14.315 21.446 15.031 20.702 15.688C19.208 17.007 17.184 18 15 18C12.816 18 10.792 17.007 9.298 15.688C8.554 15.031 7.966 14.315 7.569 13.641C7.163 12.951 7 12.38 7 12C7 11.62 7.163 11.049 7.569 10.359C7.966 9.685 8.554 8.969 9.298 8.312C10.792 6.993 12.816 6 15 6ZM15 9C14.912 9 14.825 9.004 14.739 9.011C14.9561 9.39185 15.0421 9.8335 14.9837 10.268C14.9253 10.7025 14.7257 11.1057 14.4157 11.4157C14.1057 11.7257 13.7025 11.9253 13.268 11.9837C12.8335 12.0421 12.3919 11.9561 12.011 11.739C11.9584 12.3412 12.089 12.9452 12.3855 13.4719C12.6821 13.9986 13.1308 14.4234 13.673 14.6907C14.2151 14.958 14.8254 15.0553 15.4238 14.9699C16.0222 14.8844 16.5808 14.6202 17.0264 14.2118C17.4721 13.8034 17.784 13.27 17.9212 12.6813C18.0585 12.0926 18.0148 11.4762 17.7957 10.9128C17.5767 10.3495 17.1925 9.8654 16.6937 9.52407C16.1948 9.18274 15.6045 9.00008 15 9Z" fill="#0A0A0A"/>
</g>
<defs>
<clipPath id="clip0_145_1500">
<rect width="24" height="24" fill="white" transform="matrix(-1 0 0 1 27 0)"/>
</clipPath>
</defs>
</svg>
