<svg width="122" height="120" viewBox="0 0 122 120" fill="none" xmlns="http://www.w3.org/2000/svg">
<path d="M58.8304 15.15C59.4821 15.15 60.0104 14.6217 60.0104 13.97C60.0104 13.3183 59.4821 12.79 58.8304 12.79C58.1787 12.79 57.6504 13.3183 57.6504 13.97C57.6504 14.6217 58.1787 15.15 58.8304 15.15Z" fill="#0A0A0A"/>
<path d="M61.6302 107.83C44.3102 116.65 32.1102 111.34 27.9202 92.1297C27.8535 91.7964 27.6635 91.5597 27.3502 91.4197C18.3102 87.3497 11.9302 81.1397 15.0002 70.4997C15.4802 68.8464 16.3935 66.8297 16.9002 65.1897C17.0069 64.863 16.9669 64.553 16.7802 64.2597C5.5002 47.4997 14.0002 34.5697 31.7202 30.8697C32.0602 30.7764 32.2969 30.5664 32.4302 30.2397C35.7802 22.0997 42.4802 15.5697 51.6402 17.4997C52.6469 17.7064 54.7569 18.3564 57.9702 19.4497C58.2969 19.5564 58.6135 19.5331 58.9202 19.3797C76.5002 9.99973 87.9602 16.2797 92.4102 35.1997C92.4902 35.5264 92.6835 35.7631 92.9902 35.9097C104.96 41.5997 108.07 49.2297 103.41 61.6897C103.29 62.0231 103.314 62.3464 103.48 62.6597C113 78.9997 107.78 91.1097 89.8002 96.0597C87.5902 96.6697 87.7202 97.3597 86.8402 99.1897C81.8202 109.583 73.7202 112.45 62.5402 107.79C62.2269 107.663 61.9235 107.676 61.6302 107.83ZM91.1602 34.2397C87.0102 18.5197 75.7702 10.4397 60.5902 19.9697C60.3235 20.1364 60.2769 20.3531 60.4502 20.6197C60.9302 21.3731 61.6402 21.5664 62.5802 21.1997C75.0002 16.355 84.2002 20.5897 88.4602 33.2497C88.8102 34.2897 89.5502 34.9697 90.6102 34.9597C90.6979 34.9597 90.7843 34.9395 90.8629 34.9007C90.9415 34.8618 91.01 34.8054 91.0633 34.7357C91.1165 34.6661 91.1529 34.5851 91.1697 34.4991C91.1865 34.413 91.1833 34.3243 91.1602 34.2397ZM55.1302 19.5597C45.9002 16.1197 37.2702 20.1997 33.9502 29.4697C33.7969 29.8897 33.9369 30.0464 34.3702 29.9397C42.1902 28.0464 49.5202 24.9631 56.3602 20.6897C56.428 20.6461 56.4842 20.5868 56.5241 20.5167C56.5639 20.4467 56.5863 20.3681 56.5893 20.2876C56.5922 20.207 56.5756 20.127 56.541 20.0542C56.5063 19.9815 56.4546 19.9182 56.3902 19.8697C56.1402 19.6897 55.4902 19.6897 55.1302 19.5597ZM86.2302 33.2797C87.1169 33.5597 87.4035 33.2597 87.0902 32.3797C82.5002 21.7497 74.5002 18.0746 64.1002 21.7497C64.0254 21.7762 63.9593 21.8228 63.9094 21.8844C63.8594 21.9461 63.8275 22.0204 63.8171 22.0991C63.8068 22.1777 63.8184 22.2577 63.8507 22.3302C63.883 22.4027 63.9348 22.4648 64.0002 22.5097C70.8669 27.2297 78.2769 30.8197 86.2302 33.2797ZM32.5202 32.1697L32.3402 33.3797C32.2802 33.7597 32.4402 33.9031 32.8202 33.8097C42.2869 31.4631 51.1835 27.7464 59.5102 22.6597C59.7835 22.4931 59.8935 22.2531 59.8402 21.9397C59.6002 20.6397 57.7202 21.3397 56.9002 21.8197C49.6135 26.0731 41.8269 29.1564 33.5402 31.0697C33.2786 31.1279 33.0409 31.2643 32.8587 31.4607C32.6766 31.6572 32.5585 31.9045 32.5202 32.1697ZM44.0102 96.6997C48.6002 98.4697 53.2402 101.64 57.4202 104.23C57.718 104.413 58.0606 104.51 58.4102 104.51C58.7597 104.51 59.1024 104.413 59.4002 104.23C68.2269 98.7631 77.6969 94.8564 87.8102 92.5097C88.0993 92.4435 88.3643 92.2992 88.5761 92.0928C88.7879 91.8863 88.9381 91.6257 89.0102 91.3397C91.3569 82.3797 95.0869 74.043 100.2 66.3297C100.353 66.1031 100.437 65.8373 100.442 65.5641C100.447 65.291 100.374 65.0221 100.23 64.7897C94.6969 55.6964 90.7469 45.9564 88.3802 35.5697C88.3258 35.3336 88.208 35.1162 88.0391 34.9403C87.8702 34.7643 87.6564 34.6364 87.4202 34.5697C78.9269 32.2631 71.0735 28.6531 63.8602 23.7397C63.3269 23.3731 62.4269 23.2031 61.1602 23.2297C60.8135 23.2364 60.4902 23.3297 60.1902 23.5097C51.4302 28.8031 42.0635 32.6131 32.0902 34.9397C31.7569 35.0197 31.5435 35.2231 31.4502 35.5497C28.9569 44.4497 25.2069 52.7831 20.2002 60.5497C19.9809 60.889 19.861 61.2825 19.8539 61.6855C19.8468 62.0885 19.9529 62.485 20.1602 62.8297C25.5935 71.8497 29.4769 81.4964 31.8102 91.7697C31.8835 92.0897 32.0702 92.3031 32.3702 92.4097C36.3369 93.8097 40.2169 95.2397 44.0102 96.6997ZM17.5002 63.9997C18.0502 63.4997 18.5502 60.6897 18.0102 59.3597C12.7888 46.4997 18.0102 38.8543 30.0102 34.8497C31.0802 34.4197 31.5202 33.6097 31.3702 32.5297C31.3169 32.1631 31.1102 32.0264 30.7502 32.1197C15.6902 36.1997 8.1002 47.2097 16.4302 62.1197C17.0402 63.2197 18.2502 63.8497 18.2202 65.5997C18.2135 65.9397 18.2969 66.2531 18.4702 66.5397C22.8835 73.7464 26.0569 81.4531 27.9902 89.6597C28.2502 90.7497 29.0802 91.4797 30.1102 91.6697C30.5769 91.7497 30.7569 91.5597 30.6502 91.0997C28.4769 81.3797 24.8369 72.2531 19.7302 63.7197C19.5502 63.4264 19.3135 63.3664 19.0202 63.5397L18.1371 64.7967C17.8771 64.95 17.5135 64.3064 17.5002 63.9997ZM90.4202 35.8697C89.7269 35.5297 89.4635 35.7364 89.6302 36.4897C91.7769 46.0764 95.4002 55.0597 100.5 63.4397C100.654 63.6864 100.867 63.7564 101.14 63.6497C102.28 63.2031 102.534 62.4064 101.9 61.2597C97.3135 52.9864 94.0369 45.0697 92.0702 37.5097C91.9035 36.8697 91.3535 36.3231 90.4202 35.8697ZM19.5102 59.8697C24.6302 52.6997 27.4202 45.0597 30.1502 36.7997C30.3702 36.1197 30.1435 35.8997 29.4702 36.1397C18.1235 40.2131 14.5869 48.0964 18.8602 59.7897C19.0202 60.2297 19.2369 60.2564 19.5102 59.8697ZM102.87 60.3697C106.5 49.9997 103.31 42.1597 93.7802 37.2197C93.7103 37.1827 93.6312 37.1667 93.5525 37.1737C93.4737 37.1806 93.3987 37.2101 93.3363 37.2588C93.274 37.3074 93.227 37.373 93.2011 37.4477C93.1752 37.5223 93.1714 37.6029 93.1902 37.6797C95.0769 45.7464 99.0002 53.4997 102.5 60.3897C102.52 60.4223 102.548 60.4489 102.582 60.4666C102.615 60.4844 102.653 60.4927 102.691 60.4907C102.729 60.4886 102.766 60.4763 102.797 60.455C102.829 60.4337 102.854 60.4042 102.87 60.3697ZM101.57 65.1097C102.51 68.7197 104.01 72.3997 104 75.7897C103.99 84.6497 98.2302 89.4897 90.3702 92.5197C89.4802 92.8597 88.8302 93.8097 88.7302 94.6697C88.6702 95.1497 88.8735 95.3231 89.3402 95.1897C104.69 90.8297 112.5 79.7397 103.22 64.4097C103.11 64.2217 102.936 64.0806 102.73 64.0125C102.524 63.9444 102.3 63.9538 102.099 64.039C101.898 64.1242 101.734 64.2795 101.637 64.4763C101.54 64.673 101.516 64.898 101.57 65.1097ZM17.1402 67.4297C12.5002 76.9997 17.8102 85.5197 26.2402 90.0697C26.3288 90.1198 26.4302 90.1428 26.5317 90.1358C26.6333 90.1288 26.7306 90.0921 26.8115 90.0304C26.8924 89.9686 26.9534 89.8845 26.987 89.7884C27.0205 89.6923 27.0251 89.5884 27.0002 89.4897C25.1602 81.6364 22.1335 74.2764 17.9202 67.4097C17.6469 66.9697 17.3869 66.9764 17.1402 67.4297ZM100.39 68.0497C95.6902 75.1364 92.2669 82.7931 90.1202 91.0197C90.1077 91.0742 90.1102 91.1311 90.1273 91.1843C90.1445 91.2376 90.1758 91.2851 90.2178 91.322C90.2598 91.3589 90.3111 91.3838 90.3661 91.3939C90.421 91.4041 90.4778 91.3992 90.5302 91.3797C99.2302 88.1197 105.13 81.4197 102.49 71.6197C102.28 70.8197 101.91 68.6697 101.07 67.9497C100.81 67.7297 100.584 67.7631 100.39 68.0497ZM57.4402 106.02C44.7502 111.52 34.8102 105.92 31.4902 93.0397C31.2569 92.1397 30.7169 91.8864 29.8702 92.2797C29.1602 92.6097 29.0502 93.2797 29.2802 94.0297C34.2302 110.18 43.9102 115.5 59.5702 107.46C59.8169 107.333 59.8935 107.136 59.8002 106.87C59.4202 105.783 58.6335 105.5 57.4402 106.02ZM87.9502 94.1597C87.991 94.0872 88.0098 94.0044 88.0044 93.9214C87.9991 93.8383 87.9697 93.7586 87.92 93.6919C87.8702 93.6253 87.8022 93.5744 87.7241 93.5456C87.6461 93.5168 87.5613 93.5113 87.4802 93.5297C77.8869 95.8364 68.9169 99.6031 60.5702 104.83C60.2635 105.03 60.2035 105.286 60.3902 105.6C60.9402 106.54 62.2102 106.36 63.1002 105.84C70.3202 101.513 78.0169 98.3197 86.1902 96.2597C87.6702 95.8797 87.3502 95.1997 87.9502 94.1597ZM56.2802 104.64C48.9902 100.04 41.5502 96.1397 33.1802 93.8197C32.8535 93.7264 32.7402 93.8431 32.8402 94.1697C36.2002 105.1 45.3402 110.53 56.2502 105.18C56.5835 105.013 56.5935 104.833 56.2802 104.64ZM63.7602 107.22C74.8002 112.14 81.5702 107.12 86.5602 97.7497C86.5909 97.6919 86.6043 97.6264 86.5987 97.5611C86.5931 97.4959 86.5687 97.4336 86.5286 97.3819C86.4885 97.3301 86.4342 97.2911 86.3724 97.2694C86.3106 97.2477 86.2439 97.2444 86.1802 97.2597C78.2469 99.3131 70.7635 102.436 63.7302 106.63C63.6783 106.663 63.6359 106.709 63.6074 106.763C63.579 106.818 63.5656 106.878 63.5686 106.939C63.5717 107 63.5912 107.058 63.6249 107.107C63.6586 107.157 63.7054 107.195 63.7602 107.22Z" fill="#0A0A0A"/>
<path d="M74.44 39.7598H48.36C48.1612 39.7598 48 39.9209 48 40.1198V40.1398C48 40.3386 48.1612 40.4998 48.36 40.4998H74.44C74.6388 40.4998 74.8 40.3386 74.8 40.1398V40.1198C74.8 39.9209 74.6388 39.7598 74.44 39.7598Z" fill="#0A0A0A"/>
<path d="M74.44 89.7598H48.36C48.1612 89.7598 48 89.9209 48 90.1198V90.1398C48 90.3386 48.1612 90.4998 48.36 90.4998H74.44C74.6388 90.4998 74.8 90.3386 74.8 90.1398V90.1198C74.8 89.9209 74.6388 89.7598 74.44 89.7598Z" fill="#0A0A0A"/>
<path d="M74.44 37H48.36C48.1612 37 48 37.1612 48 37.36V37.38C48 37.5788 48.1612 37.74 48.36 37.74H74.44C74.6388 37.74 74.8 37.5788 74.8 37.38V37.36C74.8 37.1612 74.6388 37 74.44 37Z" fill="#0A0A0A"/>
<path d="M74.44 87H48.36C48.1612 87 48 87.1612 48 87.36V87.38C48 87.5788 48.1612 87.74 48.36 87.74H74.44C74.6388 87.74 74.8 87.5788 74.8 87.38V87.36C74.8 87.1612 74.6388 87 74.44 87Z" fill="#0A0A0A"/>
<path d="M60.25 50.8598V69.5698C60.2514 69.6534 60.2326 69.7361 60.1952 69.8109C60.1578 69.8857 60.1029 69.9504 60.0352 69.9994C59.9675 70.0485 59.889 70.0805 59.8062 70.0928C59.7235 70.105 59.6391 70.0971 59.56 70.0698L49.35 66.5898C49.2481 66.5545 49.1596 66.4884 49.0969 66.4006C49.0342 66.3128 49.0003 66.2077 49 66.0998V47.6698C48.9992 47.5873 49.018 47.5059 49.0548 47.4321C49.0917 47.3584 49.1455 47.2944 49.212 47.2456C49.2784 47.1968 49.3555 47.1644 49.4368 47.1512C49.5182 47.138 49.6016 47.1444 49.68 47.1698L59.89 50.3698C59.9939 50.4033 60.0845 50.4687 60.1491 50.5567C60.2137 50.6446 60.249 50.7506 60.25 50.8598Z" fill="#0A0A0A"/>
<path d="M62.26 50.36L72.57 47.02C72.6257 47.0009 72.6852 46.9954 72.7435 47.0039C72.8017 47.0124 72.8571 47.0347 72.9051 47.0689C72.953 47.1031 72.992 47.1483 73.019 47.2007C73.0459 47.2531 73.06 47.3111 73.06 47.37L72.99 66.23C72.99 66.3071 72.9659 66.3823 72.9211 66.4451C72.8763 66.5078 72.8129 66.555 72.74 66.58L62.82 69.98C62.7643 69.9991 62.7048 70.0046 62.6465 69.9961C62.5883 69.9876 62.5329 69.9653 62.4849 69.9311C62.437 69.8969 62.398 69.8517 62.371 69.7993C62.3441 69.7469 62.33 69.6889 62.33 69.63L62 50.71C62.0007 50.6316 62.0262 50.5555 62.073 50.4926C62.1197 50.4297 62.1852 50.3833 62.26 50.36ZM64.26 58.1C64.2599 58.1865 64.2805 58.2717 64.3201 58.3485C64.3598 58.4254 64.4173 58.4916 64.4879 58.5415C64.5584 58.5915 64.64 58.6238 64.7256 58.6357C64.8112 58.6476 64.8985 58.6388 64.98 58.61L70.9 56.53C71.0054 56.4927 71.0967 56.4236 71.1612 56.3323C71.2256 56.2409 71.2602 56.1318 71.26 56.02V50.76C71.2601 50.6735 71.2395 50.5883 71.1999 50.5115C71.1602 50.4346 71.1027 50.3684 71.0321 50.3185C70.9616 50.2685 70.88 50.2362 70.7944 50.2243C70.7088 50.2124 70.6215 50.2212 70.54 50.25L64.62 52.34C64.5146 52.3773 64.4233 52.4464 64.3588 52.5377C64.2943 52.6291 64.2598 52.7382 64.26 52.85V58.1Z" fill="#0A0A0A"/>
<path d="M108.87 63.8498C109.909 63.8498 110.75 63.0081 110.75 61.9698C110.75 60.9315 109.909 60.0898 108.87 60.0898C107.832 60.0898 106.99 60.9315 106.99 61.9698C106.99 63.0081 107.832 63.8498 108.87 63.8498Z" fill="#0A0A0A"/>
<path d="M62.88 114.76C63.9183 114.76 64.76 113.918 64.76 112.88C64.76 111.842 63.9183 111 62.88 111C61.8417 111 61 111.842 61 112.88C61 113.918 61.8417 114.76 62.88 114.76Z" fill="#0A0A0A"/>
<path d="M11.0809 66.7996C12.1137 66.7996 12.9509 65.9623 12.9509 64.9296C12.9509 63.8968 12.1137 63.0596 11.0809 63.0596C10.0482 63.0596 9.21094 63.8968 9.21094 64.9296C9.21094 65.9623 10.0482 66.7996 11.0809 66.7996Z" fill="#0A0A0A"/>
<path d="M40.368 82V73.6H43.992C44.928 73.6 45.652 73.788 46.164 74.164C46.684 74.54 46.944 75.072 46.944 75.76C46.944 76.216 46.836 76.6 46.62 76.912C46.412 77.224 46.124 77.46 45.756 77.62C45.396 77.78 45 77.86 44.568 77.86L44.772 77.572C45.308 77.572 45.768 77.656 46.152 77.824C46.544 77.984 46.848 78.228 47.064 78.556C47.28 78.876 47.388 79.276 47.388 79.756C47.388 80.468 47.124 81.02 46.596 81.412C46.076 81.804 45.288 82 44.232 82H40.368ZM41.256 81.268H44.22C44.956 81.268 45.52 81.144 45.912 80.896C46.304 80.64 46.5 80.236 46.5 79.684C46.5 79.14 46.304 78.744 45.912 78.496C45.52 78.24 44.956 78.112 44.22 78.112H41.16V77.38H43.932C44.604 77.38 45.124 77.252 45.492 76.996C45.868 76.74 46.056 76.36 46.056 75.856C46.056 75.344 45.868 74.964 45.492 74.716C45.124 74.46 44.604 74.332 43.932 74.332H41.256V81.268ZM53.1829 82V80.608L53.1469 80.38V78.052C53.1469 77.516 52.9949 77.104 52.6909 76.816C52.3949 76.528 51.9509 76.384 51.3589 76.384C50.9509 76.384 50.5629 76.452 50.1949 76.588C49.8269 76.724 49.5149 76.904 49.2589 77.128L48.8749 76.492C49.1949 76.22 49.5789 76.012 50.0269 75.868C50.4749 75.716 50.9469 75.64 51.4429 75.64C52.2589 75.64 52.8869 75.844 53.3269 76.252C53.7749 76.652 53.9989 77.264 53.9989 78.088V82H53.1829ZM51.0109 82.06C50.5389 82.06 50.1269 81.984 49.7749 81.832C49.4309 81.672 49.1669 81.456 48.9829 81.184C48.7989 80.904 48.7069 80.584 48.7069 80.224C48.7069 79.896 48.7829 79.6 48.9349 79.336C49.0949 79.064 49.3509 78.848 49.7029 78.688C50.0629 78.52 50.5429 78.436 51.1429 78.436H53.3149V79.072H51.1669C50.5589 79.072 50.1349 79.18 49.8949 79.396C49.6629 79.612 49.5469 79.88 49.5469 80.2C49.5469 80.56 49.6869 80.848 49.9669 81.064C50.2469 81.28 50.6389 81.388 51.1429 81.388C51.6229 81.388 52.0349 81.28 52.3789 81.064C52.7309 80.84 52.9869 80.52 53.1469 80.104L53.3389 80.692C53.1789 81.108 52.8989 81.44 52.4989 81.688C52.1069 81.936 51.6109 82.06 51.0109 82.06ZM56.2438 84.388C55.9478 84.388 55.6638 84.34 55.3918 84.244C55.1278 84.148 54.8998 84.004 54.7078 83.812L55.1038 83.176C55.2638 83.328 55.4358 83.444 55.6198 83.524C55.8118 83.612 56.0238 83.656 56.2558 83.656C56.5358 83.656 56.7758 83.576 56.9758 83.416C57.1838 83.264 57.3798 82.992 57.5638 82.6L57.9718 81.676L58.0678 81.544L60.6598 75.7H61.4998L58.3438 82.756C58.1678 83.164 57.9718 83.488 57.7558 83.728C57.5478 83.968 57.3198 84.136 57.0718 84.232C56.8238 84.336 56.5478 84.388 56.2438 84.388ZM57.9238 82.18L55.0198 75.7H55.9078L58.4758 81.484L57.9238 82.18ZM64.3214 82.06C63.8014 82.06 63.3094 81.988 62.8454 81.844C62.3814 81.692 62.0174 81.504 61.7534 81.28L62.1374 80.608C62.3934 80.8 62.7214 80.968 63.1214 81.112C63.5214 81.248 63.9414 81.316 64.3814 81.316C64.9814 81.316 65.4134 81.224 65.6774 81.04C65.9414 80.848 66.0734 80.596 66.0734 80.284C66.0734 80.052 65.9974 79.872 65.8454 79.744C65.7014 79.608 65.5094 79.508 65.2694 79.444C65.0294 79.372 64.7614 79.312 64.4654 79.264C64.1694 79.216 63.8734 79.16 63.5774 79.096C63.2894 79.032 63.0254 78.94 62.7854 78.82C62.5454 78.692 62.3494 78.52 62.1974 78.304C62.0534 78.088 61.9814 77.8 61.9814 77.44C61.9814 77.096 62.0774 76.788 62.2694 76.516C62.4614 76.244 62.7414 76.032 63.1094 75.88C63.4854 75.72 63.9414 75.64 64.4774 75.64C64.8854 75.64 65.2934 75.696 65.7014 75.808C66.1094 75.912 66.4454 76.052 66.7094 76.228L66.3374 76.912C66.0574 76.72 65.7574 76.584 65.4374 76.504C65.1174 76.416 64.7974 76.372 64.4774 76.372C63.9094 76.372 63.4894 76.472 63.2174 76.672C62.9534 76.864 62.8214 77.112 62.8214 77.416C62.8214 77.656 62.8934 77.844 63.0374 77.98C63.1894 78.116 63.3854 78.224 63.6254 78.304C63.8734 78.376 64.1414 78.436 64.4294 78.484C64.7254 78.532 65.0174 78.592 65.3054 78.664C65.6014 78.728 65.8694 78.82 66.1094 78.94C66.3574 79.052 66.5534 79.216 66.6974 79.432C66.8494 79.64 66.9254 79.916 66.9254 80.26C66.9254 80.628 66.8214 80.948 66.6134 81.22C66.4134 81.484 66.1174 81.692 65.7254 81.844C65.3414 81.988 64.8734 82.06 64.3214 82.06ZM72.4368 82V80.608L72.4008 80.38V78.052C72.4008 77.516 72.2488 77.104 71.9448 76.816C71.6488 76.528 71.2048 76.384 70.6128 76.384C70.2048 76.384 69.8168 76.452 69.4488 76.588C69.0808 76.724 68.7688 76.904 68.5128 77.128L68.1288 76.492C68.4488 76.22 68.8328 76.012 69.2808 75.868C69.7288 75.716 70.2008 75.64 70.6968 75.64C71.5128 75.64 72.1408 75.844 72.5808 76.252C73.0288 76.652 73.2528 77.264 73.2528 78.088V82H72.4368ZM70.2648 82.06C69.7928 82.06 69.3808 81.984 69.0288 81.832C68.6848 81.672 68.4208 81.456 68.2368 81.184C68.0528 80.904 67.9608 80.584 67.9608 80.224C67.9608 79.896 68.0368 79.6 68.1888 79.336C68.3488 79.064 68.6048 78.848 68.9568 78.688C69.3168 78.52 69.7968 78.436 70.3968 78.436H72.5688V79.072H70.4208C69.8128 79.072 69.3888 79.18 69.1488 79.396C68.9168 79.612 68.8008 79.88 68.8008 80.2C68.8008 80.56 68.9408 80.848 69.2208 81.064C69.5008 81.28 69.8928 81.388 70.3968 81.388C70.8768 81.388 71.2888 81.28 71.6328 81.064C71.9848 80.84 72.2408 80.52 72.4008 80.104L72.5928 80.692C72.4328 81.108 72.1528 81.44 71.7528 81.688C71.3608 81.936 70.8648 82.06 70.2648 82.06ZM78.7829 75.64C79.2949 75.64 79.7429 75.74 80.1269 75.94C80.5189 76.132 80.8229 76.428 81.0389 76.828C81.2629 77.228 81.3749 77.732 81.3749 78.34V82H80.5229V78.424C80.5229 77.76 80.3549 77.26 80.0189 76.924C79.6909 76.58 79.2269 76.408 78.6269 76.408C78.1789 76.408 77.7869 76.5 77.4509 76.684C77.1229 76.86 76.8669 77.12 76.6829 77.464C76.5069 77.8 76.4189 78.208 76.4189 78.688V82H75.5669V75.7H76.3829V77.428L76.2509 77.104C76.4509 76.648 76.7709 76.292 77.2109 76.036C77.6509 75.772 78.1749 75.64 78.7829 75.64Z" fill="#0A0A0A"/>
</svg>
