<svg width="23" height="22" viewBox="0 0 23 22" fill="none" xmlns="http://www.w3.org/2000/svg">
<path d="M21.6141 7.49625C22.9162 6.19417 22.3224 4.67334 21.6141 3.93375L18.4891 0.808754C17.1766 -0.49333 15.6662 0.10042 14.9266 0.808754L13.1558 2.59H10.4578C8.47868 2.59 7.33284 3.63167 6.74951 4.82959L2.12451 9.45459V13.6213L1.38493 14.3504C0.0828423 15.6629 0.676592 17.1733 1.38493 17.9129L4.50993 21.0379C5.07243 21.6004 5.67659 21.8088 6.24951 21.8088C6.98909 21.8088 7.66618 21.4442 8.07243 21.0379L10.8849 18.215H14.6245C16.3953 18.215 17.2912 17.1108 17.6141 16.0275C18.7912 15.715 19.437 14.8192 19.6974 13.9442C21.312 13.5275 21.9162 11.9963 21.9162 10.9233V7.79834H21.3016L21.6141 7.49625ZM19.8328 10.9233C19.8328 11.3921 19.6349 11.965 18.7912 11.965H17.7495V13.0067C17.7495 13.4754 17.5516 14.0483 16.7078 14.0483H15.6662V15.09C15.6662 15.5588 15.4683 16.1317 14.6245 16.1317H10.0308L6.61409 19.5483C6.29118 19.8504 6.10368 19.6733 5.98909 19.5588L2.87451 16.4546C2.57243 16.1317 2.74951 15.9442 2.86409 15.8296L4.20784 14.4754V10.3088L6.29118 8.22542V9.88167C6.29118 11.1421 7.12451 13.0067 9.41618 13.0067C11.7078 13.0067 12.5412 11.1421 12.5412 9.88167H19.8328V10.9233ZM20.1349 6.01709L18.3641 7.79834H10.4578V9.88167C10.4578 10.3504 10.2599 10.9233 9.41618 10.9233C8.57243 10.9233 8.37451 10.3504 8.37451 9.88167V6.75667C8.37451 6.2775 8.55159 4.67334 10.4578 4.67334H14.0099L16.3849 2.29834C16.7078 1.99625 16.8953 2.17334 17.0099 2.28792L20.1245 5.39209C20.4266 5.715 20.2495 5.9025 20.1349 6.01709Z" fill="#FFF8F3"/>
</svg>
