<svg width="21" height="22" viewBox="0 0 21 22" fill="none" xmlns="http://www.w3.org/2000/svg">
<path d="M10.8132 6.01628C11.0215 5.82878 11.2715 5.71419 11.5423 5.71419C11.8236 5.71419 12.0632 5.82878 12.2819 6.01628C12.4798 6.23503 12.584 6.48503 12.584 6.75586C12.584 7.03711 12.4798 7.27669 12.2819 7.49544C12.0632 7.69336 11.8236 7.79753 11.5423 7.79753C11.2715 7.79753 11.0215 7.69336 10.8132 7.49544C10.6152 7.27669 10.5007 7.03711 10.5007 6.75586C10.5007 6.48503 10.6152 6.23503 10.8132 6.01628ZM8.20899 10.8913C8.20899 10.8913 10.4694 9.09961 11.2923 9.02669C12.0632 8.96419 11.9069 9.84961 11.834 10.3079L11.8236 10.3704C11.6777 10.9225 11.5007 11.5892 11.3236 12.2246C10.9277 13.6725 10.5423 15.0892 10.6361 15.3496C10.7402 15.7038 11.3861 15.2559 11.8548 14.9434C11.9173 14.9017 11.9694 14.86 12.0215 14.8288C12.0215 14.8288 12.1048 14.7454 12.1882 14.86C12.209 14.8913 12.2298 14.9225 12.2507 14.9434C12.3444 15.0892 12.3965 15.1413 12.2715 15.2246L12.2298 15.2454C12.0007 15.4017 11.0215 16.0892 10.6257 16.3392C10.1986 16.6204 8.56315 17.5579 8.81315 15.735C9.0319 14.4538 9.32357 13.3496 9.55274 12.485C9.97982 10.9225 10.1673 10.2142 9.20899 10.8288C8.82357 11.0579 8.5944 11.2038 8.45899 11.2975C8.3444 11.3809 8.33399 11.3809 8.26107 11.2454L8.22982 11.1829L8.17774 11.0996C8.10482 10.9954 8.10482 10.985 8.20899 10.8913ZM20.9173 10.9225C20.9173 16.6517 16.2298 21.3392 10.5007 21.3392C4.77148 21.3392 0.0839844 16.6517 0.0839844 10.9225C0.0839844 5.19336 4.77148 0.505859 10.5007 0.505859C16.2298 0.505859 20.9173 5.19336 20.9173 10.9225ZM18.834 10.9225C18.834 6.31836 15.1048 2.58919 10.5007 2.58919C5.89648 2.58919 2.16732 6.31836 2.16732 10.9225C2.16732 15.5267 5.89648 19.2559 10.5007 19.2559C15.1048 19.2559 18.834 15.5267 18.834 10.9225Z" fill="#FFF8F3"/>
</svg>
