<svg width="266" height="113" viewBox="0 0 266 113" fill="none" xmlns="http://www.w3.org/2000/svg">
<g clip-path="url(#clip0_114_996)">
<path d="M131.755 9.3376C132.129 9.3376 132.432 9.02943 132.432 8.64927C132.432 8.26911 132.129 7.96094 131.755 7.96094C131.381 7.96094 131.078 8.26911 131.078 8.64927C131.078 9.02943 131.381 9.3376 131.755 9.3376Z" fill="#FFF5EE"/>
<path d="M133.362 63.4012C123.425 68.5462 116.425 65.4487 114.021 54.2429C113.982 54.0485 113.873 53.9104 113.694 53.8287C108.507 51.4546 104.846 47.8321 106.607 41.6254C106.883 40.661 107.407 39.4846 107.698 38.5279C107.759 38.3374 107.736 38.1565 107.629 37.9854C101.157 28.2087 106.034 20.6662 116.201 18.5079C116.396 18.4535 116.532 18.331 116.608 18.1404C118.53 13.3921 122.375 9.58291 127.63 10.7087C128.208 10.8293 129.419 11.2085 131.262 11.8462C131.45 11.9085 131.632 11.8949 131.808 11.8054C141.894 6.33374 148.47 9.99707 151.023 21.0337C151.069 21.2243 151.18 21.3624 151.356 21.4479C158.224 24.7671 160.008 29.2179 157.335 36.4862C157.266 36.6807 157.279 36.8693 157.375 37.0521C162.837 46.5837 159.842 53.6479 149.526 56.5354C148.258 56.8912 148.332 57.2937 147.827 58.3612C144.947 64.424 140.299 66.0962 133.885 63.3779C133.705 63.304 133.531 63.3118 133.362 63.4012ZM150.306 20.4737C147.925 11.3037 141.476 6.59041 132.766 12.1496C132.613 12.2468 132.586 12.3732 132.685 12.5287C132.961 12.9682 133.368 13.081 133.908 12.8671C141.034 10.041 146.312 12.5112 148.757 19.8962C148.958 20.5029 149.382 20.8996 149.99 20.8937C150.041 20.8938 150.09 20.882 150.135 20.8593C150.18 20.8366 150.22 20.8037 150.25 20.7631C150.281 20.7225 150.302 20.6752 150.311 20.625C150.321 20.5748 150.319 20.5231 150.306 20.4737ZM129.633 11.9104C124.337 9.90374 119.385 12.2837 117.48 17.6912C117.392 17.9362 117.473 18.0276 117.721 17.9654C122.208 16.861 126.414 15.0624 130.339 12.5696C130.378 12.5441 130.41 12.5095 130.433 12.4687C130.456 12.4278 130.468 12.382 130.47 12.335C130.472 12.288 130.462 12.2413 130.442 12.1989C130.422 12.1564 130.393 12.1195 130.356 12.0912C130.212 11.9862 129.839 11.9862 129.633 11.9104ZM147.477 19.9137C147.986 20.0771 148.15 19.9021 147.971 19.3887C145.337 13.1879 140.747 11.0441 134.78 13.1879C134.737 13.2033 134.699 13.2305 134.67 13.2665C134.641 13.3025 134.623 13.3458 134.617 13.3917C134.611 13.4376 134.618 13.4843 134.636 13.5265C134.655 13.5688 134.685 13.6051 134.722 13.6312C138.662 16.3846 142.914 18.4787 147.477 19.9137ZM116.66 19.2662L116.557 19.9721C116.522 20.1937 116.614 20.2774 116.832 20.2229C122.264 18.854 127.368 16.686 132.146 13.7187C132.303 13.6215 132.366 13.4815 132.335 13.2987C132.198 12.5404 131.119 12.9487 130.648 13.2287C126.468 15.7099 122 17.5085 117.245 18.6246C117.095 18.6585 116.959 18.7381 116.854 18.8527C116.75 18.9673 116.682 19.1115 116.66 19.2662ZM123.253 56.9087C125.886 57.9412 128.548 59.7904 130.947 61.3012C131.118 61.4081 131.314 61.4646 131.515 61.4646C131.715 61.4646 131.912 61.4081 132.083 61.3012C137.147 58.1124 142.581 55.8335 148.384 54.4646C148.55 54.426 148.702 54.3418 148.823 54.2214C148.945 54.1009 149.031 53.9489 149.072 53.7821C150.419 48.5554 152.559 43.6924 155.493 39.1929C155.58 39.0607 155.629 38.9057 155.632 38.7463C155.635 38.587 155.592 38.4301 155.51 38.2946C152.335 32.9901 150.069 27.3085 148.711 21.2496C148.68 21.1118 148.612 20.985 148.515 20.8824C148.418 20.7798 148.296 20.7051 148.16 20.6662C143.287 19.3207 138.781 17.2149 134.642 14.3487C134.336 14.1349 133.82 14.0357 133.093 14.0512C132.894 14.0551 132.708 14.1096 132.536 14.2146C127.51 17.3024 122.136 19.5249 116.413 20.8821C116.222 20.9287 116.1 21.0474 116.046 21.2379C114.615 26.4296 112.464 31.2907 109.591 35.8212C109.465 36.0191 109.396 36.2487 109.392 36.4838C109.388 36.7189 109.449 36.9501 109.568 37.1512C112.686 42.4129 114.914 48.0401 116.253 54.0329C116.295 54.2196 116.402 54.344 116.574 54.4062C118.85 55.2229 121.076 56.0571 123.253 56.9087ZM108.042 37.8337C108.357 37.5421 108.644 35.9029 108.335 35.1271C105.339 27.6254 108.335 23.1656 115.22 20.8296C115.834 20.5787 116.086 20.1062 116 19.4762C115.97 19.2624 115.851 19.1826 115.644 19.2371C107.003 21.6171 102.648 28.0396 107.428 36.7371C107.778 37.3787 108.472 37.7462 108.455 38.7671C108.451 38.9654 108.499 39.1482 108.598 39.3154C111.131 43.5193 112.951 48.0149 114.061 52.8021C114.21 53.4379 114.686 53.8637 115.277 53.9746C115.545 54.0212 115.648 53.9104 115.587 53.6421C114.34 47.9721 112.251 42.6482 109.321 37.6704C109.218 37.4993 109.082 37.4643 108.914 37.5654L108.407 38.2986C108.258 38.3881 108.05 38.0126 108.042 37.8337ZM149.881 21.4246C149.483 21.2262 149.332 21.3468 149.428 21.7862C150.66 27.3785 152.739 32.6187 155.665 37.5071C155.753 37.651 155.875 37.6918 156.032 37.6296C156.686 37.369 156.832 36.9043 156.468 36.2354C153.836 31.4093 151.956 26.7912 150.828 22.3812C150.732 22.0079 150.417 21.689 149.881 21.4246ZM109.195 35.4246C112.133 31.2421 113.734 26.7854 115.3 21.9671C115.426 21.5704 115.296 21.4421 114.91 21.5821C108.4 23.9582 106.37 28.5568 108.822 35.3779C108.914 35.6346 109.038 35.6501 109.195 35.4246ZM157.025 35.7162C159.108 29.6671 157.277 25.0937 151.809 22.2121C151.769 22.1905 151.724 22.1812 151.678 22.1852C151.633 22.1893 151.59 22.2065 151.554 22.2348C151.519 22.2632 151.492 22.3015 151.477 22.345C151.462 22.3886 151.46 22.4356 151.471 22.4804C152.553 27.186 154.804 31.7087 156.812 35.7279C156.824 35.7469 156.84 35.7624 156.859 35.7728C156.879 35.7832 156.9 35.788 156.922 35.7868C156.944 35.7856 156.965 35.7784 156.983 35.766C157.001 35.7536 157.015 35.7364 157.025 35.7162ZM156.279 38.4812C156.818 40.5871 157.679 42.7337 157.673 44.7112C157.667 49.8796 154.362 52.7029 149.853 54.4704C149.342 54.6687 148.969 55.2229 148.912 55.7246C148.877 56.0046 148.994 56.1057 149.262 56.0279C158.069 53.4846 162.55 47.0154 157.226 38.0729C157.162 37.9632 157.062 37.8809 156.944 37.8412C156.826 37.8015 156.697 37.8069 156.582 37.8567C156.467 37.9064 156.373 37.997 156.317 38.1117C156.261 38.2265 156.248 38.3577 156.279 38.4812ZM107.835 39.8346C105.173 45.4171 108.22 50.3871 113.057 53.0412C113.108 53.0705 113.166 53.0839 113.224 53.0798C113.282 53.0757 113.338 53.0543 113.384 53.0183C113.431 52.9823 113.466 52.9332 113.485 52.8771C113.504 52.8211 113.507 52.7605 113.493 52.7029C112.437 48.1218 110.7 43.8285 108.283 39.8229C108.126 39.5662 107.977 39.5701 107.835 39.8346ZM155.602 40.1962C152.905 44.3301 150.941 48.7965 149.709 53.5954C149.702 53.6272 149.703 53.6604 149.713 53.6914C149.723 53.7225 149.741 53.7502 149.765 53.7718C149.789 53.7933 149.819 53.8078 149.85 53.8137C149.882 53.8196 149.914 53.8168 149.944 53.8054C154.936 51.9037 158.321 47.9954 156.807 42.2787C156.686 41.8121 156.474 40.5579 155.992 40.1379C155.843 40.0096 155.713 40.029 155.602 40.1962ZM130.958 62.3454C123.677 65.5537 117.974 62.2871 116.069 54.7737C115.935 54.2487 115.625 54.101 115.139 54.3304C114.732 54.5229 114.669 54.9137 114.801 55.3512C117.641 64.7721 123.195 67.8754 132.18 63.1854C132.322 63.1115 132.366 62.9968 132.312 62.8412C132.094 62.2074 131.643 62.0421 130.958 62.3454ZM148.464 55.4271C148.487 55.3848 148.498 55.3365 148.495 55.288C148.492 55.2396 148.475 55.1931 148.447 55.1542C148.418 55.1153 148.379 55.0857 148.334 55.0689C148.29 55.0521 148.241 55.0488 148.194 55.0596C142.69 56.4051 137.543 58.6024 132.754 61.6512C132.578 61.7679 132.544 61.9176 132.651 62.1004C132.967 62.6487 133.695 62.5437 134.206 62.2404C138.348 59.7165 142.765 57.8537 147.454 56.6521C148.303 56.4304 148.12 56.0337 148.464 55.4271ZM130.293 61.5404C126.11 58.8571 121.841 56.5821 117.039 55.2287C116.851 55.1743 116.786 55.2424 116.844 55.4329C118.771 61.8087 124.016 64.9762 130.276 61.8554C130.467 61.7582 130.473 61.6532 130.293 61.5404ZM134.585 63.0454C140.919 65.9154 144.803 62.9871 147.667 57.5212C147.684 57.4875 147.692 57.4493 147.689 57.4112C147.685 57.3732 147.671 57.3369 147.648 57.3067C147.625 57.2765 147.594 57.2537 147.559 57.2411C147.523 57.2284 147.485 57.2265 147.448 57.2354C142.897 58.4332 138.603 60.2551 134.567 62.7012C134.538 62.7204 134.513 62.7473 134.497 62.7791C134.481 62.8109 134.473 62.8463 134.475 62.8817C134.476 62.917 134.488 62.9509 134.507 62.9797C134.526 63.0086 134.553 63.0313 134.585 63.0454Z" fill="#FFF5EE"/>
<path d="M146.44 23.6934H120.36C120.161 23.6934 120 23.7874 120 23.9034V23.915C120 24.031 120.161 24.125 120.36 24.125H146.44C146.639 24.125 146.8 24.031 146.8 23.915V23.9034C146.8 23.7874 146.639 23.6934 146.44 23.6934Z" fill="#FFF5EE"/>
<path d="M146.44 52.8604H120.36C120.161 52.8604 120 52.9544 120 53.0704V53.082C120 53.198 120.161 53.292 120.36 53.292H146.44C146.639 53.292 146.8 53.198 146.8 53.082V53.0704C146.8 52.9544 146.639 52.8604 146.44 52.8604Z" fill="#FFF5EE"/>
<path d="M146.44 22.083H120.36C120.161 22.083 120 22.177 120 22.293V22.3047C120 22.4207 120.161 22.5147 120.36 22.5147H146.44C146.639 22.5147 146.8 22.4207 146.8 22.3047V22.293C146.8 22.177 146.639 22.083 146.44 22.083Z" fill="#FFF5EE"/>
<path d="M146.44 51.25H120.36C120.161 51.25 120 51.344 120 51.46V51.4717C120 51.5876 120.161 51.6817 120.36 51.6817H146.44C146.639 51.6817 146.8 51.5876 146.8 51.4717V51.46C146.8 51.344 146.639 51.25 146.44 51.25Z" fill="#FFF5EE"/>
<path d="M132.57 30.1682V41.0824C132.571 41.1311 132.56 41.1794 132.539 41.223C132.517 41.2667 132.486 41.3044 132.447 41.333C132.408 41.3616 132.363 41.3803 132.316 41.3874C132.268 41.3946 132.22 41.39 132.174 41.374L126.316 39.344C126.258 39.3235 126.207 39.2849 126.171 39.2337C126.135 39.1825 126.115 39.1211 126.115 39.0582V28.3074C126.115 28.2593 126.126 28.2118 126.147 28.1687C126.168 28.1257 126.199 28.0884 126.237 28.0599C126.275 28.0314 126.319 28.0126 126.366 28.0049C126.413 27.9972 126.46 28.0009 126.505 28.0157L132.364 29.8824C132.423 29.9019 132.475 29.9401 132.512 29.9914C132.549 30.0427 132.57 30.1045 132.57 30.1682Z" fill="#FFF5EE"/>
<path d="M133.723 29.877L139.639 27.9287C139.671 27.9175 139.705 27.9143 139.738 27.9193C139.772 27.9242 139.804 27.9372 139.831 27.9572C139.859 27.9772 139.881 28.0035 139.897 28.0341C139.912 28.0646 139.92 28.0985 139.92 28.1328L139.88 39.1345C139.88 39.1795 139.866 39.2233 139.84 39.2599C139.815 39.2965 139.778 39.3241 139.737 39.3387L134.045 41.322C134.013 41.3331 133.979 41.3364 133.945 41.3314C133.912 41.3264 133.88 41.3134 133.852 41.2935C133.825 41.2735 133.803 41.2471 133.787 41.2166C133.772 41.186 133.764 41.1522 133.764 41.1178L133.574 30.0812C133.575 30.0355 133.589 29.9911 133.616 29.9544C133.643 29.9177 133.68 29.8906 133.723 29.877ZM134.871 34.392C134.871 34.4424 134.883 34.4922 134.905 34.537C134.928 34.5818 134.961 34.6204 135.002 34.6496C135.042 34.6787 135.089 34.6976 135.138 34.7045C135.187 34.7115 135.237 34.7063 135.284 34.6895L138.681 33.4762C138.741 33.4544 138.794 33.4141 138.831 33.3608C138.868 33.3075 138.887 33.2439 138.887 33.1787V30.1103C138.887 30.0599 138.876 30.0102 138.853 29.9653C138.83 29.9205 138.797 29.8819 138.757 29.8528C138.716 29.8236 138.669 29.8048 138.62 29.7978C138.571 29.7909 138.521 29.796 138.474 29.8128L135.077 31.032C135.017 31.0537 134.965 31.094 134.928 31.1473C134.891 31.2006 134.871 31.2643 134.871 31.3295V34.392Z" fill="#FFF5EE"/>
<path d="M160.467 37.7461C161.063 37.7461 161.546 37.2551 161.546 36.6494C161.546 36.0437 161.063 35.5527 160.467 35.5527C159.872 35.5527 159.389 36.0437 159.389 36.6494C159.389 37.2551 159.872 37.7461 160.467 37.7461Z" fill="#FFF5EE"/>
<path d="M134.079 67.4433C134.674 67.4433 135.157 66.9523 135.157 66.3467C135.157 65.741 134.674 65.25 134.079 65.25C133.483 65.25 133 65.741 133 66.3467C133 66.9523 133.483 67.4433 134.079 67.4433Z" fill="#FFF5EE"/>
<path d="M104.358 39.4668C104.951 39.4668 105.431 38.9784 105.431 38.376C105.431 37.7735 104.951 37.2852 104.358 37.2852C103.766 37.2852 103.285 37.7735 103.285 38.376C103.285 38.9784 103.766 39.4668 104.358 39.4668Z" fill="#FFF5EE"/>
<path d="M120.798 48V43.1H122.912C123.458 43.1 123.88 43.2097 124.179 43.429C124.482 43.6483 124.634 43.9587 124.634 44.36C124.634 44.626 124.571 44.85 124.445 45.032C124.324 45.214 124.156 45.3517 123.941 45.445C123.731 45.5383 123.5 45.585 123.248 45.585L123.367 45.417C123.68 45.417 123.948 45.466 124.172 45.564C124.401 45.6573 124.578 45.7997 124.704 45.991C124.83 46.1777 124.893 46.411 124.893 46.691C124.893 47.1063 124.739 47.4283 124.431 47.657C124.128 47.8857 123.668 48 123.052 48H120.798ZM121.316 47.573H123.045C123.474 47.573 123.803 47.5007 124.032 47.356C124.261 47.2067 124.375 46.971 124.375 46.649C124.375 46.3317 124.261 46.1007 124.032 45.956C123.803 45.8067 123.474 45.732 123.045 45.732H121.26V45.305H122.877C123.269 45.305 123.572 45.2303 123.787 45.081C124.006 44.9317 124.116 44.71 124.116 44.416C124.116 44.1173 124.006 43.8957 123.787 43.751C123.572 43.6017 123.269 43.527 122.877 43.527H121.316V47.573ZM128.273 48V47.188L128.252 47.055V45.697C128.252 45.3843 128.164 45.144 127.986 44.976C127.814 44.808 127.555 44.724 127.209 44.724C126.971 44.724 126.745 44.7637 126.53 44.843C126.316 44.9223 126.134 45.0273 125.984 45.158L125.76 44.787C125.947 44.6283 126.171 44.507 126.432 44.423C126.694 44.3343 126.969 44.29 127.258 44.29C127.734 44.29 128.101 44.409 128.357 44.647C128.619 44.8803 128.749 45.2373 128.749 45.718V48H128.273ZM127.006 48.035C126.731 48.035 126.491 47.9907 126.285 47.902C126.085 47.8087 125.931 47.6827 125.823 47.524C125.716 47.3607 125.662 47.174 125.662 46.964C125.662 46.7727 125.707 46.6 125.795 46.446C125.889 46.2873 126.038 46.1613 126.243 46.068C126.453 45.97 126.733 45.921 127.083 45.921H128.35V46.292H127.097C126.743 46.292 126.495 46.355 126.355 46.481C126.22 46.607 126.152 46.7633 126.152 46.95C126.152 47.16 126.234 47.328 126.397 47.454C126.561 47.58 126.789 47.643 127.083 47.643C127.363 47.643 127.604 47.58 127.804 47.454C128.01 47.3233 128.159 47.1367 128.252 46.894L128.364 47.237C128.271 47.4797 128.108 47.6733 127.874 47.818C127.646 47.9627 127.356 48.035 127.006 48.035ZM130.059 49.393C129.886 49.393 129.721 49.365 129.562 49.309C129.408 49.253 129.275 49.169 129.163 49.057L129.394 48.686C129.487 48.7747 129.588 48.8423 129.695 48.889C129.807 48.9403 129.931 48.966 130.066 48.966C130.229 48.966 130.369 48.9193 130.486 48.826C130.607 48.7373 130.722 48.5787 130.829 48.35L131.067 47.811L131.123 47.734L132.635 44.325H133.125L131.284 48.441C131.181 48.679 131.067 48.868 130.941 49.008C130.82 49.148 130.687 49.246 130.542 49.302C130.397 49.3627 130.236 49.393 130.059 49.393ZM131.039 48.105L129.345 44.325H129.863L131.361 47.699L131.039 48.105ZM134.771 48.035C134.467 48.035 134.18 47.993 133.91 47.909C133.639 47.8203 133.427 47.7107 133.273 47.58L133.497 47.188C133.646 47.3 133.837 47.398 134.071 47.482C134.304 47.5613 134.549 47.601 134.806 47.601C135.156 47.601 135.408 47.5473 135.562 47.44C135.716 47.328 135.793 47.181 135.793 46.999C135.793 46.8637 135.748 46.7587 135.66 46.684C135.576 46.6047 135.464 46.5463 135.324 46.509C135.184 46.467 135.027 46.432 134.855 46.404C134.682 46.376 134.509 46.3433 134.337 46.306C134.169 46.2687 134.015 46.215 133.875 46.145C133.735 46.0703 133.62 45.97 133.532 45.844C133.448 45.718 133.406 45.55 133.406 45.34C133.406 45.1393 133.462 44.9597 133.574 44.801C133.686 44.6423 133.849 44.5187 134.064 44.43C134.283 44.3367 134.549 44.29 134.862 44.29C135.1 44.29 135.338 44.3227 135.576 44.388C135.814 44.4487 136.01 44.5303 136.164 44.633L135.947 45.032C135.783 44.92 135.608 44.8407 135.422 44.794C135.235 44.7427 135.048 44.717 134.862 44.717C134.53 44.717 134.285 44.7753 134.127 44.892C133.973 45.004 133.896 45.1487 133.896 45.326C133.896 45.466 133.938 45.5757 134.022 45.655C134.11 45.7343 134.225 45.7973 134.365 45.844C134.509 45.886 134.666 45.921 134.834 45.949C135.006 45.977 135.177 46.012 135.345 46.054C135.517 46.0913 135.674 46.145 135.814 46.215C135.958 46.2803 136.073 46.376 136.157 46.502C136.245 46.6233 136.29 46.7843 136.29 46.985C136.29 47.1997 136.229 47.3863 136.108 47.545C135.991 47.699 135.818 47.8203 135.59 47.909C135.366 47.993 135.093 48.035 134.771 48.035ZM139.505 48V47.188L139.484 47.055V45.697C139.484 45.3843 139.395 45.144 139.218 44.976C139.045 44.808 138.786 44.724 138.441 44.724C138.203 44.724 137.976 44.7637 137.762 44.843C137.547 44.9223 137.365 45.0273 137.216 45.158L136.992 44.787C137.178 44.6283 137.402 44.507 137.664 44.423C137.925 44.3343 138.2 44.29 138.49 44.29C138.966 44.29 139.332 44.409 139.589 44.647C139.85 44.8803 139.981 45.2373 139.981 45.718V48H139.505ZM138.238 48.035C137.962 48.035 137.722 47.9907 137.517 47.902C137.316 47.8087 137.162 47.6827 137.055 47.524C136.947 47.3607 136.894 47.174 136.894 46.964C136.894 46.7727 136.938 46.6 137.027 46.446C137.12 46.2873 137.269 46.1613 137.475 46.068C137.685 45.97 137.965 45.921 138.315 45.921H139.582V46.292H138.329C137.974 46.292 137.727 46.355 137.587 46.481C137.451 46.607 137.384 46.7633 137.384 46.95C137.384 47.16 137.465 47.328 137.629 47.454C137.792 47.58 138.021 47.643 138.315 47.643C138.595 47.643 138.835 47.58 139.036 47.454C139.241 47.3233 139.39 47.1367 139.484 46.894L139.596 47.237C139.502 47.4797 139.339 47.6733 139.106 47.818C138.877 47.9627 138.588 48.035 138.238 48.035ZM143.207 44.29C143.505 44.29 143.767 44.3483 143.991 44.465C144.219 44.577 144.397 44.7497 144.523 44.983C144.653 45.2163 144.719 45.5103 144.719 45.865V48H144.222V45.914C144.222 45.5267 144.124 45.235 143.928 45.039C143.736 44.8383 143.466 44.738 143.116 44.738C142.854 44.738 142.626 44.7917 142.43 44.899C142.238 45.0017 142.089 45.1533 141.982 45.354C141.879 45.55 141.828 45.788 141.828 46.068V48H141.331V44.325H141.807V45.333L141.73 45.144C141.846 44.878 142.033 44.6703 142.29 44.521C142.546 44.367 142.852 44.29 143.207 44.29Z" fill="white"/>
</g>
<path d="M94.348 87.548L94.3 87.228L95.82 86.956V76.86L94.3 76.588L94.348 76.252C95.052 76.284 95.9907 76.3 97.164 76.3H99.132C100.455 76.3 101.447 76.556 102.108 77.068C102.769 77.5693 103.1 78.2627 103.1 79.148C103.1 79.756 102.897 80.3 102.492 80.78C102.087 81.2493 101.516 81.5533 100.78 81.692L100.924 81.58C101.532 81.6653 102.06 81.8467 102.508 82.124C102.956 82.4013 103.297 82.748 103.532 83.164C103.777 83.58 103.9 84.0333 103.9 84.524C103.9 85.4413 103.543 86.1667 102.828 86.7C102.124 87.2333 101.041 87.5 99.58 87.5H96.412C95.74 87.5 95.052 87.516 94.348 87.548ZM99.436 86.988C100.46 86.988 101.223 86.7587 101.724 86.3C102.236 85.8307 102.492 85.228 102.492 84.492C102.492 83.756 102.231 83.1587 101.708 82.7C101.196 82.2307 100.417 81.996 99.372 81.996H96.764V81.468H99.036C99.8787 81.468 100.535 81.26 101.004 80.844C101.484 80.428 101.724 79.868 101.724 79.164C101.724 78.46 101.484 77.8947 101.004 77.468C100.524 77.0307 99.868 76.812 99.036 76.812H98.604L97.164 76.908V86.988H99.436ZM106.701 87.372C107.245 86.3907 107.843 85.26 108.493 83.98C109.155 82.6893 109.656 81.6707 109.997 80.924L112.109 76.3H113.261L118.109 86.924C118.6 87.0307 119.101 87.1267 119.613 87.212L119.581 87.548C118.941 87.516 118.221 87.5 117.421 87.5C116.685 87.5 115.939 87.516 115.181 87.548L115.133 87.212L116.637 86.94L113.389 79.82L112.301 77.18L110.365 81.612C109.971 82.5187 109.565 83.5107 109.149 84.588C108.744 85.6547 108.397 86.6413 108.109 87.548L106.813 87.66L106.701 87.372ZM109.053 84.076V83.596L111.133 83.5H115.693V84.012L113.885 84.076H109.053ZM123.584 87.228C124.15 87.1427 124.672 87.052 125.152 86.956V83.212L120.832 76.844C120.395 76.7587 119.91 76.6733 119.376 76.588L119.424 76.252C119.979 76.284 120.672 76.3 121.504 76.3C122.4 76.3 123.168 76.284 123.808 76.252L123.856 76.62L122.432 76.828L125.6 81.5L126.288 82.556L127.856 80.204C128.432 79.34 128.875 78.6467 129.184 78.124C129.494 77.5907 129.803 76.9667 130.112 76.252L131.296 76.14L131.408 76.46C130.779 77.196 130.224 77.884 129.744 78.524C129.275 79.164 128.694 79.996 128 81.02L126.544 83.164V86.892L128.112 87.212L128.064 87.548C127.574 87.516 126.843 87.5 125.872 87.5C125.008 87.5 124.262 87.516 123.632 87.548L123.584 87.228ZM137.535 87.74C137.012 87.74 136.463 87.6867 135.887 87.58C135.311 87.484 134.756 87.3453 134.223 87.164L134.143 87.084L133.823 85.708L134.031 85.644C134.447 86.092 134.975 86.4707 135.615 86.78C136.266 87.0787 136.916 87.228 137.567 87.228C138.303 87.228 138.863 87.052 139.247 86.7C139.642 86.3373 139.839 85.8573 139.839 85.26C139.839 84.8653 139.727 84.4973 139.503 84.156C139.279 83.8147 139.007 83.5107 138.687 83.244C138.367 82.9667 137.919 82.6147 137.343 82.188C136.724 81.74 136.223 81.356 135.839 81.036C135.466 80.716 135.146 80.3427 134.879 79.916C134.623 79.4893 134.495 79.02 134.495 78.508C134.495 78.0493 134.618 77.6387 134.863 77.276C135.119 76.9027 135.498 76.6093 135.999 76.396C136.5 76.172 137.114 76.06 137.839 76.06C138.319 76.06 138.788 76.1027 139.247 76.188C139.706 76.2733 140.154 76.3853 140.591 76.524L140.655 76.572L140.959 77.9L140.767 77.964C140.34 77.484 139.876 77.132 139.375 76.908C138.884 76.684 138.356 76.572 137.791 76.572C137.204 76.572 136.735 76.7267 136.383 77.036C136.031 77.3453 135.855 77.7613 135.855 78.284C135.855 78.6573 135.962 79.004 136.175 79.324C136.388 79.644 136.65 79.9373 136.959 80.204C137.279 80.46 137.711 80.78 138.255 81.164C138.884 81.612 139.396 82.0067 139.791 82.348C140.186 82.6893 140.516 83.0893 140.783 83.548C141.06 83.996 141.199 84.4973 141.199 85.052C141.199 85.8733 140.879 86.5293 140.239 87.02C139.599 87.5 138.698 87.74 137.535 87.74ZM144.084 87.372C144.628 86.3907 145.225 85.26 145.876 83.98C146.537 82.6893 147.038 81.6707 147.38 80.924L149.492 76.3H150.644L155.492 86.924C155.982 87.0307 156.484 87.1267 156.996 87.212L156.964 87.548C156.324 87.516 155.604 87.5 154.804 87.5C154.068 87.5 153.321 87.516 152.564 87.548L152.516 87.212L154.02 86.94L150.772 79.82L149.684 77.18L147.748 81.612C147.353 82.5187 146.948 83.5107 146.532 84.588C146.126 85.6547 145.78 86.6413 145.492 87.548L144.196 87.66L144.084 87.372ZM146.436 84.076V83.596L148.516 83.5H153.076V84.012L151.268 84.076H146.436ZM169.288 87.5L162.168 78.556L161.208 77.26C161.155 77.1853 161.101 77.148 161.048 77.148C160.984 77.148 160.952 77.2067 160.952 77.324V80.38C160.952 82.5667 161.101 84.908 161.4 87.404L161.368 87.5C161.091 87.4893 160.872 87.484 160.712 87.484C160.477 87.484 160.259 87.4893 160.056 87.5L160.024 87.404C160.301 85.3773 160.44 83.036 160.44 80.38V76.844C159.971 76.7587 159.464 76.668 158.92 76.572L158.968 76.252C159.533 76.284 160.12 76.3 160.728 76.3C161.272 76.3 161.715 76.284 162.056 76.252L168.408 84.236L169.544 85.74C169.608 85.8147 169.656 85.852 169.688 85.852C169.752 85.852 169.784 85.7933 169.784 85.676V83.356C169.784 81.212 169.635 78.8813 169.336 76.364L169.384 76.284C169.619 76.2947 169.843 76.3 170.056 76.3C170.28 76.3 170.488 76.2947 170.68 76.284L170.728 76.364C170.44 78.3587 170.296 80.6893 170.296 83.356V87.5H169.288Z" fill="#FFF5EE"/>
<path d="M11.5161 108.596C10.6735 108.596 9.89479 108.457 9.18013 108.18C8.46546 107.892 7.84679 107.492 7.32413 106.98C6.80146 106.468 6.39079 105.865 6.09213 105.172C5.80413 104.479 5.66013 103.721 5.66013 102.9C5.66013 102.079 5.80413 101.321 6.09213 100.628C6.39079 99.9347 6.80146 99.332 7.32413 98.82C7.85746 98.308 8.48146 97.9133 9.19613 97.636C9.91079 97.348 10.6895 97.204 11.5321 97.204C12.3428 97.204 13.1055 97.3427 13.8201 97.62C14.5348 97.8867 15.1375 98.292 15.6281 98.836L14.8761 99.588C14.4175 99.1187 13.9108 98.7827 13.3561 98.58C12.8015 98.3667 12.2041 98.26 11.5641 98.26C10.8921 98.26 10.2681 98.3773 9.69213 98.612C9.11613 98.836 8.61479 99.1613 8.18813 99.588C7.76146 100.004 7.42546 100.495 7.18012 101.06C6.94546 101.615 6.82812 102.228 6.82812 102.9C6.82812 103.572 6.94546 104.191 7.18012 104.756C7.42546 105.311 7.76146 105.801 8.18813 106.228C8.61479 106.644 9.11613 106.969 9.69213 107.204C10.2681 107.428 10.8921 107.54 11.5641 107.54C12.2041 107.54 12.8015 107.433 13.3561 107.22C13.9108 107.007 14.4175 106.665 14.8761 106.196L15.6281 106.948C15.1375 107.492 14.5348 107.903 13.8201 108.18C13.1055 108.457 12.3375 108.596 11.5161 108.596ZM21.1691 108.58C20.2945 108.58 19.5265 108.399 18.8651 108.036C18.2038 107.663 17.6865 107.156 17.3131 106.516C16.9398 105.865 16.7531 105.124 16.7531 104.292C16.7531 103.46 16.9291 102.724 17.2811 102.084C17.6438 101.444 18.1345 100.943 18.7531 100.58C19.3825 100.207 20.0865 100.02 20.8651 100.02C21.6545 100.02 22.3531 100.201 22.9611 100.564C23.5798 100.916 24.0651 101.417 24.4171 102.068C24.7691 102.708 24.9451 103.449 24.9451 104.292C24.9451 104.345 24.9398 104.404 24.9291 104.468C24.9291 104.521 24.9291 104.58 24.9291 104.644H17.6171V103.796H24.3211L23.8731 104.132C23.8731 103.524 23.7398 102.985 23.4731 102.516C23.2171 102.036 22.8651 101.663 22.4171 101.396C21.9691 101.129 21.4518 100.996 20.8651 100.996C20.2891 100.996 19.7718 101.129 19.3131 101.396C18.8545 101.663 18.4971 102.036 18.2411 102.516C17.9851 102.996 17.8571 103.545 17.8571 104.164V104.34C17.8571 104.98 17.9958 105.545 18.2731 106.036C18.5611 106.516 18.9558 106.895 19.4571 107.172C19.9691 107.439 20.5505 107.572 21.2011 107.572C21.7131 107.572 22.1878 107.481 22.6251 107.3C23.0731 107.119 23.4571 106.841 23.7771 106.468L24.4171 107.204C24.0438 107.652 23.5745 107.993 23.0091 108.228C22.4545 108.463 21.8411 108.58 21.1691 108.58ZM31.7958 108.58C31.0704 108.58 30.4144 108.415 29.8278 108.084C29.2411 107.743 28.7718 107.257 28.4198 106.628C28.0784 105.988 27.9078 105.209 27.9078 104.292C27.9078 103.375 28.0784 102.601 28.4198 101.972C28.7611 101.332 29.2251 100.847 29.8118 100.516C30.3984 100.185 31.0598 100.02 31.7958 100.02C32.5958 100.02 33.3104 100.201 33.9398 100.564C34.5798 100.916 35.0811 101.417 35.4438 102.068C35.8064 102.708 35.9878 103.449 35.9878 104.292C35.9878 105.145 35.8064 105.892 35.4438 106.532C35.0811 107.172 34.5798 107.673 33.9398 108.036C33.3104 108.399 32.5958 108.58 31.7958 108.58ZM27.4598 111.604V100.1H28.5478V102.628L28.4358 104.308L28.5958 106.004V111.604H27.4598ZM31.7158 107.572C32.3131 107.572 32.8464 107.439 33.3158 107.172C33.7851 106.895 34.1584 106.511 34.4358 106.02C34.7131 105.519 34.8518 104.943 34.8518 104.292C34.8518 103.641 34.7131 103.071 34.4358 102.58C34.1584 102.089 33.7851 101.705 33.3158 101.428C32.8464 101.151 32.3131 101.012 31.7158 101.012C31.1184 101.012 30.5798 101.151 30.0998 101.428C29.6304 101.705 29.2571 102.089 28.9798 102.58C28.7131 103.071 28.5798 103.641 28.5798 104.292C28.5798 104.943 28.7131 105.519 28.9798 106.02C29.2571 106.511 29.6304 106.895 30.0998 107.172C30.5798 107.439 31.1184 107.572 31.7158 107.572ZM38.4285 108.5V100.1H42.1405C43.0898 100.1 43.8365 100.281 44.3805 100.644C44.9352 101.007 45.2125 101.54 45.2125 102.244C45.2125 102.927 44.9512 103.455 44.4285 103.828C43.9058 104.191 43.2178 104.372 42.3645 104.372L42.5885 104.036C43.5912 104.036 44.3272 104.223 44.7965 104.596C45.2658 104.969 45.5005 105.508 45.5005 106.212C45.5005 106.937 45.2338 107.503 44.7005 107.908C44.1778 108.303 43.3618 108.5 42.2525 108.5H38.4285ZM39.5325 107.604H42.2045C42.9192 107.604 43.4578 107.492 43.8205 107.268C44.1938 107.033 44.3805 106.66 44.3805 106.148C44.3805 105.636 44.2152 105.263 43.8845 105.028C43.5538 104.793 43.0312 104.676 42.3165 104.676H39.5325V107.604ZM39.5325 103.828H42.0605C42.7112 103.828 43.2072 103.705 43.5485 103.46C43.9005 103.215 44.0765 102.857 44.0765 102.388C44.0765 101.919 43.9005 101.567 43.5485 101.332C43.2072 101.097 42.7112 100.98 42.0605 100.98H39.5325V103.828ZM48.1629 108.5V100.1H49.2989V106.772L54.9149 100.1H55.9229V108.5H54.7869V101.812L49.1869 108.5H48.1629ZM62.6985 108.58C61.8665 108.58 61.1198 108.399 60.4585 108.036C59.8078 107.663 59.2958 107.156 58.9225 106.516C58.5492 105.865 58.3625 105.124 58.3625 104.292C58.3625 103.449 58.5492 102.708 58.9225 102.068C59.2958 101.428 59.8078 100.927 60.4585 100.564C61.1198 100.201 61.8665 100.02 62.6985 100.02C63.4132 100.02 64.0585 100.159 64.6345 100.436C65.2105 100.713 65.6638 101.129 65.9945 101.684L65.1465 102.26C64.8585 101.833 64.5012 101.519 64.0745 101.316C63.6478 101.113 63.1838 101.012 62.6825 101.012C62.0852 101.012 61.5465 101.151 61.0665 101.428C60.5865 101.695 60.2078 102.073 59.9305 102.564C59.6532 103.055 59.5145 103.631 59.5145 104.292C59.5145 104.953 59.6532 105.529 59.9305 106.02C60.2078 106.511 60.5865 106.895 61.0665 107.172C61.5465 107.439 62.0852 107.572 62.6825 107.572C63.1838 107.572 63.6478 107.471 64.0745 107.268C64.5012 107.065 64.8585 106.756 65.1465 106.34L65.9945 106.916C65.6638 107.46 65.2105 107.876 64.6345 108.164C64.0585 108.441 63.4132 108.58 62.6985 108.58ZM75.8376 108.58C75.027 108.58 74.2963 108.399 73.6456 108.036C73.0056 107.663 72.499 107.156 72.1256 106.516C71.7523 105.865 71.5656 105.124 71.5656 104.292C71.5656 103.449 71.7523 102.708 72.1256 102.068C72.499 101.428 73.0056 100.927 73.6456 100.564C74.2856 100.201 75.0163 100.02 75.8376 100.02C76.6696 100.02 77.4056 100.201 78.0456 100.564C78.6963 100.927 79.203 101.428 79.5656 102.068C79.939 102.708 80.1256 103.449 80.1256 104.292C80.1256 105.124 79.939 105.865 79.5656 106.516C79.203 107.156 78.6963 107.663 78.0456 108.036C77.395 108.399 76.659 108.58 75.8376 108.58ZM75.8376 107.572C76.4456 107.572 76.9843 107.439 77.4536 107.172C77.923 106.895 78.291 106.511 78.5576 106.02C78.835 105.519 78.9736 104.943 78.9736 104.292C78.9736 103.631 78.835 103.055 78.5576 102.564C78.291 102.073 77.923 101.695 77.4536 101.428C76.9843 101.151 76.451 101.012 75.8536 101.012C75.2563 101.012 74.723 101.151 74.2536 101.428C73.7843 101.695 73.411 102.073 73.1336 102.564C72.8563 103.055 72.7176 103.631 72.7176 104.292C72.7176 104.943 72.8563 105.519 73.1336 106.02C73.411 106.511 73.7843 106.895 74.2536 107.172C74.723 107.439 75.251 107.572 75.8376 107.572ZM86.3295 108.596C85.6468 108.596 85.0388 108.484 84.5055 108.26C83.9828 108.036 83.5348 107.695 83.1615 107.236C82.7882 106.777 82.5055 106.212 82.3135 105.54C82.1215 104.857 82.0255 104.068 82.0255 103.172C82.0255 102.372 82.1002 101.673 82.2495 101.076C82.3988 100.468 82.6068 99.9453 82.8735 99.508C83.1402 99.0707 83.4495 98.7027 83.8015 98.404C84.1642 98.0947 84.5535 97.8493 84.9695 97.668C85.3962 97.476 85.8335 97.332 86.2815 97.236L90.0575 96.356L90.2495 97.412L86.6975 98.212C86.4735 98.2653 86.2015 98.34 85.8815 98.436C85.5722 98.532 85.2522 98.676 84.9215 98.868C84.6015 99.06 84.3028 99.3267 84.0255 99.668C83.7482 100.009 83.5242 100.452 83.3535 100.996C83.1935 101.529 83.1135 102.196 83.1135 102.996C83.1135 103.167 83.1188 103.305 83.1295 103.412C83.1402 103.508 83.1508 103.615 83.1615 103.732C83.1828 103.839 83.1988 103.999 83.2095 104.212L82.7135 103.796C82.8308 103.145 83.0708 102.58 83.4335 102.1C83.7962 101.609 84.2495 101.231 84.7935 100.964C85.3482 100.687 85.9615 100.548 86.6335 100.548C87.4122 100.548 88.1055 100.719 88.7135 101.06C89.3215 101.391 89.7962 101.855 90.1375 102.452C90.4895 103.049 90.6655 103.743 90.6655 104.532C90.6655 105.311 90.4842 106.009 90.1215 106.628C89.7695 107.247 89.2682 107.732 88.6175 108.084C87.9668 108.425 87.2042 108.596 86.3295 108.596ZM86.4575 107.652C87.0548 107.652 87.5828 107.519 88.0415 107.252C88.5002 106.975 88.8575 106.601 89.1135 106.132C89.3802 105.663 89.5135 105.135 89.5135 104.548C89.5135 103.972 89.3802 103.46 89.1135 103.012C88.8575 102.564 88.5002 102.212 88.0415 101.956C87.5828 101.689 87.0495 101.556 86.4415 101.556C85.8442 101.556 85.3162 101.684 84.8575 101.94C84.3988 102.185 84.0362 102.532 83.7695 102.98C83.5135 103.428 83.3855 103.945 83.3855 104.532C83.3855 105.119 83.5135 105.647 83.7695 106.116C84.0362 106.585 84.3988 106.959 84.8575 107.236C85.3268 107.513 85.8602 107.652 86.4575 107.652ZM97.4364 108.58C96.711 108.58 96.055 108.415 95.4684 108.084C94.8817 107.743 94.4124 107.257 94.0604 106.628C93.719 105.988 93.5484 105.209 93.5484 104.292C93.5484 103.375 93.719 102.601 94.0604 101.972C94.4017 101.332 94.8657 100.847 95.4524 100.516C96.039 100.185 96.7004 100.02 97.4364 100.02C98.2364 100.02 98.951 100.201 99.5804 100.564C100.22 100.916 100.722 101.417 101.084 102.068C101.447 102.708 101.628 103.449 101.628 104.292C101.628 105.145 101.447 105.892 101.084 106.532C100.722 107.172 100.22 107.673 99.5804 108.036C98.951 108.399 98.2364 108.58 97.4364 108.58ZM93.1004 111.604V100.1H94.1884V102.628L94.0764 104.308L94.2364 106.004V111.604H93.1004ZM97.3564 107.572C97.9537 107.572 98.487 107.439 98.9564 107.172C99.4257 106.895 99.799 106.511 100.076 106.02C100.354 105.519 100.492 104.943 100.492 104.292C100.492 103.641 100.354 103.071 100.076 102.58C99.799 102.089 99.4257 101.705 98.9564 101.428C98.487 101.151 97.9537 101.012 97.3564 101.012C96.759 101.012 96.2204 101.151 95.7404 101.428C95.271 101.705 94.8977 102.089 94.6204 102.58C94.3537 103.071 94.2204 103.641 94.2204 104.292C94.2204 104.943 94.3537 105.519 94.6204 106.02C94.8977 106.511 95.271 106.895 95.7404 107.172C96.2204 107.439 96.759 107.572 97.3564 107.572ZM109.238 108.5V106.644L109.19 106.34V103.236C109.19 102.521 108.988 101.972 108.582 101.588C108.188 101.204 107.596 101.012 106.806 101.012C106.262 101.012 105.745 101.103 105.254 101.284C104.764 101.465 104.348 101.705 104.006 102.004L103.494 101.156C103.921 100.793 104.433 100.516 105.03 100.324C105.628 100.121 106.257 100.02 106.918 100.02C108.006 100.02 108.844 100.292 109.43 100.836C110.028 101.369 110.326 102.185 110.326 103.284V108.5H109.238ZM106.342 108.58C105.713 108.58 105.164 108.479 104.694 108.276C104.236 108.063 103.884 107.775 103.638 107.412C103.393 107.039 103.27 106.612 103.27 106.132C103.27 105.695 103.372 105.3 103.574 104.948C103.788 104.585 104.129 104.297 104.598 104.084C105.078 103.86 105.718 103.748 106.518 103.748H109.414V104.596H106.55C105.74 104.596 105.174 104.74 104.854 105.028C104.545 105.316 104.39 105.673 104.39 106.1C104.39 106.58 104.577 106.964 104.95 107.252C105.324 107.54 105.846 107.684 106.518 107.684C107.158 107.684 107.708 107.54 108.166 107.252C108.636 106.953 108.977 106.527 109.19 105.972L109.446 106.756C109.233 107.311 108.86 107.753 108.326 108.084C107.804 108.415 107.142 108.58 106.342 108.58ZM115.435 108.596C114.827 108.596 114.224 108.511 113.627 108.34C113.029 108.169 112.501 107.908 112.043 107.556L112.411 106.708C112.816 107.007 113.285 107.236 113.819 107.396C114.352 107.545 114.88 107.62 115.403 107.62C115.925 107.609 116.379 107.535 116.763 107.396C117.147 107.257 117.445 107.065 117.659 106.82C117.872 106.575 117.979 106.297 117.979 105.988C117.979 105.54 117.776 105.193 117.371 104.948C116.965 104.692 116.411 104.564 115.707 104.564H114.267V103.732H115.627C116.043 103.732 116.411 103.679 116.731 103.572C117.051 103.465 117.296 103.311 117.467 103.108C117.648 102.905 117.739 102.665 117.739 102.388C117.739 102.089 117.632 101.833 117.419 101.62C117.216 101.407 116.933 101.247 116.571 101.14C116.208 101.033 115.797 100.98 115.339 100.98C114.923 100.991 114.491 101.055 114.043 101.172C113.595 101.279 113.152 101.444 112.715 101.668L112.395 100.788C112.885 100.532 113.371 100.34 113.851 100.212C114.341 100.073 114.832 100.004 115.323 100.004C115.995 99.9827 116.597 100.063 117.131 100.244C117.675 100.425 118.107 100.687 118.427 101.028C118.747 101.359 118.907 101.759 118.907 102.228C118.907 102.644 118.779 103.007 118.523 103.316C118.267 103.625 117.925 103.865 117.499 104.036C117.072 104.207 116.587 104.292 116.043 104.292L116.091 103.988C117.051 103.988 117.797 104.175 118.331 104.548C118.875 104.921 119.147 105.428 119.147 106.068C119.147 106.569 118.981 107.012 118.651 107.396C118.32 107.769 117.872 108.063 117.307 108.276C116.752 108.489 116.128 108.596 115.435 108.596ZM125.181 108.58C124.371 108.58 123.64 108.399 122.989 108.036C122.349 107.663 121.843 107.156 121.469 106.516C121.096 105.865 120.909 105.124 120.909 104.292C120.909 103.449 121.096 102.708 121.469 102.068C121.843 101.428 122.349 100.927 122.989 100.564C123.629 100.201 124.36 100.02 125.181 100.02C126.013 100.02 126.749 100.201 127.389 100.564C128.04 100.927 128.547 101.428 128.909 102.068C129.283 102.708 129.469 103.449 129.469 104.292C129.469 105.124 129.283 105.865 128.909 106.516C128.547 107.156 128.04 107.663 127.389 108.036C126.739 108.399 126.003 108.58 125.181 108.58ZM125.181 107.572C125.789 107.572 126.328 107.439 126.797 107.172C127.267 106.895 127.635 106.511 127.901 106.02C128.179 105.519 128.317 104.943 128.317 104.292C128.317 103.631 128.179 103.055 127.901 102.564C127.635 102.073 127.267 101.695 126.797 101.428C126.328 101.151 125.795 101.012 125.197 101.012C124.6 101.012 124.067 101.151 123.597 101.428C123.128 101.695 122.755 102.073 122.477 102.564C122.2 103.055 122.061 103.631 122.061 104.292C122.061 104.943 122.2 105.519 122.477 106.02C122.755 106.511 123.128 106.895 123.597 107.172C124.067 107.439 124.595 107.572 125.181 107.572ZM131.897 108.5V100.1H135.609C136.559 100.1 137.305 100.281 137.849 100.644C138.404 101.007 138.681 101.54 138.681 102.244C138.681 102.927 138.42 103.455 137.897 103.828C137.375 104.191 136.687 104.372 135.833 104.372L136.057 104.036C137.06 104.036 137.796 104.223 138.265 104.596C138.735 104.969 138.969 105.508 138.969 106.212C138.969 106.937 138.703 107.503 138.169 107.908C137.647 108.303 136.831 108.5 135.721 108.5H131.897ZM133.001 107.604H135.673C136.388 107.604 136.927 107.492 137.289 107.268C137.663 107.033 137.849 106.66 137.849 106.148C137.849 105.636 137.684 105.263 137.353 105.028C137.023 104.793 136.5 104.676 135.785 104.676H133.001V107.604ZM133.001 103.828H135.529C136.18 103.828 136.676 103.705 137.017 103.46C137.369 103.215 137.545 102.857 137.545 102.388C137.545 101.919 137.369 101.567 137.017 101.332C136.676 101.097 136.18 100.98 135.529 100.98H133.001V103.828ZM146.848 108.5V106.644L146.8 106.34V103.236C146.8 102.521 146.597 101.972 146.192 101.588C145.797 101.204 145.205 101.012 144.416 101.012C143.872 101.012 143.354 101.103 142.864 101.284C142.373 101.465 141.957 101.705 141.616 102.004L141.104 101.156C141.53 100.793 142.042 100.516 142.64 100.324C143.237 100.121 143.866 100.02 144.528 100.02C145.616 100.02 146.453 100.292 147.04 100.836C147.637 101.369 147.936 102.185 147.936 103.284V108.5H146.848ZM143.952 108.58C143.322 108.58 142.773 108.479 142.304 108.276C141.845 108.063 141.493 107.775 141.248 107.412C141.002 107.039 140.88 106.612 140.88 106.132C140.88 105.695 140.981 105.3 141.184 104.948C141.397 104.585 141.738 104.297 142.208 104.084C142.688 103.86 143.328 103.748 144.128 103.748H147.024V104.596H144.16C143.349 104.596 142.784 104.74 142.464 105.028C142.154 105.316 142 105.673 142 106.1C142 106.58 142.186 106.964 142.56 107.252C142.933 107.54 143.456 107.684 144.128 107.684C144.768 107.684 145.317 107.54 145.776 107.252C146.245 106.953 146.586 106.527 146.8 105.972L147.056 106.756C146.842 107.311 146.469 107.753 145.936 108.084C145.413 108.415 144.752 108.58 143.952 108.58ZM152.56 108.5V100.788L152.848 101.092H149.376V100.1H156.88V101.092H153.408L153.696 100.788V108.5H152.56ZM161.732 108.58C160.857 108.58 160.089 108.399 159.428 108.036C158.766 107.663 158.249 107.156 157.876 106.516C157.502 105.865 157.316 105.124 157.316 104.292C157.316 103.46 157.492 102.724 157.844 102.084C158.206 101.444 158.697 100.943 159.316 100.58C159.945 100.207 160.649 100.02 161.428 100.02C162.217 100.02 162.916 100.201 163.524 100.564C164.142 100.916 164.628 101.417 164.98 102.068C165.332 102.708 165.508 103.449 165.508 104.292C165.508 104.345 165.502 104.404 165.492 104.468C165.492 104.521 165.492 104.58 165.492 104.644H158.18V103.796H164.884L164.436 104.132C164.436 103.524 164.302 102.985 164.036 102.516C163.78 102.036 163.428 101.663 162.98 101.396C162.532 101.129 162.014 100.996 161.428 100.996C160.852 100.996 160.334 101.129 159.876 101.396C159.417 101.663 159.06 102.036 158.804 102.516C158.548 102.996 158.42 103.545 158.42 104.164V104.34C158.42 104.98 158.558 105.545 158.836 106.036C159.124 106.516 159.518 106.895 160.02 107.172C160.532 107.439 161.113 107.572 161.764 107.572C162.276 107.572 162.75 107.481 163.188 107.3C163.636 107.119 164.02 106.841 164.34 106.468L164.98 107.204C164.606 107.652 164.137 107.993 163.572 108.228C163.017 108.463 162.404 108.58 161.732 108.58ZM166.314 108.484L166.394 107.508C166.469 107.519 166.538 107.535 166.602 107.556C166.677 107.567 166.741 107.572 166.794 107.572C167.136 107.572 167.408 107.444 167.61 107.188C167.824 106.932 167.984 106.591 168.09 106.164C168.197 105.737 168.272 105.257 168.314 104.724C168.357 104.18 168.394 103.636 168.426 103.092L168.57 100.1H174.73V108.5H173.594V100.756L173.882 101.092H169.306L169.578 100.74L169.45 103.172C169.418 103.897 169.36 104.591 169.274 105.252C169.2 105.913 169.077 106.495 168.906 106.996C168.746 107.497 168.522 107.892 168.234 108.18C167.946 108.457 167.578 108.596 167.13 108.596C167.002 108.596 166.869 108.585 166.73 108.564C166.602 108.543 166.464 108.516 166.314 108.484ZM181.576 103.06C182.632 103.071 183.432 103.305 183.976 103.764C184.53 104.223 184.808 104.884 184.808 105.748C184.808 106.644 184.509 107.332 183.912 107.812C183.325 108.292 182.472 108.527 181.352 108.516L177.96 108.5V100.1H179.096V103.028L181.576 103.06ZM181.288 107.652C182.066 107.663 182.653 107.508 183.048 107.188C183.453 106.857 183.656 106.377 183.656 105.748C183.656 105.119 183.458 104.66 183.064 104.372C182.669 104.073 182.077 103.919 181.288 103.908L179.096 103.876V107.62L181.288 107.652ZM186.975 108.5V100.1H188.111V103.812H193.407V100.1H194.543V108.5H193.407V104.788H188.111V108.5H186.975ZM205.964 108.5V100.1H207.1V108.5H205.964ZM201.308 103.06C202.364 103.071 203.17 103.305 203.724 103.764C204.279 104.223 204.556 104.884 204.556 105.748C204.556 106.644 204.258 107.332 203.66 107.812C203.063 108.292 202.21 108.527 201.1 108.516L197.772 108.5V100.1H198.908V103.028L201.308 103.06ZM201.02 107.652C201.81 107.663 202.402 107.508 202.796 107.188C203.202 106.857 203.404 106.377 203.404 105.748C203.404 105.119 203.207 104.66 202.812 104.372C202.418 104.073 201.82 103.919 201.02 103.908L198.908 103.876V107.62L201.02 107.652ZM208.959 108.5L212.511 103.892L212.495 104.452L209.119 100.1H210.399L213.167 103.7L212.687 103.684L215.455 100.1H216.703L213.295 104.5L213.311 103.892L216.895 108.5H215.599L212.671 104.66L213.119 104.724L210.239 108.5H208.959ZM223.088 111.684C222.693 111.684 222.315 111.62 221.952 111.492C221.6 111.364 221.296 111.172 221.04 110.916L221.568 110.068C221.781 110.271 222.011 110.425 222.256 110.532C222.512 110.649 222.795 110.708 223.104 110.708C223.477 110.708 223.797 110.601 224.064 110.388C224.341 110.185 224.603 109.823 224.848 109.3L225.392 108.068L225.52 107.892L228.976 100.1H230.096L225.888 109.508C225.653 110.052 225.392 110.484 225.104 110.804C224.827 111.124 224.523 111.348 224.192 111.476C223.861 111.615 223.493 111.684 223.088 111.684ZM225.328 108.74L221.456 100.1H222.64L226.064 107.812L225.328 108.74ZM235.152 108.58C234.32 108.58 233.573 108.399 232.912 108.036C232.261 107.663 231.749 107.156 231.376 106.516C231.002 105.865 230.816 105.124 230.816 104.292C230.816 103.449 231.002 102.708 231.376 102.068C231.749 101.428 232.261 100.927 232.912 100.564C233.573 100.201 234.32 100.02 235.152 100.02C235.866 100.02 236.512 100.159 237.088 100.436C237.664 100.713 238.117 101.129 238.448 101.684L237.6 102.26C237.312 101.833 236.954 101.519 236.528 101.316C236.101 101.113 235.637 101.012 235.136 101.012C234.538 101.012 234 101.151 233.52 101.428C233.04 101.695 232.661 102.073 232.384 102.564C232.106 103.055 231.968 103.631 231.968 104.292C231.968 104.953 232.106 105.529 232.384 106.02C232.661 106.511 233.04 106.895 233.52 107.172C234 107.439 234.538 107.572 235.136 107.572C235.637 107.572 236.101 107.471 236.528 107.268C236.954 107.065 237.312 106.756 237.6 106.34L238.448 106.916C238.117 107.46 237.664 107.876 237.088 108.164C236.512 108.441 235.866 108.58 235.152 108.58ZM238.814 108.484L238.894 107.508C238.969 107.519 239.038 107.535 239.102 107.556C239.177 107.567 239.241 107.572 239.294 107.572C239.636 107.572 239.908 107.444 240.11 107.188C240.324 106.932 240.484 106.591 240.59 106.164C240.697 105.737 240.772 105.257 240.814 104.724C240.857 104.18 240.894 103.636 240.926 103.092L241.07 100.1H247.23V108.5H246.094V100.756L246.382 101.092H241.806L242.078 100.74L241.95 103.172C241.918 103.897 241.86 104.591 241.774 105.252C241.7 105.913 241.577 106.495 241.406 106.996C241.246 107.497 241.022 107.892 240.734 108.18C240.446 108.457 240.078 108.596 239.63 108.596C239.502 108.596 239.369 108.585 239.23 108.564C239.102 108.543 238.964 108.516 238.814 108.484ZM250.604 111.684C250.209 111.684 249.83 111.62 249.468 111.492C249.116 111.364 248.812 111.172 248.556 110.916L249.084 110.068C249.297 110.271 249.526 110.425 249.772 110.532C250.028 110.649 250.31 110.708 250.62 110.708C250.993 110.708 251.313 110.601 251.58 110.388C251.857 110.185 252.118 109.823 252.364 109.3L252.908 108.068L253.036 107.892L256.492 100.1H257.612L253.404 109.508C253.169 110.052 252.908 110.484 252.62 110.804C252.342 111.124 252.038 111.348 251.708 111.476C251.377 111.615 251.009 111.684 250.604 111.684ZM252.844 108.74L248.972 100.1H250.156L253.58 107.812L252.844 108.74ZM259.382 108.5V100.1H265.334V101.092H260.23L260.518 100.804V108.5H259.382Z" fill="#FFF5EE"/>
<defs>
<clipPath id="clip0_114_996">
<rect width="70" height="70" fill="white" transform="translate(98 0.5)"/>
</clipPath>
</defs>
</svg>
