<svg width="122" height="121" viewBox="0 0 122 121" fill="none" xmlns="http://www.w3.org/2000/svg">
<path d="M58.8304 15.65C59.4821 15.65 60.0104 15.1217 60.0104 14.47C60.0104 13.8183 59.4821 13.29 58.8304 13.29C58.1787 13.29 57.6504 13.8183 57.6504 14.47C57.6504 15.1217 58.1787 15.65 58.8304 15.65Z" fill="#FFF8F3"/>
<path d="M61.6302 108.33C44.3102 117.15 32.1102 111.84 27.9202 92.6297C27.8535 92.2964 27.6635 92.0597 27.3502 91.9197C18.3102 87.8497 11.9302 81.6397 15.0002 70.9997C15.4802 69.3464 16.3935 67.3297 16.9002 65.6897C17.0069 65.363 16.9669 65.0531 16.7802 64.7597C5.5002 47.9997 14.0002 35.0697 31.7202 31.3697C32.0602 31.2764 32.2969 31.0664 32.4302 30.7397C35.7802 22.5997 42.4802 16.0697 51.6402 17.9997C52.6469 18.2064 54.7569 18.8564 57.9702 19.9497C58.2969 20.0564 58.6135 20.0331 58.9202 19.8797C76.5002 10.4997 87.9602 16.7797 92.4102 35.6997C92.4902 36.0264 92.6835 36.2631 92.9902 36.4097C104.96 42.0997 108.07 49.7297 103.41 62.1897C103.29 62.5231 103.314 62.8464 103.48 63.1597C113 79.4997 107.78 91.6097 89.8002 96.5597C87.5902 97.1697 87.7202 97.8597 86.8402 99.6897C81.8202 110.083 73.7202 112.95 62.5402 108.29C62.2269 108.163 61.9235 108.176 61.6302 108.33ZM91.1602 34.7397C87.0102 19.0197 75.7702 10.9397 60.5902 20.4697C60.3235 20.6364 60.2769 20.8531 60.4502 21.1197C60.9302 21.8731 61.6402 22.0664 62.5802 21.6997C75.0002 16.855 84.2002 21.0897 88.4602 33.7497C88.8102 34.7897 89.5502 35.4697 90.6102 35.4597C90.6979 35.4597 90.7843 35.4395 90.8629 35.4007C90.9415 35.3618 91.01 35.3054 91.0633 35.2357C91.1165 35.1661 91.1529 35.0851 91.1697 34.9991C91.1865 34.913 91.1833 34.8243 91.1602 34.7397ZM55.1302 20.0597C45.9002 16.6197 37.2702 20.6997 33.9502 29.9697C33.7969 30.3897 33.9369 30.5464 34.3702 30.4397C42.1902 28.5464 49.5202 25.4631 56.3602 21.1897C56.428 21.1461 56.4842 21.0868 56.5241 21.0167C56.5639 20.9467 56.5863 20.8681 56.5893 20.7876C56.5922 20.707 56.5756 20.627 56.541 20.5542C56.5063 20.4815 56.4546 20.4182 56.3902 20.3697C56.1402 20.1897 55.4902 20.1897 55.1302 20.0597ZM86.2302 33.7797C87.1169 34.0597 87.4035 33.7597 87.0902 32.8797C82.5002 22.2497 74.5002 18.5746 64.1002 22.2497C64.0254 22.2762 63.9593 22.3228 63.9094 22.3844C63.8594 22.4461 63.8275 22.5204 63.8171 22.5991C63.8068 22.6777 63.8184 22.7577 63.8507 22.8302C63.883 22.9027 63.9348 22.9648 64.0002 23.0097C70.8669 27.7297 78.2769 31.3197 86.2302 33.7797ZM32.5202 32.6697L32.3402 33.8797C32.2802 34.2597 32.4402 34.4031 32.8202 34.3097C42.2869 31.9631 51.1835 28.2464 59.5102 23.1597C59.7835 22.9931 59.8935 22.7531 59.8402 22.4397C59.6002 21.1397 57.7202 21.8397 56.9002 22.3197C49.6135 26.5731 41.8269 29.6564 33.5402 31.5697C33.2786 31.6279 33.0409 31.7643 32.8587 31.9607C32.6766 32.1572 32.5585 32.4045 32.5202 32.6697ZM44.0102 97.1997C48.6002 98.9697 53.2402 102.14 57.4202 104.73C57.718 104.913 58.0606 105.01 58.4102 105.01C58.7597 105.01 59.1024 104.913 59.4002 104.73C68.2269 99.2631 77.6969 95.3564 87.8102 93.0097C88.0993 92.9435 88.3643 92.7992 88.5761 92.5928C88.7878 92.3863 88.9381 92.1257 89.0102 91.8397C91.3569 82.8797 95.0869 74.543 100.2 66.8297C100.353 66.6031 100.437 66.3373 100.442 66.0641C100.447 65.791 100.374 65.5221 100.23 65.2897C94.6969 56.1964 90.7469 46.4564 88.3802 36.0697C88.3258 35.8336 88.208 35.6162 88.0391 35.4403C87.8702 35.2643 87.6564 35.1364 87.4202 35.0697C78.9269 32.7631 71.0735 29.1531 63.8602 24.2397C63.3269 23.8731 62.4269 23.7031 61.1602 23.7297C60.8135 23.7364 60.4902 23.8297 60.1902 24.0097C51.4302 29.3031 42.0635 33.1131 32.0902 35.4397C31.7569 35.5197 31.5435 35.7231 31.4502 36.0497C28.9569 44.9497 25.2069 53.2831 20.2002 61.0497C19.9809 61.389 19.861 61.7825 19.8539 62.1855C19.8468 62.5885 19.9529 62.985 20.1602 63.3297C25.5935 72.3497 29.4769 81.9964 31.8102 92.2697C31.8835 92.5897 32.0702 92.8031 32.3702 92.9097C36.3369 94.3097 40.2169 95.7397 44.0102 97.1997ZM17.5002 64.4997C18.0502 63.9997 18.5502 61.1897 18.0102 59.8597C12.7888 46.9997 18.0102 39.3543 30.0102 35.3497C31.0802 34.9197 31.5202 34.1097 31.3702 33.0297C31.3169 32.6631 31.1102 32.5264 30.7502 32.6197C15.6902 36.6997 8.1002 47.7097 16.4302 62.6197C17.0402 63.7197 18.2502 64.3497 18.2202 66.0997C18.2135 66.4397 18.2969 66.7531 18.4702 67.0397C22.8835 74.2464 26.0569 81.9531 27.9902 90.1597C28.2502 91.2497 29.0802 91.9797 30.1102 92.1697C30.5769 92.2497 30.7569 92.0597 30.6502 91.5997C28.4769 81.8797 24.8369 72.7531 19.7302 64.2197C19.5502 63.9264 19.3135 63.8664 19.0202 64.0397L18.1371 65.2967C17.8771 65.45 17.5135 64.8064 17.5002 64.4997ZM90.4202 36.3697C89.7269 36.0297 89.4635 36.2364 89.6302 36.9897C91.7769 46.5764 95.4002 55.5597 100.5 63.9397C100.654 64.1864 100.867 64.2564 101.14 64.1497C102.28 63.7031 102.534 62.9064 101.9 61.7597C97.3135 53.4864 94.0369 45.5697 92.0702 38.0097C91.9035 37.3697 91.3535 36.8231 90.4202 36.3697ZM19.5102 60.3697C24.6302 53.1997 27.4202 45.5597 30.1502 37.2997C30.3702 36.6197 30.1435 36.3997 29.4702 36.6397C18.1235 40.7131 14.5869 48.5964 18.8602 60.2897C19.0202 60.7297 19.2369 60.7564 19.5102 60.3697ZM102.87 60.8697C106.5 50.4997 103.31 42.6597 93.7802 37.7197C93.7103 37.6827 93.6312 37.6667 93.5525 37.6737C93.4737 37.6806 93.3987 37.7101 93.3363 37.7588C93.274 37.8074 93.227 37.873 93.2011 37.9477C93.1752 38.0223 93.1714 38.1029 93.1902 38.1797C95.0769 46.2464 99.0002 53.9997 102.5 60.8897C102.52 60.9223 102.548 60.9489 102.582 60.9666C102.615 60.9844 102.653 60.9927 102.691 60.9907C102.729 60.9886 102.766 60.9763 102.797 60.955C102.829 60.9337 102.854 60.9042 102.87 60.8697ZM101.57 65.6097C102.51 69.2197 104.01 72.8997 104 76.2897C103.99 85.1497 98.2302 89.9897 90.3702 93.0197C89.4802 93.3597 88.8302 94.3097 88.7302 95.1697C88.6702 95.6497 88.8735 95.8231 89.3402 95.6897C104.69 91.3297 112.5 80.2397 103.22 64.9097C103.11 64.7217 102.936 64.5806 102.73 64.5125C102.524 64.4444 102.3 64.4538 102.099 64.539C101.898 64.6242 101.734 64.7795 101.637 64.9763C101.54 65.173 101.516 65.398 101.57 65.6097ZM17.1402 67.9297C12.5002 77.4997 17.8102 86.0197 26.2402 90.5697C26.3288 90.6198 26.4302 90.6428 26.5317 90.6358C26.6333 90.6288 26.7306 90.5921 26.8115 90.5304C26.8924 90.4686 26.9534 90.3845 26.987 90.2884C27.0205 90.1923 27.0251 90.0884 27.0002 89.9897C25.1602 82.1364 22.1335 74.7764 17.9202 67.9097C17.6469 67.4697 17.3869 67.4764 17.1402 67.9297ZM100.39 68.5497C95.6902 75.6364 92.2669 83.2931 90.1202 91.5197C90.1077 91.5742 90.1102 91.6311 90.1273 91.6843C90.1445 91.7376 90.1758 91.7851 90.2178 91.822C90.2598 91.8589 90.3111 91.8838 90.3661 91.8939C90.4211 91.9041 90.4778 91.8992 90.5302 91.8797C99.2302 88.6197 105.13 81.9197 102.49 72.1197C102.28 71.3197 101.91 69.1697 101.07 68.4497C100.81 68.2297 100.584 68.2631 100.39 68.5497ZM57.4402 106.52C44.7502 112.02 34.8102 106.42 31.4902 93.5397C31.2569 92.6397 30.7169 92.3864 29.8702 92.7797C29.1602 93.1097 29.0502 93.7797 29.2802 94.5297C34.2302 110.68 43.9102 116 59.5702 107.96C59.8169 107.833 59.8935 107.636 59.8002 107.37C59.4202 106.283 58.6335 106 57.4402 106.52ZM87.9502 94.6597C87.991 94.5872 88.0098 94.5044 88.0044 94.4214C87.9991 94.3383 87.9697 94.2586 87.92 94.1919C87.8702 94.1253 87.8022 94.0744 87.7241 94.0456C87.6461 94.0168 87.5613 94.0113 87.4802 94.0297C77.8869 96.3364 68.9169 100.103 60.5702 105.33C60.2635 105.53 60.2035 105.786 60.3902 106.1C60.9402 107.04 62.2102 106.86 63.1002 106.34C70.3202 102.013 78.0169 98.8197 86.1902 96.7597C87.6702 96.3797 87.3502 95.6997 87.9502 94.6597ZM56.2802 105.14C48.9902 100.54 41.5502 96.6397 33.1802 94.3197C32.8535 94.2264 32.7402 94.3431 32.8402 94.6697C36.2002 105.6 45.3402 111.03 56.2502 105.68C56.5835 105.513 56.5935 105.333 56.2802 105.14ZM63.7602 107.72C74.8002 112.64 81.5702 107.62 86.5602 98.2497C86.5909 98.1919 86.6043 98.1264 86.5987 98.0611C86.5931 97.9959 86.5687 97.9336 86.5286 97.8819C86.4885 97.8301 86.4342 97.7911 86.3724 97.7694C86.3106 97.7477 86.2439 97.7444 86.1802 97.7597C78.2469 99.813 70.7635 102.936 63.7302 107.13C63.6783 107.163 63.6359 107.209 63.6074 107.263C63.579 107.318 63.5656 107.378 63.5686 107.439C63.5717 107.5 63.5912 107.558 63.6249 107.607C63.6586 107.657 63.7054 107.695 63.7602 107.72Z" fill="#FFF8F3"/>
<path d="M74.44 40.2598H48.36C48.1612 40.2598 48 40.4209 48 40.6198V40.6398C48 40.8386 48.1612 40.9998 48.36 40.9998H74.44C74.6388 40.9998 74.8 40.8386 74.8 40.6398V40.6198C74.8 40.4209 74.6388 40.2598 74.44 40.2598Z" fill="#FFF8F3"/>
<path d="M74.44 90.2598H48.36C48.1612 90.2598 48 90.4209 48 90.6198V90.6398C48 90.8386 48.1612 90.9998 48.36 90.9998H74.44C74.6388 90.9998 74.8 90.8386 74.8 90.6398V90.6198C74.8 90.4209 74.6388 90.2598 74.44 90.2598Z" fill="#FFF8F3"/>
<path d="M74.44 37.5H48.36C48.1612 37.5 48 37.6612 48 37.86V37.88C48 38.0788 48.1612 38.24 48.36 38.24H74.44C74.6388 38.24 74.8 38.0788 74.8 37.88V37.86C74.8 37.6612 74.6388 37.5 74.44 37.5Z" fill="#FFF8F3"/>
<path d="M74.44 87.5H48.36C48.1612 87.5 48 87.6612 48 87.86V87.88C48 88.0788 48.1612 88.24 48.36 88.24H74.44C74.6388 88.24 74.8 88.0788 74.8 87.88V87.86C74.8 87.6612 74.6388 87.5 74.44 87.5Z" fill="#FFF8F3"/>
<path d="M60.25 51.3598V70.0698C60.2514 70.1534 60.2326 70.2361 60.1952 70.3109C60.1578 70.3857 60.1029 70.4504 60.0352 70.4994C59.9675 70.5485 59.889 70.5805 59.8062 70.5928C59.7235 70.605 59.6391 70.5971 59.56 70.5698L49.35 67.0898C49.2481 67.0545 49.1596 66.9884 49.0969 66.9006C49.0342 66.8128 49.0003 66.7077 49 66.5998V48.1698C48.9992 48.0873 49.018 48.0059 49.0548 47.9321C49.0917 47.8584 49.1455 47.7944 49.212 47.7456C49.2784 47.6968 49.3555 47.6644 49.4368 47.6512C49.5182 47.638 49.6016 47.6444 49.68 47.6698L59.89 50.8698C59.9939 50.9033 60.0845 50.9687 60.1491 51.0567C60.2137 51.1446 60.249 51.2506 60.25 51.3598Z" fill="#FFF8F3"/>
<path d="M62.26 50.86L72.57 47.52C72.6257 47.5009 72.6852 47.4954 72.7435 47.5039C72.8017 47.5124 72.8571 47.5347 72.9051 47.5689C72.953 47.6031 72.992 47.6483 73.019 47.7007C73.0459 47.7531 73.06 47.8111 73.06 47.87L72.99 66.73C72.99 66.8071 72.9659 66.8823 72.9211 66.9451C72.8763 67.0078 72.813 67.055 72.74 67.08L62.82 70.48C62.7643 70.4991 62.7048 70.5046 62.6465 70.4961C62.5883 70.4876 62.5329 70.4653 62.4849 70.4311C62.437 70.3969 62.398 70.3517 62.371 70.2993C62.3441 70.2469 62.33 70.1889 62.33 70.13L62 51.21C62.0007 51.1316 62.0262 51.0555 62.073 50.9926C62.1197 50.9297 62.1852 50.8833 62.26 50.86ZM64.26 58.6C64.2599 58.6865 64.2805 58.7717 64.3201 58.8485C64.3598 58.9254 64.4173 58.9916 64.4879 59.0415C64.5584 59.0915 64.64 59.1238 64.7256 59.1357C64.8112 59.1476 64.8985 59.1388 64.98 59.11L70.9 57.03C71.0054 56.9927 71.0967 56.9236 71.1612 56.8323C71.2256 56.7409 71.2602 56.6318 71.26 56.52V51.26C71.2601 51.1735 71.2395 51.0883 71.1999 51.0115C71.1602 50.9346 71.1027 50.8684 71.0321 50.8185C70.9616 50.7685 70.88 50.7362 70.7944 50.7243C70.7088 50.7124 70.6215 50.7212 70.54 50.75L64.62 52.84C64.5146 52.8773 64.4233 52.9464 64.3588 53.0377C64.2943 53.1291 64.2598 53.2382 64.26 53.35V58.6Z" fill="#FFF8F3"/>
<path d="M108.87 64.3498C109.909 64.3498 110.75 63.5081 110.75 62.4698C110.75 61.4315 109.909 60.5898 108.87 60.5898C107.832 60.5898 106.99 61.4315 106.99 62.4698C106.99 63.5081 107.832 64.3498 108.87 64.3498Z" fill="#FFF8F3"/>
<path d="M62.88 115.26C63.9183 115.26 64.76 114.418 64.76 113.38C64.76 112.342 63.9183 111.5 62.88 111.5C61.8417 111.5 61 112.342 61 113.38C61 114.418 61.8417 115.26 62.88 115.26Z" fill="#FFF8F3"/>
<path d="M11.0809 67.2996C12.1137 67.2996 12.9509 66.4623 12.9509 65.4296C12.9509 64.3968 12.1137 63.5596 11.0809 63.5596C10.0482 63.5596 9.21094 64.3968 9.21094 65.4296C9.21094 66.4623 10.0482 67.2996 11.0809 67.2996Z" fill="#FFF8F3"/>
<path d="M40.368 82.5V74.1H43.992C44.928 74.1 45.652 74.288 46.164 74.664C46.684 75.04 46.944 75.572 46.944 76.26C46.944 76.716 46.836 77.1 46.62 77.412C46.412 77.724 46.124 77.96 45.756 78.12C45.396 78.28 45 78.36 44.568 78.36L44.772 78.072C45.308 78.072 45.768 78.156 46.152 78.324C46.544 78.484 46.848 78.728 47.064 79.056C47.28 79.376 47.388 79.776 47.388 80.256C47.388 80.968 47.124 81.52 46.596 81.912C46.076 82.304 45.288 82.5 44.232 82.5H40.368ZM41.256 81.768H44.22C44.956 81.768 45.52 81.644 45.912 81.396C46.304 81.14 46.5 80.736 46.5 80.184C46.5 79.64 46.304 79.244 45.912 78.996C45.52 78.74 44.956 78.612 44.22 78.612H41.16V77.88H43.932C44.604 77.88 45.124 77.752 45.492 77.496C45.868 77.24 46.056 76.86 46.056 76.356C46.056 75.844 45.868 75.464 45.492 75.216C45.124 74.96 44.604 74.832 43.932 74.832H41.256V81.768ZM53.1829 82.5V81.108L53.1469 80.88V78.552C53.1469 78.016 52.9949 77.604 52.6909 77.316C52.3949 77.028 51.9509 76.884 51.3589 76.884C50.9509 76.884 50.5629 76.952 50.1949 77.088C49.8269 77.224 49.5149 77.404 49.2589 77.628L48.8749 76.992C49.1949 76.72 49.5789 76.512 50.0269 76.368C50.4749 76.216 50.9469 76.14 51.4429 76.14C52.2589 76.14 52.8869 76.344 53.3269 76.752C53.7749 77.152 53.9989 77.764 53.9989 78.588V82.5H53.1829ZM51.0109 82.56C50.5389 82.56 50.1269 82.484 49.7749 82.332C49.4309 82.172 49.1669 81.956 48.9829 81.684C48.7989 81.404 48.7069 81.084 48.7069 80.724C48.7069 80.396 48.7829 80.1 48.9349 79.836C49.0949 79.564 49.3509 79.348 49.7029 79.188C50.0629 79.02 50.5429 78.936 51.1429 78.936H53.3149V79.572H51.1669C50.5589 79.572 50.1349 79.68 49.8949 79.896C49.6629 80.112 49.5469 80.38 49.5469 80.7C49.5469 81.06 49.6869 81.348 49.9669 81.564C50.2469 81.78 50.6389 81.888 51.1429 81.888C51.6229 81.888 52.0349 81.78 52.3789 81.564C52.7309 81.34 52.9869 81.02 53.1469 80.604L53.3389 81.192C53.1789 81.608 52.8989 81.94 52.4989 82.188C52.1069 82.436 51.6109 82.56 51.0109 82.56ZM56.2438 84.888C55.9478 84.888 55.6638 84.84 55.3918 84.744C55.1278 84.648 54.8998 84.504 54.7078 84.312L55.1038 83.676C55.2638 83.828 55.4358 83.944 55.6198 84.024C55.8118 84.112 56.0238 84.156 56.2558 84.156C56.5358 84.156 56.7758 84.076 56.9758 83.916C57.1838 83.764 57.3798 83.492 57.5638 83.1L57.9718 82.176L58.0678 82.044L60.6598 76.2H61.4998L58.3438 83.256C58.1678 83.664 57.9718 83.988 57.7558 84.228C57.5478 84.468 57.3198 84.636 57.0718 84.732C56.8238 84.836 56.5478 84.888 56.2438 84.888ZM57.9238 82.68L55.0198 76.2H55.9078L58.4758 81.984L57.9238 82.68ZM64.3214 82.56C63.8014 82.56 63.3094 82.488 62.8454 82.344C62.3814 82.192 62.0174 82.004 61.7534 81.78L62.1374 81.108C62.3934 81.3 62.7214 81.468 63.1214 81.612C63.5214 81.748 63.9414 81.816 64.3814 81.816C64.9814 81.816 65.4134 81.724 65.6774 81.54C65.9414 81.348 66.0734 81.096 66.0734 80.784C66.0734 80.552 65.9974 80.372 65.8454 80.244C65.7014 80.108 65.5094 80.008 65.2694 79.944C65.0294 79.872 64.7614 79.812 64.4654 79.764C64.1694 79.716 63.8734 79.66 63.5774 79.596C63.2894 79.532 63.0254 79.44 62.7854 79.32C62.5454 79.192 62.3494 79.02 62.1974 78.804C62.0534 78.588 61.9814 78.3 61.9814 77.94C61.9814 77.596 62.0774 77.288 62.2694 77.016C62.4614 76.744 62.7414 76.532 63.1094 76.38C63.4854 76.22 63.9414 76.14 64.4774 76.14C64.8854 76.14 65.2934 76.196 65.7014 76.308C66.1094 76.412 66.4454 76.552 66.7094 76.728L66.3374 77.412C66.0574 77.22 65.7574 77.084 65.4374 77.004C65.1174 76.916 64.7974 76.872 64.4774 76.872C63.9094 76.872 63.4894 76.972 63.2174 77.172C62.9534 77.364 62.8214 77.612 62.8214 77.916C62.8214 78.156 62.8934 78.344 63.0374 78.48C63.1894 78.616 63.3854 78.724 63.6254 78.804C63.8734 78.876 64.1414 78.936 64.4294 78.984C64.7254 79.032 65.0174 79.092 65.3054 79.164C65.6014 79.228 65.8694 79.32 66.1094 79.44C66.3574 79.552 66.5534 79.716 66.6974 79.932C66.8494 80.14 66.9254 80.416 66.9254 80.76C66.9254 81.128 66.8214 81.448 66.6134 81.72C66.4134 81.984 66.1174 82.192 65.7254 82.344C65.3414 82.488 64.8734 82.56 64.3214 82.56ZM72.4368 82.5V81.108L72.4008 80.88V78.552C72.4008 78.016 72.2488 77.604 71.9448 77.316C71.6488 77.028 71.2048 76.884 70.6128 76.884C70.2048 76.884 69.8168 76.952 69.4488 77.088C69.0808 77.224 68.7688 77.404 68.5128 77.628L68.1288 76.992C68.4488 76.72 68.8328 76.512 69.2808 76.368C69.7288 76.216 70.2008 76.14 70.6968 76.14C71.5128 76.14 72.1408 76.344 72.5808 76.752C73.0288 77.152 73.2528 77.764 73.2528 78.588V82.5H72.4368ZM70.2648 82.56C69.7928 82.56 69.3808 82.484 69.0288 82.332C68.6848 82.172 68.4208 81.956 68.2368 81.684C68.0528 81.404 67.9608 81.084 67.9608 80.724C67.9608 80.396 68.0368 80.1 68.1888 79.836C68.3488 79.564 68.6048 79.348 68.9568 79.188C69.3168 79.02 69.7968 78.936 70.3968 78.936H72.5688V79.572H70.4208C69.8128 79.572 69.3888 79.68 69.1488 79.896C68.9168 80.112 68.8008 80.38 68.8008 80.7C68.8008 81.06 68.9408 81.348 69.2208 81.564C69.5008 81.78 69.8928 81.888 70.3968 81.888C70.8768 81.888 71.2888 81.78 71.6328 81.564C71.9848 81.34 72.2408 81.02 72.4008 80.604L72.5928 81.192C72.4328 81.608 72.1528 81.94 71.7528 82.188C71.3608 82.436 70.8648 82.56 70.2648 82.56ZM78.7829 76.14C79.2949 76.14 79.7429 76.24 80.1269 76.44C80.5189 76.632 80.8229 76.928 81.0389 77.328C81.2629 77.728 81.3749 78.232 81.3749 78.84V82.5H80.5229V78.924C80.5229 78.26 80.3549 77.76 80.0189 77.424C79.6909 77.08 79.2269 76.908 78.6269 76.908C78.1789 76.908 77.7869 77 77.4509 77.184C77.1229 77.36 76.8669 77.62 76.6829 77.964C76.5069 78.3 76.4189 78.708 76.4189 79.188V82.5H75.5669V76.2H76.3829V77.928L76.2509 77.604C76.4509 77.148 76.7709 76.792 77.2109 76.536C77.6509 76.272 78.1749 76.14 78.7829 76.14Z" fill="#FFF8F3"/>
</svg>
