<svg width="21" height="22" viewBox="0 0 21 22" fill="none" xmlns="http://www.w3.org/2000/svg">
<path d="M10.5007 0.505859C4.7569 0.505859 0.0839844 5.17878 0.0839844 10.9225V15.2382C0.0839844 16.3048 1.01836 17.1725 2.16732 17.1725H3.20898C3.48525 17.1725 3.7502 17.0628 3.94555 16.8674C4.1409 16.6721 4.25065 16.4071 4.25065 16.1309V10.7736C4.25065 10.4973 4.1409 10.2323 3.94555 10.037C3.7502 9.84165 3.48525 9.7319 3.20898 9.7319H2.26315C2.84232 5.70065 6.31107 2.58919 10.5007 2.58919C14.6902 2.58919 18.159 5.70065 18.7382 9.7319H17.7923C17.5161 9.7319 17.2511 9.84165 17.0557 10.037C16.8604 10.2323 16.7507 10.4973 16.7507 10.7736V17.1725C16.7507 18.3215 15.8163 19.2559 14.6673 19.2559H12.584V18.2142H8.41732V21.3392H14.6673C16.9652 21.3392 18.834 19.4704 18.834 17.1725C19.9829 17.1725 20.9173 16.3048 20.9173 15.2382V10.9225C20.9173 5.17878 16.2444 0.505859 10.5007 0.505859Z" fill="#FFF8F3"/>
</svg>
