<svg width="19" height="25" viewBox="0 0 19 25" fill="none" xmlns="http://www.w3.org/2000/svg">
<path d="M4.86583 11.3425C6.00583 13.465 7.8425 15.1975 10.0829 16.285L11.8246 14.635C12.0383 14.4325 12.355 14.365 12.6321 14.455C13.5188 14.7325 14.4767 14.8825 15.4583 14.8825C15.8938 14.8825 16.25 15.22 16.25 15.6325V18.25C16.25 18.6625 15.8938 19 15.4583 19C8.02458 19 2 13.2925 2 6.25C2 5.8375 2.35625 5.5 2.79167 5.5H5.5625C5.99792 5.5 6.35417 5.8375 6.35417 6.25C6.35417 7.1875 6.5125 8.0875 6.80542 8.9275C6.8925 9.19 6.82917 9.4825 6.6075 9.6925L4.86583 11.3425Z" fill="#FFF8F3"/>
</svg>
