<svg width="100" height="100" viewBox="0 0 100 100" fill="none" xmlns="http://www.w3.org/2000/svg">
<path d="M29.8828 2.07074C23.8086 2.59808 19.3555 3.59418 15.5859 5.2348C12.9492 6.38715 10.332 8.69183 9.64844 10.4496C9.29688 11.4067 9.27734 12.266 9.27734 40.1371V68.8481L9.82422 69.9614C10.4688 71.2504 12.0898 72.8129 13.8477 73.8481L15 74.5121L15.1367 75.8793C15.7031 82.0903 17.9102 86.9145 22.0508 91.0356C26.3086 95.2934 31.3281 97.559 37.4219 97.9692C42.2852 98.2817 48.0273 96.6801 52.0703 93.8481L53.3203 92.9692L54.9414 93.3598C59.6875 94.4731 67.4023 94.8637 72.6562 94.2582C81.7969 93.2035 88.3789 90.2543 90.2539 86.4262L90.7227 85.4496V70.4106V55.3715L90.1758 54.2582C89.5508 52.9887 87.9492 51.4262 86.25 50.4106C83.1836 48.5746 78.0273 47.1098 72.4609 46.4848C68.9258 46.0746 61.2695 46.2504 58.2617 46.7973L57.6172 46.9145V29.2778C57.6172 17.852 57.5391 11.3676 57.4219 10.8989C57.1094 9.82465 56.0547 8.4184 54.7852 7.38324C51.8359 5.00043 46.8945 3.28168 40.5273 2.44183C38.2617 2.14886 31.6797 1.91449 29.8828 2.07074ZM39.8438 4.68793C48.6719 5.78168 55.2734 9.0434 55.2734 12.3051C55.2734 15.3715 50.0195 18.3012 41.8555 19.766C39.6289 20.1567 38.7305 20.2153 33.6914 20.2153C27.7344 20.2153 26.25 20.0785 22.4609 19.2192C18.125 18.2426 14.9219 16.8364 13.125 15.0981C11.6211 13.6528 11.3086 12.7543 11.7969 11.4457C13.125 7.96918 19.9805 5.2934 29.8828 4.41449C31.3477 4.27777 38.0859 4.47308 39.8438 4.68793ZM15.0391 19.2387C17.2461 20.352 21.3867 21.5434 25.293 22.1879C28.2812 22.6567 36.2891 22.7739 39.6875 22.3832C46.0938 21.641 51.4062 19.9418 54.3555 17.6957L55.2734 16.9926V19.7075V22.4223L54.6484 23.3598C51.4648 28.0864 37.6562 30.8012 25.6445 29.0629C24.1602 28.8481 24.0039 28.8676 23.6328 29.1996C23.1055 29.6879 23.125 30.5864 23.6914 30.9379C24.9609 31.7582 34.7266 32.2075 39.4531 31.6606C45.6445 30.9575 51.6602 29.0434 54.2969 26.9535C54.707 26.6215 55.0977 26.3676 55.1562 26.3676C55.2148 26.3676 55.2734 27.5395 55.2734 28.9653C55.2734 31.5043 55.2539 31.5825 54.707 32.4614C52.0898 36.5825 40.8789 39.434 30.2148 38.7114C22.168 38.1645 15.8398 36.2309 13.0078 33.4575C11.7578 32.227 11.5234 31.5239 11.5234 28.6528V26.1332L12.2656 26.6996C14.1992 28.2035 15.1367 28.4379 15.6445 27.52C16.0156 26.8168 15.6836 26.2309 14.4922 25.4106C11.9141 23.6528 11.5234 22.852 11.5234 19.434V16.9926L12.8125 17.8911C13.5352 18.3793 14.5312 18.9848 15.0391 19.2387ZM12.6367 36.2114C19.5898 41.1528 35.3711 42.6567 46.875 39.4731C49.6094 38.7114 52.1094 37.6371 53.7891 36.5043L55.1758 35.5864L55.2344 38.1059C55.293 41.0356 55.0977 41.6215 53.6133 42.9301C49.5508 46.5043 38.8281 48.6723 29.2383 47.8715C20.8594 47.1684 14.0625 44.7075 12.207 41.6996C11.6406 40.8012 11.6211 40.6645 11.5625 38.145C11.5234 36.7192 11.543 35.5473 11.6016 35.5473C11.6602 35.5473 12.1289 35.8403 12.6367 36.2114ZM12.1094 45.0395C12.9297 45.9965 16.6406 47.7348 19.9219 48.6528C31.3477 51.8754 46.8164 50.4496 54.1602 45.4887L55.2734 44.727V46.0942C55.2734 47.3051 55.2344 47.4614 54.9023 47.4614C53.4766 47.4614 47.9102 49.6489 45.9961 50.977L45.0977 51.602L43.3984 51.2309C41.0547 50.7426 36.3086 50.7426 33.9844 51.2504C30.7422 51.9535 27.207 53.5356 24.8047 55.352L23.5352 56.309L22.3633 56.0746C17.1289 54.9809 12.3438 52.3051 11.7383 50.0785C11.4844 49.1606 11.4453 44.727 11.6992 44.727C11.7969 44.727 11.9727 44.8637 12.1094 45.0395ZM72.2656 48.8481C78.6133 49.4535 84.4531 51.4457 86.9141 53.8676C88.9648 55.8793 88.9258 57.4028 86.7383 59.4145C84.2578 61.7192 79.082 63.4965 72.6562 64.2778C70.3125 64.5707 63.7109 64.6293 61.5234 64.395L60.0586 64.2192L59.1406 62.6371C56.8359 58.6137 53.418 55.391 49.2578 53.3012L47.8516 52.5785L48.5156 52.1879C48.8867 51.9731 49.9609 51.4848 50.918 51.0942C56.3086 48.9457 64.3555 48.0864 72.2656 48.8481ZM37.5 54.0043C37.5 55.4106 38.418 56.0551 39.4141 55.352C39.7656 55.1176 39.8438 54.8637 39.8438 54.0825C39.8438 52.9887 39.6875 53.0278 42.1094 53.4184C43.9844 53.7114 46.6992 54.5903 48.3398 55.4301C49.5898 56.0551 51.9336 57.6371 52.4219 58.1645C52.7734 58.5746 52.7734 58.5942 52.168 59.2778C51.4453 60.1176 51.4062 60.4106 52.0508 61.0356C52.6758 61.6801 52.9688 61.641 53.8086 60.9184C54.4922 60.3129 54.5117 60.3129 54.9219 60.6645C55.6055 61.2895 57.2461 63.8481 58.0273 65.5278C58.8281 67.2465 59.6484 70.0981 59.8633 72.0121L60 73.2426H59.1016C58.457 73.2426 58.0859 73.3598 57.8125 73.6332C56.9336 74.5121 57.6367 75.5864 59.1016 75.5864H60L59.8633 76.7973C59.4336 80.5864 57.4805 85.2153 55.2148 87.7934L54.5312 88.5746L53.8672 87.9301C52.9688 87.0707 52.2656 87.0903 51.7969 88.0278C51.5234 88.5356 51.6602 88.9848 52.3242 89.7074L52.832 90.2739L51.9727 91.016C49.3164 93.3207 45.2148 94.9809 40.6836 95.5864L39.8438 95.7035V94.7856C39.8438 93.7504 39.4531 93.1645 38.7305 93.1645C37.9883 93.1645 37.5 93.8285 37.5 94.8051V95.6645L36.6797 95.5864C33.8672 95.2739 30.7227 94.2778 28.2812 92.9106C26.8945 92.1293 24.6094 90.4887 24.6094 90.2543C24.6094 90.1762 24.8828 89.8637 25.1953 89.5512C25.8789 88.9067 25.9375 88.2426 25.3906 87.6957C24.8438 87.1489 24.3359 87.2074 23.5742 87.891C23.2031 88.2231 22.8516 88.477 22.793 88.477C22.7344 88.477 22.1875 87.7934 21.582 86.9731C19.5117 84.1606 17.9883 80.3129 17.6172 76.9926L17.4609 75.5864H18.2617C19.2578 75.5864 19.9219 75.1371 19.9219 74.4731C19.9219 73.6528 19.4141 73.2426 18.3594 73.2426H17.4609L17.6172 71.8168C18.0273 68.3207 19.2383 65.2153 21.3281 62.1684C22.6953 60.1957 22.7148 60.1957 23.5352 60.9184C24.3359 61.6215 24.8438 61.6801 25.3906 61.1332C25.9375 60.5864 25.8789 59.9809 25.1562 59.2387C24.3945 58.4575 24.4336 58.4184 26.9336 56.7387C29.6094 54.9614 32.0117 54.0043 35.2344 53.4184C37.5195 52.9887 37.5 52.9887 37.5 54.0043ZM12.6172 54.5903C13.9062 55.5668 16.7383 56.895 19.1406 57.6371C20.2734 57.9887 21.2305 58.3012 21.2695 58.3207C21.3086 58.3598 20.9961 58.809 20.5664 59.3168C19.9219 60.0981 18.6914 61.895 17.6758 63.5551C17.5 63.8285 17.3438 63.7895 16.1133 63.184C14.3164 62.2856 12.9492 61.2309 12.207 60.1957C11.6406 59.3559 11.6211 59.2973 11.5625 56.6215C11.5234 55.1371 11.543 53.9067 11.6016 53.9067C11.6602 53.9067 12.1289 54.2192 12.6172 54.5903ZM88.4766 63.7309C88.4766 65.9379 88.4375 66.2114 87.9688 67.1684C86.5625 69.9809 80.6055 72.4809 73.0469 73.4379C70.7422 73.7309 65.1953 73.9067 63.6719 73.7504L62.3828 73.6137L62.1484 71.7192C61.9531 70.1176 61.6406 68.5356 61.2305 67.1684C61.1328 66.9145 61.6797 66.8754 65.957 66.8754C71.0742 66.8754 73.125 66.6996 77.1094 65.8989C81.3477 65.059 85.293 63.5356 87.4023 61.9535C87.832 61.6215 88.2422 61.3481 88.3398 61.3481C88.418 61.3285 88.4766 62.4028 88.4766 63.7309ZM15 65.2153C15.8789 65.6645 16.6016 66.0551 16.6016 66.0942C16.6016 66.1332 16.4258 66.6606 16.2109 67.2856C15.9961 67.9106 15.6836 69.1801 15.5078 70.0981C15.332 71.016 15.1758 71.8168 15.1367 71.8364C15 71.9731 13.3203 70.7035 12.6953 70.0004C11.6797 68.8285 11.5234 68.2426 11.5234 65.5082V63.0473L12.4609 63.7309C12.9688 64.102 14.1016 64.7856 15 65.2153ZM88.4766 72.7934C88.4766 75.8012 88.3008 76.3871 87.0117 77.6371C84.7656 79.8246 79.9219 81.6606 74.0039 82.5199C71.4844 82.891 65.4102 83.1059 62.832 82.9106C60.9766 82.7739 60.8984 82.7543 60.9961 82.3442C61.0547 82.1293 61.3281 81.016 61.6016 79.8832C61.875 78.7504 62.1484 77.4418 62.207 76.9535L62.3047 76.0746L66.9531 76.0551C70.6445 76.0356 72.1484 75.9379 74.375 75.6059C80.2734 74.7075 85.2344 72.9887 87.5977 71.016C87.9297 70.7426 88.2422 70.5278 88.3398 70.5082C88.418 70.5082 88.4766 71.5434 88.4766 72.7934ZM88.4375 82.4028C88.3789 85.0785 88.3594 85.1371 87.793 85.977C85.7227 88.9067 79.3164 91.2895 71.6211 92.0121C68.5352 92.2856 61.543 92.1293 59.082 91.7387C58.125 91.5629 56.9531 91.3676 56.5039 91.309C56.0352 91.2309 55.6641 91.0942 55.6641 90.9965C55.6641 90.9184 56.1328 90.3129 56.6992 89.6489C57.2656 89.0043 58.2227 87.6762 58.8086 86.7192L59.8633 84.9809L60.9375 85.1176C62.7734 85.352 71.0742 85.2739 73.2422 85.0004C79.1992 84.2582 85.1758 82.266 87.5 80.2739C87.8711 79.9614 88.2617 79.7075 88.3398 79.6879C88.4375 79.6879 88.4766 80.9184 88.4375 82.4028Z" fill="#0A0A0A"/>
<path d="M29.7846 6.97267C26.3471 7.20704 21.269 8.1836 20.6635 8.73048C20.1362 9.19923 20.2143 10.0781 20.8003 10.4688C21.2495 10.7617 21.4057 10.7422 23.0268 10.3711C25.4292 9.8047 28.3198 9.41407 31.3471 9.25782C34.1401 9.1211 34.5698 8.94532 34.5698 7.98829C34.5698 6.89454 33.6714 6.69923 29.7846 6.97267Z" fill="#0A0A0A"/>
<path d="M16.2109 10.4696C14.8633 11.2314 14.2578 11.8954 14.2578 12.5986C14.2578 12.9306 14.3555 13.3017 14.4922 13.4384C14.7852 13.7314 15.9375 13.7509 16.1133 13.4775C16.1914 13.3603 16.7188 12.9306 17.3047 12.4814C18.3984 11.6806 18.6133 11.1532 18.125 10.5087C17.6758 9.96183 17.1289 9.9423 16.2109 10.4696Z" fill="#0A0A0A"/>
<path d="M35.3518 57.5195C31.5432 58.3789 28.3206 60.2148 25.9182 62.9101C19.8049 69.7851 20.0979 80.1171 26.6018 86.582C31.426 91.3672 38.594 92.8515 44.9417 90.4101C46.6018 89.7656 47.2073 89.1992 46.9729 88.4765C46.8948 88.2617 46.6409 87.9492 46.4065 87.7734C45.9963 87.5195 45.8401 87.539 44.512 88.0664C39.3167 90.1367 33.9651 89.4336 29.5901 86.0742C22.3635 80.5468 21.9338 69.5507 28.6917 63.457C31.5237 60.8789 34.9221 59.5703 38.7698 59.5703C42.8127 59.5703 46.5042 61.1523 49.3557 64.082C52.0315 66.8554 53.262 69.7656 53.4573 73.6523C53.594 76.2695 53.262 78.1836 52.3049 80.2734C51.6213 81.8164 51.6409 82.5976 52.3831 82.9687C53.1057 83.3007 53.594 83.0273 54.1213 81.9922C55.7229 78.8671 56.2698 74.5117 55.5471 70.9375C55.2151 69.2773 54.2776 66.9531 53.2815 65.2929C52.4221 63.8476 50.2151 61.5039 48.7112 60.4296C47.2268 59.375 44.6878 58.164 42.969 57.7148C41.2112 57.2656 37.012 57.1484 35.3518 57.5195Z" fill="#0A0A0A"/>
<path d="M34.6875 64.4924C34.4336 64.8635 34.375 65.6448 34.375 69.0823V73.2424H33.2031C31.9336 73.2424 31.25 73.6526 31.25 74.4143C31.25 75.176 31.9336 75.5862 33.2031 75.5862H34.375V76.4651V77.344H33.2422C31.9336 77.344 31.25 77.7151 31.25 78.4377C31.25 79.2776 31.8945 79.6877 33.2031 79.6877H34.375V81.426C34.375 83.0862 34.3945 83.2034 34.9023 83.5745C35.4492 84.0237 36.0547 83.9651 36.4844 83.4377C36.6211 83.2424 36.7188 82.4807 36.7188 81.4065V79.6877H40.0391C43.1055 79.6877 43.3984 79.6487 43.75 79.2971C43.9648 79.0823 44.1406 78.7307 44.1406 78.5159C44.1406 78.301 43.9648 77.9495 43.75 77.7346C43.3984 77.3831 43.1055 77.344 40.0391 77.344H36.7188V76.4846V75.6253L39.1211 75.5471C41.2305 75.4885 41.6211 75.4104 42.5 74.9612C44.6484 73.8284 45.8398 71.7385 45.6641 69.3557C45.5078 67.2268 44.4336 65.6057 42.5391 64.6682C41.3477 64.0628 41.3281 64.0628 38.1641 64.0628C35.0977 64.0628 34.9805 64.0823 34.6875 64.4924ZM41.6797 66.8557C42.168 67.1292 42.6172 67.6174 42.9102 68.1448C43.75 69.7463 43.3789 71.387 41.9336 72.5393C41.2109 73.1253 41.0938 73.1448 38.9453 73.2229L36.7188 73.2815V69.844V66.4065H38.8281C40.625 66.4065 41.0156 66.4651 41.6797 66.8557Z" fill="#0A0A0A"/>
</svg>
