<svg width="100" height="100" viewBox="0 0 100 100" fill="none" xmlns="http://www.w3.org/2000/svg">
<path d="M83.3204 2.24609C82.9102 2.38281 82.2657 2.79297 81.8946 3.16406C81.0743 3.96484 73.3008 15.0586 72.9102 15.9961C72.7149 16.4453 72.6368 17.1289 72.6954 17.9883C72.7735 19.5703 73.418 20.6641 74.7071 21.4453L75.5665 21.9727L75.586 53.8477V85.7422H73.2422H70.8985L70.8594 64.1016L70.8008 42.4805L70.3516 41.5625C69.7657 40.3711 68.5352 39.3359 67.3047 38.9648C66.1524 38.6133 57.0118 38.5547 55.8204 38.8672C54.5508 39.2188 53.2813 40.2344 52.6954 41.3867L52.1485 42.4219V60.1953V77.9492L52.6368 78.418C53.3399 79.1406 54.3165 79.082 54.961 78.3008L55.4688 77.6953V60.3906C55.4883 42.0703 55.4493 42.7148 56.3868 42.2266C56.9141 41.9336 65.7618 41.8945 66.504 42.1875C67.6172 42.6172 67.5782 41.7578 67.5782 65.918V88.1055L68.0665 88.5742L68.5352 89.0625H81.1915C93.0469 89.0625 93.9063 89.1016 94.629 89.4336C96.0938 90.0977 96.6797 91.2305 96.6797 93.3594V94.7266H49.9805H3.28131L3.35944 92.9883C3.43756 91.4453 3.49616 91.1719 3.98444 90.5273C4.29694 90.1367 4.90241 89.6289 5.35162 89.4336C6.11334 89.082 7.20709 89.0625 33.418 89.0625H60.6837L61.1329 88.5742C61.7579 87.9102 61.7579 86.875 61.1719 86.2695C60.7422 85.8398 60.6641 85.8398 54.1993 85.7812L47.6563 85.7227V72.5V59.2773L47.1876 58.3008C46.9532 57.7539 46.4063 57.0312 45.9962 56.6602C44.5508 55.3906 44.4141 55.3711 38.4766 55.3711C34.5704 55.3711 32.9102 55.4492 32.3829 55.625C31.211 56.0352 30.2149 56.8945 29.5899 58.0273L29.004 59.082L28.9454 69.0039L28.8868 78.9258L29.4727 79.4922C30.2149 80.2344 31.0743 80.2734 31.7383 79.5898L32.2266 79.1211V69.6289C32.2266 59.6289 32.2657 59.2383 33.1055 58.9062C33.2813 58.8477 35.7032 58.7891 38.4766 58.7891H43.5352L43.9258 59.2969C44.336 59.8047 44.336 59.9609 44.336 72.7734V85.7422H34.4727H24.6094V76.9922C24.6094 67.168 24.5704 66.8164 23.3008 65.4102C22.9102 64.9805 22.2266 64.4336 21.7969 64.1992C21.0352 63.7891 20.7813 63.7695 15.2344 63.7695C9.66803 63.7695 9.45319 63.7891 8.67194 64.1992C7.61725 64.7656 6.38678 66.1719 6.09381 67.1484C5.93756 67.6758 5.85944 69.9414 5.85944 74.1992V80.5078L6.42584 81.0742C7.16803 81.8164 7.87116 81.8164 8.61334 81.0742L9.17975 80.5078V74.3164V68.125L9.76569 67.5586L10.3321 66.9727L15.3126 67.0312C20.2149 67.0898 20.3126 67.0898 20.7423 67.5391L21.1915 67.9883L21.2501 76.8555L21.3087 85.7227L13.2422 85.7812L5.17584 85.8398L3.96491 86.4062C2.53912 87.0508 1.15241 88.418 0.546937 89.7852C0.195375 90.5664 0.11725 91.2109 0.0391246 93.4961C-0.0585316 96.6016 0.0195934 97.0898 0.625062 97.6562C1.05475 98.0469 1.09381 98.0469 50.0001 98.0469C98.9063 98.0469 98.9454 98.0469 99.3751 97.6562C99.9805 97.0898 100.059 96.6016 99.961 93.4961C99.8829 91.2109 99.8047 90.5664 99.4532 89.7852C98.8477 88.418 97.461 87.0508 96.0352 86.4062L94.8243 85.8398L86.8751 85.7812L78.9063 85.7227V52.8125V19.9023L78.4571 19.4531C78.2032 19.1992 77.6368 18.9453 77.1876 18.8867C76.3282 18.7305 75.9766 18.3398 75.9766 17.5391C75.9962 17.0508 83.8477 5.74219 84.4141 5.39062C85.2149 4.90234 85.7227 5.44922 89.1016 10.2539C93.6719 16.7773 93.9454 17.1875 93.9454 17.6953C93.9454 18.2422 93.4962 18.7109 92.8126 18.8672C91.9337 19.043 91.4649 19.3555 91.2305 19.8633C91.0743 20.1953 91.0157 28.3008 91.0157 48.6328V76.9336L91.4844 77.4609C92.129 78.2227 93.2227 78.2227 93.8672 77.4609L94.336 76.9336V49.4531L94.3555 21.9727L95.1954 21.4648C96.8165 20.4688 97.6563 18.125 97.0704 16.2891C96.7383 15.293 88.6524 3.67188 87.7735 2.94922C86.5821 1.97266 84.8438 1.69922 83.3204 2.24609Z" fill="#0A0A0A"/>
<path d="M54.6866 16.5041C50.3702 18.3986 49.6085 18.9065 49.6085 19.844C49.6085 20.469 50.6046 21.4846 51.2101 21.4846C51.464 21.4651 52.4406 21.133 53.4171 20.7033C54.3741 20.2932 55.214 19.9807 55.2531 20.0197C55.3507 20.1369 53.2999 23.4182 52.089 25.0979C49.1984 29.1213 44.4718 34.0627 40.8195 36.8947C32.421 43.4182 22.7335 47.4221 12.2062 48.7111C10.0968 48.9651 9.82336 49.0432 9.43274 49.5119C8.8468 50.1955 8.8468 51.0549 9.4718 51.6604C10.0577 52.2463 10.9952 52.2854 14.0421 51.8361C31.3077 49.2971 46.132 40.0002 55.6632 25.7815C56.4835 24.551 57.3624 23.1643 57.6163 22.7151C57.8702 22.2658 58.1241 21.9338 58.2023 21.9729C58.2804 22.0315 58.4171 22.5783 58.4757 23.1838C58.7491 25.4299 59.2374 26.1721 60.4484 26.1721C61.0148 26.1721 61.6007 25.7424 61.9913 25.0588C62.1085 24.8635 61.2491 19.0432 60.7218 16.4455C60.507 15.4299 60.1749 15.0393 59.2765 14.7658C59.0226 14.6877 57.4015 15.3127 54.6866 16.5041Z" fill="#0A0A0A"/>
</svg>
