<svg width="100" height="100" viewBox="0 0 100 100" fill="none" xmlns="http://www.w3.org/2000/svg">
<g clip-path="url(#clip0_114_982)">
<path d="M48.8665 0.722435C47.3821 2.24587 32.6751 18.867 32.4603 19.2771C32.1478 19.8435 32.4407 20.781 33.0267 21.0935C33.222 21.2107 35.4681 21.2888 38.1634 21.2888H42.9681V24.8045C42.9681 28.0662 42.9876 28.3396 43.3587 28.7107C43.886 29.2381 44.9407 29.2185 45.429 28.6912C45.761 28.3201 45.8001 27.8904 45.8587 24.2381C45.9368 20.0584 45.7806 18.9256 45.1556 18.6326C44.9798 18.5349 43.0853 18.4177 40.9759 18.3592L37.1282 18.2615L43.4759 11.1326C46.972 7.20681 49.9017 4.00368 49.9993 4.00368C50.097 4.00368 53.0267 7.20681 56.5228 11.1326L62.8704 18.2615L59.0228 18.3592C56.9134 18.4177 55.0189 18.5349 54.8431 18.6131C54.1595 18.9451 54.1009 19.824 54.1009 28.6131V37.2654L53.3782 37.8123C51.1321 39.492 48.2025 42.8318 46.679 45.4295L45.9173 46.7381L45.8587 39.9021C45.8001 33.4763 45.7806 33.0271 45.429 32.6365C44.9407 32.1092 43.886 32.0896 43.3587 32.617C42.9681 33.0076 42.9681 33.2615 42.9681 43.5545V54.1013L42.011 53.6131C39.1204 52.1482 35.5267 51.1326 32.0501 50.781C30.9368 50.6834 28.1048 50.5857 25.761 50.5857H21.4837V46.5037C21.4837 44.2576 21.4056 42.1873 21.2884 41.9138C21.054 41.2498 20.2337 40.742 19.6673 40.8982C19.1204 41.0349 0.624329 56.992 0.214173 57.6756C-0.313171 58.5349 0.057923 59.0232 3.3587 61.8943C5.97589 64.1795 6.62042 64.6482 7.12824 64.6482C7.87042 64.6482 8.59308 63.9646 8.59308 63.242C8.59308 62.656 8.28058 62.3045 5.70245 60.0779C4.58917 59.1209 3.76886 58.281 3.84699 58.2029C5.07745 57.0506 18.2806 45.7029 18.3978 45.7029C18.4759 45.7029 18.554 47.2849 18.554 49.2185C18.554 52.4802 18.5735 52.7537 18.9446 53.1248C19.3157 53.4959 19.5892 53.5154 24.472 53.5154C31.6009 53.5154 33.886 53.7693 37.4993 54.9217C44.0032 56.992 49.9798 62.656 52.4407 69.0427C53.6126 72.0896 53.9251 73.7498 54.0228 77.3435C54.0814 79.1209 54.1595 80.8592 54.2181 81.2107C54.4329 82.5388 55.761 83.0662 56.6009 82.1677C57.011 81.7381 57.011 81.6599 57.0696 69.4334C57.1478 55.6834 57.1087 56.1912 58.5931 53.2224C59.5696 51.2498 61.1126 49.5115 62.9876 48.2615C65.9173 46.3084 67.8314 45.8982 74.0423 45.8982H78.515V50.6638C78.515 56.4256 78.6712 57.031 80.1165 57.031C80.6634 57.031 80.2337 57.3826 91.0735 47.9881C96.64 43.1443 99.8431 40.2342 99.9212 39.9412C99.9798 39.6873 99.9798 39.3162 99.9212 39.1013C99.765 38.6326 81.1517 22.4607 80.4485 22.2068C79.804 21.9529 78.9837 22.4021 78.7103 23.1638C78.5931 23.4373 78.515 25.4881 78.515 27.7342V31.7967L73.0071 31.8943C65.8392 32.0115 63.1243 32.4998 59.0228 34.3943C58.1048 34.8045 57.2845 35.156 57.2064 35.156C57.1087 35.156 57.0306 32.031 57.0306 28.2224V21.2888H61.8353C64.5306 21.2888 66.7767 21.2107 66.972 21.0935C67.5579 20.781 67.8509 19.8435 67.5384 19.2771C67.3235 18.867 52.6165 2.24587 51.1321 0.722435C50.7806 0.370872 50.4095 0.195091 49.9993 0.195091C49.5892 0.195091 49.2181 0.370872 48.8665 0.722435ZM88.886 33.1248C92.7923 36.5037 96.054 39.3552 96.1517 39.4334C96.2298 39.5115 92.9876 42.4607 88.9251 45.9763L81.5423 52.3826L81.4837 48.0857L81.4446 43.7693L80.8978 43.3592C80.3704 42.9295 80.2728 42.9295 74.1204 43.0076C68.0071 43.0857 67.8314 43.1052 66.1321 43.6326C60.1751 45.449 56.1321 49.5896 54.6478 55.4685C54.3548 56.5818 54.2376 57.9295 54.1595 61.1717L54.0423 65.4099L53.3978 64.3162C51.679 61.4842 49.0814 58.4373 47.0306 56.8943L46.054 56.1521L46.1907 55.1756C46.3665 53.7693 47.0306 51.5037 47.7337 49.824C50.761 42.656 57.2259 37.2459 64.9603 35.449C67.0696 34.9607 70.0579 34.7654 75.4095 34.7654C80.4095 34.7654 80.6829 34.7459 81.054 34.3748C81.4251 34.0037 81.4446 33.7302 81.4446 30.4685C81.4446 28.5349 81.5228 26.9529 81.6009 26.9529C81.679 26.9529 84.9603 29.7263 88.886 33.1248Z" fill="#0A0A0A"/>
<path d="M19.4336 61.8945C18.6133 62.2461 18.5547 62.4805 18.5156 66.875L18.457 71.1133L15.2539 68.3789C13.0469 66.4648 11.9141 65.625 11.582 65.625C10.9375 65.625 10.1562 66.4453 10.1562 67.1289C10.1562 67.8125 10.4297 68.0859 15.5859 72.5195C19.4141 75.8398 19.8047 76.0742 20.7031 75.5859C21.3672 75.2344 21.4844 74.3164 21.4844 69.3945V64.6094L26.6211 64.707C32.2852 64.7852 33.0078 64.9023 35.4492 66.1133C38.8477 67.7734 41.3867 70.8594 42.5195 74.707C42.8125 75.7422 42.8516 77.1484 42.9297 87.4023C42.9883 98.8086 42.9883 98.9258 43.3984 99.3555C43.8086 99.8047 43.8477 99.8047 50 99.8047H56.1914L56.6016 99.3555C57.0312 98.9062 57.0312 98.8086 57.0312 92.6367V86.3477L56.5234 85.957C56.2305 85.7227 55.8789 85.5469 55.7422 85.5469C55.1758 85.5469 54.4922 86.0352 54.2969 86.582C54.1797 86.9336 54.1016 89.1406 54.1016 92.0117V96.875H50.0195H45.9375L45.8398 86.2695C45.7812 76.4453 45.7422 75.5859 45.3711 74.2188C43.7891 68.2812 39.8047 64.1797 33.8477 62.3633C32.168 61.8555 32.0117 61.8555 25.9766 61.7773C22.5977 61.7578 19.6484 61.7969 19.4336 61.8945Z" fill="#0A0A0A"/>
</g>
<defs>
<clipPath id="clip0_114_982">
<rect width="100" height="100" fill="white"/>
</clipPath>
</defs>
</svg>
