<svg width="100" height="100" viewBox="0 0 100 100" fill="none" xmlns="http://www.w3.org/2000/svg">
<path d="M20.2148 1.25C19.4336 1.58203 18.6133 2.55859 18.3594 3.47656C18.2617 3.86719 18.1641 4.86328 18.1641 5.70312V7.1875L16.1328 7.26562C14.4336 7.30469 14.0039 7.40234 13.5547 7.73438C12.5 8.51562 12.207 9.10156 12.1094 10.7031L12.0117 12.207L10.2148 12.3047C8.30078 12.4023 7.77344 12.6367 6.95312 13.75L6.54297 14.2773L6.48438 55.3516L6.44531 96.4258L6.89453 97.2656C7.20703 97.8516 7.61719 98.2617 8.20312 98.5742L9.04297 99.0234H37.0898H65.1562L66.0156 98.5742C67.2266 97.9688 67.7734 96.875 67.7734 95.0781V93.75H69.3555C72.2656 93.75 73.2227 92.8125 73.3984 89.8438L73.4961 88.0859H74.6289C76.0742 88.0859 77.5195 87.7734 78.0469 87.3438C79.043 86.5234 79.1992 85.9961 79.2969 83.2227L79.3945 80.5664L80.6641 80.4102C82.2656 80.2148 84.8242 79.3359 86.2891 78.4961C88.0664 77.4414 90.7617 74.6094 91.7383 72.7539C93.0078 70.332 93.4375 68.5156 93.4375 65.7227C93.4375 62.8906 93.125 61.5625 91.875 58.9844C91.0938 57.4219 90.6836 56.875 89.1797 55.3711C88.1836 54.375 86.8555 53.2812 86.1328 52.8711C84.668 52.0312 82.2656 51.2305 80.5664 51.0156L79.3945 50.8789L79.2969 34.375C79.2188 20.6445 79.1602 17.793 78.9258 17.3828C78.418 16.4844 63.5938 1.52344 62.9492 1.25C62.0312 0.859375 21.0938 0.859375 20.2148 1.25ZM61.1328 7.87109C61.1328 11.4648 61.1914 12.6562 61.4453 13.4961C62.0898 15.6836 63.7305 17.5586 65.9766 18.6133L67.2852 19.2383L72.1289 19.2969L76.9531 19.375V35.1367V50.918L75.293 51.3281C73.5352 51.7578 71.6406 52.5391 71.0547 53.0664C70.3906 53.6719 70.8398 55.0781 71.6797 55.0781C71.875 55.0781 72.5781 54.8242 73.2617 54.4922C75.1367 53.6328 76.6211 53.3008 78.7109 53.3008C82.2461 53.3008 84.9023 54.4141 87.4414 56.9336C88.7305 58.2227 89.1992 58.8672 89.8438 60.1758C91.6602 63.9453 91.6406 67.5586 89.8242 71.2891C88.2812 74.4336 85.1562 76.9531 81.7383 77.832C80.2539 78.2031 77.168 78.2031 75.6836 77.832C69.1406 76.1719 65.0391 69.5508 66.5234 63.0273C66.6992 62.2656 67.0117 61.25 67.207 60.7812C67.7148 59.6094 67.6758 59.0625 67.0898 58.6719C66.0547 58.0078 65.332 58.8477 64.4336 61.7188C64.043 62.9492 63.9648 63.5938 63.9648 65.7227C63.9648 68.6523 64.3164 70.0781 65.6836 72.7539C66.8359 75.0391 69.5703 77.7344 71.8945 78.8672C72.8125 79.3164 74.3359 79.8828 75.2539 80.1172L76.9531 80.5273V82.793C76.9531 84.043 76.8555 85.1953 76.7578 85.3516C76.6016 85.6055 73.2812 85.6445 48.8281 85.6445C21.5625 85.6445 21.0547 85.6445 20.7812 85.2734C20.5469 84.9414 20.5078 79.082 20.5078 44.5312C20.5078 8.33984 20.5469 4.14062 20.8203 3.75L21.1133 3.32031H41.1328H61.1328V7.87109ZM71.9141 16.9531C67.5586 17.0117 66.8164 16.8164 65.2148 15.2539C63.6328 13.6523 63.4766 13.0859 63.4766 8.51562L63.4961 4.78516L69.4141 10.8398L75.3516 16.8945L71.9141 16.9531ZM18.1641 47.1094C18.1641 68.9648 18.2422 84.9805 18.3594 85.4297C18.5742 86.3867 19.082 87.0898 19.9414 87.5977C20.5859 87.9883 20.9961 87.9883 45.8594 88.0469L71.0938 88.0859V89.2578C71.0938 89.8828 71.0156 90.625 70.8984 90.8984L70.7031 91.4062H42.8125C21.3867 91.4062 14.8633 91.3477 14.6875 91.1719C14.3555 90.8398 14.3555 10.1367 14.6875 9.80469C14.8242 9.66797 15.5469 9.57031 16.543 9.57031H18.1641V47.1094ZM12.1094 53.1055V91.543L12.5586 92.207C12.793 92.5586 13.3008 93.0664 13.6523 93.3008L14.3164 93.75H39.8633H65.4297V94.9023C65.4297 96.875 68.5547 96.6797 37.1094 96.6797C12.1875 96.6797 9.375 96.6406 9.10156 96.3672C8.82812 96.0938 8.78906 92.1289 8.78906 55.5859C8.78906 24.375 8.84766 15.0586 9.02344 14.8828C9.16016 14.7461 9.84375 14.6484 10.6836 14.6484H12.1094V53.1055Z" fill="#0A0A0A"/>
<path d="M24.3351 9.2385C23.8078 9.62913 23.671 11.3479 24.1007 12.0119C24.4718 12.5783 25.3898 12.676 25.8585 12.1877C26.3273 11.7385 26.2882 9.72678 25.8195 9.31663C25.3898 8.926 24.8039 8.88694 24.3351 9.2385Z" fill="#0A0A0A"/>
<path d="M24.3164 15.137L23.8281 15.6058V25.5276C23.8281 36.4651 23.8086 36.3284 25 36.3284C26.211 36.3284 26.1719 36.7191 26.1719 25.4886V15.2542L25.7422 14.9612C25.1367 14.5316 24.8633 14.5706 24.3164 15.137Z" fill="#0A0A0A"/>
<path d="M28.6518 15C28.183 15.5078 28.2416 16.3281 28.7494 16.6797C29.0619 16.9141 29.6674 16.9922 30.9955 16.9922C32.558 16.9922 32.8705 16.9336 33.2025 16.6016C33.6908 16.1133 33.7103 15.3906 33.2416 14.9805C32.6947 14.4727 29.101 14.5117 28.6518 15Z" fill="#0A0A0A"/>
<path d="M35.8784 15C35.4292 15.4883 35.4683 16.1328 35.937 16.6016C36.3081 16.9727 36.5815 16.9922 44.2964 16.9922C53.0854 16.9922 53.1245 16.9922 53.1245 15.8203C53.1245 14.6289 53.3198 14.6484 44.355 14.6484C36.6987 14.6484 36.1714 14.668 35.8784 15Z" fill="#0A0A0A"/>
<path d="M55.3901 15.0781C54.9409 15.7031 54.9995 16.1328 55.5854 16.582C55.937 16.8555 56.3862 16.9922 56.9722 16.9922C58.4761 16.9922 59.2573 15.7031 58.2417 14.8828C58.0659 14.7656 57.4214 14.6484 56.8159 14.6484C55.8784 14.6484 55.644 14.7266 55.3901 15.0781Z" fill="#0A0A0A"/>
<path d="M29.3936 24.3555C28.5538 24.5508 28.2217 25.6641 28.8272 26.25C29.1007 26.5234 30.4874 26.5625 41.2882 26.5625C51.8936 26.5625 53.4952 26.5234 53.71 26.2695C54.0616 25.8594 54.0225 25.0195 53.6319 24.6484C53.3389 24.3555 52.2257 24.3164 41.5421 24.2969C35.0772 24.2773 29.6085 24.2969 29.3936 24.3555Z" fill="#0A0A0A"/>
<path d="M56.8754 24.4141C56.1919 24.707 55.9379 25.4687 56.3286 26.0742C56.602 26.5039 56.7778 26.5625 57.7739 26.5625C58.3989 26.5625 59.0044 26.4648 59.1411 26.3281C59.4731 25.9961 59.434 24.9023 59.0825 24.6094C58.7114 24.2969 57.4223 24.1797 56.8754 24.4141Z" fill="#0A0A0A"/>
<path d="M62.5007 24.3555C61.5437 24.707 61.2312 25.6641 61.8757 26.2305C62.1882 26.5039 62.7155 26.5625 65.2937 26.5625H68.3601L68.6726 26.0742C69.0827 25.4492 68.8093 24.6875 68.0476 24.4141C67.5398 24.2187 63.0085 24.1602 62.5007 24.3555Z" fill="#0A0A0A"/>
<path d="M28.9446 34.2969C28.4173 34.668 28.3782 35.5469 28.8665 35.9961C29.179 36.2891 29.9017 36.3281 34.9993 36.3281C40.3313 36.3281 40.7806 36.3086 41.0735 35.9766C41.5228 35.4883 41.4837 34.8438 41.0149 34.375C40.6438 34.0039 40.3704 33.9844 34.9993 33.9844C30.2337 33.9844 29.3157 34.0234 28.9446 34.2969Z" fill="#0A0A0A"/>
<path d="M43.7509 34.375C42.9501 35.1758 43.497 36.3281 44.6884 36.3281C45.4306 36.3281 45.8993 35.8789 45.8993 35.1562C45.8993 34.1016 44.5126 33.6133 43.7509 34.375Z" fill="#0A0A0A"/>
<path d="M48.4759 34.2969C47.9485 34.668 47.9095 35.5469 48.3978 35.9961C48.7298 36.2891 49.7063 36.3281 58.554 36.3281H68.3392L68.6321 35.8984C69.0423 35.3125 69.0228 34.8438 68.554 34.375C68.1829 34.0039 67.9095 33.9844 58.5345 33.9844C50.136 33.9844 48.8665 34.0234 48.4759 34.2969Z" fill="#0A0A0A"/>
<path d="M28.8474 44.1012C28.3591 44.6286 28.4373 45.4489 28.9841 45.8005C29.3552 46.0544 30.1756 46.0934 34.1795 46.0544L38.9256 45.9958L39.2966 45.488C39.6287 45.0387 39.6482 44.902 39.4529 44.5114C39.3162 44.2575 39.1013 43.9841 38.9841 43.9059C38.867 43.8278 36.6013 43.7497 33.9646 43.7497C29.5506 43.7497 29.1404 43.7887 28.8474 44.1012Z" fill="#0A0A0A"/>
<path d="M41.9922 44.1406C41.7773 44.3555 41.6016 44.707 41.6016 44.9219C41.6016 45.1367 41.7773 45.4883 41.9922 45.7031C42.3633 46.0742 42.6367 46.0938 52.2461 46.0938C61.8555 46.0938 62.1289 46.0742 62.5 45.7031C62.7148 45.4883 62.8906 45.1367 62.8906 44.9219C62.8906 44.707 62.7148 44.3555 62.5 44.1406C62.1289 43.7695 61.8555 43.75 52.2461 43.75C42.6367 43.75 42.3633 43.7695 41.9922 44.1406Z" fill="#0A0A0A"/>
<path d="M65.332 44.0234C65.1172 44.1797 64.9805 44.5312 64.9805 44.9219C64.9805 45.8203 65.4492 46.0938 66.9336 46.0938C68.2617 46.0938 68.9453 45.7031 68.9453 44.9219C68.9453 44.1406 68.2617 43.75 66.9336 43.75C66.2109 43.75 65.5469 43.8672 65.332 44.0234Z" fill="#0A0A0A"/>
<path d="M28.8472 53.8672C28.3979 54.3555 28.437 55 28.9058 55.4688C29.2573 55.8203 29.5503 55.8594 32.3237 55.8594C35.2925 55.8594 35.3706 55.8398 35.8394 55.3711C36.4058 54.8242 36.4448 54.5508 36.0151 53.9453C35.7222 53.5352 35.605 53.5156 32.4409 53.5156C29.5112 53.5156 29.1206 53.5547 28.8472 53.8672Z" fill="#0A0A0A"/>
<path d="M38.5945 53.8281C38.1257 54.2773 38.2038 55.1953 38.7117 55.5469C39.0827 55.8203 39.9812 55.8594 44.4929 55.8594H49.8249L50.2937 55.3711C50.8601 54.8242 50.8992 54.5508 50.4695 53.9453C50.1765 53.5156 50.1374 53.5156 44.532 53.5156C39.6687 53.5156 38.8484 53.5547 38.5945 53.8281Z" fill="#0A0A0A"/>
<path d="M53.0659 53.8672C52.6167 54.3555 52.6558 55 53.1245 55.4688C53.4761 55.8203 53.769 55.8594 55.8589 55.8594C58.105 55.8594 58.2417 55.8398 58.6909 55.3711C59.2573 54.8242 59.2964 54.5508 58.8667 53.9453C58.5933 53.5352 58.437 53.5156 55.9761 53.5156C53.7104 53.5156 53.3394 53.5547 53.0659 53.8672Z" fill="#0A0A0A"/>
<path d="M80.5273 64.2969L75.6055 69.2187L73.7695 67.4219C72.7344 66.4258 71.7578 65.625 71.5625 65.625C70.918 65.625 70.3125 66.1914 70.3125 66.7578C70.3125 67.5 74.8633 72.0703 75.5859 72.0703C75.957 72.0703 77.3438 70.8008 81.582 66.543C87.4023 60.7422 87.5977 60.4687 86.7578 59.707C85.9375 58.9648 85.6641 59.1602 80.5273 64.2969Z" fill="#0A0A0A"/>
<path d="M29.2977 63.2227C28.536 63.4961 28.2626 64.5703 28.829 65.1172C29.0243 65.332 29.4931 65.4297 30.2743 65.4297C31.3095 65.4297 31.4657 65.3711 31.7587 64.9414C32.5009 63.7891 30.8602 62.6562 29.2977 63.2227Z" fill="#0A0A0A"/>
<path d="M34.7665 63.2227C34.0048 63.4961 33.7313 64.5703 34.2977 65.1172C34.5516 65.3906 35.4501 65.4297 41.1141 65.4297C46.7782 65.4297 47.6766 65.3906 47.9306 65.1172C48.3212 64.7461 48.3212 64.0625 47.9696 63.5547C47.6962 63.2031 47.3837 63.1836 41.3681 63.1445C37.8915 63.125 34.9227 63.1641 34.7665 63.2227Z" fill="#0A0A0A"/>
<path d="M51.0161 63.2812C50.3325 63.5742 50.0786 64.3359 50.4692 64.9414L50.7817 65.4297H54.102C56.8364 65.4297 57.4419 65.3711 57.6958 65.1172C58.0864 64.7461 58.0864 64.0625 57.7348 63.5547C57.4809 63.2227 57.1684 63.1836 54.4536 63.1445C52.8129 63.125 51.27 63.1836 51.0161 63.2812Z" fill="#0A0A0A"/>
<path d="M28.9446 73.1639C28.4173 73.5349 28.3782 74.4139 28.8665 74.8631C29.4329 75.3709 30.9563 75.3123 31.3274 74.7654C31.7571 74.1599 31.7181 73.7107 31.2103 73.242C30.7024 72.7732 29.5696 72.7146 28.9446 73.1639Z" fill="#0A0A0A"/>
<path d="M34.2181 73.1641C33.6907 73.5352 33.6517 74.4141 34.1399 74.8633C34.4524 75.1367 34.9798 75.1953 37.3431 75.1953C39.8431 75.1953 40.2142 75.1562 40.4876 74.8438C40.9368 74.3555 40.8978 73.7109 40.429 73.2422C40.0774 72.8906 39.7845 72.8516 37.3431 72.8516C35.2337 72.8516 34.5696 72.9102 34.2181 73.1641Z" fill="#0A0A0A"/>
<path d="M43.3978 73.1641C42.8704 73.5352 42.8313 74.4141 43.3196 74.8633C43.6517 75.1562 44.4329 75.1953 50.5267 75.1953C56.8938 75.1953 57.3821 75.1758 57.6751 74.8438C58.1438 74.3359 58.0852 73.5156 57.5774 73.1641C57.2063 72.8906 56.1907 72.8516 50.4876 72.8516C44.7845 72.8516 43.7688 72.8906 43.3978 73.1641Z" fill="#0A0A0A"/>
</svg>
