<svg width="100" height="100" viewBox="0 0 100 100" fill="none" xmlns="http://www.w3.org/2000/svg">
<path d="M18.2617 5.05859C17.3047 5.50781 16.3281 6.50391 15.9375 7.46094C15.7617 7.89062 15.625 8.76953 15.625 9.55078V10.918L11.4648 10.9766L7.28516 11.0352L6.58203 11.582C6.19141 11.875 5.625 12.4414 5.33203 12.832L4.78516 13.5352V50V86.4648L5.33203 87.168C5.625 87.5586 6.19141 88.125 6.58203 88.418L7.28516 88.9648L37.8711 89.0234L68.457 89.0625L70.3125 90.8789C73.4766 93.9453 76.8359 95.3125 81.25 95.3125C84.1016 95.3125 85.9375 94.8828 88.4766 93.6133C90.0586 92.832 90.6055 92.4023 92.2852 90.7227C93.9648 89.043 94.3945 88.4961 95.1758 86.9141C96.4453 84.375 96.875 82.5391 96.875 79.6875C96.875 76.8359 96.4453 75 95.1758 72.4805C94.1406 70.4102 91.9727 67.9297 90.1367 66.6992L89.0625 65.9961L89.0234 39.7656L88.9648 13.5352L88.418 12.832C88.125 12.4414 87.5586 11.875 87.168 11.582L86.4648 11.0352L82.2852 10.9766L78.125 10.918V9.51172C78.1055 6.54297 76.3086 4.6875 73.4375 4.6875C70.5664 4.6875 68.7695 6.54297 68.75 9.51172V10.9375H60.1562H51.5625V9.57031C51.5625 7.96875 51.2305 7.03125 50.332 6.07422C49.4141 5.11719 48.3789 4.6875 46.875 4.6875C45.3711 4.6875 44.3359 5.11719 43.418 6.07422C42.5195 7.03125 42.1875 7.96875 42.1875 9.57031V10.9375H33.5938H25V9.51172C24.9805 7.32422 24.0234 5.74219 22.2266 5C21.2109 4.57031 19.2383 4.60938 18.2617 5.05859ZM21.0938 8.20312C21.6992 8.51562 21.875 9.51172 21.875 12.5391C21.875 15.8203 21.6602 16.6992 20.8203 16.9141C19.9609 17.1289 19.3359 16.8359 19.0234 16.1133C18.6914 15.3125 18.6328 9.90234 18.9453 9.04297C19.3164 8.08594 20.2148 7.73438 21.0938 8.20312ZM47.6562 8.20312C48.2617 8.51562 48.4375 9.51172 48.4375 12.5391C48.4375 15.8203 48.2227 16.6992 47.3828 16.9141C46.5234 17.1289 45.8984 16.8359 45.5859 16.1133C45.2539 15.3125 45.1953 9.90234 45.5078 9.04297C45.8789 8.08594 46.7773 7.73438 47.6562 8.20312ZM74.2188 8.20312C74.8242 8.51562 75 9.51172 75 12.5391C75 15.8203 74.7852 16.6992 73.9453 16.9141C73.0859 17.1289 72.4609 16.8359 72.1484 16.1133C71.8164 15.3125 71.7578 9.90234 72.0703 9.04297C72.4414 8.08594 73.3398 7.73438 74.2188 8.20312ZM15.625 15.4297C15.625 17.0312 15.957 17.9688 16.8555 18.9258C17.7539 19.8633 18.8281 20.3125 20.2734 20.3125C23.1836 20.3125 24.9805 18.4766 25 15.4688V14.0625H33.5938H42.1875V15.4297C42.1875 17.0312 42.5195 17.9688 43.418 18.9258C44.3359 19.8828 45.3711 20.3125 46.875 20.3125C48.3789 20.3125 49.4141 19.8828 50.332 18.9258C51.2305 17.9688 51.5625 17.0312 51.5625 15.4297V14.0625H60.1562H68.75V15.4688C68.7695 18.457 70.5664 20.3125 73.4375 20.3125C76.3086 20.3125 78.1055 18.457 78.125 15.4688V14.043L81.6406 14.1016C84.6875 14.1602 85.1953 14.1992 85.4883 14.5117C85.8008 14.8242 85.8398 15.332 85.8984 19.1406L85.957 23.4375H46.8945H7.8125V19.4531C7.8125 17.2461 7.89062 15.2344 8.00781 14.9414C8.10547 14.668 8.39844 14.3555 8.63281 14.2578C8.88672 14.1602 10.5469 14.082 12.3633 14.082L15.625 14.0625V15.4297ZM85.9375 45.625C85.9375 63.6719 85.918 64.668 85.6055 64.5703C83.4766 63.9258 79.7266 63.8672 77.4219 64.4531C71.8164 65.8594 67.4023 70.3125 65.9961 75.957C65.4102 78.3008 65.5273 82.2266 66.25 84.4336L66.7578 85.9375L37.6758 85.8984C10.0781 85.8398 8.59375 85.8203 8.26172 85.4883C7.92969 85.1562 7.91016 83.6719 7.85156 55.8594L7.8125 26.5625H46.875H85.9375V45.625ZM84.2578 67.6953C87.9883 68.5938 91.3477 71.6016 92.8125 75.293C93.3398 76.6406 93.4375 77.168 93.5156 79.1016C93.6328 82.4805 92.8516 84.9219 90.8398 87.4414C85.4688 94.1211 75.1172 93.3789 70.625 85.9766C69.3359 83.8281 69.043 82.6562 69.043 79.5898C69.043 76.9922 69.082 76.7773 69.6484 75.3516C72.0508 69.3945 78.1445 66.2109 84.2578 67.6953Z" fill="#0A0A0A"/>
<path d="M12.8906 33.2031C12.5195 33.5742 12.5 33.8477 12.5 39.0625C12.5 44.2773 12.5195 44.5508 12.8906 44.9219C13.2617 45.293 13.5352 45.3125 18.75 45.3125C23.9648 45.3125 24.2383 45.293 24.6094 44.9219C24.9805 44.5508 25 44.2773 25 39.0625C25 33.8477 24.9805 33.5742 24.6094 33.2031C24.2383 32.832 23.9648 32.8125 18.75 32.8125C13.5352 32.8125 13.2617 32.832 12.8906 33.2031ZM21.875 39.0625V42.1875H18.75H15.625V39.0625V35.9375H18.75H21.875V39.0625Z" fill="#0A0A0A"/>
<path d="M31.6406 33.2031C31.2695 33.5742 31.25 33.8477 31.25 39.0625C31.25 44.2773 31.2695 44.5508 31.6406 44.9219C32.0117 45.293 32.2852 45.3125 37.5 45.3125C42.7148 45.3125 42.9883 45.293 43.3594 44.9219C43.7305 44.5508 43.75 44.2773 43.75 39.0625C43.75 33.8477 43.7305 33.5742 43.3594 33.2031C42.9883 32.832 42.7148 32.8125 37.5 32.8125C32.2852 32.8125 32.0117 32.832 31.6406 33.2031ZM40.625 39.0625V42.1875H37.5H34.375V39.0625V35.9375H37.5H40.625V39.0625Z" fill="#0A0A0A"/>
<path d="M50.3906 33.2031C50.0195 33.5742 50 33.8477 50 39.0625C50 44.2773 50.0195 44.5508 50.3906 44.9219C50.7617 45.293 51.0352 45.3125 56.25 45.3125C61.4648 45.3125 61.7383 45.293 62.1094 44.9219C62.4805 44.5508 62.5 44.2773 62.5 39.0625C62.5 33.8477 62.4805 33.5742 62.1094 33.2031C61.7383 32.832 61.4648 32.8125 56.25 32.8125C51.0352 32.8125 50.7617 32.832 50.3906 33.2031ZM59.375 39.0625V42.1875H56.25H53.125V39.0625V35.9375H56.25H59.375V39.0625Z" fill="#0A0A0A"/>
<path d="M69.1406 33.2031C68.7695 33.5742 68.75 33.8477 68.75 39.0625C68.75 44.2773 68.7695 44.5508 69.1406 44.9219C69.5117 45.293 69.7852 45.3125 75 45.3125C80.2148 45.3125 80.4883 45.293 80.8594 44.9219C81.2305 44.5508 81.25 44.2773 81.25 39.0625C81.25 33.8477 81.2305 33.5742 80.8594 33.2031C80.4883 32.832 80.2148 32.8125 75 32.8125C69.7852 32.8125 69.5117 32.832 69.1406 33.2031ZM78.125 39.0625V42.1875H75H71.875V39.0625V35.9375H75H78.125V39.0625Z" fill="#0A0A0A"/>
<path d="M12.8906 50.3906C12.5195 50.7617 12.5 51.0352 12.5 56.25C12.5 61.4648 12.5195 61.7383 12.8906 62.1094C13.2617 62.4805 13.5352 62.5 18.75 62.5C23.9648 62.5 24.2383 62.4805 24.6094 62.1094C24.9805 61.7383 25 61.4648 25 56.25C25 51.0352 24.9805 50.7617 24.6094 50.3906C24.2383 50.0195 23.9648 50 18.75 50C13.5352 50 13.2617 50.0195 12.8906 50.3906ZM21.875 56.25V59.375H18.75H15.625V56.25V53.125H18.75H21.875V56.25Z" fill="#0A0A0A"/>
<path d="M31.6406 50.3906C31.2695 50.7617 31.25 51.0352 31.25 56.25C31.25 61.4648 31.2695 61.7383 31.6406 62.1094C32.0117 62.4805 32.2852 62.5 37.5 62.5C42.7148 62.5 42.9883 62.4805 43.3594 62.1094C43.7305 61.7383 43.75 61.4648 43.75 56.25C43.75 51.0352 43.7305 50.7617 43.3594 50.3906C42.9883 50.0195 42.7148 50 37.5 50C32.2852 50 32.0117 50.0195 31.6406 50.3906ZM40.625 56.25V59.375H37.5H34.375V56.25V53.125H37.5H40.625V56.25Z" fill="#0A0A0A"/>
<path d="M50.3906 50.3906C50.0195 50.7617 50 51.0352 50 56.25C50 61.4648 50.0195 61.7383 50.3906 62.1094C50.7617 62.4805 51.0352 62.5 56.25 62.5C61.4648 62.5 61.7383 62.4805 62.1094 62.1094C62.4805 61.7383 62.5 61.4648 62.5 56.25C62.5 51.0352 62.4805 50.7617 62.1094 50.3906C61.7383 50.0195 61.4648 50 56.25 50C51.0352 50 50.7617 50.0195 50.3906 50.3906ZM59.375 56.25V59.375H56.25H53.125V56.25V53.125H56.25H59.375V56.25Z" fill="#0A0A0A"/>
<path d="M69.1406 50.3906C68.7695 50.7617 68.75 51.0352 68.75 56.25C68.75 61.4648 68.7695 61.7383 69.1406 62.1094C69.5117 62.4805 69.7852 62.5 75 62.5C80.2148 62.5 80.4883 62.4805 80.8594 62.1094C81.2305 61.7383 81.25 61.4648 81.25 56.25C81.25 51.0352 81.2305 50.7617 80.8594 50.3906C80.4883 50.0195 80.2148 50 75 50C69.7852 50 69.5117 50.0195 69.1406 50.3906ZM78.125 56.25V59.375H75H71.875V56.25V53.125H75H78.125V56.25Z" fill="#0A0A0A"/>
<path d="M12.8906 67.5781C12.5195 67.9492 12.5 68.2227 12.5 73.4375C12.5 78.6523 12.5195 78.9258 12.8906 79.2969C13.2617 79.668 13.5352 79.6875 18.75 79.6875C23.9648 79.6875 24.2383 79.668 24.6094 79.2969C24.9805 78.9258 25 78.6523 25 73.4375C25 68.2227 24.9805 67.9492 24.6094 67.5781C24.2383 67.207 23.9648 67.1875 18.75 67.1875C13.5352 67.1875 13.2617 67.207 12.8906 67.5781ZM21.875 73.4375V76.5625H18.75H15.625V73.4375V70.3125H18.75H21.875V73.4375Z" fill="#0A0A0A"/>
<path d="M31.6406 67.5781C31.2695 67.9492 31.25 68.2227 31.25 73.4375C31.25 78.6523 31.2695 78.9258 31.6406 79.2969C32.0117 79.668 32.2852 79.6875 37.5 79.6875C42.7148 79.6875 42.9883 79.668 43.3594 79.2969C43.7305 78.9258 43.75 78.6523 43.75 73.4375C43.75 68.2227 43.7305 67.9492 43.3594 67.5781C42.9883 67.207 42.7148 67.1875 37.5 67.1875C32.2852 67.1875 32.0117 67.207 31.6406 67.5781ZM40.625 73.4375V76.5625H37.5H34.375V73.4375V70.3125H37.5H40.625V73.4375Z" fill="#0A0A0A"/>
<path d="M50.3906 67.5781C50.0195 67.9492 50 68.2227 50 73.4375C50 78.6523 50.0195 78.9258 50.3906 79.2969C50.7617 79.668 51.0352 79.6875 56.25 79.6875C61.4648 79.6875 61.7383 79.668 62.1094 79.2969C62.4805 78.9258 62.5 78.6523 62.5 73.4375C62.5 68.2227 62.4805 67.9492 62.1094 67.5781C61.7383 67.207 61.4648 67.1875 56.25 67.1875C51.0352 67.1875 50.7617 67.207 50.3906 67.5781ZM59.375 73.4375V76.5625H56.25H53.125V73.4375V70.3125H56.25H59.375V73.4375Z" fill="#0A0A0A"/>
<path d="M80.0781 70.7032C79.707 71.0743 79.6875 71.3477 79.6875 75.7422C79.6875 79.1602 79.7461 80.4688 79.9414 80.7032C80.0586 80.879 81.3086 81.7774 82.7148 82.6954C85.4883 84.5313 86.3086 84.7852 87.1094 83.9844C87.5586 83.5352 87.6367 82.2852 87.2656 81.7969C87.1289 81.6211 86.0742 80.8594 84.9219 80.0977L82.8125 78.711V74.9024C82.8125 71.3477 82.793 71.0743 82.4219 70.7032C82.168 70.4493 81.7773 70.3125 81.25 70.3125C80.7227 70.3125 80.332 70.4493 80.0781 70.7032Z" fill="#0A0A0A"/>
</svg>
