<svg width="18.017578" height="18.014648" viewBox="0 0 18.0176 18.0146" fill="none" xmlns="http://www.w3.org/2000/svg" xmlns:xlink="http://www.w3.org/1999/xlink">
	<desc>
			Created with Pixso.
	</desc>
	<defs/>
	<path id="Vector" d="M11.124 9.00635L17.5732 2.57129C17.8564 2.28857 18.0146 1.90576 18.0146 1.50635C18.0146 1.10645 17.8564 0.723633 17.5732 0.440918C17.291 0.158691 16.9082 0 16.5088 0C16.1094 0 15.7266 0.158691 15.4434 0.440918L9.00879 6.89111L2.57324 0.440918C2.29102 0.158691 1.9082 0 1.50879 0C1.10938 0 0.726562 0.158691 0.443359 0.440918C0.161133 0.723633 0.00292969 1.10645 0.00292969 1.50635C0.00292969 1.90576 0.161133 2.28857 0.443359 2.57129L6.89355 9.00635L0.443359 15.4409C0.302734 15.5806 0.191406 15.7466 0.115234 15.9292C0.0390625 16.1123 0 16.3081 0 16.5063C0 16.7041 0.0390625 16.9004 0.115234 17.083C0.191406 17.2656 0.302734 17.4316 0.443359 17.5713C0.583008 17.7119 0.749023 17.8232 0.931641 17.8994C1.11426 17.9756 1.31055 18.0146 1.50879 18.0146C1.70703 18.0146 1.90234 17.9756 2.08594 17.8994C2.26855 17.8232 2.43457 17.7119 2.57324 17.5713L9.00879 11.1211L15.4434 17.5713C15.583 17.7119 15.749 17.8232 15.9316 17.8994C16.1143 17.9756 16.3105 18.0146 16.5088 18.0146C16.707 18.0146 16.9023 17.9756 17.0859 17.8994C17.2686 17.8232 17.4346 17.7119 17.5732 17.5713C17.7139 17.4316 17.8262 17.2656 17.9023 17.083C17.9785 16.9004 18.0176 16.7041 18.0176 16.5063C18.0176 16.3081 17.9785 16.1123 17.9023 15.9292C17.8262 15.7466 17.7139 15.5806 17.5732 15.4409L11.124 9.00635Z" fill="#A3A3A3" fill-opacity="0.500000" fill-rule="nonzero"/>
</svg>
