<svg width="24" height="25" viewBox="0 0 24 25" fill="none" xmlns="http://www.w3.org/2000/svg">
<g id="healthicons:ui-menu-grid">
<path id="Vector" d="M3 4.5C3 4.23478 3.10536 3.98043 3.29289 3.79289C3.48043 3.60536 3.73478 3.5 4 3.5H7C7.26522 3.5 7.51957 3.60536 7.70711 3.79289C7.89464 3.98043 8 4.23478 8 4.5V7.5C8 7.76522 7.89464 8.01957 7.70711 8.20711C7.51957 8.39464 7.26522 8.5 7 8.5H4C3.73478 8.5 3.48043 8.39464 3.29289 8.20711C3.10536 8.01957 3 7.76522 3 7.5V4.5ZM3 11C3 10.7348 3.10536 10.4804 3.29289 10.2929C3.48043 10.1054 3.73478 10 4 10H7C7.26522 10 7.51957 10.1054 7.70711 10.2929C7.89464 10.4804 8 10.7348 8 11V14C8 14.2652 7.89464 14.5196 7.70711 14.7071C7.51957 14.8946 7.26522 15 7 15H4C3.73478 15 3.48043 14.8946 3.29289 14.7071C3.10536 14.5196 3 14.2652 3 14V11ZM3 17.5C3 17.2348 3.10536 16.9804 3.29289 16.7929C3.48043 16.6054 3.73478 16.5 4 16.5H7C7.26522 16.5 7.51957 16.6054 7.70711 16.7929C7.89464 16.9804 8 17.2348 8 17.5V20.5C8 20.7652 7.89464 21.0196 7.70711 21.2071C7.51957 21.3946 7.26522 21.5 7 21.5H4C3.73478 21.5 3.48043 21.3946 3.29289 21.2071C3.10536 21.0196 3 20.7652 3 20.5V17.5ZM9.5 4.5C9.5 4.23478 9.60536 3.98043 9.79289 3.79289C9.98043 3.60536 10.2348 3.5 10.5 3.5H13.5C13.7652 3.5 14.0196 3.60536 14.2071 3.79289C14.3946 3.98043 14.5 4.23478 14.5 4.5V7.5C14.5 7.76522 14.3946 8.01957 14.2071 8.20711C14.0196 8.39464 13.7652 8.5 13.5 8.5H10.5C10.2348 8.5 9.98043 8.39464 9.79289 8.20711C9.60536 8.01957 9.5 7.76522 9.5 7.5V4.5ZM9.5 11C9.5 10.7348 9.60536 10.4804 9.79289 10.2929C9.98043 10.1054 10.2348 10 10.5 10H13.5C13.7652 10 14.0196 10.1054 14.2071 10.2929C14.3946 10.4804 14.5 10.7348 14.5 11V14C14.5 14.2652 14.3946 14.5196 14.2071 14.7071C14.0196 14.8946 13.7652 15 13.5 15H10.5C10.2348 15 9.98043 14.8946 9.79289 14.7071C9.60536 14.5196 9.5 14.2652 9.5 14V11ZM9.5 17.5C9.5 17.2348 9.60536 16.9804 9.79289 16.7929C9.98043 16.6054 10.2348 16.5 10.5 16.5H13.5C13.7652 16.5 14.0196 16.6054 14.2071 16.7929C14.3946 16.9804 14.5 17.2348 14.5 17.5V20.5C14.5 20.7652 14.3946 21.0196 14.2071 21.2071C14.0196 21.3946 13.7652 21.5 13.5 21.5H10.5C10.2348 21.5 9.98043 21.3946 9.79289 21.2071C9.60536 21.0196 9.5 20.7652 9.5 20.5V17.5ZM16 4.5C16 4.23478 16.1054 3.98043 16.2929 3.79289C16.4804 3.60536 16.7348 3.5 17 3.5H20C20.2652 3.5 20.5196 3.60536 20.7071 3.79289C20.8946 3.98043 21 4.23478 21 4.5V7.5C21 7.76522 20.8946 8.01957 20.7071 8.20711C20.5196 8.39464 20.2652 8.5 20 8.5H17C16.7348 8.5 16.4804 8.39464 16.2929 8.20711C16.1054 8.01957 16 7.76522 16 7.5V4.5ZM16 11C16 10.7348 16.1054 10.4804 16.2929 10.2929C16.4804 10.1054 16.7348 10 17 10H20C20.2652 10 20.5196 10.1054 20.7071 10.2929C20.8946 10.4804 21 10.7348 21 11V14C21 14.2652 20.8946 14.5196 20.7071 14.7071C20.5196 14.8946 20.2652 15 20 15H17C16.7348 15 16.4804 14.8946 16.2929 14.7071C16.1054 14.5196 16 14.2652 16 14V11ZM16 17.5C16 17.2348 16.1054 16.9804 16.2929 16.7929C16.4804 16.6054 16.7348 16.5 17 16.5H20C20.2652 16.5 20.5196 16.6054 20.7071 16.7929C20.8946 16.9804 21 17.2348 21 17.5V20.5C21 20.7652 20.8946 21.0196 20.7071 21.2071C20.5196 21.3946 20.2652 21.5 20 21.5H17C16.7348 21.5 16.4804 21.3946 16.2929 21.2071C16.1054 21.0196 16 20.7652 16 20.5V17.5Z" fill="white"/>
</g>
</svg>
