<svg width="38" height="37" viewBox="0 0 38 37" fill="none" xmlns="http://www.w3.org/2000/svg">
<path d="M7.841 16.0128C10.8109 21.83 15.5957 26.5989 21.4324 29.5589L25.9698 25.0367C26.5472 24.4611 27.3516 24.2967 28.0734 24.5228C30.3834 25.2833 32.8583 25.6944 35.4363 25.6944C35.9833 25.6944 36.5079 25.911 36.8947 26.2965C37.2815 26.682 37.4987 27.2048 37.4987 27.75V34.9444C37.4987 35.4896 37.2815 36.0125 36.8947 36.3979C36.5079 36.7834 35.9833 37 35.4363 37C26.1375 37 17.2195 33.3184 10.6442 26.765C4.06895 20.2117 0.375 11.3234 0.375 2.05556C0.375 1.51039 0.592291 0.98755 0.979072 0.602058C1.36585 0.216567 1.89044 0 2.43743 0H9.65594C10.2029 0 10.7275 0.216567 11.1143 0.602058C11.5011 0.98755 11.7184 1.51039 11.7184 2.05556C11.7184 4.625 12.1309 7.09167 12.894 9.39389C13.1208 10.1133 12.9558 10.915 12.3783 11.4906L7.841 16.0128Z" fill="url(#paint0_linear_1486_5699)"/>
<defs>
<linearGradient id="paint0_linear_1486_5699" x1="6.87843" y1="18.5" x2="31.4921" y2="18.5" gradientUnits="userSpaceOnUse">
<stop offset="0.00242445" stop-color="#57DCCC" stop-opacity="0.69"/>
<stop offset="1" stop-color="#71FF6F" stop-opacity="0.76"/>
</linearGradient>
</defs>
</svg>
