<svg width="79" height="27" viewBox="0 0 79 27" fill="none" xmlns="http://www.w3.org/2000/svg">
<path fill-rule="evenodd" clip-rule="evenodd" d="M28.2917 0.44574C28.6726 0.285393 29.0896 0.23009 29.4992 0.285588C29.9088 0.341085 30.2961 0.505354 30.6206 0.761297C30.9452 1.01724 31.1952 1.3555 31.3447 1.74087C31.4942 2.12624 31.5377 2.54463 31.4706 2.95249L27.9741 24.1612C27.6349 26.207 25.3902 27.3802 23.514 26.3612C21.9446 25.5086 19.6136 24.1951 17.517 22.8246C16.4686 22.1385 13.2573 19.9417 13.652 18.3784C13.9912 17.0418 19.387 12.019 22.4703 9.03282C23.6805 7.85962 23.1286 7.18282 21.6995 8.26199C18.1506 10.9414 12.4526 15.016 10.5687 16.163C8.90674 17.1744 8.04033 17.347 7.00433 17.1744C5.11424 16.8599 3.36137 16.3727 1.9307 15.7792C-0.0025478 14.9775 0.0914939 12.3197 1.92916 11.5457L28.2917 0.44574Z" fill="url(#paint0_linear_3460_4145)"/>
<path d="M77.0132 24.4882H72.962C71.4299 24.4882 70.9683 23.2473 68.2219 20.4991C65.8217 18.1859 64.808 17.8983 64.2008 17.8983C63.3611 17.8983 63.1321 18.1291 63.1321 19.2848V22.9277C63.1321 23.913 62.8126 24.49 60.2384 24.49C57.741 24.3222 55.3193 23.5635 53.1726 22.2764C51.0259 20.9894 49.2157 19.2107 47.8911 17.0869C44.7459 13.1724 42.5576 8.57805 41.5 3.66919C41.5 3.06203 41.7308 2.51169 42.8883 2.51169H46.936C47.9763 2.51169 48.3509 2.97504 48.7592 4.04555C50.7245 9.8295 54.078 14.8607 55.4397 14.8607C55.9616 14.8607 56.1889 14.6299 56.1889 13.3286V7.3707C56.0167 4.65271 54.5734 4.42369 54.5734 3.44017C54.5916 3.18069 54.7103 2.93856 54.9042 2.76519C55.0981 2.59182 55.352 2.50088 55.6119 2.51169H61.9746C62.8445 2.51169 63.1321 2.94486 63.1321 3.98519V12.0273C63.1321 12.8955 63.5049 13.1831 63.7677 13.1831C64.2896 13.1831 64.6908 12.8955 65.6477 11.9403C67.6988 9.43891 69.3746 6.652 70.6221 3.66741C70.7498 3.30907 70.9912 3.00234 71.3095 2.79399C71.6278 2.58564 72.0055 2.48713 72.385 2.51346H76.4345C77.6488 2.51346 77.9062 3.12062 77.6488 3.98697C76.1759 7.28622 74.3535 10.418 72.2128 13.3286C71.7761 13.9944 71.6021 14.3405 72.2128 15.1217C72.614 15.7288 74.0343 16.9147 74.9876 18.0421C76.3759 19.4268 77.5281 21.0281 78.3997 22.7821C78.7477 23.9112 78.1689 24.4882 77.0132 24.4882Z" fill="url(#paint1_linear_3460_4145)"/>
<defs>
<linearGradient id="paint0_linear_3460_4145" x1="5.94376" y1="13.4998" x2="26.4878" y2="13.4998" gradientUnits="userSpaceOnUse">
<stop offset="0.00242445" stop-color="#57DCCC" stop-opacity="0.69"/>
<stop offset="1" stop-color="#71FF6F" stop-opacity="0.76"/>
</linearGradient>
<linearGradient id="paint1_linear_3460_4145" x1="47.9818" y1="13.4996" x2="72.5134" y2="13.4996" gradientUnits="userSpaceOnUse">
<stop offset="0.00242445" stop-color="#57DCCC" stop-opacity="0.69"/>
<stop offset="1" stop-color="#71FF6F" stop-opacity="0.76"/>
</linearGradient>
</defs>
</svg>
