<svg width="46" height="37" viewBox="0 0 46 37" fill="none" xmlns="http://www.w3.org/2000/svg">
<path d="M3.71429 3.36364V30.2727C3.71429 31.1648 4.05293 32.0204 4.65573 32.6512C5.25852 33.282 6.07609 33.6364 6.92857 33.6364H39.0714C39.9239 33.6364 40.7415 33.282 41.3443 32.6512C41.9471 32.0204 42.2857 31.1648 42.2857 30.2727V3.36364H3.71429ZM3.71429 0H42.2857C43.1382 0 43.9558 0.354382 44.5586 0.985186C45.1614 1.61599 45.5 2.47154 45.5 3.36364V30.2727C45.5 32.0569 44.8227 33.768 43.6171 35.0296C42.4115 36.2912 40.7764 37 39.0714 37H6.92857C5.22361 37 3.58848 36.2912 2.38288 35.0296C1.17729 33.768 0.5 32.0569 0.5 30.2727V3.36364C0.5 2.47154 0.838647 1.61599 1.44144 0.985186C2.04424 0.354382 2.8618 0 3.71429 0Z" fill="url(#paint0_linear_3460_4146)"/>
<path d="M42.6875 3.36377L30.2579 18.231C29.3528 19.3138 28.237 20.1815 26.9852 20.776C25.7334 21.3705 24.3747 21.6781 23 21.6781C21.6253 21.6781 20.2666 21.3705 19.0148 20.776C17.763 20.1815 16.6472 19.3138 15.7421 18.231L3.3125 3.36377H42.6875ZM7.58429 3.36377L18.1593 16.0144C18.7627 16.7364 19.5066 17.3151 20.3412 17.7115C21.1758 18.108 22.0818 18.3131 22.9984 18.3131C23.915 18.3131 24.8209 18.108 25.6556 17.7115C26.4902 17.3151 27.2341 16.7364 27.8375 16.0144L38.4157 3.36377H7.58429Z" fill="url(#paint1_linear_3460_4146)"/>
<defs>
<linearGradient id="paint0_linear_3460_4146" x1="8.38321" y1="18.5" x2="38.219" y2="18.5" gradientUnits="userSpaceOnUse">
<stop offset="0.00242445" stop-color="#57DCCC" stop-opacity="0.69"/>
<stop offset="1" stop-color="#71FF6F" stop-opacity="0.76"/>
</linearGradient>
<linearGradient id="paint1_linear_3460_4146" x1="10.2103" y1="12.5209" x2="36.3166" y2="12.5209" gradientUnits="userSpaceOnUse">
<stop offset="0.00242445" stop-color="#57DCCC" stop-opacity="0.69"/>
<stop offset="1" stop-color="#71FF6F" stop-opacity="0.76"/>
</linearGradient>
</defs>
</svg>
