<svg width="31" height="37" viewBox="0 0 31 37" fill="none" xmlns="http://www.w3.org/2000/svg">
<path d="M25.915 20.6737C24.605 23.1296 22.83 25.5763 21.015 27.7731C19.2932 29.8442 17.4522 31.8281 15.5 33.7163C13.5477 31.8282 11.7067 29.8443 9.985 27.7731C8.17 25.5763 6.395 23.1296 5.085 20.6737C3.76 18.1924 3 15.8684 3 13.875C3 10.8084 4.31696 7.86747 6.66117 5.69908C9.00537 3.53069 12.1848 2.3125 15.5 2.3125C18.8152 2.3125 21.9946 3.53069 24.3388 5.69908C26.683 7.86747 28 10.8084 28 13.875C28 15.8684 27.2375 18.1924 25.915 20.6737ZM15.5 37C15.5 37 30.5 23.8511 30.5 13.875C30.5 10.1951 28.9196 6.66596 26.1066 4.06389C23.2936 1.46183 19.4782 0 15.5 0C11.5218 0 7.70644 1.46183 4.8934 4.06389C2.08035 6.66596 0.5 10.1951 0.5 13.875C0.5 23.8511 15.5 37 15.5 37Z" fill="url(#paint0_linear_3460_4147)"/>
<path d="M15.5 18.5C14.1739 18.5 12.9021 18.0127 11.9645 17.1454C11.0268 16.278 10.5 15.1016 10.5 13.875C10.5 12.6484 11.0268 11.472 11.9645 10.6046C12.9021 9.73728 14.1739 9.25 15.5 9.25C16.8261 9.25 18.0979 9.73728 19.0355 10.6046C19.9732 11.472 20.5 12.6484 20.5 13.875C20.5 15.1016 19.9732 16.278 19.0355 17.1454C18.0979 18.0127 16.8261 18.5 15.5 18.5ZM15.5 20.8125C17.4891 20.8125 19.3968 20.0816 20.8033 18.7806C22.2098 17.4795 23 15.7149 23 13.875C23 12.0351 22.2098 10.2705 20.8033 8.96945C19.3968 7.66841 17.4891 6.9375 15.5 6.9375C13.5109 6.9375 11.6032 7.66841 10.1967 8.96945C8.79018 10.2705 8 12.0351 8 13.875C8 15.7149 8.79018 17.4795 10.1967 18.7806C11.6032 20.0816 13.5109 20.8125 15.5 20.8125Z" fill="url(#paint1_linear_3460_4147)"/>
<defs>
<linearGradient id="paint0_linear_3460_4147" x1="5.75547" y1="18.5" x2="25.646" y2="18.5" gradientUnits="userSpaceOnUse">
<stop offset="0.00242445" stop-color="#57DCCC" stop-opacity="0.69"/>
<stop offset="1" stop-color="#71FF6F" stop-opacity="0.76"/>
</linearGradient>
<linearGradient id="paint1_linear_3460_4147" x1="10.6277" y1="13.875" x2="20.573" y2="13.875" gradientUnits="userSpaceOnUse">
<stop offset="0.00242445" stop-color="#57DCCC" stop-opacity="0.69"/>
<stop offset="1" stop-color="#71FF6F" stop-opacity="0.76"/>
</linearGradient>
</defs>
</svg>
