<svg width="47" height="47" viewBox="0 0 47 47" fill="none" xmlns="http://www.w3.org/2000/svg">
<rect width="47" height="47" rx="10" fill="rgba(160, 71, 216, 0.3)"/>
<path d="M9.625 11.1667C9.625 10.7578 9.78743 10.3657 10.0765 10.0765C10.3657 9.78743 10.7578 9.625 11.1667 9.625H15.7917C16.2005 9.625 16.5927 9.78743 16.8818 10.0765C17.1709 10.3657 17.3333 10.7578 17.3333 11.1667V15.7917C17.3333 16.2005 17.1709 16.5927 16.8818 16.8818C16.5927 17.1709 16.2005 17.3333 15.7917 17.3333H11.1667C10.7578 17.3333 10.3657 17.1709 10.0765 16.8818C9.78743 16.5927 9.625 16.2005 9.625 15.7917V11.1667ZM9.625 21.1875C9.625 20.7786 9.78743 20.3865 10.0765 20.0974C10.3657 19.8083 10.7578 19.6458 11.1667 19.6458H15.7917C16.2005 19.6458 16.5927 19.8083 16.8818 20.0974C17.1709 20.3865 17.3333 20.7786 17.3333 21.1875V25.8125C17.3333 26.2214 17.1709 26.6135 16.8818 26.9026C16.5927 27.1917 16.2005 27.3542 15.7917 27.3542H11.1667C10.7578 27.3542 10.3657 27.1917 10.0765 26.9026C9.78743 26.6135 9.625 26.2214 9.625 25.8125V21.1875ZM9.625 31.2083C9.625 30.7995 9.78743 30.4073 10.0765 30.1182C10.3657 29.8291 10.7578 29.6667 11.1667 29.6667H15.7917C16.2005 29.6667 16.5927 29.8291 16.8818 30.1182C17.1709 30.4073 17.3333 30.7995 17.3333 31.2083V35.8333C17.3333 36.2422 17.1709 36.6343 16.8818 36.9235C16.5927 37.2126 16.2005 37.375 15.7917 37.375H11.1667C10.7578 37.375 10.3657 37.2126 10.0765 36.9235C9.78743 36.6343 9.625 36.2422 9.625 35.8333V31.2083ZM19.6458 11.1667C19.6458 10.7578 19.8083 10.3657 20.0974 10.0765C20.3865 9.78743 20.7786 9.625 21.1875 9.625H25.8125C26.2214 9.625 26.6135 9.78743 26.9026 10.0765C27.1917 10.3657 27.3542 10.7578 27.3542 11.1667V15.7917C27.3542 16.2005 27.1917 16.5927 26.9026 16.8818C26.6135 17.1709 26.2214 17.3333 25.8125 17.3333H21.1875C20.7786 17.3333 20.3865 17.1709 20.0974 16.8818C19.8083 16.5927 19.6458 16.2005 19.6458 15.7917V11.1667ZM19.6458 21.1875C19.6458 20.7786 19.8083 20.3865 20.0974 20.0974C20.3865 19.8083 20.7786 19.6458 21.1875 19.6458H25.8125C26.2214 19.6458 26.6135 19.8083 26.9026 20.0974C27.1917 20.3865 27.3542 20.7786 27.3542 21.1875V25.8125C27.3542 26.2214 27.1917 26.6135 26.9026 26.9026C26.6135 27.1917 26.2214 27.3542 25.8125 27.3542H21.1875C20.7786 27.3542 20.3865 27.1917 20.0974 26.9026C19.8083 26.6135 19.6458 26.2214 19.6458 25.8125V21.1875ZM19.6458 31.2083C19.6458 30.7995 19.8083 30.4073 20.0974 30.1182C20.3865 29.8291 20.7786 29.6667 21.1875 29.6667H25.8125C26.2214 29.6667 26.6135 29.8291 26.9026 30.1182C27.1917 30.4073 27.3542 30.7995 27.3542 31.2083V35.8333C27.3542 36.2422 27.1917 36.6343 26.9026 36.9235C26.6135 37.2126 26.2214 37.375 25.8125 37.375H21.1875C20.7786 37.375 20.3865 37.2126 20.0974 36.9235C19.8083 36.6343 19.6458 36.2422 19.6458 35.8333V31.2083ZM29.6667 11.1667C29.6667 10.7578 29.8291 10.3657 30.1182 10.0765C30.4073 9.78743 30.7995 9.625 31.2083 9.625H35.8333C36.2422 9.625 36.6343 9.78743 36.9235 10.0765C37.2126 10.3657 37.375 10.7578 37.375 11.1667V15.7917C37.375 16.2005 37.2126 16.5927 36.9235 16.8818C36.6343 17.1709 36.2422 17.3333 35.8333 17.3333H31.2083C30.7995 17.3333 30.4073 17.1709 30.1182 16.8818C29.8291 16.5927 29.6667 16.2005 29.6667 15.7917V11.1667ZM29.6667 21.1875C29.6667 20.7786 29.8291 20.3865 30.1182 20.0974C30.4073 19.8083 30.7995 19.6458 31.2083 19.6458H35.8333C36.2422 19.6458 36.6343 19.8083 36.9235 20.0974C37.2126 20.3865 37.375 20.7786 37.375 21.1875V25.8125C37.375 26.2214 37.2126 26.6135 36.9235 26.9026C36.6343 27.1917 36.2422 27.3542 35.8333 27.3542H31.2083C30.7995 27.3542 30.4073 27.1917 30.1182 26.9026C29.8291 26.6135 29.6667 26.2214 29.6667 25.8125V21.1875ZM29.6667 31.2083C29.6667 30.7995 29.8291 30.4073 30.1182 30.1182C30.4073 29.8291 30.7995 29.6667 31.2083 29.6667H35.8333C36.2422 29.6667 36.6343 29.8291 36.9235 30.1182C37.2126 30.4073 37.375 30.7995 37.375 31.2083V35.8333C37.375 36.2422 37.2126 36.6343 36.9235 36.9235C36.6343 37.2126 36.2422 37.375 35.8333 37.375H31.2083C30.7995 37.375 30.4073 37.2126 30.1182 36.9235C29.8291 36.6343 29.6667 36.2422 29.6667 35.8333V31.2083Z" fill="white"/>
</svg>
