<svg width="79" height="62" viewBox="0 0 79 62" fill="none" xmlns="http://www.w3.org/2000/svg">
<path d="M49.7012 28.005C49.7012 28.555 49.2552 29 48.7062 29H40.6962C40.4323 29 40.1792 28.8952 39.9926 28.7086C39.806 28.522 39.7012 28.2689 39.7012 28.005C39.7012 27.7411 39.806 27.488 39.9926 27.3014C40.1792 27.1148 40.4323 27.01 40.6962 27.01H48.7062C49.2562 27.01 49.7012 27.455 49.7012 28.005ZM49.7012 22C49.7012 22.55 49.2552 22.995 48.7062 22.995H30.6962C30.4323 22.995 30.1792 22.8902 29.9926 22.7036C29.806 22.517 29.7012 22.2639 29.7012 22C29.7012 21.7361 29.806 21.483 29.9926 21.2964C30.1792 21.1098 30.4323 21.005 30.6962 21.005H48.7062C49.2562 21.005 49.7012 21.451 49.7012 22ZM48.7062 16.99C48.9701 16.99 49.2231 16.8852 49.4097 16.6986C49.5963 16.512 49.7012 16.2589 49.7012 15.995C49.7012 15.7311 49.5963 15.478 49.4097 15.2914C49.2231 15.1048 48.9701 15 48.7062 15H36.6962C36.5655 15 36.4361 15.0257 36.3154 15.0757C36.1947 15.1257 36.085 15.199 35.9926 15.2914C35.9002 15.3838 35.8269 15.4935 35.7769 15.6142C35.7269 15.7349 35.7012 15.8643 35.7012 15.995C35.7012 16.1257 35.7269 16.2551 35.7769 16.3758C35.8269 16.4965 35.9002 16.6062 35.9926 16.6986C36.085 16.791 36.1947 16.8643 36.3154 16.9143C36.4361 16.9643 36.5655 16.99 36.6962 16.99H48.7062Z" fill="white"/>
<path d="M24.8812 49V42H25.4912L28.6912 47.46H28.3712L31.5412 42H32.1512V49H31.4412V43.11H31.6112L28.6912 48.11H28.3412L25.4012 43.11H25.5912V49H24.8812ZM36.5901 49.05C36.0434 49.05 35.5634 48.9367 35.1501 48.71C34.7367 48.4767 34.4134 48.16 34.1801 47.76C33.9467 47.3533 33.8301 46.89 33.8301 46.37C33.8301 45.85 33.9401 45.39 34.1601 44.99C34.3867 44.59 34.6934 44.2767 35.0801 44.05C35.4734 43.8167 35.9134 43.7 36.4001 43.7C36.8934 43.7 37.3301 43.8133 37.7101 44.04C38.0967 44.26 38.4001 44.5733 38.6201 44.98C38.8401 45.38 38.9501 45.8433 38.9501 46.37C38.9501 46.4033 38.9467 46.44 38.9401 46.48C38.9401 46.5133 38.9401 46.55 38.9401 46.59H34.3701V46.06H38.5601L38.2801 46.27C38.2801 45.89 38.1967 45.5533 38.0301 45.26C37.8701 44.96 37.6501 44.7267 37.3701 44.56C37.0901 44.3933 36.7667 44.31 36.4001 44.31C36.0401 44.31 35.7167 44.3933 35.4301 44.56C35.1434 44.7267 34.9201 44.96 34.7601 45.26C34.6001 45.56 34.5201 45.9033 34.5201 46.29V46.4C34.5201 46.8 34.6067 47.1533 34.7801 47.46C34.9601 47.76 35.2067 47.9967 35.5201 48.17C35.8401 48.3367 36.2034 48.42 36.6101 48.42C36.9301 48.42 37.2267 48.3633 37.5001 48.25C37.7801 48.1367 38.0201 47.9633 38.2201 47.73L38.6201 48.19C38.3867 48.47 38.0934 48.6833 37.7401 48.83C37.3934 48.9767 37.0101 49.05 36.5901 49.05ZM40.5217 49V43.75H41.2317V46.07H44.5417V43.75H45.2517V49H44.5417V46.68H41.2317V49H40.5217ZM47.2698 49V43.75H47.9798V46.01H49.5798V46.66H47.9798V49H47.2698ZM51.7898 49.05C51.2898 49.05 50.8398 48.9367 50.4398 48.71C50.0464 48.4767 49.7364 48.16 49.5098 47.76C49.2831 47.3533 49.1698 46.89 49.1698 46.37C49.1698 45.8433 49.2831 45.38 49.5098 44.98C49.7364 44.58 50.0464 44.2667 50.4398 44.04C50.8398 43.8133 51.2898 43.7 51.7898 43.7C52.2898 43.7 52.7364 43.8133 53.1298 44.04C53.5231 44.2667 53.8331 44.58 54.0598 44.98C54.2864 45.38 54.3998 45.8433 54.3998 46.37C54.3998 46.89 54.2864 47.3533 54.0598 47.76C53.8331 48.16 53.5231 48.4767 53.1298 48.71C52.7364 48.9367 52.2898 49.05 51.7898 49.05ZM51.7898 48.43C52.1564 48.43 52.4831 48.3433 52.7698 48.17C53.0564 47.9967 53.2831 47.7567 53.4498 47.45C53.6164 47.1367 53.6998 46.7767 53.6998 46.37C53.6998 45.9567 53.6164 45.5967 53.4498 45.29C53.2831 44.9833 53.0564 44.7467 52.7698 44.58C52.4831 44.4067 52.1564 44.32 51.7898 44.32C51.4298 44.32 51.1031 44.4067 50.8098 44.58C50.5231 44.7467 50.2964 44.9833 50.1298 45.29C49.9631 45.5967 49.8798 45.9567 49.8798 46.37C49.8798 46.7767 49.9631 47.1367 50.1298 47.45C50.2964 47.7567 50.5231 47.9967 50.8098 48.17C51.1031 48.3433 51.4298 48.43 51.7898 48.43Z" fill="#DEDEDE"/>
</svg>
