<svg width="79" height="62" viewBox="0 0 79 62" fill="none" xmlns="http://www.w3.org/2000/svg">
<path d="M41.232 31.77L41.774 30.854L40.484 30.09L39.941 31.006L41.232 31.77ZM37.226 30.854L37.768 31.77L39.058 31.006L38.517 30.09L37.226 30.854ZM39.941 31.006C39.8943 31.0808 39.8293 31.1425 39.7521 31.1853C39.675 31.228 39.5882 31.2505 39.5 31.2505C39.4118 31.2505 39.325 31.228 39.2479 31.1853C39.1707 31.1425 39.1057 31.0808 39.059 31.006L37.768 31.77C38.541 33.077 40.458 33.077 41.232 31.77L39.941 31.006ZM38 12.75H41V11.25H38V12.75ZM48.75 20.5V21.5H50.25V20.5H48.75ZM30.25 21.5V20.5H28.75V21.5H30.25ZM28.75 21.5C28.75 22.655 28.75 23.558 28.8 24.287C28.85 25.022 28.953 25.634 29.188 26.2L30.574 25.626C30.427 25.274 30.341 24.844 30.296 24.185C30.25 23.519 30.25 22.675 30.25 21.5H28.75ZM35.303 28.242C34.047 28.22 33.389 28.14 32.873 27.926L32.3 29.312C33.105 29.646 34.021 29.721 35.277 29.743L35.303 28.242ZM29.188 26.2C29.477 26.8977 29.9005 27.5316 30.4345 28.0655C30.9684 28.5995 31.6023 29.023 32.3 29.312L32.873 27.926C31.8317 27.4947 31.0053 26.6673 30.574 25.626L29.188 26.2ZM48.75 21.5C48.75 22.675 48.75 23.519 48.704 24.185C48.659 24.844 48.573 25.274 48.427 25.626L49.812 26.2C50.047 25.634 50.15 25.022 50.201 24.287C50.251 23.558 50.25 22.655 50.25 21.5H48.75ZM43.723 29.741C44.979 29.72 45.895 29.646 46.7 29.312L46.126 27.926C45.611 28.14 44.953 28.22 43.698 28.242L43.723 29.741ZM48.427 25.626C47.9957 26.6673 47.1683 27.4947 46.127 27.926L46.7 29.312C47.3977 29.023 48.0316 28.5995 48.5655 28.0655C49.0995 27.5316 49.523 26.8977 49.812 26.2L48.427 25.626ZM41 12.75C42.651 12.75 43.837 12.75 44.762 12.839C45.676 12.926 46.257 13.092 46.721 13.376L47.504 12.097C46.765 11.645 45.927 11.443 44.904 11.345C43.892 11.249 42.622 11.25 41 11.25V12.75ZM50.25 20.5C50.25 18.878 50.25 17.609 50.154 16.596C50.057 15.573 49.855 14.734 49.403 13.996L48.123 14.779C48.408 15.243 48.574 15.824 48.661 16.739C48.749 17.663 48.75 18.849 48.75 20.5H50.25ZM46.72 13.376C47.2922 13.7263 47.7733 14.2071 48.124 14.779L49.403 13.996C48.9288 13.222 48.278 12.5712 47.504 12.097L46.72 13.376ZM38 11.25C36.378 11.25 35.109 11.25 34.096 11.345C33.073 11.443 32.234 11.645 31.496 12.097L32.279 13.377C32.743 13.092 33.324 12.926 34.239 12.839C35.163 12.751 36.349 12.75 38 12.75V11.25ZM30.25 20.5C30.25 18.849 30.25 17.663 30.339 16.738C30.426 15.824 30.592 15.243 30.876 14.779L29.597 13.997C29.145 14.735 28.943 15.573 28.845 16.596C28.75 17.61 28.75 18.878 28.75 20.5H30.25ZM31.496 12.097C30.722 12.5712 30.0712 13.223 29.597 13.997L30.877 14.779C31.2271 14.2073 31.7076 13.7265 32.279 13.376L31.496 12.097ZM38.516 30.09C38.314 29.747 38.136 29.444 37.962 29.206C37.783 28.945 37.5505 28.7252 37.28 28.561L36.526 29.858C36.573 29.886 36.638 29.936 36.75 30.09C36.871 30.256 37.008 30.486 37.226 30.854L38.516 30.09ZM35.277 29.741C35.717 29.749 35.994 29.755 36.206 29.778C36.404 29.8 36.481 29.832 36.526 29.858L37.28 28.561C37 28.4059 36.6901 28.3125 36.371 28.287C36.073 28.254 35.715 28.249 35.303 28.242L35.277 29.741ZM41.774 30.854C41.992 30.487 42.129 30.256 42.25 30.09C42.362 29.936 42.427 29.886 42.474 29.858L41.72 28.561C41.43 28.731 41.22 28.956 41.038 29.206C40.865 29.444 40.686 29.746 40.483 30.09L41.774 30.854ZM43.698 28.242C43.286 28.249 42.927 28.254 42.629 28.287C42.318 28.322 42.013 28.391 41.72 28.561L42.474 29.858C42.519 29.832 42.596 29.8 42.794 29.778C43.006 29.755 43.284 29.748 43.724 29.741L43.698 28.242Z" fill="white"/>
<path d="M42.9991 17.83L43.1711 18.002C44.5041 19.335 45.1711 20.002 45.1711 20.83C45.1711 21.659 44.5041 22.325 43.1711 23.659L42.9991 23.83M40.7931 16L39.4991 20.83L38.2051 25.66M35.9991 17.83L35.8281 18.002C34.4941 19.335 33.8281 20.002 33.8281 20.83C33.8281 21.659 34.4941 22.325 35.8281 23.659L35.9991 23.83" stroke="white" stroke-width="1.5" stroke-linecap="round"/>
<path d="M16.85 48.16L17.12 47.63C17.4267 47.8967 17.77 48.0967 18.15 48.23C18.5367 48.3567 18.9233 48.4233 19.31 48.43C19.6967 48.43 20.05 48.3733 20.37 48.26C20.6967 48.1467 20.96 47.98 21.16 47.76C21.36 47.5333 21.46 47.26 21.46 46.94C21.46 46.5333 21.2967 46.22 20.97 46C20.65 45.78 20.2033 45.67 19.63 45.67H18.13V45.07H19.59C20.0833 45.07 20.4667 44.9667 20.74 44.76C21.02 44.5467 21.16 44.2533 21.16 43.88C21.16 43.6133 21.08 43.3867 20.92 43.2C20.7667 43.0067 20.5533 42.86 20.28 42.76C20.0133 42.6533 19.7133 42.5967 19.38 42.59C19.0467 42.5767 18.7 42.62 18.34 42.72C17.9867 42.8133 17.6433 42.9633 17.31 43.17L17.07 42.56C17.4833 42.3133 17.9133 42.1433 18.36 42.05C18.8067 41.95 19.24 41.9167 19.66 41.95C20.08 41.9833 20.4567 42.08 20.79 42.24C21.13 42.4 21.4 42.61 21.6 42.87C21.8 43.13 21.9 43.44 21.9 43.8C21.9 44.1333 21.8133 44.4267 21.64 44.68C21.4733 44.9333 21.2367 45.13 20.93 45.27C20.63 45.4033 20.2733 45.47 19.86 45.47L19.9 45.25C20.3667 45.25 20.77 45.3233 21.11 45.47C21.4567 45.6167 21.7233 45.8267 21.91 46.1C22.1033 46.3667 22.2 46.68 22.2 47.04C22.2 47.38 22.1133 47.6833 21.94 47.95C21.7733 48.21 21.54 48.43 21.24 48.61C20.9467 48.7833 20.6167 48.91 20.25 48.99C19.8833 49.0633 19.5 49.0833 19.1 49.05C18.7 49.0167 18.3067 48.93 17.92 48.79C17.5333 48.6433 17.1767 48.4333 16.85 48.16ZM27.1274 49V47.84L27.0974 47.65V45.71C27.0974 45.2633 26.9708 44.92 26.7174 44.68C26.4708 44.44 26.1008 44.32 25.6074 44.32C25.2674 44.32 24.9441 44.3767 24.6374 44.49C24.3308 44.6033 24.0708 44.7533 23.8574 44.94L23.5374 44.41C23.8041 44.1833 24.1241 44.01 24.4974 43.89C24.8708 43.7633 25.2641 43.7 25.6774 43.7C26.3574 43.7 26.8808 43.87 27.2474 44.21C27.6208 44.5433 27.8074 45.0533 27.8074 45.74V49H27.1274ZM25.3174 49.05C24.9241 49.05 24.5808 48.9867 24.2874 48.86C24.0008 48.7267 23.7808 48.5467 23.6274 48.32C23.4741 48.0867 23.3974 47.82 23.3974 47.52C23.3974 47.2467 23.4608 47 23.5874 46.78C23.7208 46.5533 23.9341 46.3733 24.2274 46.24C24.5274 46.1 24.9274 46.03 25.4274 46.03H27.2374V46.56H25.4474C24.9408 46.56 24.5874 46.65 24.3874 46.83C24.1941 47.01 24.0974 47.2333 24.0974 47.5C24.0974 47.8 24.2141 48.04 24.4474 48.22C24.6808 48.4 25.0074 48.49 25.4274 48.49C25.8274 48.49 26.1708 48.4 26.4574 48.22C26.7508 48.0333 26.9641 47.7667 27.0974 47.42L27.2574 47.91C27.1241 48.2567 26.8908 48.5333 26.5574 48.74C26.2308 48.9467 25.8174 49.05 25.3174 49.05ZM33.5475 49L31.3875 46.4L31.9775 46.05L34.3875 49H33.5475ZM29.6975 49V43.75H30.4075V49H29.6975ZM30.1875 46.66V46.05H31.8775V46.66H30.1875ZM32.0375 46.45L31.3775 46.35L33.4675 43.75H34.2375L32.0375 46.45ZM38.6704 49V47.84L38.6404 47.65V45.71C38.6404 45.2633 38.5137 44.92 38.2604 44.68C38.0137 44.44 37.6437 44.32 37.1504 44.32C36.8104 44.32 36.4871 44.3767 36.1804 44.49C35.8737 44.6033 35.6137 44.7533 35.4004 44.94L35.0804 44.41C35.3471 44.1833 35.6671 44.01 36.0404 43.89C36.4137 43.7633 36.8071 43.7 37.2204 43.7C37.9004 43.7 38.4237 43.87 38.7904 44.21C39.1637 44.5433 39.3504 45.0533 39.3504 45.74V49H38.6704ZM36.8604 49.05C36.4671 49.05 36.1237 48.9867 35.8304 48.86C35.5437 48.7267 35.3237 48.5467 35.1704 48.32C35.0171 48.0867 34.9404 47.82 34.9404 47.52C34.9404 47.2467 35.0037 47 35.1304 46.78C35.2637 46.5533 35.4771 46.3733 35.7704 46.24C36.0704 46.1 36.4704 46.03 36.9704 46.03H38.7804V46.56H36.9904C36.4837 46.56 36.1304 46.65 35.9304 46.83C35.7371 47.01 35.6404 47.2333 35.6404 47.5C35.6404 47.8 35.7571 48.04 35.9904 48.22C36.2237 48.4 36.5504 48.49 36.9704 48.49C37.3704 48.49 37.7137 48.4 38.0004 48.22C38.2937 48.0333 38.5071 47.7667 38.6404 47.42L38.8004 47.91C38.6671 48.2567 38.4337 48.5333 38.1004 48.74C37.7737 48.9467 37.3604 49.05 36.8604 49.05ZM42.543 49.06C42.163 49.06 41.7864 49.0067 41.413 48.9C41.0397 48.7933 40.7097 48.63 40.423 48.41L40.653 47.88C40.9064 48.0667 41.1997 48.21 41.533 48.31C41.8664 48.4033 42.1964 48.45 42.523 48.45C42.8497 48.4433 43.133 48.3967 43.373 48.31C43.613 48.2233 43.7997 48.1033 43.933 47.95C44.0664 47.7967 44.133 47.6233 44.133 47.43C44.133 47.15 44.0064 46.9333 43.753 46.78C43.4997 46.62 43.153 46.54 42.713 46.54H41.813V46.02H42.663C42.923 46.02 43.153 45.9867 43.353 45.92C43.553 45.8533 43.7064 45.7567 43.813 45.63C43.9264 45.5033 43.983 45.3533 43.983 45.18C43.983 44.9933 43.9164 44.8333 43.783 44.7C43.6564 44.5667 43.4797 44.4667 43.253 44.4C43.0264 44.3333 42.7697 44.3 42.483 44.3C42.223 44.3067 41.953 44.3467 41.673 44.42C41.393 44.4867 41.1164 44.59 40.843 44.73L40.643 44.18C40.9497 44.02 41.253 43.9 41.553 43.82C41.8597 43.7333 42.1664 43.69 42.473 43.69C42.893 43.6767 43.2697 43.7267 43.603 43.84C43.943 43.9533 44.213 44.1167 44.413 44.33C44.613 44.5367 44.713 44.7867 44.713 45.08C44.713 45.34 44.633 45.5667 44.473 45.76C44.313 45.9533 44.0997 46.1033 43.833 46.21C43.5664 46.3167 43.263 46.37 42.923 46.37L42.953 46.18C43.553 46.18 44.0197 46.2967 44.353 46.53C44.693 46.7633 44.863 47.08 44.863 47.48C44.863 47.7933 44.7597 48.07 44.553 48.31C44.3464 48.5433 44.0664 48.7267 43.713 48.86C43.3664 48.9933 42.9764 49.06 42.543 49.06ZM49.7348 49V47.84L49.7048 47.65V45.71C49.7048 45.2633 49.5782 44.92 49.3248 44.68C49.0782 44.44 48.7082 44.32 48.2148 44.32C47.8748 44.32 47.5515 44.3767 47.2448 44.49C46.9382 44.6033 46.6782 44.7533 46.4648 44.94L46.1448 44.41C46.4115 44.1833 46.7315 44.01 47.1048 43.89C47.4782 43.7633 47.8715 43.7 48.2848 43.7C48.9648 43.7 49.4882 43.87 49.8548 44.21C50.2282 44.5433 50.4148 45.0533 50.4148 45.74V49H49.7348ZM47.9248 49.05C47.5315 49.05 47.1882 48.9867 46.8948 48.86C46.6082 48.7267 46.3882 48.5467 46.2348 48.32C46.0815 48.0867 46.0048 47.82 46.0048 47.52C46.0048 47.2467 46.0682 47 46.1948 46.78C46.3282 46.5533 46.5415 46.3733 46.8348 46.24C47.1348 46.1 47.5348 46.03 48.0348 46.03H49.8448V46.56H48.0548C47.5482 46.56 47.1948 46.65 46.9948 46.83C46.8015 47.01 46.7048 47.2333 46.7048 47.5C46.7048 47.8 46.8215 48.04 47.0548 48.22C47.2882 48.4 47.6148 48.49 48.0348 48.49C48.4348 48.49 48.7782 48.4 49.0648 48.22C49.3582 48.0333 49.5715 47.7667 49.7048 47.42L49.8648 47.91C49.7315 48.2567 49.4982 48.5333 49.1648 48.74C48.8382 48.9467 48.4248 49.05 47.9248 49.05ZM53.3049 49V44.18L53.4849 44.37H51.3149V43.75H56.0049V44.37H53.8349L54.0149 44.18V49H53.3049ZM59.2915 45.6C59.9515 45.6067 60.4515 45.7533 60.7915 46.04C61.1382 46.3267 61.3115 46.74 61.3115 47.28C61.3115 47.84 61.1248 48.27 60.7515 48.57C60.3848 48.87 59.8515 49.0167 59.1515 49.01L57.0315 49V43.75H57.7415V45.58L59.2915 45.6ZM59.1115 48.47C59.5982 48.4767 59.9648 48.38 60.2115 48.18C60.4648 47.9733 60.5915 47.6733 60.5915 47.28C60.5915 46.8867 60.4682 46.6 60.2215 46.42C59.9748 46.2333 59.6048 46.1367 59.1115 46.13L57.7415 46.11V48.45L59.1115 48.47Z" fill="#DEDEDE"/>
</svg>
