<svg width="80" height="62" viewBox="0 0 80 62" fill="none" xmlns="http://www.w3.org/2000/svg">
<path d="M34.6504 13C33.6558 13 32.702 13.3951 31.9987 14.0983C31.2955 14.8016 30.9004 15.7554 30.9004 16.75V27.25C30.9004 28.2446 31.2955 29.1984 31.9987 29.9016C32.702 30.6049 33.6558 31 34.6504 31H45.1504C46.145 31 47.0988 30.6049 47.802 29.9016C48.5053 29.1984 48.9004 28.2446 48.9004 27.25V16.75C48.9004 15.7554 48.5053 14.8016 47.802 14.0983C47.0988 13.3951 46.145 13 45.1504 13H34.6504ZM42.6814 18.469L45.6814 21.469C45.7512 21.5387 45.8066 21.6214 45.8445 21.7125C45.8823 21.8037 45.9017 21.9013 45.9017 22C45.9017 22.0987 45.8823 22.1963 45.8445 22.2874C45.8066 22.3786 45.7512 22.4613 45.6814 22.531L42.6814 25.531C42.5406 25.6718 42.3496 25.7509 42.1504 25.7509C41.9512 25.7509 41.7602 25.6718 41.6194 25.531C41.4786 25.3902 41.3994 25.1992 41.3994 25C41.3994 24.8008 41.4786 24.6098 41.6194 24.469L44.0899 22L41.6194 19.531C41.5497 19.4613 41.4943 19.3785 41.4566 19.2874C41.4189 19.1963 41.3994 19.0986 41.3994 19C41.3994 18.9014 41.4189 18.8037 41.4566 18.7126C41.4943 18.6215 41.5497 18.5387 41.6194 18.469C41.7602 18.3282 41.9512 18.2491 42.1504 18.2491C42.249 18.2491 42.3467 18.2685 42.4378 18.3062C42.5289 18.344 42.6117 18.3993 42.6814 18.469ZM38.1814 19.531L35.7109 22L38.1814 24.469C38.3222 24.6098 38.4013 24.8008 38.4013 25C38.4013 25.1992 38.3222 25.3902 38.1814 25.531C38.0406 25.6718 37.8496 25.7509 37.6504 25.7509C37.4512 25.7509 37.2602 25.6718 37.1194 25.531L34.1194 22.531C34.0495 22.4613 33.9941 22.3786 33.9563 22.2874C33.9185 22.1963 33.899 22.0987 33.899 22C33.899 21.9013 33.9185 21.8037 33.9563 21.7125C33.9941 21.6214 34.0495 21.5387 34.1194 21.469L37.1194 18.469C37.2602 18.3282 37.4512 18.2491 37.6504 18.2491C37.8496 18.2491 38.0406 18.3282 38.1814 18.469C38.3222 18.6098 38.4013 18.8008 38.4013 19C38.4013 19.1992 38.3222 19.3902 38.1814 19.531Z" fill="#BD71EB"/>
<path d="M18.0804 49V42H23.9704V49H23.2404V42.44L23.4304 42.64H18.6204L18.8104 42.44V49H18.0804ZM28.8723 49.05C28.419 49.05 28.009 48.9467 27.6423 48.74C27.2757 48.5267 26.9823 48.2233 26.7623 47.83C26.549 47.43 26.4423 46.9433 26.4423 46.37C26.4423 45.7967 26.549 45.3133 26.7623 44.92C26.9757 44.52 27.2657 44.2167 27.6323 44.01C27.999 43.8033 28.4123 43.7 28.8723 43.7C29.3723 43.7 29.819 43.8133 30.2123 44.04C30.6123 44.26 30.9257 44.5733 31.1523 44.98C31.379 45.38 31.4923 45.8433 31.4923 46.37C31.4923 46.9033 31.379 47.37 31.1523 47.77C30.9257 48.17 30.6123 48.4833 30.2123 48.71C29.819 48.9367 29.3723 49.05 28.8723 49.05ZM26.1623 50.94V43.75H26.8423V45.33L26.7723 46.38L26.8723 47.44V50.94H26.1623ZM28.8223 48.42C29.1957 48.42 29.529 48.3367 29.8223 48.17C30.1157 47.9967 30.349 47.7567 30.5223 47.45C30.6957 47.1367 30.7823 46.7767 30.7823 46.37C30.7823 45.9633 30.6957 45.6067 30.5223 45.3C30.349 44.9933 30.1157 44.7533 29.8223 44.58C29.529 44.4067 29.1957 44.32 28.8223 44.32C28.449 44.32 28.1123 44.4067 27.8123 44.58C27.519 44.7533 27.2857 44.9933 27.1123 45.3C26.9457 45.6067 26.8623 45.9633 26.8623 46.37C26.8623 46.7767 26.9457 47.1367 27.1123 47.45C27.2857 47.7567 27.519 47.9967 27.8123 48.17C28.1123 48.3367 28.449 48.42 28.8223 48.42ZM35.1778 49.05C34.6711 49.05 34.2145 48.9367 33.8078 48.71C33.4078 48.4767 33.0911 48.16 32.8578 47.76C32.6245 47.3533 32.5078 46.89 32.5078 46.37C32.5078 45.8433 32.6245 45.38 32.8578 44.98C33.0911 44.58 33.4078 44.2667 33.8078 44.04C34.2078 43.8133 34.6645 43.7 35.1778 43.7C35.6978 43.7 36.1578 43.8133 36.5578 44.04C36.9645 44.2667 37.2811 44.58 37.5078 44.98C37.7411 45.38 37.8578 45.8433 37.8578 46.37C37.8578 46.89 37.7411 47.3533 37.5078 47.76C37.2811 48.16 36.9645 48.4767 36.5578 48.71C36.1511 48.9367 35.6911 49.05 35.1778 49.05ZM35.1778 48.42C35.5578 48.42 35.8945 48.3367 36.1878 48.17C36.4811 47.9967 36.7111 47.7567 36.8778 47.45C37.0511 47.1367 37.1378 46.7767 37.1378 46.37C37.1378 45.9567 37.0511 45.5967 36.8778 45.29C36.7111 44.9833 36.4811 44.7467 36.1878 44.58C35.8945 44.4067 35.5611 44.32 35.1878 44.32C34.8145 44.32 34.4811 44.4067 34.1878 44.58C33.8945 44.7467 33.6611 44.9833 33.4878 45.29C33.3145 45.5967 33.2278 45.9567 33.2278 46.37C33.2278 46.7767 33.3145 47.1367 33.4878 47.45C33.6611 47.7567 33.8945 47.9967 34.1878 48.17C34.4811 48.3367 34.8111 48.42 35.1778 48.42ZM41.6252 49.05C41.0786 49.05 40.5986 48.9367 40.1852 48.71C39.7719 48.4767 39.4486 48.16 39.2152 47.76C38.9819 47.3533 38.8652 46.89 38.8652 46.37C38.8652 45.85 38.9752 45.39 39.1952 44.99C39.4219 44.59 39.7286 44.2767 40.1152 44.05C40.5086 43.8167 40.9486 43.7 41.4352 43.7C41.9286 43.7 42.3652 43.8133 42.7452 44.04C43.1319 44.26 43.4352 44.5733 43.6552 44.98C43.8752 45.38 43.9852 45.8433 43.9852 46.37C43.9852 46.4033 43.9819 46.44 43.9752 46.48C43.9752 46.5133 43.9752 46.55 43.9752 46.59H39.4052V46.06H43.5952L43.3152 46.27C43.3152 45.89 43.2319 45.5533 43.0652 45.26C42.9052 44.96 42.6852 44.7267 42.4052 44.56C42.1252 44.3933 41.8019 44.31 41.4352 44.31C41.0752 44.31 40.7519 44.3933 40.4652 44.56C40.1786 44.7267 39.9552 44.96 39.7952 45.26C39.6352 45.56 39.5552 45.9033 39.5552 46.29V46.4C39.5552 46.8 39.6419 47.1533 39.8152 47.46C39.9952 47.76 40.2419 47.9967 40.5552 48.17C40.8752 48.3367 41.2386 48.42 41.6452 48.42C41.9652 48.42 42.2619 48.3633 42.5352 48.25C42.8152 48.1367 43.0552 47.9633 43.2552 47.73L43.6552 48.19C43.4219 48.47 43.1286 48.6833 42.7752 48.83C42.4286 48.9767 42.0452 49.05 41.6252 49.05ZM49.4069 49L47.2469 46.4L47.8369 46.05L50.2469 49H49.4069ZM45.5569 49V43.75H46.2669V49H45.5569ZM46.0469 46.66V46.05H47.7369V46.66H46.0469ZM47.8969 46.45L47.2369 46.35L49.3269 43.75H50.0969L47.8969 46.45ZM52.26 49V44.18L52.44 44.37H50.27V43.75H54.96V44.37H52.79L52.97 44.18V49H52.26ZM61.1066 49V43.75H61.8166V49H61.1066ZM58.1966 45.6C58.8566 45.6067 59.3599 45.7533 59.7066 46.04C60.0532 46.3267 60.2266 46.74 60.2266 47.28C60.2266 47.84 60.0399 48.27 59.6666 48.57C59.2932 48.87 58.7599 49.0167 58.0666 49.01L55.9866 49V43.75H56.6966V45.58L58.1966 45.6ZM58.0166 48.47C58.5099 48.4767 58.8799 48.38 59.1266 48.18C59.3799 47.9733 59.5066 47.6733 59.5066 47.28C59.5066 46.8867 59.3832 46.6 59.1366 46.42C58.8899 46.2333 58.5166 46.1367 58.0166 46.13L56.6966 46.11V48.45L58.0166 48.47Z" fill="#BD71EB"/>
</svg>
