<svg width="80" height="62" viewBox="0 0 80 62" fill="none" xmlns="http://www.w3.org/2000/svg">
<path d="M43.3198 19.4284C44.1478 19.4284 44.8198 20.1004 44.8198 20.9284V26.7133C44.8198 27.9638 44.3231 29.1631 43.4388 30.0474C42.5545 30.9317 41.3552 31.4284 40.1047 31.4284C38.8542 31.4284 37.6548 30.9317 36.7706 30.0474C35.8863 29.1631 35.3895 27.9638 35.3895 26.7133V20.9284C35.3895 20.1004 36.0607 19.4284 36.8895 19.4284H43.3198ZM31.3164 19.4284L35.0724 19.4267C34.7635 19.7989 34.5776 20.2577 34.5401 20.7399L34.5315 20.9284V26.7133C34.5315 27.6844 34.781 28.5981 35.2173 29.3936C34.63 29.6498 33.9883 29.7557 33.3499 29.7018C32.7115 29.6479 32.0965 29.4359 31.5606 29.0849C31.0246 28.7338 30.5845 28.2549 30.28 27.6912C29.9755 27.1275 29.8162 26.4968 29.8164 25.8561V20.9284C29.8169 20.5306 29.9752 20.1492 30.2566 19.868C30.5379 19.5867 30.9186 19.4287 31.3164 19.4284ZM45.1378 19.4267L48.8878 19.4284C49.7158 19.4284 50.3878 20.1004 50.3878 20.9284V25.857C50.3881 26.4974 50.2289 27.1278 49.9246 27.6913C49.6203 28.2549 49.1804 28.7337 48.6448 29.0847C48.1091 29.4357 47.4945 29.6479 46.8563 29.7019C46.2182 29.756 45.5766 29.6503 44.9895 29.3944L45.0375 29.307C45.4053 28.6101 45.629 27.825 45.6701 26.9927L45.677 26.7133V20.9284C45.677 20.3576 45.4747 19.8347 45.1378 19.4267ZM40.1021 12.5713C40.4961 12.5713 40.8862 12.6489 41.2502 12.7997C41.6141 12.9504 41.9449 13.1714 42.2234 13.45C42.502 13.7285 42.723 14.0593 42.8738 14.4232C43.0245 14.7872 43.1021 15.1773 43.1021 15.5713C43.1021 15.9653 43.0245 16.3554 42.8738 16.7193C42.723 17.0833 42.502 17.414 42.2234 17.6926C41.9449 17.9712 41.6141 18.1922 41.2502 18.3429C40.8862 18.4937 40.4961 18.5713 40.1021 18.5713C39.3065 18.5713 38.5434 18.2552 37.9808 17.6926C37.4182 17.13 37.1021 16.3669 37.1021 15.5713C37.1021 14.7756 37.4182 14.0126 37.9808 13.45C38.5434 12.8874 39.3065 12.5713 40.1021 12.5713ZM46.9618 13.4284C47.2995 13.4284 47.6339 13.4949 47.9459 13.6242C48.2579 13.7534 48.5413 13.9428 48.7801 14.1816C49.0189 14.4204 49.2083 14.7038 49.3375 15.0158C49.4668 15.3278 49.5333 15.6622 49.5333 15.9999C49.5333 16.3375 49.4668 16.6719 49.3375 16.9839C49.2083 17.2959 49.0189 17.5794 48.7801 17.8181C48.5413 18.0569 48.2579 18.2463 47.9459 18.3756C47.6339 18.5048 47.2995 18.5713 46.9618 18.5713C46.2799 18.5713 45.6258 18.3004 45.1436 17.8181C44.6613 17.3359 44.3904 16.6818 44.3904 15.9999C44.3904 15.3179 44.6613 14.6638 45.1436 14.1816C45.6258 13.6993 46.2799 13.4284 46.9618 13.4284ZM33.2424 13.4284C33.5801 13.4284 33.9145 13.4949 34.2264 13.6242C34.5384 13.7534 34.8219 13.9428 35.0607 14.1816C35.2995 14.4204 35.4889 14.7038 35.6181 15.0158C35.7473 15.3278 35.8138 15.6622 35.8138 15.9999C35.8138 16.3375 35.7473 16.6719 35.6181 16.9839C35.4889 17.2959 35.2995 17.5794 35.0607 17.8181C34.8219 18.0569 34.5384 18.2463 34.2264 18.3756C33.9145 18.5048 33.5801 18.5713 33.2424 18.5713C32.5604 18.5713 31.9064 18.3004 31.4241 17.8181C30.9419 17.3359 30.671 16.6818 30.671 15.9999C30.671 15.3179 30.9419 14.6638 31.4241 14.1816C31.9064 13.6993 32.5604 13.4284 33.2424 13.4284Z" fill="#BD71EB"/>
<path d="M23.0716 49L20.3816 45.51L20.9816 45.15L23.9216 49H23.0716ZM18.2816 49V42H19.0016V49H18.2816ZM18.7816 45.79V45.14H20.9716V45.79H18.7816ZM21.0416 45.58L20.3616 45.46L22.9716 42H23.7716L21.0416 45.58ZM26.9903 49.05C26.4836 49.05 26.027 48.9367 25.6203 48.71C25.2203 48.4767 24.9036 48.16 24.6703 47.76C24.437 47.3533 24.3203 46.89 24.3203 46.37C24.3203 45.8433 24.437 45.38 24.6703 44.98C24.9036 44.58 25.2203 44.2667 25.6203 44.04C26.0203 43.8133 26.477 43.7 26.9903 43.7C27.5103 43.7 27.9703 43.8133 28.3703 44.04C28.777 44.2667 29.0936 44.58 29.3203 44.98C29.5536 45.38 29.6703 45.8433 29.6703 46.37C29.6703 46.89 29.5536 47.3533 29.3203 47.76C29.0936 48.16 28.777 48.4767 28.3703 48.71C27.9636 48.9367 27.5036 49.05 26.9903 49.05ZM26.9903 48.42C27.3703 48.42 27.707 48.3367 28.0003 48.17C28.2936 47.9967 28.5236 47.7567 28.6903 47.45C28.8636 47.1367 28.9503 46.7767 28.9503 46.37C28.9503 45.9567 28.8636 45.5967 28.6903 45.29C28.5236 44.9833 28.2936 44.7467 28.0003 44.58C27.707 44.4067 27.3736 44.32 27.0003 44.32C26.627 44.32 26.2936 44.4067 26.0003 44.58C25.707 44.7467 25.4736 44.9833 25.3003 45.29C25.127 45.5967 25.0403 45.9567 25.0403 46.37C25.0403 46.7767 25.127 47.1367 25.3003 47.45C25.4736 47.7567 25.707 47.9967 26.0003 48.17C26.2936 48.3367 26.6236 48.42 26.9903 48.42ZM31.1877 49V43.75H31.9077L34.2877 47.78H33.9877L36.4077 43.75H37.0677V49H36.4177V44.56L36.5477 44.62L34.2877 48.36H33.9677L31.6877 44.58L31.8377 44.55V49H31.1877ZM42.3481 49V47.84L42.3181 47.65V45.71C42.3181 45.2633 42.1915 44.92 41.9381 44.68C41.6915 44.44 41.3215 44.32 40.8281 44.32C40.4881 44.32 40.1648 44.3767 39.8581 44.49C39.5515 44.6033 39.2915 44.7533 39.0781 44.94L38.7581 44.41C39.0248 44.1833 39.3448 44.01 39.7181 43.89C40.0915 43.7633 40.4848 43.7 40.8981 43.7C41.5781 43.7 42.1015 43.87 42.4681 44.21C42.8415 44.5433 43.0281 45.0533 43.0281 45.74V49H42.3481ZM40.5381 49.05C40.1448 49.05 39.8015 48.9867 39.5081 48.86C39.2215 48.7267 39.0015 48.5467 38.8481 48.32C38.6948 48.0867 38.6181 47.82 38.6181 47.52C38.6181 47.2467 38.6815 47 38.8081 46.78C38.9415 46.5533 39.1548 46.3733 39.4481 46.24C39.7481 46.1 40.1481 46.03 40.6481 46.03H42.4581V46.56H40.6681C40.1615 46.56 39.8081 46.65 39.6081 46.83C39.4148 47.01 39.3181 47.2333 39.3181 47.5C39.3181 47.8 39.4348 48.04 39.6681 48.22C39.9015 48.4 40.2281 48.49 40.6481 48.49C41.0481 48.49 41.3915 48.4 41.6781 48.22C41.9715 48.0333 42.1848 47.7667 42.3181 47.42L42.4781 47.91C42.3448 48.2567 42.1115 48.5333 41.7781 48.74C41.4515 48.9467 41.0381 49.05 40.5381 49.05ZM44.9182 49V43.75H45.6282V46.07H48.9382V43.75H49.6482V49H48.9382V46.68H45.6282V49H44.9182ZM55.2663 48.66V44.37H52.7363L52.6763 45.54C52.6629 45.8933 52.6396 46.24 52.6063 46.58C52.5796 46.92 52.5296 47.2333 52.4563 47.52C52.3896 47.8 52.2929 48.03 52.1663 48.21C52.0396 48.3833 51.8763 48.4833 51.6763 48.51L50.9663 48.38C51.1729 48.3867 51.3429 48.3133 51.4763 48.16C51.6096 48 51.7129 47.7833 51.7863 47.51C51.8596 47.2367 51.9129 46.9267 51.9463 46.58C51.9796 46.2267 52.0063 45.8667 52.0263 45.5L52.0963 43.75H55.9763V48.66H55.2663ZM50.7463 50.27V48.38H56.7963V50.27H56.1263V49H51.4163V50.27H50.7463ZM61.4399 49V47.84L61.4099 47.65V45.71C61.4099 45.2633 61.2833 44.92 61.0299 44.68C60.7833 44.44 60.4133 44.32 59.9199 44.32C59.5799 44.32 59.2566 44.3767 58.9499 44.49C58.6433 44.6033 58.3833 44.7533 58.1699 44.94L57.8499 44.41C58.1166 44.1833 58.4366 44.01 58.8099 43.89C59.1833 43.7633 59.5766 43.7 59.9899 43.7C60.6699 43.7 61.1933 43.87 61.5599 44.21C61.9333 44.5433 62.1199 45.0533 62.1199 45.74V49H61.4399ZM59.6299 49.05C59.2366 49.05 58.8933 48.9867 58.5999 48.86C58.3133 48.7267 58.0933 48.5467 57.9399 48.32C57.7866 48.0867 57.7099 47.82 57.7099 47.52C57.7099 47.2467 57.7733 47 57.8999 46.78C58.0333 46.5533 58.2466 46.3733 58.5399 46.24C58.8399 46.1 59.2399 46.03 59.7399 46.03H61.5499V46.56H59.7599C59.2533 46.56 58.8999 46.65 58.6999 46.83C58.5066 47.01 58.4099 47.2333 58.4099 47.5C58.4099 47.8 58.5266 48.04 58.7599 48.22C58.9933 48.4 59.3199 48.49 59.7399 48.49C60.1399 48.49 60.4833 48.4 60.7699 48.22C61.0633 48.0333 61.2766 47.7667 61.4099 47.42L61.5699 47.91C61.4366 48.2567 61.2033 48.5333 60.8699 48.74C60.5433 48.9467 60.1299 49.05 59.6299 49.05Z" fill="#BD71EB"/>
</svg>
