<svg width="79" height="62" viewBox="0 0 79 62" fill="none" xmlns="http://www.w3.org/2000/svg">
<path d="M44.1795 18.7276L39.6878 16.1026C39.5731 16.0355 39.4427 16.0001 39.3099 16C39.1771 15.9999 39.0466 16.035 38.9318 16.1018L34.4235 18.7268C34.3102 18.7928 34.2161 18.8874 34.1507 19.0011C34.0853 19.1148 34.0508 19.2437 34.0508 19.3748V24.6248C34.0508 24.756 34.0853 24.8849 34.1507 24.9986C34.2161 25.1123 34.3102 25.2069 34.4235 25.2728L38.9318 27.8978C39.0433 27.9645 39.1708 27.9998 39.3008 27.9998C39.4313 27.9998 39.5708 27.9661 39.6878 27.8971L44.1795 25.2721C44.2925 25.206 44.3862 25.1115 44.4514 24.9979C44.5165 24.8844 44.5508 24.7558 44.5508 24.6248V19.3748C44.5508 19.2439 44.5165 19.1153 44.4514 19.0018C44.3862 18.8882 44.2925 18.7937 44.1795 18.7276ZM39.309 17.6176L42.3143 19.3748L39.309 21.1313L36.2918 19.3748L39.309 17.6176ZM35.5508 20.6798L38.5508 22.4273V25.9411L35.5508 24.1936V20.6798ZM40.0508 25.9486V22.4363L43.0508 20.6828V24.1951L40.0508 25.9486Z" fill="white"/>
<path d="M39.3008 10.75C39.168 10.7499 39.0375 10.7851 38.9228 10.852L29.9228 16.102C29.8095 16.1681 29.7156 16.2627 29.6503 16.3764C29.5851 16.4901 29.5507 16.6189 29.5508 16.75V27.25C29.5507 27.3811 29.5851 27.5099 29.6503 27.6236C29.7156 27.7373 29.8095 27.8319 29.9228 27.898L38.9228 33.148C39.0375 33.2149 39.168 33.2502 39.3008 33.2502C39.4336 33.2502 39.5641 33.2149 39.6788 33.148L47.9288 28.3353L47.1728 27.04L39.3008 31.6315L31.0508 26.8195V17.1812L39.3008 12.3685L47.5508 17.1805V22.75H49.0508V16.75C49.0508 16.6189 49.0165 16.4901 48.9512 16.3764C48.8859 16.2627 48.792 16.1681 48.6788 16.102L39.6788 10.852C39.564 10.7851 39.4336 10.7499 39.3008 10.75Z" fill="white"/>
<path d="M22.3608 48.31C22.7008 48.4433 23.0208 48.4767 23.3208 48.41C23.6208 48.3367 23.8974 48.1 24.1508 47.7L24.4908 47.16L24.5608 47.07L27.2408 42H27.9808L24.8008 47.86C24.5874 48.2667 24.3341 48.57 24.0408 48.77C23.7541 48.97 23.4474 49.0767 23.1208 49.09C22.8008 49.1033 22.4774 49.0433 22.1508 48.91L22.3608 48.31ZM24.5408 47.74L21.5108 42H22.3008L24.9408 47.13L24.5408 47.74ZM30.7608 49.05C30.2408 49.05 29.7741 48.9367 29.3608 48.71C28.9541 48.4767 28.6341 48.16 28.4008 47.76C28.1674 47.3533 28.0508 46.89 28.0508 46.37C28.0508 45.8433 28.1674 45.38 28.4008 44.98C28.6341 44.58 28.9541 44.2667 29.3608 44.04C29.7741 43.8133 30.2408 43.7 30.7608 43.7C31.2074 43.7 31.6108 43.7867 31.9708 43.96C32.3308 44.1333 32.6141 44.3933 32.8208 44.74L32.2908 45.1C32.1108 44.8333 31.8874 44.6367 31.6208 44.51C31.3541 44.3833 31.0641 44.32 30.7508 44.32C30.3774 44.32 30.0408 44.4067 29.7408 44.58C29.4408 44.7467 29.2041 44.9833 29.0308 45.29C28.8574 45.5967 28.7708 45.9567 28.7708 46.37C28.7708 46.7833 28.8574 47.1433 29.0308 47.45C29.2041 47.7567 29.4408 47.9967 29.7408 48.17C30.0408 48.3367 30.3774 48.42 30.7508 48.42C31.0641 48.42 31.3541 48.3567 31.6208 48.23C31.8874 48.1033 32.1108 47.91 32.2908 47.65L32.8208 48.01C32.6141 48.35 32.3308 48.61 31.9708 48.79C31.6108 48.9633 31.2074 49.05 30.7608 49.05ZM33.05 48.99L33.1 48.38C33.1467 48.3867 33.19 48.3967 33.23 48.41C33.2767 48.4167 33.3167 48.42 33.35 48.42C33.5633 48.42 33.7333 48.34 33.86 48.18C33.9933 48.02 34.0933 47.8067 34.16 47.54C34.2267 47.2733 34.2733 46.9733 34.3 46.64C34.3267 46.3 34.35 45.96 34.37 45.62L34.46 43.75H38.31V49H37.6V44.16L37.78 44.37H34.92L35.09 44.15L35.01 45.67C34.99 46.1233 34.9533 46.5567 34.9 46.97C34.8533 47.3833 34.7767 47.7467 34.67 48.06C34.57 48.3733 34.43 48.62 34.25 48.8C34.07 48.9733 33.84 49.06 33.56 49.06C33.48 49.06 33.3967 49.0533 33.31 49.04C33.23 49.0267 33.1433 49.01 33.05 48.99ZM40.4184 50.99C40.1717 50.99 39.935 50.95 39.7084 50.87C39.4884 50.79 39.2984 50.67 39.1384 50.51L39.4684 49.98C39.6017 50.1067 39.745 50.2033 39.8984 50.27C40.0584 50.3433 40.235 50.38 40.4284 50.38C40.6617 50.38 40.8617 50.3133 41.0284 50.18C41.2017 50.0533 41.365 49.8267 41.5184 49.5L41.8584 48.73L41.9384 48.62L44.0984 43.75H44.7984L42.1684 49.63C42.0217 49.97 41.8584 50.24 41.6784 50.44C41.505 50.64 41.315 50.78 41.1084 50.86C40.9017 50.9467 40.6717 50.99 40.4184 50.99ZM41.8184 49.15L39.3984 43.75H40.1384L42.2784 48.57L41.8184 49.15ZM45.9045 49V43.75H49.6245V44.37H46.4345L46.6145 44.19V49H45.9045ZM50.6506 49V43.75H51.3606V47.92L54.8706 43.75H55.5006V49H54.7906V44.82L51.2906 49H50.6506Z" fill="#DEDEDE"/>
</svg>
