<svg width="79" height="62" viewBox="0 0 79 62" fill="none" xmlns="http://www.w3.org/2000/svg">
<path d="M44.1786 18.7276L39.6868 16.1026C39.5721 16.0355 39.4417 16.0001 39.3089 16C39.1761 15.9999 39.0456 16.035 38.9308 16.1018L34.4226 18.7268C34.3092 18.7928 34.2151 18.8874 34.1497 19.0011C34.0843 19.1148 34.0498 19.2437 34.0498 19.3748V24.6248C34.0498 24.756 34.0843 24.8849 34.1497 24.9986C34.2151 25.1123 34.3092 25.2069 34.4226 25.2728L38.9308 27.8978C39.0423 27.9645 39.1699 27.9998 39.2998 27.9998C39.4303 27.9998 39.5698 27.9661 39.6868 27.8971L44.1786 25.2721C44.2915 25.206 44.3853 25.1115 44.4504 24.9979C44.5155 24.8844 44.5498 24.7558 44.5498 24.6248V19.3748C44.5498 19.2439 44.5155 19.1153 44.4504 19.0018C44.3853 18.8882 44.2915 18.7937 44.1786 18.7276ZM39.3081 17.6176L42.3133 19.3748L39.3081 21.1313L36.2908 19.3748L39.3081 17.6176ZM35.5498 20.6798L38.5498 22.4273V25.9411L35.5498 24.1936V20.6798ZM40.0498 25.9486V22.4363L43.0498 20.6828V24.1951L40.0498 25.9486Z" fill="#BD71EB"/>
<path d="M39.2998 10.75C39.167 10.7499 39.0366 10.7851 38.9218 10.852L29.9218 16.102C29.8086 16.1681 29.7146 16.2627 29.6494 16.3764C29.5841 16.4901 29.5498 16.6189 29.5498 16.75V27.25C29.5498 27.3811 29.5841 27.5099 29.6494 27.6236C29.7146 27.7373 29.8086 27.8319 29.9218 27.898L38.9218 33.148C39.0365 33.2149 39.167 33.2502 39.2998 33.2502C39.4326 33.2502 39.5631 33.2149 39.6778 33.148L47.9278 28.3353L47.1718 27.04L39.2998 31.6315L31.0498 26.8195V17.1812L39.2998 12.3685L47.5498 17.1805V22.75H49.0498V16.75C49.0498 16.6189 49.0155 16.4901 48.9502 16.3764C48.885 16.2627 48.791 16.1681 48.6778 16.102L39.6778 10.852C39.5631 10.7851 39.4326 10.7499 39.2998 10.75Z" fill="#BD71EB"/>
<path d="M22.3598 48.31C22.6998 48.4433 23.0198 48.4767 23.3198 48.41C23.6198 48.3367 23.8965 48.1 24.1498 47.7L24.4898 47.16L24.5598 47.07L27.2398 42H27.9798L24.7998 47.86C24.5865 48.2667 24.3331 48.57 24.0398 48.77C23.7531 48.97 23.4465 49.0767 23.1198 49.09C22.7998 49.1033 22.4765 49.0433 22.1498 48.91L22.3598 48.31ZM24.5398 47.74L21.5098 42H22.2998L24.9398 47.13L24.5398 47.74ZM30.7598 49.05C30.2398 49.05 29.7731 48.9367 29.3598 48.71C28.9531 48.4767 28.6331 48.16 28.3998 47.76C28.1665 47.3533 28.0498 46.89 28.0498 46.37C28.0498 45.8433 28.1665 45.38 28.3998 44.98C28.6331 44.58 28.9531 44.2667 29.3598 44.04C29.7731 43.8133 30.2398 43.7 30.7598 43.7C31.2065 43.7 31.6098 43.7867 31.9698 43.96C32.3298 44.1333 32.6131 44.3933 32.8198 44.74L32.2898 45.1C32.1098 44.8333 31.8865 44.6367 31.6198 44.51C31.3531 44.3833 31.0631 44.32 30.7498 44.32C30.3765 44.32 30.0398 44.4067 29.7398 44.58C29.4398 44.7467 29.2031 44.9833 29.0298 45.29C28.8565 45.5967 28.7698 45.9567 28.7698 46.37C28.7698 46.7833 28.8565 47.1433 29.0298 47.45C29.2031 47.7567 29.4398 47.9967 29.7398 48.17C30.0398 48.3367 30.3765 48.42 30.7498 48.42C31.0631 48.42 31.3531 48.3567 31.6198 48.23C31.8865 48.1033 32.1098 47.91 32.2898 47.65L32.8198 48.01C32.6131 48.35 32.3298 48.61 31.9698 48.79C31.6098 48.9633 31.2065 49.05 30.7598 49.05ZM33.049 48.99L33.099 48.38C33.1457 48.3867 33.189 48.3967 33.229 48.41C33.2757 48.4167 33.3157 48.42 33.349 48.42C33.5624 48.42 33.7324 48.34 33.859 48.18C33.9924 48.02 34.0924 47.8067 34.159 47.54C34.2257 47.2733 34.2724 46.9733 34.299 46.64C34.3257 46.3 34.349 45.96 34.369 45.62L34.459 43.75H38.309V49H37.599V44.16L37.779 44.37H34.919L35.089 44.15L35.009 45.67C34.989 46.1233 34.9524 46.5567 34.899 46.97C34.8524 47.3833 34.7757 47.7467 34.669 48.06C34.569 48.3733 34.429 48.62 34.249 48.8C34.069 48.9733 33.839 49.06 33.559 49.06C33.479 49.06 33.3957 49.0533 33.309 49.04C33.229 49.0267 33.1424 49.01 33.049 48.99ZM40.4174 50.99C40.1707 50.99 39.934 50.95 39.7074 50.87C39.4874 50.79 39.2974 50.67 39.1374 50.51L39.4674 49.98C39.6007 50.1067 39.744 50.2033 39.8974 50.27C40.0574 50.3433 40.234 50.38 40.4274 50.38C40.6607 50.38 40.8607 50.3133 41.0274 50.18C41.2007 50.0533 41.364 49.8267 41.5174 49.5L41.8574 48.73L41.9374 48.62L44.0974 43.75H44.7974L42.1674 49.63C42.0207 49.97 41.8574 50.24 41.6774 50.44C41.504 50.64 41.314 50.78 41.1074 50.86C40.9007 50.9467 40.6707 50.99 40.4174 50.99ZM41.8174 49.15L39.3974 43.75H40.1374L42.2774 48.57L41.8174 49.15ZM45.9036 49V43.75H49.6236V44.37H46.4336L46.6136 44.19V49H45.9036ZM50.6496 49V43.75H51.3596V47.92L54.8696 43.75H55.4996V49H54.7896V44.82L51.2896 49H50.6496Z" fill="#BD71EB"/>
</svg>
